<svg width="103" height="357" viewBox="0 0 103 357" fill="none" xmlns="http://www.w3.org/2000/svg">
<mask id="mask0_120_3805" style="mask-type:alpha" maskUnits="userSpaceOnUse" x="-183" y="0" width="286" height="357">
<path d="M1.31119 1.58454C1.31119 3.16907 -0.277699 3.16907 -0.277699 3.16907C-1.86658 3.16907 -1.86658 1.58454 -1.86658 1.58454C-1.86658 1.58454 -3.45547 0 -1.86658 0C-0.277705 0 1.31119 1.58454 1.31119 1.58454Z" fill="white"/>
<path d="M10.8442 3.16907C11.7218 3.16907 12.4331 2.45965 12.4331 1.58454C12.4331 0.709421 11.7218 0 10.8442 0C9.96673 0 9.25537 0.709421 9.25537 1.58454C9.25537 2.45965 9.96673 3.16907 10.8442 3.16907Z" fill="white"/>
<path d="M26.7336 1.58454C26.7336 3.16907 25.1447 3.16907 25.1447 3.16907C23.5558 3.16907 23.5558 1.58454 23.5558 1.58454C23.5558 1.58454 21.9669 0 23.5558 0C25.1447 0 26.7336 1.58454 26.7336 1.58454Z" fill="white"/>
<path d="M36.2666 3.16907C37.1442 3.16907 37.8555 2.45965 37.8555 1.58454C37.8555 0.709421 37.1442 0 36.2666 0C35.3891 0 34.6777 0.709421 34.6777 1.58454C34.6777 2.45965 35.3891 3.16907 36.2666 3.16907Z" fill="white"/>
<path d="M48.9776 3.16907C49.8551 3.16907 50.5665 2.45965 50.5665 1.58454C50.5665 0.709421 49.8551 0 48.9776 0C48.1 0 47.3887 0.709421 47.3887 1.58454C47.3887 2.45965 48.1 3.16907 48.9776 3.16907Z" fill="white"/>
<path d="M64.8667 1.58454C64.8667 3.16907 63.2778 3.16907 63.2778 3.16907C61.689 3.16907 61.689 1.58454 61.689 1.58454V0C63.2778 0 64.8667 1.58454 64.8667 1.58454Z" fill="white"/>
<path d="M77.5777 1.58454C77.5777 3.16907 75.9888 3.16907 75.9888 3.16907C74.3999 3.16907 74.3999 1.58454 74.3999 1.58454V0C75.9888 0 77.5777 1.58454 77.5777 1.58454Z" fill="white"/>
<path d="M88.7002 3.16907C89.5777 3.16907 90.2891 2.45965 90.2891 1.58454C90.2891 0.709421 89.5777 0 88.7002 0C87.8227 0 87.1113 0.709421 87.1113 1.58454C87.1113 2.45965 87.8227 3.16907 88.7002 3.16907Z" fill="white"/>
<path d="M103 1.58454C103 3.16907 101.411 3.16907 101.411 3.16907C99.8223 3.16907 99.8223 1.58454 99.8223 1.58454C99.8223 1.58454 99.8223 0 101.411 0L103 1.58454Z" fill="white"/>
<path d="M1.31107 15.8453C1.31107 17.4298 -0.277817 17.4298 -0.277817 17.4298C-1.86669 17.4298 -1.8667 15.8453 -1.8667 15.8453C-1.8667 14.2607 -0.277817 14.2607 -0.277817 14.2607C-0.277817 14.2607 1.31107 14.2607 1.31107 15.8453Z" fill="white"/>
<path d="M14.022 15.8453C14.022 17.4298 12.4331 17.4298 12.4331 17.4298C10.8442 17.4298 10.8442 15.8453 10.8442 15.8453C10.8442 14.2607 12.4331 14.2607 12.4331 14.2607C12.4331 14.2607 14.022 14.2607 14.022 15.8453Z" fill="white"/>
<path d="M26.7335 15.8453C26.7335 17.4298 25.1446 17.4298 25.1446 17.4298C23.5557 17.4298 23.5557 15.8453 23.5557 15.8453C23.5557 14.2607 25.1446 14.2607 25.1446 14.2607C25.1446 14.2607 26.7335 14.2607 26.7335 15.8453Z" fill="white"/>
<path d="M39.4444 15.8453C39.4444 17.4298 37.8555 17.4298 37.8555 17.4298C36.2666 17.4298 36.2666 15.8453 36.2666 15.8453C36.2666 14.2607 37.8555 14.2607 37.8555 14.2607C37.8555 14.2607 39.4444 14.2607 39.4444 15.8453Z" fill="white"/>
<path d="M52.1553 15.8453C52.1553 17.4298 50.5664 17.4298 50.5664 17.4298C48.9775 17.4298 48.9775 15.8453 48.9775 15.8453C48.9775 14.2607 50.5664 14.2607 50.5664 14.2607C50.5664 14.2607 52.1553 14.2607 52.1553 15.8453Z" fill="white"/>
<path d="M64.8667 15.8453C64.8667 17.4298 63.2778 17.4298 63.2778 17.4298C61.689 17.4298 61.689 15.8453 61.689 15.8453C61.689 14.2607 63.2778 14.2607 63.2778 14.2607C63.2778 14.2607 64.8667 14.2607 64.8667 15.8453Z" fill="white"/>
<path d="M77.5777 15.8453C77.5777 17.4298 75.9888 17.4298 75.9888 17.4298C74.3999 17.4298 74.3999 15.8453 74.3999 15.8453C74.3999 14.2607 75.9888 14.2607 75.9888 14.2607C75.9888 14.2607 77.5777 14.2607 77.5777 15.8453Z" fill="white"/>
<path d="M90.2891 15.8453C90.2891 17.4298 88.7002 17.4298 88.7002 17.4298C87.1113 17.4298 87.1113 15.8453 87.1113 15.8453C87.1113 14.2607 88.7002 14.2607 88.7002 14.2607C88.7002 14.2607 90.2891 14.2607 90.2891 15.8453Z" fill="white"/>
<path d="M103 15.8453C103 17.4298 101.411 17.4298 101.411 17.4298C99.8223 17.4298 99.8223 15.8453 99.8223 15.8453C99.8223 14.2607 101.411 14.2607 101.411 14.2607C101.411 14.2607 103 14.2607 103 15.8453Z" fill="white"/>
<path d="M1.31107 28.5215C1.31107 30.1061 -0.277817 30.1061 -0.277817 30.1061C-1.86669 30.1061 -1.8667 28.5215 -1.8667 28.5215C-1.8667 26.937 -0.277817 26.937 -0.277817 26.937L1.31107 28.5215Z" fill="white"/>
<path d="M10.8442 30.1061C11.7218 30.1061 12.4331 29.3967 12.4331 28.5215C12.4331 27.6464 11.7218 26.937 10.8442 26.937C9.96673 26.937 9.25537 27.6464 9.25537 28.5215C9.25537 29.3967 9.96673 30.1061 10.8442 30.1061Z" fill="white"/>
<path d="M26.7335 28.5216C26.7335 30.1062 25.1446 31.6907 23.5557 31.6907C21.9668 31.6907 21.9668 30.1062 21.9668 30.1062C21.9668 28.5216 23.5557 28.5216 23.5557 28.5216C25.1446 26.9371 26.7335 28.5216 26.7335 28.5216Z" fill="white"/>
<path d="M36.2666 30.1061C37.1442 30.1061 37.8555 29.3967 37.8555 28.5215C37.8555 27.6464 37.1442 26.937 36.2666 26.937C35.3891 26.937 34.6777 27.6464 34.6777 28.5215C34.6777 29.3967 35.3891 30.1061 36.2666 30.1061Z" fill="white"/>
<path d="M48.9776 30.1061C49.8551 30.1061 50.5665 29.3967 50.5665 28.5215C50.5665 27.6464 49.8551 26.937 48.9776 26.937C48.1 26.937 47.3887 27.6464 47.3887 28.5215C47.3887 29.3967 48.1 30.1061 48.9776 30.1061Z" fill="white"/>
<path d="M64.8667 28.5215C64.8667 30.1061 63.2778 30.1061 63.2778 30.1061C61.689 30.1061 61.689 28.5215 61.689 28.5215C61.689 26.937 63.2778 26.937 63.2778 26.937L64.8667 28.5215Z" fill="white"/>
<path d="M77.5777 28.5215C77.5777 30.1061 75.9888 30.1061 75.9888 30.1061C74.3999 30.1061 74.3999 28.5215 74.3999 28.5215C74.3999 26.937 75.9888 26.937 75.9888 26.937C75.9888 26.937 77.5777 28.5215 77.5777 28.5215Z" fill="white"/>
<path d="M88.7002 30.1061C89.5777 30.1061 90.2891 29.3967 90.2891 28.5215C90.2891 27.6464 89.5777 26.937 88.7002 26.937C87.8227 26.937 87.1113 27.6464 87.1113 28.5215C87.1113 29.3967 87.8227 30.1061 88.7002 30.1061Z" fill="white"/>
<path d="M103 28.5216C103 30.1062 101.411 31.6907 101.411 31.6907C99.8223 31.6907 99.8223 30.1062 99.8223 30.1062C99.8223 28.5216 101.411 28.5216 101.411 28.5216C101.411 26.9371 103 28.5216 103 28.5216Z" fill="white"/>
<path d="M1.31107 42.7823C1.31107 44.3668 -0.277817 44.3668 -0.277817 44.3668C-1.86669 44.3668 -1.8667 42.7823 -1.8667 42.7823C-1.8667 41.1978 -0.277817 41.1978 -0.277817 41.1978C-0.277817 41.1978 1.31107 41.1978 1.31107 42.7823Z" fill="white"/>
<path d="M10.8442 44.3668C11.7218 44.3668 12.4331 43.6574 12.4331 42.7823C12.4331 41.9072 11.7218 41.1978 10.8442 41.1978C9.96673 41.1978 9.25537 41.9072 9.25537 42.7823C9.25537 43.6574 9.96673 44.3668 10.8442 44.3668Z" fill="white"/>
<path d="M26.7335 42.7823C26.7335 44.3668 25.1446 44.3668 25.1446 44.3668C23.5557 44.3668 23.5557 42.7823 23.5557 42.7823C23.5557 41.1978 25.1446 41.1978 25.1446 41.1978C25.1446 41.1978 26.7335 41.1978 26.7335 42.7823Z" fill="white"/>
<path d="M36.2666 44.3668C37.1442 44.3668 37.8555 43.6574 37.8555 42.7823C37.8555 41.9072 37.1442 41.1978 36.2666 41.1978C35.3891 41.1978 34.6777 41.9072 34.6777 42.7823C34.6777 43.6574 35.3891 44.3668 36.2666 44.3668Z" fill="white"/>
<path d="M48.9776 44.3668C49.8551 44.3668 50.5665 43.6574 50.5665 42.7823C50.5665 41.9072 49.8551 41.1978 48.9776 41.1978C48.1 41.1978 47.3887 41.9072 47.3887 42.7823C47.3887 43.6574 48.1 44.3668 48.9776 44.3668Z" fill="white"/>
<path d="M64.8667 42.7823C64.8667 44.3668 63.2778 44.3668 63.2778 44.3668C61.689 44.3668 61.689 42.7823 61.689 42.7823C61.689 41.1978 63.2778 41.1978 63.2778 41.1978C63.2778 41.1978 64.8667 41.1978 64.8667 42.7823Z" fill="white"/>
<path d="M77.5777 42.7823C77.5777 44.3668 75.9888 44.3668 75.9888 44.3668C74.3999 44.3668 74.3999 42.7823 74.3999 42.7823C74.3999 41.1978 75.9888 41.1978 75.9888 41.1978C75.9888 41.1978 77.5777 41.1978 77.5777 42.7823Z" fill="white"/>
<path d="M88.7002 44.3668C89.5777 44.3668 90.2891 43.6574 90.2891 42.7823C90.2891 41.9072 89.5777 41.1978 88.7002 41.1978C87.8227 41.1978 87.1113 41.9072 87.1113 42.7823C87.1113 43.6574 87.8227 44.3668 88.7002 44.3668Z" fill="white"/>
<path d="M103 42.7823C103 44.3668 101.411 44.3668 101.411 44.3668C99.8223 44.3668 99.8223 42.7823 99.8223 42.7823C99.8223 41.1978 101.411 41.1978 101.411 41.1978C101.411 41.1978 103 41.1978 103 42.7823Z" fill="white"/>
<path d="M1.31107 57.0431C1.31107 58.6277 -0.277817 58.6277 -0.277817 58.6277C-1.86669 58.6277 -1.8667 57.0431 -1.8667 57.0431L-0.277817 55.4586C-0.277817 53.874 1.31107 55.4586 1.31107 57.0431Z" fill="white"/>
<path d="M10.8442 58.6281C11.7218 58.6281 12.4331 57.9186 12.4331 57.0435C12.4331 56.1684 11.7218 55.459 10.8442 55.459C9.96673 55.459 9.25537 56.1684 9.25537 57.0435C9.25537 57.9186 9.96673 58.6281 10.8442 58.6281Z" fill="white"/>
<path d="M26.7335 57.0431C26.7335 58.6277 25.1446 58.6277 25.1446 58.6277C23.5557 58.6277 23.5557 57.0431 23.5557 57.0431L25.1446 55.4586C25.1446 53.874 26.7335 55.4586 26.7335 57.0431Z" fill="white"/>
<path d="M36.2666 58.6281C37.1442 58.6281 37.8555 57.9186 37.8555 57.0435C37.8555 56.1684 37.1442 55.459 36.2666 55.459C35.3891 55.459 34.6777 56.1684 34.6777 57.0435C34.6777 57.9186 35.3891 58.6281 36.2666 58.6281Z" fill="white"/>
<path d="M48.9776 58.6281C49.8551 58.6281 50.5665 57.9186 50.5665 57.0435C50.5665 56.1684 49.8551 55.459 48.9776 55.459C48.1 55.459 47.3887 56.1684 47.3887 57.0435C47.3887 57.9186 48.1 58.6281 48.9776 58.6281Z" fill="white"/>
<path d="M64.8667 57.0431C64.8667 58.6277 63.2778 58.6277 63.2778 58.6277C61.689 58.6277 61.689 57.0431 61.689 57.0431L63.2778 55.4586C63.2778 53.874 64.8667 55.4586 64.8667 57.0431Z" fill="white"/>
<path d="M77.5777 57.0431C77.5777 58.6277 75.9888 58.6277 75.9888 58.6277C74.3999 58.6277 74.3999 57.0431 74.3999 57.0431L75.9888 55.4586C75.9888 53.874 77.5777 55.4586 77.5777 57.0431Z" fill="white"/>
<path d="M88.7002 58.6281C89.5777 58.6281 90.2891 57.9186 90.2891 57.0435C90.2891 56.1684 89.5777 55.459 88.7002 55.459C87.8227 55.459 87.1113 56.1684 87.1113 57.0435C87.1113 57.9186 87.8227 58.6281 88.7002 58.6281Z" fill="white"/>
<path d="M103 57.0431C103 58.6277 101.411 58.6277 101.411 58.6277C99.8223 58.6277 99.8223 57.0431 99.8223 57.0431L101.411 55.4586C101.411 53.874 103 55.4586 103 57.0431Z" fill="white"/>
<path d="M1.31107 69.7198C1.31107 71.3043 -0.277817 71.3043 -0.277817 71.3043C-1.86669 71.3043 -1.8667 69.7198 -1.8667 69.7198C-1.8667 68.1353 -0.277817 68.1353 -0.277817 68.1353C-0.277817 68.1353 1.31107 68.1353 1.31107 69.7198Z" fill="white"/>
<path d="M14.022 69.7198C14.022 71.3043 12.4331 71.3043 12.4331 71.3043C10.8442 71.3043 10.8442 69.7198 10.8442 69.7198C10.8442 68.1353 12.4331 68.1353 12.4331 68.1353C12.4331 68.1353 14.022 68.1353 14.022 69.7198Z" fill="white"/>
<path d="M26.7335 69.7198C26.7335 71.3043 25.1446 71.3043 25.1446 71.3043C23.5557 71.3043 23.5557 69.7198 23.5557 69.7198C23.5557 68.1353 25.1446 68.1353 25.1446 68.1353C25.1446 68.1353 26.7335 68.1353 26.7335 69.7198Z" fill="white"/>
<path d="M39.4444 69.7198C39.4444 71.3043 37.8555 71.3043 37.8555 71.3043C36.2666 71.3043 36.2666 69.7198 36.2666 69.7198C36.2666 68.1353 37.8555 68.1353 37.8555 68.1353C37.8555 68.1353 39.4444 68.1353 39.4444 69.7198Z" fill="white"/>
<path d="M52.1553 69.7198C52.1553 71.3043 50.5664 71.3043 50.5664 71.3043C48.9775 71.3043 48.9775 69.7198 48.9775 69.7198C48.9775 68.1353 50.5664 68.1353 50.5664 68.1353C50.5664 68.1353 52.1553 68.1353 52.1553 69.7198Z" fill="white"/>
<path d="M64.8667 69.7198C64.8667 71.3043 63.2778 71.3043 63.2778 71.3043C61.689 71.3043 61.689 69.7198 61.689 69.7198C61.689 68.1353 63.2778 68.1353 63.2778 68.1353C63.2778 68.1353 64.8667 68.1353 64.8667 69.7198Z" fill="white"/>
<path d="M77.5777 69.7198C77.5777 71.3043 75.9888 71.3043 75.9888 71.3043C74.3999 71.3043 74.3999 69.7198 74.3999 69.7198C74.3999 68.1353 75.9888 68.1353 75.9888 68.1353C75.9888 68.1353 77.5777 68.1353 77.5777 69.7198Z" fill="white"/>
<path d="M90.2891 69.7198C90.2891 71.3043 88.7002 71.3043 88.7002 71.3043C87.1113 71.3043 87.1113 69.7198 87.1113 69.7198C87.1113 68.1353 88.7002 68.1353 88.7002 68.1353C88.7002 68.1353 90.2891 68.1353 90.2891 69.7198Z" fill="white"/>
<path d="M103 69.7198C103 71.3043 101.411 71.3043 101.411 71.3043C99.8223 71.3043 99.8223 69.7198 99.8223 69.7198C99.8223 68.1353 101.411 68.1353 101.411 68.1353C101.411 68.1353 103 68.1353 103 69.7198Z" fill="white"/>
<path d="M1.31107 83.9806C1.31107 85.5652 -0.277817 85.5652 -0.277817 85.5652C-1.86669 85.5652 -1.8667 83.9806 -1.8667 83.9806C-1.8667 82.3961 -0.277817 82.3961 -0.277817 82.3961C-0.277817 80.8115 1.31107 82.3961 1.31107 83.9806Z" fill="white"/>
<path d="M14.022 83.9806C14.022 85.5652 12.4331 85.5652 12.4331 85.5652C10.8442 85.5652 10.8442 83.9806 10.8442 83.9806C10.8442 82.3961 12.4331 82.3961 12.4331 82.3961C12.4331 80.8115 14.022 82.3961 14.022 83.9806Z" fill="white"/>
<path d="M26.7335 83.9806C26.7335 85.5652 25.1446 85.5652 25.1446 85.5652C23.5557 85.5652 23.5557 83.9806 23.5557 83.9806C23.5557 82.3961 25.1446 82.3961 25.1446 82.3961C25.1446 80.8115 26.7335 82.3961 26.7335 83.9806Z" fill="white"/>
<path d="M39.4444 83.9806C39.4444 85.5652 37.8555 85.5652 37.8555 85.5652C36.2666 85.5652 36.2666 83.9806 36.2666 83.9806C36.2666 82.3961 37.8555 82.3961 37.8555 82.3961C37.8555 80.8115 39.4444 82.3961 39.4444 83.9806Z" fill="white"/>
<path d="M52.1553 83.9806C52.1553 85.5652 50.5664 85.5652 50.5664 85.5652C48.9775 85.5652 48.9775 83.9806 48.9775 83.9806C48.9775 82.3961 50.5664 82.3961 50.5664 82.3961C50.5664 80.8115 52.1553 82.3961 52.1553 83.9806Z" fill="white"/>
<path d="M64.8667 83.9806C64.8667 85.5652 63.2778 85.5652 63.2778 85.5652C61.689 85.5652 61.689 83.9806 61.689 83.9806C61.689 82.3961 63.2778 82.3961 63.2778 82.3961C63.2778 80.8115 64.8667 82.3961 64.8667 83.9806Z" fill="white"/>
<path d="M77.5777 83.9806C77.5777 85.5652 75.9888 85.5652 75.9888 85.5652C74.3999 85.5652 74.3999 83.9806 74.3999 83.9806C74.3999 82.3961 75.9888 82.3961 75.9888 82.3961C75.9888 80.8115 77.5777 82.3961 77.5777 83.9806Z" fill="white"/>
<path d="M90.2891 83.9806C90.2891 85.5652 88.7002 85.5652 88.7002 85.5652C87.1113 85.5652 87.1113 83.9806 87.1113 83.9806C87.1113 82.3961 88.7002 82.3961 88.7002 82.3961C88.7002 80.8115 90.2891 82.3961 90.2891 83.9806Z" fill="white"/>
<path d="M103 83.9806C103 85.5652 101.411 85.5652 101.411 85.5652C99.8223 85.5652 99.8223 83.9806 99.8223 83.9806C99.8223 82.3961 101.411 82.3961 101.411 82.3961C101.411 80.8115 103 82.3961 103 83.9806Z" fill="white"/>
<path d="M1.31131 96.6568C1.31131 98.2413 -0.27757 98.2413 -0.27757 98.2413C-1.86644 98.2413 -1.86645 96.6568 -1.86645 96.6568C-3.45532 95.0723 -3.45532 95.0723 -1.86645 95.0723C-0.277576 95.0723 1.31131 95.0723 1.31131 96.6568Z" fill="white"/>
<path d="M14.0223 96.6568C14.0223 98.2413 12.4334 98.2413 12.4334 98.2413C10.8445 98.2413 10.8445 96.6568 10.8445 96.6568C9.25561 95.0723 9.25561 95.0723 10.8445 95.0723C12.4334 95.0723 14.0223 95.0723 14.0223 96.6568Z" fill="white"/>
<path d="M26.7332 96.6568C26.7332 98.2413 25.1443 98.2413 25.1443 98.2413C23.5554 98.2413 23.5554 96.6568 23.5554 96.6568C21.9665 95.0723 21.9665 95.0723 23.5554 95.0723C25.1443 95.0723 26.7332 95.0723 26.7332 96.6568Z" fill="white"/>
<path d="M39.4445 96.6568C39.4445 98.2413 37.8556 98.2413 37.8556 98.2413C36.2667 98.2413 36.2667 96.6568 36.2667 96.6568C34.6778 95.0723 36.2667 95.0723 36.2667 95.0723C37.8556 95.0723 39.4445 95.0723 39.4445 96.6568Z" fill="white"/>
<path d="M52.1554 96.6568C52.1554 98.2413 50.5665 98.2413 50.5665 98.2413C48.9776 98.2413 48.9777 96.6568 48.9777 96.6568C47.3888 95.0723 48.9777 95.0723 48.9777 95.0723C50.5665 95.0723 52.1554 95.0723 52.1554 96.6568Z" fill="white"/>
<path d="M64.8669 96.6568C64.8669 98.2413 63.278 98.2413 63.278 98.2413C61.6891 98.2413 61.6891 96.6568 61.6891 96.6568C60.1002 95.0723 61.6891 95.0723 61.6891 95.0723C63.278 95.0723 64.8669 95.0723 64.8669 96.6568Z" fill="white"/>
<path d="M77.5778 96.6568C77.5778 98.2413 75.9889 98.2413 75.9889 98.2413C74.4 98.2413 74.4 96.6568 74.4 96.6568C72.8111 95.0723 74.4 95.0723 74.4 95.0723C75.9889 95.0723 77.5778 95.0723 77.5778 96.6568Z" fill="white"/>
<path d="M90.2891 96.6568C90.2891 98.2413 88.7002 98.2413 88.7002 98.2413C87.1113 98.2413 87.1113 96.6568 87.1113 96.6568C85.5224 95.0723 87.1113 95.0723 88.7002 95.0723C88.7002 95.0723 90.2891 95.0723 90.2891 96.6568Z" fill="white"/>
<path d="M103 96.6568C103 98.2413 101.411 98.2413 101.411 98.2413C99.8222 98.2413 99.8222 96.6568 99.8222 96.6568C98.2333 95.0723 99.8222 95.0723 101.411 95.0723C101.411 95.0723 103 95.0723 103 96.6568Z" fill="white"/>
<path d="M1.31107 110.918C1.31107 112.502 -0.277817 112.502 -0.277817 112.502C-1.86669 112.502 -1.8667 110.918 -1.8667 110.918C-1.8667 109.333 -0.277817 109.333 -0.277817 109.333C-0.277817 107.749 1.31107 109.333 1.31107 110.918Z" fill="white"/>
<path d="M14.022 110.918C14.022 112.502 12.4331 112.502 12.4331 112.502C10.8442 112.502 10.8442 110.918 10.8442 110.918C10.8442 109.333 12.4331 109.333 12.4331 109.333C12.4331 107.749 14.022 109.333 14.022 110.918Z" fill="white"/>
<path d="M26.7335 110.918C26.7335 112.502 25.1446 112.502 25.1446 112.502C23.5557 112.502 23.5557 110.918 23.5557 110.918C23.5557 109.333 25.1446 109.333 25.1446 109.333C25.1446 107.749 26.7335 109.333 26.7335 110.918Z" fill="white"/>
<path d="M39.4444 110.918C39.4444 112.502 37.8555 112.502 37.8555 112.502C36.2666 112.502 36.2666 110.918 36.2666 110.918C36.2666 109.333 37.8555 109.333 37.8555 109.333C37.8555 107.749 39.4444 109.333 39.4444 110.918Z" fill="white"/>
<path d="M52.1553 110.918C52.1553 112.502 50.5664 112.502 50.5664 112.502C48.9775 112.502 48.9775 110.918 48.9775 110.918C48.9775 109.333 50.5664 109.333 50.5664 109.333C50.5664 107.749 52.1553 109.333 52.1553 110.918Z" fill="white"/>
<path d="M64.8667 110.918C64.8667 112.502 63.2778 112.502 63.2778 112.502C61.689 112.502 61.689 110.918 61.689 110.918C61.689 109.333 63.2778 109.333 63.2778 109.333C63.2778 107.749 64.8667 109.333 64.8667 110.918Z" fill="white"/>
<path d="M77.5777 110.918C77.5777 112.502 75.9888 112.502 75.9888 112.502C74.3999 112.502 74.3999 110.918 74.3999 110.918C74.3999 109.333 75.9888 109.333 75.9888 109.333C75.9888 107.749 77.5777 109.333 77.5777 110.918Z" fill="white"/>
<path d="M90.2891 110.918C90.2891 112.502 88.7002 112.502 88.7002 112.502C87.1114 112.502 85.5225 110.918 85.5225 110.918C85.5225 109.333 87.1113 109.333 87.1113 109.333C88.7002 107.749 90.2891 109.333 90.2891 110.918Z" fill="white"/>
<path d="M103 110.918C103 112.502 101.411 112.502 101.411 112.502C99.8223 112.502 99.8223 110.918 99.8223 110.918C99.8223 109.333 101.411 109.333 101.411 109.333C101.411 107.749 103 109.333 103 110.918Z" fill="white"/>
<path d="M1.31107 123.594C1.31107 125.178 -0.277817 125.178 -0.277817 125.178C-1.86669 125.178 -1.8667 123.594 -1.8667 123.594C-1.8667 122.009 -0.277817 122.009 -0.277817 122.009C-0.277817 122.009 1.31107 122.009 1.31107 123.594Z" fill="white"/>
<path d="M14.022 123.594C14.022 125.178 12.4331 125.178 12.4331 125.178C10.8442 125.178 10.8442 123.594 10.8442 123.594C10.8442 122.009 12.4331 122.009 12.4331 122.009C12.4331 122.009 14.022 122.009 14.022 123.594Z" fill="white"/>
<path d="M26.7335 123.594C26.7335 125.178 25.1446 126.763 23.5557 126.763C21.9668 126.763 21.9668 125.178 21.9668 125.178C21.9668 123.594 23.5557 123.594 23.5557 123.594C25.1446 122.009 26.7335 122.009 26.7335 123.594Z" fill="white"/>
<path d="M39.4444 123.594C39.4444 125.178 37.8555 126.763 36.2666 126.763C34.6777 126.763 34.6777 125.178 34.6777 125.178C34.6777 123.594 36.2666 123.594 36.2666 123.594C37.8555 122.009 39.4444 122.009 39.4444 123.594Z" fill="white"/>
<path d="M52.1553 123.594C52.1553 125.178 50.5664 125.178 50.5664 125.178C48.9775 125.178 48.9775 123.594 48.9775 123.594C48.9775 122.009 50.5664 122.009 50.5664 122.009C50.5664 122.009 52.1553 122.009 52.1553 123.594Z" fill="white"/>
<path d="M64.8667 123.594C64.8667 125.178 63.2778 125.178 63.2778 125.178C61.689 125.178 61.689 123.594 61.689 123.594C61.689 122.009 63.2778 122.009 63.2778 122.009C63.2778 122.009 64.8667 122.009 64.8667 123.594Z" fill="white"/>
<path d="M77.5777 123.594C77.5777 125.178 75.9888 125.178 75.9888 125.178C74.3999 125.178 74.3999 123.594 74.3999 123.594C74.3999 122.009 75.9888 122.009 75.9888 122.009C75.9888 122.009 77.5777 122.009 77.5777 123.594Z" fill="white"/>
<path d="M90.2891 123.594C90.2891 125.178 88.7002 125.178 88.7002 125.178C87.1113 125.178 87.1113 123.594 87.1113 123.594C87.1113 122.009 88.7002 122.009 88.7002 122.009C88.7002 122.009 90.2891 122.009 90.2891 123.594Z" fill="white"/>
<path d="M103 123.594C103 125.178 101.411 126.763 101.411 126.763C99.8223 126.763 99.8223 125.178 99.8223 125.178C99.8223 123.594 101.411 123.594 101.411 123.594C101.411 122.009 103 122.009 103 123.594Z" fill="white"/>
<path d="M1.31107 137.855C1.31107 139.439 -0.277817 139.439 -0.277817 139.439C-1.86669 139.439 -1.8667 137.855 -1.8667 137.855C-1.8667 136.27 -0.277817 136.27 -0.277817 136.27C-0.277817 134.686 1.31107 136.27 1.31107 137.855Z" fill="white"/>
<path d="M14.022 137.855C14.022 139.439 12.4331 139.439 12.4331 139.439C10.8442 139.439 10.8442 137.855 10.8442 137.855C10.8442 136.27 12.4331 136.27 12.4331 136.27C12.4331 134.686 14.022 136.27 14.022 137.855Z" fill="white"/>
<path d="M26.7335 137.855C26.7335 139.439 25.1446 139.439 25.1446 139.439C23.5557 139.439 23.5557 137.855 23.5557 137.855C23.5557 136.27 25.1446 136.27 25.1446 136.27C25.1446 134.686 26.7335 136.27 26.7335 137.855Z" fill="white"/>
<path d="M39.4444 137.855C39.4444 139.439 37.8555 139.439 37.8555 139.439C36.2666 139.439 36.2666 137.855 36.2666 137.855C36.2666 136.27 37.8555 136.27 37.8555 136.27C37.8555 134.686 39.4444 136.27 39.4444 137.855Z" fill="white"/>
<path d="M52.1553 137.855C52.1553 139.439 50.5664 139.439 50.5664 139.439C48.9775 139.439 48.9775 137.855 48.9775 137.855C48.9775 136.27 50.5664 136.27 50.5664 136.27C50.5664 134.686 52.1553 136.27 52.1553 137.855Z" fill="white"/>
<path d="M64.8667 137.855C64.8667 139.439 63.2778 139.439 63.2778 139.439C61.689 139.439 61.689 137.855 61.689 137.855C61.689 136.27 63.2778 136.27 63.2778 136.27C63.2778 134.686 64.8667 136.27 64.8667 137.855Z" fill="white"/>
<path d="M77.5777 137.855C77.5777 139.439 75.9888 139.439 75.9888 139.439C74.3999 139.439 74.3999 137.855 74.3999 137.855C74.3999 136.27 75.9888 136.27 75.9888 136.27C75.9888 134.686 77.5777 136.27 77.5777 137.855Z" fill="white"/>
<path d="M90.2891 137.855C90.2891 139.439 88.7002 139.439 88.7002 139.439C87.1113 139.439 87.1113 137.855 87.1113 137.855C87.1113 136.27 88.7002 136.27 88.7002 136.27C88.7002 134.686 90.2891 136.27 90.2891 137.855Z" fill="white"/>
<path d="M103 137.855C103 139.439 101.411 139.439 101.411 139.439C99.8223 139.439 99.8223 137.855 99.8223 137.855C99.8223 136.27 101.411 136.27 101.411 136.27C101.411 134.686 103 136.27 103 137.855Z" fill="white"/>
<path d="M1.31107 150.531C1.31107 152.115 -0.277817 152.115 -0.277817 152.115C-1.86669 152.115 -1.8667 150.531 -1.8667 150.531C-1.8667 148.946 -0.277817 148.946 -0.277817 148.946C-0.277817 148.946 1.31107 148.946 1.31107 150.531Z" fill="white"/>
<path d="M10.8442 152.115C11.7218 152.115 12.4331 151.406 12.4331 150.531C12.4331 149.656 11.7218 148.946 10.8442 148.946C9.96673 148.946 9.25537 149.656 9.25537 150.531C9.25537 151.406 9.96673 152.115 10.8442 152.115Z" fill="white"/>
<path d="M26.7335 150.531C26.7335 152.115 25.1446 152.115 25.1446 152.115C23.5557 152.115 23.5557 150.531 23.5557 150.531C23.5557 148.946 25.1446 148.946 25.1446 148.946C25.1446 148.946 26.7335 148.946 26.7335 150.531Z" fill="white"/>
<path d="M36.2666 152.115C37.1442 152.115 37.8555 151.406 37.8555 150.531C37.8555 149.656 37.1442 148.946 36.2666 148.946C35.3891 148.946 34.6777 149.656 34.6777 150.531C34.6777 151.406 35.3891 152.115 36.2666 152.115Z" fill="white"/>
<path d="M48.9776 152.115C49.8551 152.115 50.5665 151.406 50.5665 150.531C50.5665 149.656 49.8551 148.946 48.9776 148.946C48.1 148.946 47.3887 149.656 47.3887 150.531C47.3887 151.406 48.1 152.115 48.9776 152.115Z" fill="white"/>
<path d="M64.8667 150.531C64.8667 152.115 63.2778 152.115 63.2778 152.115C61.689 152.115 61.689 150.531 61.689 150.531C61.689 148.946 63.2778 148.946 63.2778 148.946C63.2778 148.946 64.8667 148.946 64.8667 150.531Z" fill="white"/>
<path d="M77.5777 150.531C77.5777 152.115 75.9888 152.115 75.9888 152.115C74.3999 152.115 74.3999 150.531 74.3999 150.531C74.3999 148.946 75.9888 148.946 75.9888 148.946C75.9888 148.946 77.5777 148.946 77.5777 150.531Z" fill="white"/>
<path d="M88.7002 152.115C89.5777 152.115 90.2891 151.406 90.2891 150.531C90.2891 149.656 89.5777 148.946 88.7002 148.946C87.8227 148.946 87.1113 149.656 87.1113 150.531C87.1113 151.406 87.8227 152.115 88.7002 152.115Z" fill="white"/>
<path d="M103 150.531C103 152.115 101.411 152.115 101.411 152.115C99.8223 152.115 99.8223 150.531 99.8223 150.531C99.8223 148.946 101.411 148.946 101.411 148.946C101.411 148.946 103 148.946 103 150.531Z" fill="white"/>
<path d="M1.31107 164.792C1.31107 166.376 -0.277817 166.376 -0.277817 166.376C-1.86669 166.376 -1.8667 164.792 -1.8667 164.792C-1.8667 163.207 -0.277817 163.207 -0.277817 163.207C-0.277817 161.623 1.31107 163.207 1.31107 164.792Z" fill="white"/>
<path d="M14.022 164.792C14.022 166.376 12.4331 166.376 12.4331 166.376C10.8442 166.376 10.8442 164.792 10.8442 164.792C10.8442 163.207 12.4331 163.207 12.4331 163.207C12.4331 161.623 14.022 163.207 14.022 164.792Z" fill="white"/>
<path d="M26.7335 164.792C26.7335 166.376 25.1446 166.376 25.1446 166.376C23.5557 166.376 23.5557 164.792 23.5557 164.792C23.5557 163.207 25.1446 163.207 25.1446 163.207C25.1446 161.623 26.7335 163.207 26.7335 164.792Z" fill="white"/>
<path d="M39.4444 164.792C39.4444 166.376 37.8555 166.376 37.8555 166.376C36.2666 166.376 36.2666 164.792 36.2666 164.792C36.2666 163.207 37.8555 163.207 37.8555 163.207C37.8555 161.623 39.4444 163.207 39.4444 164.792Z" fill="white"/>
<path d="M52.1553 164.792C52.1553 166.376 50.5664 166.376 50.5664 166.376C48.9775 166.376 48.9775 164.792 48.9775 164.792C48.9775 163.207 50.5664 163.207 50.5664 163.207C50.5664 161.623 52.1553 163.207 52.1553 164.792Z" fill="white"/>
<path d="M64.8667 164.792C64.8667 166.376 63.2778 166.376 63.2778 166.376C61.689 166.376 61.689 164.792 61.689 164.792C61.689 163.207 63.2778 163.207 63.2778 163.207C63.2778 161.623 64.8667 163.207 64.8667 164.792Z" fill="white"/>
<path d="M77.5777 164.792C77.5777 166.376 75.9888 166.376 75.9888 166.376C74.3999 166.376 74.3999 164.792 74.3999 164.792C74.3999 163.207 75.9888 163.207 75.9888 163.207C75.9888 161.623 77.5777 163.207 77.5777 164.792Z" fill="white"/>
<path d="M90.2891 164.792C90.2891 166.376 88.7002 166.376 88.7002 166.376C87.1113 166.376 87.1113 164.792 87.1113 164.792C87.1113 163.207 88.7002 163.207 88.7002 163.207C88.7002 161.623 90.2891 163.207 90.2891 164.792Z" fill="white"/>
<path d="M103 164.792C103 166.376 101.411 166.376 101.411 166.376C99.8223 166.376 99.8223 164.792 99.8223 164.792C99.8223 163.207 101.411 163.207 101.411 163.207C101.411 161.623 103 163.207 103 164.792Z" fill="white"/>
<path d="M1.31107 177.468C1.31107 179.052 -0.277817 179.052 -0.277817 179.052C-1.86669 179.052 -1.8667 177.468 -1.8667 177.468C-1.8667 175.883 -0.277817 175.883 -0.277817 175.883C-0.277817 175.883 1.31107 175.883 1.31107 177.468Z" fill="white"/>
<path d="M14.022 177.468C14.022 179.052 12.4331 179.052 12.4331 179.052C10.8442 179.052 10.8442 177.468 10.8442 177.468C10.8442 175.883 12.4331 175.883 12.4331 175.883C12.4331 175.883 14.022 175.883 14.022 177.468Z" fill="white"/>
<path d="M26.7335 177.468C26.7335 179.052 25.1446 179.052 25.1446 179.052C23.5557 179.052 23.5557 177.468 23.5557 177.468C23.5557 175.883 25.1446 175.883 25.1446 175.883C25.1446 175.883 26.7335 175.883 26.7335 177.468Z" fill="white"/>
<path d="M39.4444 177.468C39.4444 179.052 37.8555 179.052 37.8555 179.052C36.2666 179.052 36.2666 177.468 36.2666 177.468C36.2666 175.883 37.8555 175.883 37.8555 175.883C37.8555 175.883 39.4444 175.883 39.4444 177.468Z" fill="white"/>
<path d="M52.1553 177.468C52.1553 179.052 50.5664 179.052 50.5664 179.052C48.9775 179.052 48.9775 177.468 48.9775 177.468C48.9775 175.883 50.5664 175.883 50.5664 175.883C50.5664 175.883 52.1553 175.883 52.1553 177.468Z" fill="white"/>
<path d="M64.8667 177.468C64.8667 179.052 63.2778 179.052 63.2778 179.052C61.689 179.052 61.689 177.468 61.689 177.468C61.689 175.883 63.2778 175.883 63.2778 175.883C63.2778 175.883 64.8667 175.883 64.8667 177.468Z" fill="white"/>
<path d="M77.5777 177.468C77.5777 179.052 75.9888 179.052 75.9888 179.052C74.3999 179.052 74.3999 177.468 74.3999 177.468C74.3999 175.883 75.9888 175.883 75.9888 175.883C75.9888 175.883 77.5777 175.883 77.5777 177.468Z" fill="white"/>
<path d="M90.2891 177.468C90.2891 179.052 88.7002 179.052 88.7002 179.052C87.1113 179.052 87.1113 177.468 87.1113 177.468C87.1113 175.883 88.7002 175.883 88.7002 175.883C88.7002 175.883 90.2891 175.883 90.2891 177.468Z" fill="white"/>
<path d="M103 177.468C103 179.052 101.411 179.052 101.411 179.052C99.8223 179.052 99.8223 177.468 99.8223 177.468C99.8223 175.883 101.411 175.883 101.411 175.883C101.411 175.883 103 175.883 103 177.468Z" fill="white"/>
<path d="M1.31107 191.729C1.31107 193.313 -0.277817 193.313 -0.277817 193.313C-1.86669 193.313 -1.8667 191.729 -1.8667 191.729C-1.8667 190.144 -0.277817 190.144 -0.277817 190.144C-0.277817 188.56 1.31107 190.144 1.31107 191.729Z" fill="white"/>
<path d="M14.022 191.729C14.022 193.313 12.4331 193.313 12.4331 193.313C10.8442 193.313 10.8442 191.729 10.8442 191.729C10.8442 190.144 12.4331 190.144 12.4331 190.144C12.4331 188.56 14.022 190.144 14.022 191.729Z" fill="white"/>
<path d="M26.7335 191.729C26.7335 193.313 25.1446 193.313 25.1446 193.313C23.5557 193.313 23.5557 191.729 23.5557 191.729C23.5557 190.144 25.1446 190.144 25.1446 190.144C25.1446 188.56 26.7335 190.144 26.7335 191.729Z" fill="white"/>
<path d="M39.4444 191.729C39.4444 193.313 37.8555 193.313 37.8555 193.313C36.2666 193.313 36.2666 191.729 36.2666 191.729C36.2666 190.144 37.8555 190.144 37.8555 190.144C37.8555 188.56 39.4444 190.144 39.4444 191.729Z" fill="white"/>
<path d="M52.1553 191.729C52.1553 193.313 50.5664 193.313 50.5664 193.313C48.9775 193.313 48.9775 191.729 48.9775 191.729C48.9775 190.144 50.5664 190.144 50.5664 190.144C50.5664 188.56 52.1553 190.144 52.1553 191.729Z" fill="white"/>
<path d="M64.8667 191.729C64.8667 193.313 63.2778 193.313 63.2778 193.313C61.689 193.313 61.689 191.729 61.689 191.729C61.689 190.144 63.2778 190.144 63.2778 190.144C63.2778 188.56 64.8667 190.144 64.8667 191.729Z" fill="white"/>
<path d="M77.5777 191.729C77.5777 193.313 75.9888 193.313 75.9888 193.313C74.3999 193.313 74.3999 191.729 74.3999 191.729C74.3999 190.144 75.9888 190.144 75.9888 190.144C75.9888 188.56 77.5777 190.144 77.5777 191.729Z" fill="white"/>
<path d="M90.2891 191.729C90.2891 193.313 88.7002 193.313 88.7002 193.313C87.1113 193.313 87.1113 191.729 87.1113 191.729C87.1113 190.144 88.7002 190.144 88.7002 190.144C88.7002 188.56 90.2891 190.144 90.2891 191.729Z" fill="white"/>
<path d="M103 191.729C103 193.313 101.411 193.313 101.411 193.313C99.8223 193.313 99.8223 191.729 99.8223 191.729C99.8223 190.144 101.411 190.144 101.411 190.144C101.411 188.56 103 190.144 103 191.729Z" fill="white"/>
<path d="M1.31107 204.405C1.31107 205.99 -0.277817 205.99 -0.277817 205.99C-1.86669 205.99 -1.8667 204.405 -1.8667 204.405C-1.8667 202.821 -0.277817 202.821 -0.277817 202.821L1.31107 204.405Z" fill="white"/>
<path d="M14.022 204.405C14.022 205.99 12.4331 205.99 12.4331 205.99C10.8442 205.99 10.8442 204.405 10.8442 204.405C10.8442 202.821 12.4331 202.821 12.4331 202.821L14.022 204.405Z" fill="white"/>
<path d="M26.7335 204.405C26.7335 205.99 25.1446 205.99 25.1446 205.99C23.5557 205.99 23.5557 204.405 23.5557 204.405C23.5557 202.821 25.1446 202.821 25.1446 202.821L26.7335 204.405Z" fill="white"/>
<path d="M39.4444 204.405C39.4444 205.99 37.8555 205.99 37.8555 205.99C36.2666 205.99 36.2666 204.405 36.2666 204.405C36.2666 202.821 37.8555 202.821 37.8555 202.821L39.4444 204.405Z" fill="white"/>
<path d="M52.1553 204.405C52.1553 205.99 50.5664 205.99 50.5664 205.99C48.9775 205.99 48.9775 204.405 48.9775 204.405C48.9775 202.821 50.5664 202.821 50.5664 202.821C50.5664 202.821 52.1553 204.405 52.1553 204.405Z" fill="white"/>
<path d="M64.8667 204.405C64.8667 205.99 63.2778 205.99 63.2778 205.99C61.689 205.99 61.689 204.405 61.689 204.405C61.689 202.821 63.2778 202.821 63.2778 202.821L64.8667 204.405Z" fill="white"/>
<path d="M77.5777 204.405C77.5777 205.99 75.9888 205.99 75.9888 205.99C74.3999 205.99 74.3999 204.405 74.3999 204.405C74.3999 202.821 75.9888 202.821 75.9888 202.821C75.9888 202.821 77.5777 204.405 77.5777 204.405Z" fill="white"/>
<path d="M90.2891 204.405C90.2891 205.99 88.7002 205.99 88.7002 205.99C87.1113 205.99 87.1113 204.405 87.1113 204.405C87.1113 202.821 88.7002 202.821 88.7002 202.821C88.7002 202.821 90.2891 204.405 90.2891 204.405Z" fill="white"/>
<path d="M103 204.405C103 205.99 101.411 205.99 101.411 205.99C99.8223 205.99 99.8223 204.405 99.8223 204.405C99.8223 202.821 101.411 202.821 101.411 202.821L103 204.405Z" fill="white"/>
<path d="M1.31107 218.666C1.31107 220.251 -0.277817 220.251 -0.277817 220.251C-1.86669 220.251 -1.8667 218.666 -1.8667 218.666L-0.277817 217.082C-0.277817 215.497 1.31107 217.082 1.31107 218.666Z" fill="white"/>
<path d="M14.022 218.666C14.022 220.251 12.4331 220.251 12.4331 220.251C10.8442 220.251 10.8442 218.666 10.8442 218.666L12.4331 217.082C12.4331 215.497 14.022 217.082 14.022 218.666Z" fill="white"/>
<path d="M26.7335 218.666C26.7335 220.251 25.1446 220.251 25.1446 220.251C23.5557 220.251 23.5557 218.666 23.5557 218.666L25.1446 217.082C25.1446 215.497 26.7335 217.082 26.7335 218.666Z" fill="white"/>
<path d="M39.4444 218.666C39.4444 220.251 37.8555 220.251 37.8555 220.251C36.2666 220.251 36.2666 218.666 36.2666 218.666L37.8555 217.082C37.8555 215.497 39.4444 217.082 39.4444 218.666Z" fill="white"/>
<path d="M52.1553 218.666C52.1553 220.251 50.5664 220.251 50.5664 220.251C48.9775 220.251 48.9775 218.666 48.9775 218.666L50.5664 217.082C50.5664 215.497 52.1553 217.082 52.1553 218.666Z" fill="white"/>
<path d="M64.8667 218.666C64.8667 220.251 63.2778 220.251 63.2778 220.251C61.689 220.251 61.689 218.666 61.689 218.666L63.2778 217.082C63.2778 215.497 64.8667 217.082 64.8667 218.666Z" fill="white"/>
<path d="M77.5777 218.666C77.5777 220.251 75.9888 220.251 75.9888 220.251C74.3999 220.251 74.3999 218.666 74.3999 218.666L75.9888 217.082C75.9888 215.497 77.5777 217.082 77.5777 218.666Z" fill="white"/>
<path d="M90.2891 218.666C90.2891 220.251 88.7002 220.251 88.7002 220.251C87.1113 220.251 87.1113 218.666 87.1113 218.666L88.7002 217.082C88.7002 215.497 90.2891 217.082 90.2891 218.666Z" fill="white"/>
<path d="M103 218.666C103 220.251 101.411 220.251 101.411 220.251C99.8223 220.251 99.8223 218.666 99.8223 218.666L101.411 217.082C101.411 215.497 103 217.082 103 218.666Z" fill="white"/>
<path d="M1.31107 231.342C1.31107 232.927 -0.277817 232.927 -0.277817 232.927C-1.86669 232.927 -1.8667 231.342 -1.8667 231.342C-1.8667 229.758 -0.277817 229.758 -0.277817 229.758L1.31107 231.342Z" fill="white"/>
<path d="M10.8442 232.927C11.7218 232.927 12.4331 232.217 12.4331 231.342C12.4331 230.467 11.7218 229.758 10.8442 229.758C9.96673 229.758 9.25537 230.467 9.25537 231.342C9.25537 232.217 9.96673 232.927 10.8442 232.927Z" fill="white"/>
<path d="M26.7335 231.342C26.7335 232.927 25.1446 232.927 25.1446 232.927C23.5557 232.927 23.5557 231.342 23.5557 231.342C23.5557 229.758 25.1446 229.758 25.1446 229.758L26.7335 231.342Z" fill="white"/>
<path d="M36.2666 232.927C37.1442 232.927 37.8555 232.217 37.8555 231.342C37.8555 230.467 37.1442 229.758 36.2666 229.758C35.3891 229.758 34.6777 230.467 34.6777 231.342C34.6777 232.217 35.3891 232.927 36.2666 232.927Z" fill="white"/>
<path d="M48.9776 232.927C49.8551 232.927 50.5665 232.217 50.5665 231.342C50.5665 230.467 49.8551 229.758 48.9776 229.758C48.1 229.758 47.3887 230.467 47.3887 231.342C47.3887 232.217 48.1 232.927 48.9776 232.927Z" fill="white"/>
<path d="M64.8667 231.342C64.8667 232.927 63.2778 232.927 63.2778 232.927C61.689 232.927 61.689 231.342 61.689 231.342C61.689 229.758 63.2778 229.758 63.2778 229.758L64.8667 231.342Z" fill="white"/>
<path d="M77.5777 231.342C77.5777 232.927 75.9888 232.927 75.9888 232.927C74.3999 232.927 74.3999 231.342 74.3999 231.342C74.3999 229.758 75.9888 229.758 75.9888 229.758C75.9888 229.758 77.5777 231.342 77.5777 231.342Z" fill="white"/>
<path d="M88.7002 232.927C89.5777 232.927 90.2891 232.217 90.2891 231.342C90.2891 230.467 89.5777 229.758 88.7002 229.758C87.8227 229.758 87.1113 230.467 87.1113 231.342C87.1113 232.217 87.8227 232.927 88.7002 232.927Z" fill="white"/>
<path d="M103 231.342C103 232.927 101.411 232.927 101.411 232.927C99.8223 232.927 99.8223 231.342 99.8223 231.342C99.8223 229.758 101.411 229.758 101.411 229.758L103 231.342Z" fill="white"/>
<path d="M1.31107 245.603C1.31107 247.188 -0.277817 247.188 -0.277817 247.188C-1.86669 247.188 -1.8667 245.603 -1.8667 245.603C-1.8667 244.019 -0.277817 244.019 -0.277817 244.019C-0.277817 242.434 1.31107 244.019 1.31107 245.603Z" fill="white"/>
<path d="M14.022 245.603C14.022 247.188 12.4331 247.188 12.4331 247.188C10.8442 247.188 10.8442 245.603 10.8442 245.603C10.8442 244.019 12.4331 244.019 12.4331 244.019C12.4331 242.434 14.022 244.019 14.022 245.603Z" fill="white"/>
<path d="M26.7335 245.603C26.7335 247.188 25.1446 247.188 25.1446 247.188C23.5557 247.188 23.5557 245.603 23.5557 245.603C23.5557 244.019 25.1446 244.019 25.1446 244.019C25.1446 242.434 26.7335 244.019 26.7335 245.603Z" fill="white"/>
<path d="M39.4444 245.603C39.4444 247.188 37.8555 247.188 37.8555 247.188C36.2666 247.188 36.2666 245.603 36.2666 245.603C36.2666 244.019 37.8555 244.019 37.8555 244.019C37.8555 242.434 39.4444 244.019 39.4444 245.603Z" fill="white"/>
<path d="M52.1553 245.603C52.1553 247.188 50.5664 247.188 50.5664 247.188C48.9775 247.188 48.9775 245.603 48.9775 245.603C48.9775 244.019 50.5664 244.019 50.5664 244.019C50.5664 242.434 52.1553 244.019 52.1553 245.603Z" fill="white"/>
<path d="M64.8667 245.603C64.8667 247.188 63.2778 247.188 63.2778 247.188C61.689 247.188 61.689 245.603 61.689 245.603C61.689 244.019 63.2778 244.019 63.2778 244.019C63.2778 242.434 64.8667 244.019 64.8667 245.603Z" fill="white"/>
<path d="M77.5777 245.603C77.5777 247.188 75.9888 247.188 75.9888 247.188C74.3999 247.188 74.3999 245.603 74.3999 245.603C74.3999 244.019 75.9888 244.019 75.9888 244.019C75.9888 242.434 77.5777 244.019 77.5777 245.603Z" fill="white"/>
<path d="M90.2891 245.603C90.2891 247.188 88.7002 247.188 88.7002 247.188C87.1113 247.188 87.1113 245.603 87.1113 245.603C87.1113 244.019 88.7002 244.019 88.7002 244.019C88.7002 242.434 90.2891 244.019 90.2891 245.603Z" fill="white"/>
<path d="M103 245.603C103 247.188 101.411 247.188 101.411 247.188C99.8223 247.188 99.8223 245.603 99.8223 245.603C99.8223 244.019 101.411 244.019 101.411 244.019C101.411 242.434 103 244.019 103 245.603Z" fill="white"/>
<path d="M1.31107 258.279C1.31107 259.864 -0.277817 259.864 -0.277817 259.864C-1.86669 259.864 -1.8667 258.279 -1.8667 258.279C-1.8667 256.695 -0.277817 256.695 -0.277817 256.695L1.31107 258.279Z" fill="white"/>
<path d="M10.8442 259.864C11.7218 259.864 12.4331 259.154 12.4331 258.279C12.4331 257.404 11.7218 256.695 10.8442 256.695C9.96673 256.695 9.25537 257.404 9.25537 258.279C9.25537 259.154 9.96673 259.864 10.8442 259.864Z" fill="white"/>
<path d="M26.7335 258.279C26.7335 259.864 25.1446 259.864 25.1446 259.864C23.5557 259.864 23.5557 258.279 23.5557 258.279C23.5557 256.695 25.1446 256.695 25.1446 256.695L26.7335 258.279Z" fill="white"/>
<path d="M36.2666 259.864C37.1442 259.864 37.8555 259.154 37.8555 258.279C37.8555 257.404 37.1442 256.695 36.2666 256.695C35.3891 256.695 34.6777 257.404 34.6777 258.279C34.6777 259.154 35.3891 259.864 36.2666 259.864Z" fill="white"/>
<path d="M48.9776 259.864C49.8551 259.864 50.5665 259.154 50.5665 258.279C50.5665 257.404 49.8551 256.695 48.9776 256.695C48.1 256.695 47.3887 257.404 47.3887 258.279C47.3887 259.154 48.1 259.864 48.9776 259.864Z" fill="white"/>
<path d="M64.8667 258.279C64.8667 259.864 63.2778 259.864 63.2778 259.864C61.689 259.864 61.689 258.279 61.689 258.279C61.689 256.695 63.2778 256.695 63.2778 256.695L64.8667 258.279Z" fill="white"/>
<path d="M77.5777 258.279C77.5777 259.864 75.9888 259.864 75.9888 259.864C74.3999 259.864 74.3999 258.279 74.3999 258.279C74.3999 256.695 75.9888 256.695 75.9888 256.695C75.9888 256.695 77.5777 258.279 77.5777 258.279Z" fill="white"/>
<path d="M88.7002 259.864C89.5777 259.864 90.2891 259.154 90.2891 258.279C90.2891 257.404 89.5777 256.695 88.7002 256.695C87.8227 256.695 87.1113 257.404 87.1113 258.279C87.1113 259.154 87.8227 259.864 88.7002 259.864Z" fill="white"/>
<path d="M103 258.279C103 259.864 101.411 259.864 101.411 259.864C99.8223 259.864 99.8223 258.279 99.8223 258.279C99.8223 256.695 101.411 256.695 101.411 256.695L103 258.279Z" fill="white"/>
<path d="M1.31107 272.54C1.31107 274.125 -0.277817 274.125 -0.277817 274.125C-1.86669 274.125 -1.8667 272.54 -1.8667 272.54L-0.277817 270.956C-0.277817 270.956 1.31107 270.956 1.31107 272.54Z" fill="white"/>
<path d="M10.8442 274.125C11.7218 274.125 12.4331 273.415 12.4331 272.54C12.4331 271.665 11.7218 270.956 10.8442 270.956C9.96673 270.956 9.25537 271.665 9.25537 272.54C9.25537 273.415 9.96673 274.125 10.8442 274.125Z" fill="white"/>
<path d="M26.7335 272.54C26.7335 274.125 25.1446 274.125 25.1446 274.125C23.5557 274.125 23.5557 272.54 23.5557 272.54L25.1446 270.956C25.1446 270.956 26.7335 270.956 26.7335 272.54Z" fill="white"/>
<path d="M36.2666 274.125C37.1442 274.125 37.8555 273.415 37.8555 272.54C37.8555 271.665 37.1442 270.956 36.2666 270.956C35.3891 270.956 34.6777 271.665 34.6777 272.54C34.6777 273.415 35.3891 274.125 36.2666 274.125Z" fill="white"/>
<path d="M48.9776 274.125C49.8551 274.125 50.5665 273.415 50.5665 272.54C50.5665 271.665 49.8551 270.956 48.9776 270.956C48.1 270.956 47.3887 271.665 47.3887 272.54C47.3887 273.415 48.1 274.125 48.9776 274.125Z" fill="white"/>
<path d="M64.8667 272.54C64.8667 274.125 63.2778 274.125 63.2778 274.125C61.689 274.125 61.689 272.54 61.689 272.54L63.2778 270.956C63.2778 270.956 64.8667 270.956 64.8667 272.54Z" fill="white"/>
<path d="M77.5777 272.54C77.5777 274.125 75.9888 274.125 75.9888 274.125C74.3999 274.125 74.3999 272.54 74.3999 272.54L75.9888 270.956C75.9888 270.956 77.5777 270.956 77.5777 272.54Z" fill="white"/>
<path d="M88.7002 274.125C89.5777 274.125 90.2891 273.415 90.2891 272.54C90.2891 271.665 89.5777 270.956 88.7002 270.956C87.8227 270.956 87.1113 271.665 87.1113 272.54C87.1113 273.415 87.8227 274.125 88.7002 274.125Z" fill="white"/>
<path d="M103 272.54C103 274.125 101.411 274.125 101.411 274.125C99.8223 274.125 99.8223 272.54 99.8223 272.54L101.411 270.956C101.411 270.956 103 270.956 103 272.54Z" fill="white"/>
<path d="M1.31107 285.216C1.31107 286.801 -0.277817 286.801 -0.277817 286.801C-1.86669 286.801 -1.8667 285.216 -1.8667 285.216L-0.277817 283.632L1.31107 285.216Z" fill="white"/>
<path d="M10.8442 286.801C11.7218 286.801 12.4331 286.091 12.4331 285.216C12.4331 284.341 11.7218 283.632 10.8442 283.632C9.96673 283.632 9.25537 284.341 9.25537 285.216C9.25537 286.091 9.96673 286.801 10.8442 286.801Z" fill="white"/>
<path d="M26.7335 285.216C26.7335 286.801 25.1446 286.801 25.1446 286.801C23.5557 286.801 23.5557 285.216 23.5557 285.216L25.1446 283.632L26.7335 285.216Z" fill="white"/>
<path d="M36.2666 286.801C37.1442 286.801 37.8555 286.091 37.8555 285.216C37.8555 284.341 37.1442 283.632 36.2666 283.632C35.3891 283.632 34.6777 284.341 34.6777 285.216C34.6777 286.091 35.3891 286.801 36.2666 286.801Z" fill="white"/>
<path d="M48.9776 286.801C49.8551 286.801 50.5665 286.091 50.5665 285.216C50.5665 284.341 49.8551 283.632 48.9776 283.632C48.1 283.632 47.3887 284.341 47.3887 285.216C47.3887 286.091 48.1 286.801 48.9776 286.801Z" fill="white"/>
<path d="M64.8667 285.216C64.8667 286.801 63.2778 286.801 63.2778 286.801C61.689 286.801 61.689 285.216 61.689 285.216L63.2778 283.632L64.8667 285.216Z" fill="white"/>
<path d="M77.5777 285.216C77.5777 286.801 75.9888 286.801 75.9888 286.801C74.3999 286.801 74.3999 285.216 74.3999 285.216L75.9888 283.632C75.9888 283.632 77.5777 285.216 77.5777 285.216Z" fill="white"/>
<path d="M88.7002 286.801C89.5777 286.801 90.2891 286.091 90.2891 285.216C90.2891 284.341 89.5777 283.632 88.7002 283.632C87.8227 283.632 87.1113 284.341 87.1113 285.216C87.1113 286.091 87.8227 286.801 88.7002 286.801Z" fill="white"/>
<path d="M103 285.216C103 286.801 101.411 286.801 101.411 286.801C99.8223 286.801 99.8223 285.216 99.8223 285.216L101.411 283.632L103 285.216Z" fill="white"/>
<path d="M1.31107 299.477C1.31107 301.062 -0.277817 301.062 -0.277817 301.062C-1.86669 301.062 -1.8667 299.477 -1.8667 299.477C-1.8667 297.893 -0.277817 297.893 -0.277817 297.893C-0.277817 297.893 1.31107 297.893 1.31107 299.477Z" fill="white"/>
<path d="M14.022 299.477C14.022 301.062 12.4331 301.062 12.4331 301.062C10.8442 301.062 10.8442 299.477 10.8442 299.477C10.8442 297.893 12.4331 297.893 12.4331 297.893C12.4331 297.893 14.022 297.893 14.022 299.477Z" fill="white"/>
<path d="M26.7335 299.477C26.7335 301.062 25.1446 301.062 25.1446 301.062C23.5557 301.062 23.5557 299.477 23.5557 299.477C23.5557 297.893 25.1446 297.893 25.1446 297.893C25.1446 297.893 26.7335 297.893 26.7335 299.477Z" fill="white"/>
<path d="M39.4444 299.477C39.4444 301.062 37.8555 301.062 37.8555 301.062C36.2666 301.062 36.2666 299.477 36.2666 299.477C36.2666 297.893 37.8555 297.893 37.8555 297.893C37.8555 297.893 39.4444 297.893 39.4444 299.477Z" fill="white"/>
<path d="M52.1553 299.477C52.1553 301.062 50.5664 301.062 50.5664 301.062C48.9775 301.062 48.9775 299.477 48.9775 299.477C48.9775 297.893 50.5664 297.893 50.5664 297.893C50.5664 297.893 52.1553 297.893 52.1553 299.477Z" fill="white"/>
<path d="M64.8667 299.477C64.8667 301.062 63.2778 301.062 63.2778 301.062C61.689 301.062 61.689 299.477 61.689 299.477C61.689 297.893 63.2778 297.893 63.2778 297.893C63.2778 297.893 64.8667 297.893 64.8667 299.477Z" fill="white"/>
<path d="M77.5777 299.477C77.5777 301.062 75.9888 301.062 75.9888 301.062C74.3999 301.062 74.3999 299.477 74.3999 299.477C74.3999 297.893 75.9888 297.893 75.9888 297.893C75.9888 297.893 77.5777 297.893 77.5777 299.477Z" fill="white"/>
<path d="M90.2891 299.477C90.2891 301.062 88.7002 301.062 88.7002 301.062C87.1113 301.062 87.1113 299.477 87.1113 299.477C87.1113 297.893 88.7002 297.893 88.7002 297.893C88.7002 297.893 90.2891 297.893 90.2891 299.477Z" fill="white"/>
<path d="M103 299.477C103 301.062 101.411 301.062 101.411 301.062C99.8223 301.062 99.8223 299.477 99.8223 299.477C99.8223 297.893 101.411 297.893 101.411 297.893C101.411 297.893 103 297.893 103 299.477Z" fill="white"/>
<path d="M1.31107 313.738C1.31107 315.322 -0.277817 315.322 -0.277817 315.322C-1.86669 315.322 -1.8667 313.738 -1.8667 313.738L-0.277817 312.153C-0.277817 310.569 1.31107 312.153 1.31107 313.738Z" fill="white"/>
<path d="M14.022 313.738C14.022 315.322 12.4331 315.322 12.4331 315.322C10.8442 315.322 10.8442 313.738 10.8442 313.738L12.4331 312.153C12.4331 310.569 14.022 312.153 14.022 313.738Z" fill="white"/>
<path d="M26.7335 313.738C26.7335 315.322 25.1446 315.322 25.1446 315.322C23.5557 315.322 23.5557 313.738 23.5557 313.738L25.1446 312.153C25.1446 310.569 26.7335 312.153 26.7335 313.738Z" fill="white"/>
<path d="M39.4444 313.738C39.4444 315.322 37.8555 315.322 37.8555 315.322C36.2666 315.322 36.2666 313.738 36.2666 313.738L37.8555 312.153C37.8555 310.569 39.4444 312.153 39.4444 313.738Z" fill="white"/>
<path d="M52.1553 313.738C52.1553 315.322 50.5664 315.322 50.5664 315.322C48.9775 315.322 48.9775 313.738 48.9775 313.738L50.5664 312.153C50.5664 310.569 52.1553 312.153 52.1553 313.738Z" fill="white"/>
<path d="M64.8667 313.738C64.8667 315.322 63.2778 315.322 63.2778 315.322C61.689 315.322 61.689 313.738 61.689 313.738L63.2778 312.153C63.2778 310.569 64.8667 312.153 64.8667 313.738Z" fill="white"/>
<path d="M77.5777 313.738C77.5777 315.322 75.9888 315.322 75.9888 315.322C74.3999 315.322 74.3999 313.738 74.3999 313.738L75.9888 312.153C75.9888 310.569 77.5777 312.153 77.5777 313.738Z" fill="white"/>
<path d="M90.2891 313.738C90.2891 315.322 88.7002 315.322 88.7002 315.322C87.1113 315.322 87.1113 313.738 87.1113 313.738L88.7002 312.153C88.7002 310.569 90.2891 312.153 90.2891 313.738Z" fill="white"/>
<path d="M103 313.738C103 315.322 101.411 315.322 101.411 315.322C99.8223 315.322 99.8223 313.738 99.8223 313.738L101.411 312.153C101.411 310.569 103 312.153 103 313.738Z" fill="white"/>
<path d="M1.31107 326.415C1.31107 327.999 -0.277817 327.999 -0.277817 327.999C-1.86669 327.999 -1.8667 326.415 -1.8667 326.415C-1.8667 324.83 -0.277817 324.83 -0.277817 324.83C-0.277817 324.83 1.31107 324.83 1.31107 326.415Z" fill="white"/>
<path d="M14.022 326.415C14.022 327.999 12.4331 327.999 12.4331 327.999C10.8442 327.999 10.8442 326.415 10.8442 326.415C10.8442 324.83 12.4331 324.83 12.4331 324.83C12.4331 324.83 14.022 324.83 14.022 326.415Z" fill="white"/>
<path d="M26.7335 326.415C26.7335 327.999 25.1446 327.999 25.1446 327.999C23.5557 327.999 23.5557 326.415 23.5557 326.415C23.5557 324.83 25.1446 324.83 25.1446 324.83C25.1446 324.83 26.7335 324.83 26.7335 326.415Z" fill="white"/>
<path d="M39.4444 326.415C39.4444 327.999 37.8555 327.999 37.8555 327.999C36.2666 327.999 36.2666 326.415 36.2666 326.415C36.2666 324.83 37.8555 324.83 37.8555 324.83C37.8555 324.83 39.4444 324.83 39.4444 326.415Z" fill="white"/>
<path d="M52.1553 326.415C52.1553 327.999 50.5664 327.999 50.5664 327.999C48.9775 327.999 48.9775 326.415 48.9775 326.415C48.9775 324.83 50.5664 324.83 50.5664 324.83C50.5664 324.83 52.1553 324.83 52.1553 326.415Z" fill="white"/>
<path d="M64.8667 326.415C64.8667 327.999 63.2778 327.999 63.2778 327.999C61.689 327.999 61.689 326.415 61.689 326.415C61.689 324.83 63.2778 324.83 63.2778 324.83C63.2778 324.83 64.8667 324.83 64.8667 326.415Z" fill="white"/>
<path d="M77.5777 326.415C77.5777 327.999 75.9888 327.999 75.9888 327.999C74.3999 327.999 74.3999 326.415 74.3999 326.415C74.3999 324.83 75.9888 324.83 75.9888 324.83C75.9888 324.83 77.5777 324.83 77.5777 326.415Z" fill="white"/>
<path d="M90.2891 326.415C90.2891 327.999 88.7002 327.999 88.7002 327.999C87.1113 327.999 87.1113 326.415 87.1113 326.415C87.1113 324.83 88.7002 324.83 88.7002 324.83C88.7002 324.83 90.2891 324.83 90.2891 326.415Z" fill="white"/>
<path d="M103 326.415C103 327.999 101.411 327.999 101.411 327.999C99.8223 327.999 99.8223 326.415 99.8223 326.415C99.8223 324.83 101.411 324.83 101.411 324.83C101.411 324.83 103 324.83 103 326.415Z" fill="white"/>
<path d="M1.31107 340.675C1.31107 342.26 -0.277817 342.26 -0.277817 342.26C-1.86669 342.26 -1.8667 340.675 -1.8667 340.675C-1.8667 339.091 -0.277817 339.091 -0.277817 339.091C-0.277817 337.506 1.31107 339.091 1.31107 340.675Z" fill="white"/>
<path d="M14.022 340.675C14.022 342.26 12.4331 342.26 12.4331 342.26C10.8442 342.26 10.8442 340.675 10.8442 340.675C10.8442 339.091 12.4331 339.091 12.4331 339.091C12.4331 337.506 14.022 339.091 14.022 340.675Z" fill="white"/>
<path d="M26.7335 340.675C26.7335 342.26 25.1446 342.26 25.1446 342.26C23.5557 342.26 23.5557 340.675 23.5557 340.675C23.5557 339.091 25.1446 339.091 25.1446 339.091C25.1446 337.506 26.7335 339.091 26.7335 340.675Z" fill="white"/>
<path d="M39.4444 340.675C39.4444 342.26 37.8555 342.26 37.8555 342.26C36.2666 342.26 36.2666 340.675 36.2666 340.675C36.2666 339.091 37.8555 339.091 37.8555 339.091C37.8555 337.506 39.4444 339.091 39.4444 340.675Z" fill="white"/>
<path d="M52.1553 340.675C52.1553 342.26 50.5664 342.26 50.5664 342.26C48.9775 342.26 48.9775 340.675 48.9775 340.675C48.9775 339.091 50.5664 339.091 50.5664 339.091C50.5664 337.506 52.1553 339.091 52.1553 340.675Z" fill="white"/>
<path d="M64.8667 340.675C64.8667 342.26 63.2778 342.26 63.2778 342.26C61.689 342.26 61.689 340.675 61.689 340.675C61.689 339.091 63.2778 339.091 63.2778 339.091C63.2778 337.506 64.8667 339.091 64.8667 340.675Z" fill="white"/>
<path d="M77.5777 340.675C77.5777 342.26 75.9888 342.26 75.9888 342.26C74.3999 342.26 74.3999 340.675 74.3999 340.675C74.3999 339.091 75.9888 339.091 75.9888 339.091C75.9888 337.506 77.5777 339.091 77.5777 340.675Z" fill="white"/>
<path d="M90.2891 340.675C90.2891 342.26 88.7002 342.26 88.7002 342.26C87.1113 342.26 87.1113 340.675 87.1113 340.675C87.1113 339.091 88.7002 339.091 88.7002 339.091C88.7002 337.506 90.2891 339.091 90.2891 340.675Z" fill="white"/>
<path d="M103 340.675C103 342.26 101.411 342.26 101.411 342.26C99.8223 342.26 99.8223 340.675 99.8223 340.675C99.8223 339.091 101.411 339.091 101.411 339.091C101.411 337.506 103 339.091 103 340.675Z" fill="white"/>
<path d="M1.31107 353.352C1.31107 354.936 -0.277817 354.936 -0.277817 354.936C-1.86669 354.936 -1.8667 353.352 -1.8667 353.352C-1.8667 351.767 -0.277817 351.767 -0.277817 351.767C-0.277817 351.767 1.31107 351.767 1.31107 353.352Z" fill="white"/>
<path d="M10.8442 354.936C11.7218 354.936 12.4331 354.227 12.4331 353.352C12.4331 352.476 11.7218 351.767 10.8442 351.767C9.96673 351.767 9.25537 352.476 9.25537 353.352C9.25537 354.227 9.96673 354.936 10.8442 354.936Z" fill="white"/>
<path d="M26.7335 353.352C26.7335 354.936 25.1446 354.936 25.1446 354.936C23.5557 354.936 23.5557 353.352 23.5557 353.352C23.5557 351.767 25.1446 351.767 25.1446 351.767C25.1446 351.767 26.7335 351.767 26.7335 353.352Z" fill="white"/>
<path d="M36.2666 354.936C37.1442 354.936 37.8555 354.227 37.8555 353.352C37.8555 352.476 37.1442 351.767 36.2666 351.767C35.3891 351.767 34.6777 352.476 34.6777 353.352C34.6777 354.227 35.3891 354.936 36.2666 354.936Z" fill="white"/>
<path d="M48.9776 354.936C49.8551 354.936 50.5665 354.227 50.5665 353.352C50.5665 352.476 49.8551 351.767 48.9776 351.767C48.1 351.767 47.3887 352.476 47.3887 353.352C47.3887 354.227 48.1 354.936 48.9776 354.936Z" fill="white"/>
<path d="M64.8667 353.352C64.8667 354.936 63.2778 354.936 63.2778 354.936C61.689 354.936 61.689 353.352 61.689 353.352C61.689 351.767 63.2778 351.767 63.2778 351.767C63.2778 351.767 64.8667 351.767 64.8667 353.352Z" fill="white"/>
<path d="M77.5777 353.352C77.5777 354.936 75.9888 354.936 75.9888 354.936C74.3999 354.936 74.3999 353.352 74.3999 353.352C74.3999 351.767 75.9888 351.767 75.9888 351.767C75.9888 351.767 77.5777 351.767 77.5777 353.352Z" fill="white"/>
<path d="M88.7002 354.936C89.5777 354.936 90.2891 354.227 90.2891 353.352C90.2891 352.476 89.5777 351.767 88.7002 351.767C87.8227 351.767 87.1113 352.476 87.1113 353.352C87.1113 354.227 87.8227 354.936 88.7002 354.936Z" fill="white"/>
<path d="M103 353.352C103 354.936 101.411 354.936 101.411 354.936C99.8223 354.936 99.8223 353.352 99.8223 353.352C99.8223 351.767 101.411 351.767 101.411 351.767C101.411 351.767 103 351.767 103 353.352Z" fill="white"/>
</mask>
<g mask="url(#mask0_120_3805)">
<path d="M-43.265 39.1782L91.3209 116.881V272.288L-43.265 349.991L-177.851 272.288V116.881L-43.265 39.1782Z" fill="#F7FDFC" fill-opacity="0.2"/>
</g>
</svg>
