<svg width="177" height="298" viewBox="0 0 177 298" fill="none" xmlns="http://www.w3.org/2000/svg">
<mask id="mask0_120_5065" style="mask-type:alpha" maskUnits="userSpaceOnUse" x="0" y="-144" width="354" height="442">
<path d="M5.9 8.97984C5.9 10.9411 3.93333 12.9024 1.96667 12.9024C1.96667 12.9024 0 10.9411 0 8.97984C0 7.01856 1.96667 7.01855 1.96667 7.01855C3.93333 7.01855 5.9 7.01856 5.9 8.97984Z" fill="white"/>
<path d="M21.6334 8.97984C21.6334 10.9411 19.6667 12.9024 17.7001 12.9024C17.7001 12.9024 15.7334 10.9411 15.7334 8.97984C15.7334 7.01856 17.7001 7.01855 17.7001 7.01855C19.6667 7.01855 21.6334 7.01856 21.6334 8.97984Z" fill="white"/>
<path d="M37.3668 8.97984C37.3668 10.9411 35.4001 12.9024 35.4001 12.9024C33.4335 12.9024 31.4668 10.9411 31.4668 8.97984C31.4668 7.01856 33.4335 7.01855 33.4335 7.01855C35.4001 7.01855 37.3668 7.01856 37.3668 8.97984Z" fill="white"/>
<path d="M53.1002 8.97984C53.1002 10.9411 51.1335 12.9024 51.1335 12.9024C49.1669 12.9024 47.2002 10.9411 47.2002 8.97984C47.2002 7.01856 49.1669 7.01855 49.1669 7.01855C51.1335 7.01855 53.1002 7.01856 53.1002 8.97984Z" fill="white"/>
<path d="M68.8331 8.97984C68.8331 10.9411 66.8664 12.9024 66.8664 12.9024C64.8998 12.9024 62.9331 10.9411 62.9331 8.97984C62.9331 7.01856 64.8998 7.01855 64.8998 7.01855C66.8664 7.01855 68.8331 7.01856 68.8331 8.97984Z" fill="white"/>
<path d="M84.5665 8.97984C84.5665 10.9411 82.5998 12.9024 82.5998 12.9024C80.6332 12.9024 78.6665 10.9411 78.6665 8.97984C78.6665 7.01856 80.6332 7.01855 80.6332 7.01855C82.5998 7.01855 84.5665 7.01856 84.5665 8.97984Z" fill="white"/>
<path d="M100.3 8.97984C100.3 10.9411 100.3 12.9024 98.3332 12.9024C96.3666 12.9024 94.3999 10.9411 94.3999 8.97984C94.3999 7.01856 96.3666 7.01855 96.3666 7.01855C100.3 7.01855 100.3 7.01856 100.3 8.97984Z" fill="white"/>
<path d="M116.033 8.97984C116.033 10.9411 116.033 12.9024 114.067 12.9024C112.1 12.9024 110.133 10.9411 110.133 8.97984C110.133 7.01856 112.1 7.01855 112.1 7.01855C116.033 7.01855 116.033 7.01856 116.033 8.97984Z" fill="white"/>
<path d="M131.767 8.97984C131.767 10.9411 131.767 12.9024 129.8 12.9024C127.833 12.9024 125.867 10.9411 125.867 8.97984C125.867 7.01856 127.833 7.01855 127.833 7.01855C131.767 7.01855 131.767 7.01856 131.767 8.97984Z" fill="white"/>
<path d="M147.5 8.97984C147.5 10.9411 147.5 12.9024 145.533 12.9024C143.567 12.9024 141.6 10.9411 141.6 8.97984C141.6 7.01856 143.567 7.01855 143.567 7.01855C147.5 7.01855 147.5 7.01856 147.5 8.97984Z" fill="white"/>
<path d="M163.233 8.97984C163.233 10.9411 163.233 12.9024 161.266 12.9024C159.3 12.9024 159.3 10.9411 159.3 8.97984C159.3 7.01856 161.266 7.01855 161.266 7.01855C163.233 7.01855 163.233 7.01856 163.233 8.97984Z" fill="white"/>
<path d="M178.967 8.97984C178.967 10.9411 178.967 12.9024 177 12.9024C175.033 12.9024 175.033 10.9411 175.033 8.97984C175.033 7.01856 177 7.01855 177 7.01855C178.967 7.01855 178.967 7.01856 178.967 8.97984Z" fill="white"/>
<path d="M5.9 26.6311C5.9 28.5924 3.93333 28.5924 3.93333 28.5924C1.96667 28.5924 0 26.6311 0 26.6311C0 24.6698 1.96667 24.6698 1.96667 24.6698C3.93333 22.7085 5.9 24.6698 5.9 26.6311Z" fill="white"/>
<path d="M21.6335 26.6311C21.6335 28.5924 19.6669 28.5924 19.6669 28.5924C17.7002 28.5924 17.7002 26.6311 17.7002 26.6311C17.7002 24.6698 19.6669 24.6698 19.6669 24.6698C19.6669 22.7085 21.6335 24.6698 21.6335 26.6311Z" fill="white"/>
<path d="M37.3664 26.6311C37.3664 28.5924 35.3998 28.5924 35.3998 28.5924C33.4331 28.5924 33.4331 26.6311 33.4331 26.6311C33.4331 24.6698 35.3998 24.6698 35.3998 24.6698C35.3998 22.7085 37.3664 24.6698 37.3664 26.6311Z" fill="white"/>
<path d="M53.0998 26.6311C53.0998 28.5924 51.1332 28.5924 51.1332 28.5924C49.1665 28.5924 49.1665 26.6311 49.1665 26.6311C49.1665 24.6698 51.1332 24.6698 51.1332 24.6698C51.1332 22.7085 53.0998 24.6698 53.0998 26.6311Z" fill="white"/>
<path d="M68.8332 26.6311C68.8332 28.5924 66.8666 28.5924 66.8666 28.5924C64.8999 28.5924 64.8999 26.6311 64.8999 26.6311C64.8999 24.6698 66.8666 24.6698 66.8666 24.6698C66.8666 22.7085 68.8332 24.6698 68.8332 26.6311Z" fill="white"/>
<path d="M84.5665 26.6311C84.5665 28.5924 82.5998 28.5924 82.5998 28.5924C80.6332 28.5924 78.6665 26.6311 78.6665 26.6311C78.6665 24.6698 80.6332 24.6698 80.6332 24.6698C82.5998 22.7085 84.5665 24.6698 84.5665 26.6311Z" fill="white"/>
<path d="M100.3 26.6311C100.3 28.5924 98.3334 28.5924 98.3334 28.5924C96.3667 28.5924 96.3667 26.6311 96.3667 26.6311C96.3667 24.6698 98.3334 24.6698 98.3334 24.6698C100.3 22.7085 100.3 24.6698 100.3 26.6311Z" fill="white"/>
<path d="M116.033 26.6311C116.033 28.5924 114.067 28.5924 114.067 28.5924C112.1 28.5924 112.1 26.6311 112.1 26.6311C112.1 24.6698 114.067 24.6698 114.067 24.6698C116.033 22.7085 116.033 24.6698 116.033 26.6311Z" fill="white"/>
<path d="M131.767 26.6311C131.767 28.5924 129.8 28.5924 129.8 28.5924C127.833 28.5924 127.833 26.6311 127.833 26.6311C127.833 24.6698 129.8 24.6698 129.8 24.6698C131.767 22.7085 131.767 24.6698 131.767 26.6311Z" fill="white"/>
<path d="M147.5 26.6311C147.5 28.5924 145.534 28.5924 145.534 28.5924C143.567 28.5924 143.567 26.6311 143.567 26.6311C143.567 24.6698 145.534 24.6698 145.534 24.6698C147.5 22.7085 147.5 24.6698 147.5 26.6311Z" fill="white"/>
<path d="M163.233 26.6311C163.233 28.5924 161.266 28.5924 161.266 28.5924C159.3 28.5924 159.3 26.6311 159.3 26.6311C159.3 24.6698 161.266 24.6698 161.266 24.6698C163.233 22.7085 163.233 24.6698 163.233 26.6311Z" fill="white"/>
<path d="M178.967 26.6311C178.967 28.5924 177 28.5924 177 28.5924C175.033 28.5924 175.033 26.6311 175.033 26.6311C175.033 24.6698 177 24.6698 177 24.6698C178.967 22.7085 178.967 24.6698 178.967 26.6311Z" fill="white"/>
<path d="M1.96667 44.2829C3.05283 44.2829 3.93333 43.4048 3.93333 42.3216C3.93333 41.2385 3.05283 40.3604 1.96667 40.3604C0.880507 40.3604 0 41.2385 0 42.3216C0 43.4048 0.880507 44.2829 1.96667 44.2829Z" fill="white"/>
<path d="M21.6335 42.3216C21.6335 44.2829 19.6669 44.2829 19.6669 44.2829C17.7002 44.2829 17.7002 42.3216 17.7002 42.3216C17.7002 40.3604 19.6669 40.3604 19.6669 40.3604C19.6669 40.3604 21.6335 40.3604 21.6335 42.3216Z" fill="white"/>
<path d="M35.3998 44.2829C36.4859 44.2829 37.3664 43.4048 37.3664 42.3216C37.3664 41.2385 36.4859 40.3604 35.3998 40.3604C34.3136 40.3604 33.4331 41.2385 33.4331 42.3216C33.4331 43.4048 34.3136 44.2829 35.3998 44.2829Z" fill="white"/>
<path d="M53.0998 42.3216C53.0998 44.2829 51.1332 44.2829 51.1332 44.2829C49.1665 44.2829 49.1665 42.3216 49.1665 42.3216C49.1665 40.3604 51.1332 40.3604 51.1332 40.3604C51.1332 40.3604 53.0998 40.3604 53.0998 42.3216Z" fill="white"/>
<path d="M68.8332 42.3216C68.8332 44.2829 66.8666 44.2829 66.8666 44.2829C64.8999 44.2829 64.8999 42.3216 64.8999 42.3216C64.8999 40.3604 66.8666 40.3604 66.8666 40.3604C66.8666 40.3604 68.8332 40.3604 68.8332 42.3216Z" fill="white"/>
<path d="M84.5665 42.3216C84.5665 44.2829 82.5998 44.2829 82.5998 44.2829C80.6332 46.2442 78.6665 44.2829 78.6665 42.3216C78.6665 40.3604 80.6332 40.3604 80.6332 40.3604C82.5998 40.3604 84.5665 40.3604 84.5665 42.3216Z" fill="white"/>
<path d="M100.3 42.3216C100.3 44.2829 98.3334 44.2829 98.3334 44.2829C96.3667 44.2829 96.3667 42.3216 96.3667 42.3216C96.3667 40.3604 98.3334 40.3604 98.3334 40.3604C100.3 40.3604 100.3 40.3604 100.3 42.3216Z" fill="white"/>
<path d="M116.033 42.3216C116.033 44.2829 114.067 44.2829 114.067 44.2829C112.1 44.2829 112.1 42.3216 112.1 42.3216C112.1 40.3604 114.067 40.3604 114.067 40.3604C116.033 40.3604 116.033 40.3604 116.033 42.3216Z" fill="white"/>
<path d="M131.767 42.3216C131.767 44.2829 129.8 44.2829 129.8 44.2829C127.833 44.2829 127.833 42.3216 127.833 42.3216C127.833 40.3604 129.8 40.3604 129.8 40.3604C131.767 40.3604 131.767 40.3604 131.767 42.3216Z" fill="white"/>
<path d="M147.5 42.3216C147.5 44.2829 145.534 44.2829 145.534 44.2829C143.567 44.2829 143.567 42.3216 143.567 42.3216C143.567 40.3604 145.534 40.3604 145.534 40.3604C147.5 40.3604 147.5 40.3604 147.5 42.3216Z" fill="white"/>
<path d="M163.233 42.3216C163.233 44.2829 161.266 44.2829 161.266 44.2829C159.3 44.2829 159.3 42.3216 159.3 42.3216C159.3 40.3604 161.266 40.3604 161.266 40.3604C163.233 40.3604 163.233 40.3604 163.233 42.3216Z" fill="white"/>
<path d="M178.967 42.3216C178.967 44.2829 177 44.2829 177 44.2829C175.033 44.2829 175.033 42.3216 175.033 42.3216C175.033 40.3604 177 40.3604 177 40.3604C178.967 40.3604 178.967 40.3604 178.967 42.3216Z" fill="white"/>
<path d="M5.90013 59.9729C5.90013 61.9342 3.93346 61.9342 3.93346 61.9342C1.9668 61.9342 1.9668 59.9729 1.9668 59.9729C1.9668 58.0116 3.93346 58.0116 3.93346 58.0116C3.93346 56.0503 5.90013 58.0116 5.90013 59.9729Z" fill="white"/>
<path d="M21.6335 59.9729C21.6335 61.9342 19.6669 61.9342 19.6669 61.9342C17.7002 61.9342 17.7002 59.9729 17.7002 59.9729C17.7002 58.0116 19.6669 58.0116 19.6669 58.0116C19.6669 56.0503 21.6335 58.0116 21.6335 59.9729Z" fill="white"/>
<path d="M37.3664 59.9729C37.3664 61.9342 35.3998 61.9342 35.3998 61.9342C33.4331 61.9342 33.4331 59.9729 33.4331 59.9729C33.4331 58.0116 35.3998 58.0116 35.3998 58.0116C35.3998 56.0503 37.3664 58.0116 37.3664 59.9729Z" fill="white"/>
<path d="M53.0998 59.9729C53.0998 61.9342 51.1332 61.9342 51.1332 61.9342C49.1665 61.9342 49.1665 59.9729 49.1665 59.9729C49.1665 58.0116 51.1332 58.0116 51.1332 58.0116C51.1332 56.0503 53.0998 58.0116 53.0998 59.9729Z" fill="white"/>
<path d="M68.8332 59.9729C68.8332 61.9342 66.8666 61.9342 66.8666 61.9342C64.8999 61.9342 64.8999 59.9729 64.8999 59.9729C64.8999 58.0116 66.8666 58.0116 66.8666 58.0116C66.8666 56.0503 68.8332 58.0116 68.8332 59.9729Z" fill="white"/>
<path d="M84.5666 59.9729C84.5666 61.9342 82.6 61.9342 82.6 61.9342C80.6333 61.9342 80.6333 59.9729 80.6333 59.9729C80.6333 58.0116 82.6 58.0116 82.6 58.0116C82.6 56.0503 84.5666 58.0116 84.5666 59.9729Z" fill="white"/>
<path d="M100.3 59.9729C100.3 61.9342 98.3334 61.9342 98.3334 61.9342C96.3667 61.9342 96.3667 59.9729 96.3667 59.9729C96.3667 58.0116 98.3334 58.0116 98.3334 58.0116C100.3 56.0503 100.3 58.0116 100.3 59.9729Z" fill="white"/>
<path d="M116.033 59.9729C116.033 61.9342 114.067 61.9342 114.067 61.9342C112.1 61.9342 112.1 59.9729 112.1 59.9729C112.1 58.0116 114.067 58.0116 114.067 58.0116C116.033 56.0503 116.033 58.0116 116.033 59.9729Z" fill="white"/>
<path d="M131.767 59.9729C131.767 61.9342 129.8 61.9342 129.8 61.9342C127.833 61.9342 127.833 59.9729 127.833 59.9729C127.833 58.0116 129.8 58.0116 129.8 58.0116C131.767 56.0503 131.767 58.0116 131.767 59.9729Z" fill="white"/>
<path d="M147.5 59.9729C147.5 61.9342 145.534 61.9342 145.534 61.9342C143.567 61.9342 143.567 59.9729 143.567 59.9729C143.567 58.0116 145.534 58.0116 145.534 58.0116C147.5 56.0503 147.5 58.0116 147.5 59.9729Z" fill="white"/>
<path d="M163.233 59.9729C163.233 61.9342 161.266 61.9342 161.266 61.9342C159.3 61.9342 159.3 59.9729 159.3 59.9729C159.3 58.0116 161.266 58.0116 161.266 58.0116C163.233 56.0503 163.233 58.0116 163.233 59.9729Z" fill="white"/>
<path d="M178.967 59.9729C178.967 61.9342 177 61.9342 177 61.9342C175.033 61.9342 175.033 59.9729 175.033 59.9729C175.033 58.0116 177 58.0116 177 58.0116C178.967 56.0503 178.967 58.0116 178.967 59.9729Z" fill="white"/>
<path d="M5.90013 75.6634C5.90013 77.6247 3.93346 77.6247 3.93346 77.6247C1.9668 77.6247 1.9668 75.6634 1.9668 75.6634C1.9668 73.7021 3.93346 73.7021 3.93346 73.7021C3.93346 73.7021 5.90013 73.7021 5.90013 75.6634Z" fill="white"/>
<path d="M21.6335 75.6634C21.6335 77.6247 19.6669 77.6247 19.6669 77.6247C17.7002 77.6247 17.7002 75.6634 17.7002 75.6634C17.7002 73.7021 19.6669 73.7021 19.6669 73.7021C19.6669 73.7021 21.6335 73.7021 21.6335 75.6634Z" fill="white"/>
<path d="M37.3664 75.6634C37.3664 77.6247 35.3998 77.6247 35.3998 77.6247C33.4331 77.6247 33.4331 75.6634 33.4331 75.6634C33.4331 73.7021 35.3998 73.7021 35.3998 73.7021C35.3998 73.7021 37.3664 73.7021 37.3664 75.6634Z" fill="white"/>
<path d="M53.0998 75.6634C53.0998 77.6247 51.1332 77.6247 51.1332 77.6247C49.1665 77.6247 49.1665 75.6634 49.1665 75.6634C49.1665 73.7021 51.1332 73.7021 51.1332 73.7021C51.1332 73.7021 53.0998 73.7021 53.0998 75.6634Z" fill="white"/>
<path d="M68.8332 75.6634C68.8332 77.6247 66.8666 77.6247 66.8666 77.6247C64.8999 77.6247 64.8999 75.6634 64.8999 75.6634C64.8999 73.7021 66.8666 73.7021 66.8666 73.7021C66.8666 73.7021 68.8332 73.7021 68.8332 75.6634Z" fill="white"/>
<path d="M84.5666 75.6634C84.5666 77.6247 82.6 77.6247 82.6 77.6247C80.6333 77.6247 80.6333 75.6634 80.6333 75.6634C80.6333 73.7021 82.6 73.7021 82.6 73.7021C82.6 73.7021 84.5666 73.7021 84.5666 75.6634Z" fill="white"/>
<path d="M100.3 75.6634C100.3 77.6247 98.3334 77.6247 98.3334 77.6247C96.3667 77.6247 96.3667 75.6634 96.3667 75.6634C96.3667 73.7021 98.3334 73.7021 98.3334 73.7021C100.3 73.7021 100.3 73.7021 100.3 75.6634Z" fill="white"/>
<path d="M116.033 75.6634C116.033 77.6247 114.067 77.6247 114.067 77.6247C112.1 77.6247 112.1 75.6634 112.1 75.6634C112.1 73.7021 114.067 73.7021 114.067 73.7021C116.033 73.7021 116.033 73.7021 116.033 75.6634Z" fill="white"/>
<path d="M131.767 75.6634C131.767 77.6247 129.8 77.6247 129.8 77.6247C127.833 77.6247 127.833 75.6634 127.833 75.6634C127.833 73.7021 129.8 73.7021 129.8 73.7021C131.767 73.7021 131.767 73.7021 131.767 75.6634Z" fill="white"/>
<path d="M147.5 75.6634C147.5 77.6247 145.534 77.6247 145.534 77.6247C143.567 77.6247 143.567 75.6634 143.567 75.6634C143.567 73.7021 145.534 73.7021 145.534 73.7021C147.5 73.7021 147.5 73.7021 147.5 75.6634Z" fill="white"/>
<path d="M163.233 75.6634C163.233 77.6247 161.266 77.6247 161.266 77.6247C159.3 77.6247 159.3 75.6634 159.3 75.6634C159.3 73.7021 161.266 73.7021 161.266 73.7021C163.233 73.7021 163.233 73.7021 163.233 75.6634Z" fill="white"/>
<path d="M178.967 75.6634C178.967 77.6247 177 77.6247 177 77.6247C175.033 77.6247 175.033 75.6634 175.033 75.6634C175.033 73.7021 177 73.7021 177 73.7021C178.967 73.7021 178.967 73.7021 178.967 75.6634Z" fill="white"/>
<path d="M5.90013 93.3147C5.90013 95.276 3.93346 95.2759 3.93346 95.2759C1.9668 95.2759 1.9668 93.3147 1.9668 93.3147C1.9668 91.3534 3.93346 91.3534 3.93346 91.3534C3.93346 89.3921 5.90013 91.3534 5.90013 93.3147Z" fill="white"/>
<path d="M21.6335 93.3147C21.6335 95.276 19.6669 95.2759 19.6669 95.2759C17.7002 95.2759 17.7002 93.3147 17.7002 93.3147C17.7002 91.3534 19.6669 91.3534 19.6669 91.3534C19.6669 89.3921 21.6335 91.3534 21.6335 93.3147Z" fill="white"/>
<path d="M37.3664 93.3147C37.3664 95.276 35.3998 95.2759 35.3998 95.2759C33.4331 95.2759 33.4331 93.3147 33.4331 93.3147C33.4331 91.3534 35.3998 91.3534 35.3998 91.3534C35.3998 89.3921 37.3664 91.3534 37.3664 93.3147Z" fill="white"/>
<path d="M53.0998 93.3147C53.0998 95.276 51.1332 95.2759 51.1332 95.2759C49.1665 95.2759 49.1665 93.3147 49.1665 93.3147C49.1665 91.3534 51.1332 91.3534 51.1332 91.3534C51.1332 89.3921 53.0998 91.3534 53.0998 93.3147Z" fill="white"/>
<path d="M68.8332 93.3147C68.8332 95.276 66.8666 95.2759 66.8666 95.2759C64.8999 95.2759 64.8999 93.3147 64.8999 93.3147C64.8999 91.3534 66.8666 91.3534 66.8666 91.3534C66.8666 89.3921 68.8332 91.3534 68.8332 93.3147Z" fill="white"/>
<path d="M84.5666 93.3147C84.5666 95.276 82.6 95.2759 82.6 95.2759C80.6333 95.2759 80.6333 93.3147 80.6333 93.3147C80.6333 91.3534 82.6 91.3534 82.6 91.3534C82.6 89.3921 84.5666 91.3534 84.5666 93.3147Z" fill="white"/>
<path d="M100.3 93.3147C100.3 95.276 98.3334 95.2759 98.3334 95.2759C96.3667 95.2759 96.3667 93.3147 96.3667 93.3147C96.3667 91.3534 98.3334 91.3534 98.3334 91.3534C100.3 89.3921 100.3 91.3534 100.3 93.3147Z" fill="white"/>
<path d="M116.033 93.3147C116.033 95.276 114.067 95.2759 114.067 95.2759C112.1 95.2759 112.1 93.3147 112.1 93.3147C112.1 91.3534 114.067 91.3534 114.067 91.3534C116.033 89.3921 116.033 91.3534 116.033 93.3147Z" fill="white"/>
<path d="M131.767 93.3147C131.767 95.276 129.8 95.2759 129.8 95.2759C127.833 95.2759 127.833 93.3147 127.833 93.3147C127.833 91.3534 129.8 91.3534 129.8 91.3534C131.767 89.3921 131.767 91.3534 131.767 93.3147Z" fill="white"/>
<path d="M147.5 93.3147C147.5 95.276 145.534 95.2759 145.534 95.2759C143.567 95.2759 143.567 93.3147 143.567 93.3147C143.567 91.3534 145.534 91.3534 145.534 91.3534C147.5 89.3921 147.5 91.3534 147.5 93.3147Z" fill="white"/>
<path d="M163.233 93.3147C163.233 95.276 161.266 95.2759 161.266 95.2759C159.3 95.2759 159.3 93.3147 159.3 93.3147C159.3 91.3534 161.266 91.3534 161.266 91.3534C163.233 89.3921 163.233 91.3534 163.233 93.3147Z" fill="white"/>
<path d="M178.967 93.3147C178.967 95.276 177 95.2759 177 95.2759C175.033 95.2759 175.033 93.3147 175.033 93.3147C175.033 91.3534 177 91.3534 177 91.3534C178.967 89.3921 178.967 91.3534 178.967 93.3147Z" fill="white"/>
<path d="M5.9 109.005C5.9 110.966 3.93333 110.966 3.93333 110.966C1.96667 112.927 0 110.966 0 109.005C0 107.043 1.96667 107.043 1.96667 107.043C3.93333 107.043 5.9 109.005 5.9 109.005Z" fill="white"/>
<path d="M21.6335 109.005C21.6335 110.966 19.6669 110.966 19.6669 110.966C17.7002 110.966 17.7002 109.005 17.7002 109.005C17.7002 107.043 19.6669 107.043 19.6669 107.043L21.6335 109.005Z" fill="white"/>
<path d="M37.3664 109.005C37.3664 110.966 35.3998 110.966 35.3998 110.966C33.4331 110.966 33.4331 109.005 33.4331 109.005C33.4331 107.043 35.3998 107.043 35.3998 107.043C35.3998 107.043 37.3664 109.005 37.3664 109.005Z" fill="white"/>
<path d="M53.0998 109.005C53.0998 110.966 51.1332 110.966 51.1332 110.966C49.1665 110.966 49.1665 109.005 49.1665 109.005C49.1665 107.043 51.1332 107.043 51.1332 107.043L53.0998 109.005Z" fill="white"/>
<path d="M68.8332 109.005C68.8332 110.966 66.8666 110.966 66.8666 110.966C64.8999 110.966 64.8999 109.005 64.8999 109.005C64.8999 107.043 66.8666 107.043 66.8666 107.043L68.8332 109.005Z" fill="white"/>
<path d="M84.5665 109.005C84.5665 110.966 82.5998 110.966 82.5998 110.966C80.6332 112.927 78.6665 110.966 78.6665 109.005C78.6665 107.043 80.6332 107.043 80.6332 107.043C82.5998 107.043 84.5665 109.005 84.5665 109.005Z" fill="white"/>
<path d="M100.3 109.005C100.3 110.966 98.3334 110.966 98.3334 110.966C96.3667 110.966 96.3667 109.005 96.3667 109.005C96.3667 107.043 98.3334 107.043 98.3334 107.043C100.3 107.043 100.3 109.005 100.3 109.005Z" fill="white"/>
<path d="M116.033 109.005C116.033 110.966 114.067 110.966 114.067 110.966C112.1 110.966 112.1 109.005 112.1 109.005C112.1 107.043 114.067 107.043 114.067 107.043C116.033 107.043 116.033 109.005 116.033 109.005Z" fill="white"/>
<path d="M131.767 109.005C131.767 110.966 129.8 110.966 129.8 110.966C127.833 110.966 127.833 109.005 127.833 109.005C127.833 107.043 129.8 107.043 129.8 107.043C131.767 107.043 131.767 109.005 131.767 109.005Z" fill="white"/>
<path d="M147.5 109.005C147.5 110.966 145.534 110.966 145.534 110.966C143.567 110.966 143.567 109.005 143.567 109.005C143.567 107.043 145.534 107.043 145.534 107.043C147.5 107.043 147.5 109.005 147.5 109.005Z" fill="white"/>
<path d="M163.233 109.005C163.233 110.966 161.266 110.966 161.266 110.966C159.3 110.966 159.3 109.005 159.3 109.005C159.3 107.043 161.266 107.043 161.266 107.043C163.233 107.043 163.233 109.005 163.233 109.005Z" fill="white"/>
<path d="M178.967 109.005C178.967 110.966 177 110.966 177 110.966C175.033 110.966 175.033 109.005 175.033 109.005C175.033 107.043 177 107.043 177 107.043C178.967 107.043 178.967 109.005 178.967 109.005Z" fill="white"/>
<path d="M5.90013 126.656C5.90013 128.618 3.93346 128.618 3.93346 128.618C1.9668 128.618 1.9668 126.656 1.9668 126.656L3.93346 124.695C3.93346 122.734 5.90013 124.695 5.90013 126.656Z" fill="white"/>
<path d="M21.6335 126.656C21.6335 128.618 19.6669 128.618 19.6669 128.618C17.7002 128.618 17.7002 126.656 17.7002 126.656L19.6669 124.695C19.6669 122.734 21.6335 124.695 21.6335 126.656Z" fill="white"/>
<path d="M37.3664 126.656C37.3664 128.618 35.3998 128.618 35.3998 128.618C33.4331 128.618 33.4331 126.656 33.4331 126.656L35.3998 124.695C35.3998 122.734 37.3664 124.695 37.3664 126.656Z" fill="white"/>
<path d="M53.0998 126.656C53.0998 128.618 51.1332 128.618 51.1332 128.618C49.1665 128.618 49.1665 126.656 49.1665 126.656L51.1332 124.695C51.1332 122.734 53.0998 124.695 53.0998 126.656Z" fill="white"/>
<path d="M68.8332 126.656C68.8332 128.618 66.8666 128.618 66.8666 128.618C64.8999 128.618 64.8999 126.656 64.8999 126.656L66.8666 124.695C66.8666 122.734 68.8332 124.695 68.8332 126.656Z" fill="white"/>
<path d="M84.5666 126.656C84.5666 128.618 82.6 128.618 82.6 128.618C80.6333 128.618 80.6333 126.656 80.6333 126.656L82.6 124.695C82.6 122.734 84.5666 124.695 84.5666 126.656Z" fill="white"/>
<path d="M100.3 126.656C100.3 128.618 98.3334 128.618 98.3334 128.618C96.3667 128.618 96.3667 126.656 96.3667 126.656L98.3334 124.695C100.3 122.734 100.3 124.695 100.3 126.656Z" fill="white"/>
<path d="M116.033 126.656C116.033 128.618 114.067 128.618 114.067 128.618C112.1 128.618 112.1 126.656 112.1 126.656L114.067 124.695C116.033 122.734 116.033 124.695 116.033 126.656Z" fill="white"/>
<path d="M131.767 126.656C131.767 128.618 129.8 128.618 129.8 128.618C127.833 128.618 127.833 126.656 127.833 126.656L129.8 124.695C131.767 122.734 131.767 124.695 131.767 126.656Z" fill="white"/>
<path d="M147.5 126.656C147.5 128.618 145.534 128.618 145.534 128.618C143.567 128.618 143.567 126.656 143.567 126.656L145.534 124.695C147.5 122.734 147.5 124.695 147.5 126.656Z" fill="white"/>
<path d="M163.233 126.656C163.233 128.618 161.266 128.618 161.266 128.618C159.3 128.618 159.3 126.656 159.3 126.656L161.266 124.695C163.233 122.734 163.233 124.695 163.233 126.656Z" fill="white"/>
<path d="M178.967 126.656C178.967 128.618 177 128.618 177 128.618C175.033 128.618 175.033 126.656 175.033 126.656L177 124.695C178.967 122.734 178.967 124.695 178.967 126.656Z" fill="white"/>
<path d="M1.96667 144.308C3.05283 144.308 3.93333 143.43 3.93333 142.347C3.93333 141.263 3.05283 140.385 1.96667 140.385C0.880507 140.385 0 141.263 0 142.347C0 143.43 0.880507 144.308 1.96667 144.308Z" fill="white"/>
<path d="M21.6335 142.347C21.6335 144.308 19.6669 144.308 19.6669 144.308C17.7002 144.308 17.7002 142.347 17.7002 142.347C17.7002 140.385 19.6669 140.385 19.6669 140.385L21.6335 142.347Z" fill="white"/>
<path d="M35.3998 144.308C36.4859 144.308 37.3664 143.43 37.3664 142.347C37.3664 141.263 36.4859 140.385 35.3998 140.385C34.3136 140.385 33.4331 141.263 33.4331 142.347C33.4331 143.43 34.3136 144.308 35.3998 144.308Z" fill="white"/>
<path d="M53.0998 142.347C53.0998 144.308 51.1332 144.308 51.1332 144.308C49.1665 144.308 49.1665 142.347 49.1665 142.347C49.1665 140.385 51.1332 140.385 51.1332 140.385L53.0998 142.347Z" fill="white"/>
<path d="M68.8332 142.347C68.8332 144.308 66.8666 144.308 66.8666 144.308C64.8999 144.308 64.8999 142.347 64.8999 142.347C64.8999 140.385 66.8666 140.385 66.8666 140.385L68.8332 142.347Z" fill="white"/>
<path d="M84.5666 142.347C84.5666 144.308 82.6 144.308 82.6 144.308C80.6333 144.308 80.6333 142.347 80.6333 142.347C80.6333 140.385 82.6 140.385 82.6 140.385L84.5666 142.347Z" fill="white"/>
<path d="M100.3 142.347C100.3 144.308 98.3334 144.308 98.3334 144.308C96.3667 144.308 96.3667 142.347 96.3667 142.347C96.3667 140.385 98.3334 140.385 98.3334 140.385C100.3 140.385 100.3 142.347 100.3 142.347Z" fill="white"/>
<path d="M116.033 142.347C116.033 144.308 114.067 144.308 114.067 144.308C112.1 144.308 112.1 142.347 112.1 142.347C112.1 140.385 114.067 140.385 114.067 140.385C116.033 140.385 116.033 142.347 116.033 142.347Z" fill="white"/>
<path d="M131.767 142.347C131.767 144.308 129.8 144.308 129.8 144.308C127.833 144.308 127.833 142.347 127.833 142.347C127.833 140.385 129.8 140.385 129.8 140.385C131.767 140.385 131.767 142.347 131.767 142.347Z" fill="white"/>
<path d="M147.5 142.347C147.5 144.308 145.534 144.308 145.534 144.308C143.567 144.308 143.567 142.347 143.567 142.347C143.567 140.385 145.534 140.385 145.534 140.385C147.5 140.385 147.5 142.347 147.5 142.347Z" fill="white"/>
<path d="M163.233 142.347C163.233 144.308 161.266 144.308 161.266 144.308C159.3 144.308 159.3 142.347 159.3 142.347C159.3 140.385 161.266 140.385 161.266 140.385C163.233 140.385 163.233 142.347 163.233 142.347Z" fill="white"/>
<path d="M178.967 142.347C178.967 144.308 177 144.308 177 144.308C175.033 144.308 175.033 142.347 175.033 142.347C175.033 140.385 177 140.385 177 140.385C178.967 140.385 178.967 142.347 178.967 142.347Z" fill="white"/>
<path d="M5.90013 159.998C5.90013 161.96 3.93346 161.96 3.93346 161.96C1.9668 161.96 1.9668 159.998 1.9668 159.998C1.9668 158.037 3.93346 158.037 3.93346 158.037C3.93346 156.076 5.90013 158.037 5.90013 159.998Z" fill="white"/>
<path d="M21.6335 159.998C21.6335 161.96 19.6669 161.96 19.6669 161.96C17.7002 161.96 17.7002 159.998 17.7002 159.998C17.7002 158.037 19.6669 158.037 19.6669 158.037C19.6669 156.076 21.6335 158.037 21.6335 159.998Z" fill="white"/>
<path d="M37.3664 159.998C37.3664 161.96 35.3998 161.96 35.3998 161.96C33.4331 161.96 33.4331 159.998 33.4331 159.998C33.4331 158.037 35.3998 158.037 35.3998 158.037C35.3998 156.076 37.3664 158.037 37.3664 159.998Z" fill="white"/>
<path d="M53.0998 159.998C53.0998 161.96 51.1332 161.96 51.1332 161.96C49.1665 161.96 49.1665 159.998 49.1665 159.998C49.1665 158.037 51.1332 158.037 51.1332 158.037C51.1332 156.076 53.0998 158.037 53.0998 159.998Z" fill="white"/>
<path d="M68.8332 159.998C68.8332 161.96 66.8666 161.96 66.8666 161.96C64.8999 161.96 64.8999 159.998 64.8999 159.998C64.8999 158.037 66.8666 158.037 66.8666 158.037C66.8666 156.076 68.8332 158.037 68.8332 159.998Z" fill="white"/>
<path d="M84.5666 159.998C84.5666 161.96 82.6 161.96 82.6 161.96C80.6333 161.96 80.6333 159.998 80.6333 159.998C80.6333 158.037 82.6 158.037 82.6 158.037C82.6 156.076 84.5666 158.037 84.5666 159.998Z" fill="white"/>
<path d="M100.3 159.998C100.3 161.96 98.3334 161.96 98.3334 161.96C96.3667 161.96 96.3667 159.998 96.3667 159.998C96.3667 158.037 98.3334 158.037 98.3334 158.037C100.3 156.076 100.3 158.037 100.3 159.998Z" fill="white"/>
<path d="M116.033 159.998C116.033 161.96 114.067 161.96 114.067 161.96C112.1 161.96 112.1 159.998 112.1 159.998C112.1 158.037 114.067 158.037 114.067 158.037C116.033 156.076 116.033 158.037 116.033 159.998Z" fill="white"/>
<path d="M131.767 159.998C131.767 161.96 129.8 161.96 129.8 161.96C127.833 161.96 127.833 159.998 127.833 159.998C127.833 158.037 129.8 158.037 129.8 158.037C131.767 156.076 131.767 158.037 131.767 159.998Z" fill="white"/>
<path d="M147.5 159.998C147.5 161.96 145.534 161.96 145.534 161.96C143.567 161.96 143.567 159.998 143.567 159.998C143.567 158.037 145.534 158.037 145.534 158.037C147.5 156.076 147.5 158.037 147.5 159.998Z" fill="white"/>
<path d="M163.233 159.998C163.233 161.96 161.266 161.96 161.266 161.96C159.3 161.96 159.3 159.998 159.3 159.998C159.3 158.037 161.266 158.037 161.266 158.037C163.233 156.076 163.233 158.037 163.233 159.998Z" fill="white"/>
<path d="M178.967 159.998C178.967 161.96 177 161.96 177 161.96C175.033 161.96 175.033 159.998 175.033 159.998C175.033 158.037 177 158.037 177 158.037C178.967 156.076 178.967 158.037 178.967 159.998Z" fill="white"/>
<path d="M1.96667 177.65C3.05283 177.65 3.93333 176.771 3.93333 175.688C3.93333 174.605 3.05283 173.727 1.96667 173.727C0.880507 173.727 0 174.605 0 175.688C0 176.771 0.880507 177.65 1.96667 177.65Z" fill="white"/>
<path d="M21.6335 175.688C21.6335 177.65 19.6669 177.65 19.6669 177.65C17.7002 177.65 17.7002 175.688 17.7002 175.688C17.7002 173.727 19.6669 173.727 19.6669 173.727L21.6335 175.688Z" fill="white"/>
<path d="M35.3998 177.65C36.4859 177.65 37.3664 176.771 37.3664 175.688C37.3664 174.605 36.4859 173.727 35.3998 173.727C34.3136 173.727 33.4331 174.605 33.4331 175.688C33.4331 176.771 34.3136 177.65 35.3998 177.65Z" fill="white"/>
<path d="M53.0998 175.688C53.0998 177.65 51.1332 177.65 51.1332 177.65C49.1665 177.65 49.1665 175.688 49.1665 175.688C49.1665 173.727 51.1332 173.727 51.1332 173.727L53.0998 175.688Z" fill="white"/>
<path d="M68.8332 175.688C68.8332 177.65 66.8666 177.65 66.8666 177.65C64.8999 177.65 64.8999 175.688 64.8999 175.688C64.8999 173.727 66.8666 173.727 66.8666 173.727L68.8332 175.688Z" fill="white"/>
<path d="M84.5666 175.688C84.5666 177.65 82.6 177.65 82.6 177.65C80.6333 177.65 80.6333 175.688 80.6333 175.688C80.6333 173.727 82.6 173.727 82.6 173.727L84.5666 175.688Z" fill="white"/>
<path d="M100.3 175.688C100.3 177.65 98.3334 177.65 98.3334 177.65C96.3667 177.65 96.3667 175.688 96.3667 175.688C96.3667 173.727 98.3334 173.727 98.3334 173.727C100.3 173.727 100.3 175.688 100.3 175.688Z" fill="white"/>
<path d="M116.033 175.688C116.033 177.65 114.067 177.65 114.067 177.65C112.1 177.65 112.1 175.688 112.1 175.688C112.1 173.727 114.067 173.727 114.067 173.727C116.033 173.727 116.033 175.688 116.033 175.688Z" fill="white"/>
<path d="M131.767 175.688C131.767 177.65 129.8 177.65 129.8 177.65C127.833 177.65 127.833 175.688 127.833 175.688C127.833 173.727 129.8 173.727 129.8 173.727C131.767 173.727 131.767 175.688 131.767 175.688Z" fill="white"/>
<path d="M147.5 175.688C147.5 177.65 145.534 177.65 145.534 177.65C143.567 177.65 143.567 175.688 143.567 175.688C143.567 173.727 145.534 173.727 145.534 173.727C147.5 173.727 147.5 175.688 147.5 175.688Z" fill="white"/>
<path d="M163.233 175.688C163.233 177.65 161.266 177.65 161.266 177.65C159.3 177.65 159.3 175.688 159.3 175.688C159.3 173.727 161.266 173.727 161.266 173.727C163.233 173.727 163.233 175.688 163.233 175.688Z" fill="white"/>
<path d="M178.967 175.688C178.967 177.65 177 177.65 177 177.65C175.033 177.65 175.033 175.688 175.033 175.688C175.033 173.727 177 173.727 177 173.727C178.967 173.727 178.967 175.688 178.967 175.688Z" fill="white"/>
<path d="M1.96667 195.301C3.05283 195.301 3.93333 194.423 3.93333 193.34C3.93333 192.257 3.05283 191.378 1.96667 191.378C0.880507 191.378 0 192.257 0 193.34C0 194.423 0.880507 195.301 1.96667 195.301Z" fill="white"/>
<path d="M21.6335 193.34C21.6335 195.301 19.6669 195.301 19.6669 195.301C17.7002 195.301 17.7002 193.34 17.7002 193.34L19.6669 191.378C19.6669 191.378 21.6335 191.378 21.6335 193.34Z" fill="white"/>
<path d="M35.3998 195.301C36.4859 195.301 37.3664 194.423 37.3664 193.34C37.3664 192.257 36.4859 191.378 35.3998 191.378C34.3136 191.378 33.4331 192.257 33.4331 193.34C33.4331 194.423 34.3136 195.301 35.3998 195.301Z" fill="white"/>
<path d="M53.0998 193.34C53.0998 195.301 51.1332 195.301 51.1332 195.301C49.1665 195.301 49.1665 193.34 49.1665 193.34L51.1332 191.378C51.1332 191.378 53.0998 191.378 53.0998 193.34Z" fill="white"/>
<path d="M68.8332 193.34C68.8332 195.301 66.8666 195.301 66.8666 195.301C64.8999 195.301 64.8999 193.34 64.8999 193.34L66.8666 191.378C66.8666 191.378 68.8332 191.378 68.8332 193.34Z" fill="white"/>
<path d="M84.5666 193.34C84.5666 195.301 82.6 195.301 82.6 195.301C80.6333 195.301 80.6333 193.34 80.6333 193.34L82.6 191.378C82.6 191.378 84.5666 191.378 84.5666 193.34Z" fill="white"/>
<path d="M100.3 193.34C100.3 195.301 98.3334 195.301 98.3334 195.301C96.3667 195.301 96.3667 193.34 96.3667 193.34L98.3334 191.378C100.3 191.378 100.3 191.378 100.3 193.34Z" fill="white"/>
<path d="M116.033 193.34C116.033 195.301 114.067 195.301 114.067 195.301C112.1 195.301 112.1 193.34 112.1 193.34L114.067 191.378C116.033 191.378 116.033 191.378 116.033 193.34Z" fill="white"/>
<path d="M131.767 193.34C131.767 195.301 129.8 195.301 129.8 195.301C127.833 195.301 127.833 193.34 127.833 193.34L129.8 191.378C131.767 191.378 131.767 191.378 131.767 193.34Z" fill="white"/>
<path d="M147.5 193.34C147.5 195.301 145.534 195.301 145.534 195.301C143.567 195.301 143.567 193.34 143.567 193.34L145.534 191.378C147.5 191.378 147.5 191.378 147.5 193.34Z" fill="white"/>
<path d="M163.233 193.34C163.233 195.301 161.266 195.301 161.266 195.301C159.3 195.301 159.3 193.34 159.3 193.34L161.266 191.378C163.233 191.378 163.233 191.378 163.233 193.34Z" fill="white"/>
<path d="M178.967 193.34C178.967 195.301 177 195.301 177 195.301C175.033 195.301 175.033 193.34 175.033 193.34L177 191.378C178.967 191.378 178.967 191.378 178.967 193.34Z" fill="white"/>
<path d="M1.96667 210.991C3.05283 210.991 3.93333 210.113 3.93333 209.03C3.93333 207.947 3.05283 207.069 1.96667 207.069C0.880507 207.069 0 207.947 0 209.03C0 210.113 0.880507 210.991 1.96667 210.991Z" fill="white"/>
<path d="M21.6335 209.03C21.6335 210.991 19.6669 210.991 19.6669 210.991C17.7002 210.991 17.7002 209.03 17.7002 209.03L19.6669 207.069L21.6335 209.03Z" fill="white"/>
<path d="M35.3998 210.991C36.4859 210.991 37.3664 210.113 37.3664 209.03C37.3664 207.947 36.4859 207.069 35.3998 207.069C34.3136 207.069 33.4331 207.947 33.4331 209.03C33.4331 210.113 34.3136 210.991 35.3998 210.991Z" fill="white"/>
<path d="M53.0998 209.03C53.0998 210.991 51.1332 210.991 51.1332 210.991C49.1665 210.991 49.1665 209.03 49.1665 209.03L51.1332 207.069L53.0998 209.03Z" fill="white"/>
<path d="M68.8332 209.03C68.8332 210.991 66.8666 210.991 66.8666 210.991C64.8999 210.991 64.8999 209.03 64.8999 209.03L66.8666 207.069L68.8332 209.03Z" fill="white"/>
<path d="M84.5665 209.03C84.5665 210.991 82.5998 210.991 82.5998 210.991C80.6332 212.953 78.6665 210.991 78.6665 209.03C78.6665 207.069 80.6332 207.069 80.6332 207.069C82.5998 207.069 84.5665 209.03 84.5665 209.03Z" fill="white"/>
<path d="M100.3 209.03C100.3 210.991 98.3334 210.991 98.3334 210.991C96.3667 210.991 96.3667 209.03 96.3667 209.03L98.3334 207.069C100.3 207.069 100.3 209.03 100.3 209.03Z" fill="white"/>
<path d="M116.033 209.03C116.033 210.991 114.067 210.991 114.067 210.991C112.1 210.991 112.1 209.03 112.1 209.03L114.067 207.069C116.033 207.069 116.033 209.03 116.033 209.03Z" fill="white"/>
<path d="M131.767 209.03C131.767 210.991 129.8 210.991 129.8 210.991C127.833 210.991 127.833 209.03 127.833 209.03L129.8 207.069C131.767 207.069 131.767 209.03 131.767 209.03Z" fill="white"/>
<path d="M147.5 209.03C147.5 210.991 145.534 210.991 145.534 210.991C143.567 210.991 143.567 209.03 143.567 209.03L145.534 207.069C147.5 207.069 147.5 209.03 147.5 209.03Z" fill="white"/>
<path d="M163.233 209.03C163.233 210.991 161.266 210.991 161.266 210.991C159.3 210.991 159.3 209.03 159.3 209.03L161.266 207.069C163.233 207.069 163.233 209.03 163.233 209.03Z" fill="white"/>
<path d="M178.967 209.03C178.967 210.991 177 210.991 177 210.991C175.033 210.991 175.033 209.03 175.033 209.03L177 207.069C178.967 207.069 178.967 209.03 178.967 209.03Z" fill="white"/>
<path d="M5.9 226.682C5.9 228.643 3.93333 228.643 1.96667 228.643C1.96667 228.643 0 228.643 0 226.682C0 224.72 1.96667 224.72 1.96667 224.72C3.93333 224.72 5.9 224.72 5.9 226.682Z" fill="white"/>
<path d="M21.6334 226.682C21.6334 228.643 19.6667 228.643 17.7001 228.643C15.7334 228.643 15.7334 226.682 15.7334 226.682C15.7334 224.72 17.7001 224.72 17.7001 224.72C19.6667 224.72 21.6334 224.72 21.6334 226.682Z" fill="white"/>
<path d="M37.3664 226.682C37.3664 228.643 35.3998 228.643 35.3998 228.643C33.4331 228.643 33.4331 226.682 33.4331 226.682C33.4331 224.72 35.3998 224.72 35.3998 224.72C35.3998 224.72 37.3664 224.72 37.3664 226.682Z" fill="white"/>
<path d="M53.0998 226.682C53.0998 228.643 51.1332 228.643 51.1332 228.643C49.1665 228.643 49.1665 226.682 49.1665 226.682C49.1665 224.72 51.1332 224.72 51.1332 224.72C51.1332 224.72 53.0998 224.72 53.0998 226.682Z" fill="white"/>
<path d="M68.8332 226.682C68.8332 228.643 66.8666 228.643 66.8666 228.643C64.8999 228.643 64.8999 226.682 64.8999 226.682C64.8999 224.72 66.8666 224.72 66.8666 224.72C66.8666 224.72 68.8332 224.72 68.8332 226.682Z" fill="white"/>
<path d="M84.5665 226.682C84.5665 228.643 82.5998 228.643 82.5998 228.643C80.6332 228.643 78.6665 228.643 78.6665 226.682C78.6665 224.72 80.6332 224.72 80.6332 224.72C82.5998 224.72 84.5665 224.72 84.5665 226.682Z" fill="white"/>
<path d="M100.3 226.682C100.3 228.643 100.3 228.643 98.3334 228.643C96.3667 228.643 96.3667 226.682 96.3667 226.682C96.3667 224.72 98.3334 224.72 98.3334 224.72C100.3 224.72 100.3 224.72 100.3 226.682Z" fill="white"/>
<path d="M116.033 226.682C116.033 228.643 116.033 228.643 114.067 228.643C112.1 228.643 112.1 226.682 112.1 226.682C112.1 224.72 114.067 224.72 114.067 224.72C116.033 224.72 116.033 224.72 116.033 226.682Z" fill="white"/>
<path d="M131.767 226.682C131.767 228.643 131.767 228.643 129.8 228.643C127.833 228.643 127.833 226.682 127.833 226.682C127.833 224.72 129.8 224.72 129.8 224.72C131.767 224.72 131.767 224.72 131.767 226.682Z" fill="white"/>
<path d="M147.5 226.682C147.5 228.643 147.5 228.643 145.534 228.643C143.567 228.643 143.567 226.682 143.567 226.682C143.567 224.72 145.534 224.72 145.534 224.72C147.5 224.72 147.5 224.72 147.5 226.682Z" fill="white"/>
<path d="M163.233 226.682C163.233 228.643 163.233 228.643 161.266 228.643C159.3 228.643 159.3 226.682 159.3 226.682C159.3 224.72 161.266 224.72 161.266 224.72C163.233 224.72 163.233 224.72 163.233 226.682Z" fill="white"/>
<path d="M178.967 226.682C178.967 228.643 178.967 228.643 177 228.643C175.033 228.643 175.033 226.682 175.033 226.682C175.033 224.72 177 224.72 177 224.72C178.967 224.72 178.967 224.72 178.967 226.682Z" fill="white"/>
<path d="M5.90013 244.333C5.90013 246.294 3.93346 246.294 3.93346 246.294C1.9668 246.294 1.9668 244.333 1.9668 244.333L3.93346 242.372C3.93346 240.411 5.90013 242.372 5.90013 244.333Z" fill="white"/>
<path d="M21.6335 244.333C21.6335 246.294 19.6669 246.294 19.6669 246.294C17.7002 246.294 17.7002 244.333 17.7002 244.333L19.6669 242.372C19.6669 240.411 21.6335 242.372 21.6335 244.333Z" fill="white"/>
<path d="M37.3664 244.333C37.3664 246.294 35.3998 246.294 35.3998 246.294C33.4331 246.294 33.4331 244.333 33.4331 244.333L35.3998 242.372C35.3998 240.411 37.3664 242.372 37.3664 244.333Z" fill="white"/>
<path d="M53.0998 244.333C53.0998 246.294 51.1332 246.294 51.1332 246.294C49.1665 246.294 49.1665 244.333 49.1665 244.333L51.1332 242.372C51.1332 240.411 53.0998 242.372 53.0998 244.333Z" fill="white"/>
<path d="M68.8332 244.333C68.8332 246.294 66.8666 246.294 66.8666 246.294C64.8999 246.294 64.8999 244.333 64.8999 244.333L66.8666 242.372C66.8666 240.411 68.8332 242.372 68.8332 244.333Z" fill="white"/>
<path d="M84.5666 244.333C84.5666 246.294 82.6 246.294 82.6 246.294C80.6333 246.294 80.6333 244.333 80.6333 244.333L82.6 242.372C82.6 240.411 84.5666 242.372 84.5666 244.333Z" fill="white"/>
<path d="M100.3 244.333C100.3 246.294 98.3334 246.294 98.3334 246.294C96.3667 246.294 96.3667 244.333 96.3667 244.333L98.3334 242.372C100.3 240.411 100.3 242.372 100.3 244.333Z" fill="white"/>
<path d="M116.033 244.333C116.033 246.294 114.067 246.294 114.067 246.294C112.1 246.294 112.1 244.333 112.1 244.333L114.067 242.372C116.033 240.411 116.033 242.372 116.033 244.333Z" fill="white"/>
<path d="M131.767 244.333C131.767 246.294 129.8 246.294 129.8 246.294C127.833 246.294 127.833 244.333 127.833 244.333L129.8 242.372C131.767 240.411 131.767 242.372 131.767 244.333Z" fill="white"/>
<path d="M147.5 244.333C147.5 246.294 145.534 246.294 145.534 246.294C143.567 246.294 143.567 244.333 143.567 244.333L145.534 242.372C147.5 240.411 147.5 242.372 147.5 244.333Z" fill="white"/>
<path d="M163.233 244.333C163.233 246.294 161.266 246.294 161.266 246.294C159.3 246.294 159.3 244.333 159.3 244.333L161.266 242.372C163.233 240.411 163.233 242.372 163.233 244.333Z" fill="white"/>
<path d="M178.967 244.333C178.967 246.294 177 246.294 177 246.294C175.033 246.294 175.033 244.333 175.033 244.333L177 242.372C178.967 240.411 178.967 242.372 178.967 244.333Z" fill="white"/>
<path d="M5.90013 260.023C5.90013 261.985 3.93346 261.985 3.93346 261.985C1.9668 261.985 1.9668 260.023 1.9668 260.023C1.9668 258.062 3.93346 258.062 3.93346 258.062C3.93346 258.062 5.90013 258.062 5.90013 260.023Z" fill="white"/>
<path d="M21.6335 260.023C21.6335 261.985 19.6669 261.985 19.6669 261.985C17.7002 261.985 17.7002 260.023 17.7002 260.023C17.7002 258.062 19.6669 258.062 19.6669 258.062C19.6669 258.062 21.6335 258.062 21.6335 260.023Z" fill="white"/>
<path d="M37.3664 260.023C37.3664 261.985 35.3998 261.985 35.3998 261.985C33.4331 261.985 33.4331 260.023 33.4331 260.023C33.4331 258.062 35.3998 258.062 35.3998 258.062C35.3998 258.062 37.3664 258.062 37.3664 260.023Z" fill="white"/>
<path d="M53.0998 260.023C53.0998 261.985 51.1332 261.985 51.1332 261.985C49.1665 261.985 49.1665 260.023 49.1665 260.023C49.1665 258.062 51.1332 258.062 51.1332 258.062C51.1332 258.062 53.0998 258.062 53.0998 260.023Z" fill="white"/>
<path d="M68.8332 260.023C68.8332 261.985 66.8666 261.985 66.8666 261.985C64.8999 261.985 64.8999 260.023 64.8999 260.023C64.8999 258.062 66.8666 258.062 66.8666 258.062C66.8666 258.062 68.8332 258.062 68.8332 260.023Z" fill="white"/>
<path d="M84.5666 260.023C84.5666 261.985 82.6 261.985 82.6 261.985C80.6333 261.985 80.6333 260.023 80.6333 260.023C80.6333 258.062 82.6 258.062 82.6 258.062C82.6 258.062 84.5666 258.062 84.5666 260.023Z" fill="white"/>
<path d="M100.3 260.023C100.3 261.985 98.3334 261.985 98.3334 261.985C96.3667 261.985 96.3667 260.023 96.3667 260.023C96.3667 258.062 98.3334 258.062 98.3334 258.062C100.3 258.062 100.3 258.062 100.3 260.023Z" fill="white"/>
<path d="M116.033 260.023C116.033 261.985 114.067 261.985 114.067 261.985C112.1 261.985 112.1 260.023 112.1 260.023C112.1 258.062 114.067 258.062 114.067 258.062C116.033 258.062 116.033 258.062 116.033 260.023Z" fill="white"/>
<path d="M131.767 260.023C131.767 261.985 129.8 261.985 129.8 261.985C127.833 261.985 127.833 260.023 127.833 260.023C127.833 258.062 129.8 258.062 129.8 258.062C131.767 258.062 131.767 258.062 131.767 260.023Z" fill="white"/>
<path d="M147.5 260.023C147.5 261.985 145.534 261.985 145.534 261.985C143.567 261.985 143.567 260.023 143.567 260.023C143.567 258.062 145.534 258.062 145.534 258.062C147.5 258.062 147.5 258.062 147.5 260.023Z" fill="white"/>
<path d="M163.233 260.023C163.233 261.985 161.266 261.985 161.266 261.985C159.3 261.985 159.3 260.023 159.3 260.023C159.3 258.062 161.266 258.062 161.266 258.062C163.233 258.062 163.233 258.062 163.233 260.023Z" fill="white"/>
<path d="M178.967 260.023C178.967 261.985 177 261.985 177 261.985C175.033 261.985 175.033 260.023 175.033 260.023C175.033 258.062 177 258.062 177 258.062C178.967 258.062 178.967 258.062 178.967 260.023Z" fill="white"/>
<path d="M5.90013 277.675C5.90013 279.636 3.93346 279.636 3.93346 279.636C1.9668 279.636 1.9668 277.675 1.9668 277.675C1.9668 275.714 3.93346 275.714 3.93346 275.714C3.93346 273.752 5.90013 275.714 5.90013 277.675Z" fill="white"/>
<path d="M21.6335 277.675C21.6335 279.636 19.6669 279.636 19.6669 279.636C17.7002 279.636 17.7002 277.675 17.7002 277.675C17.7002 275.714 19.6669 275.714 19.6669 275.714C19.6669 273.752 21.6335 275.714 21.6335 277.675Z" fill="white"/>
<path d="M37.3664 277.675C37.3664 279.636 35.3998 279.636 35.3998 279.636C33.4331 279.636 33.4331 277.675 33.4331 277.675C33.4331 275.714 35.3998 275.714 35.3998 275.714C35.3998 273.752 37.3664 275.714 37.3664 277.675Z" fill="white"/>
<path d="M53.0998 277.675C53.0998 279.636 51.1332 279.636 51.1332 279.636C49.1665 279.636 49.1665 277.675 49.1665 277.675C49.1665 275.714 51.1332 275.714 51.1332 275.714C51.1332 273.752 53.0998 275.714 53.0998 277.675Z" fill="white"/>
<path d="M68.8332 277.675C68.8332 279.636 66.8666 279.636 66.8666 279.636C64.8999 279.636 64.8999 277.675 64.8999 277.675C64.8999 275.714 66.8666 275.714 66.8666 275.714C66.8666 273.752 68.8332 275.714 68.8332 277.675Z" fill="white"/>
<path d="M84.5666 277.675C84.5666 279.636 82.6 279.636 82.6 279.636C80.6333 279.636 80.6333 277.675 80.6333 277.675C80.6333 275.714 82.6 275.714 82.6 275.714C82.6 273.752 84.5666 275.714 84.5666 277.675Z" fill="white"/>
<path d="M100.3 277.675C100.3 279.636 98.3334 279.636 98.3334 279.636C96.3667 279.636 96.3667 277.675 96.3667 277.675C96.3667 275.714 98.3334 275.714 98.3334 275.714C100.3 273.752 100.3 275.714 100.3 277.675Z" fill="white"/>
<path d="M116.033 277.675C116.033 279.636 114.067 279.636 114.067 279.636C112.1 279.636 112.1 277.675 112.1 277.675C112.1 275.714 114.067 275.714 114.067 275.714C116.033 273.752 116.033 275.714 116.033 277.675Z" fill="white"/>
<path d="M131.767 277.675C131.767 279.636 129.8 279.636 129.8 279.636C127.833 279.636 127.833 277.675 127.833 277.675C127.833 275.714 129.8 275.714 129.8 275.714C131.767 273.752 131.767 275.714 131.767 277.675Z" fill="white"/>
<path d="M147.5 277.675C147.5 279.636 145.534 279.636 145.534 279.636C143.567 279.636 143.567 277.675 143.567 277.675C143.567 275.714 145.534 275.714 145.534 275.714C147.5 273.752 147.5 275.714 147.5 277.675Z" fill="white"/>
<path d="M163.233 277.675C163.233 279.636 161.266 279.636 161.266 279.636C159.3 279.636 159.3 277.675 159.3 277.675C159.3 275.714 161.266 275.714 161.266 275.714C163.233 273.752 163.233 275.714 163.233 277.675Z" fill="white"/>
<path d="M178.967 277.675C178.967 279.636 177 279.636 177 279.636C175.033 279.636 175.033 277.675 175.033 277.675C175.033 275.714 177 275.714 177 275.714C178.967 273.752 178.967 275.714 178.967 277.675Z" fill="white"/>
<path d="M1.96667 295.326C3.05283 295.326 3.93333 294.448 3.93333 293.365C3.93333 292.282 3.05283 291.404 1.96667 291.404C0.880507 291.404 0 292.282 0 293.365C0 294.448 0.880507 295.326 1.96667 295.326Z" fill="white"/>
<path d="M21.6335 293.365C21.6335 295.326 19.6669 295.326 19.6669 295.326C17.7002 295.326 17.7002 293.365 17.7002 293.365C17.7002 291.404 19.6669 291.404 19.6669 291.404C19.6669 291.404 21.6335 291.404 21.6335 293.365Z" fill="white"/>
<path d="M35.3998 295.326C36.4859 295.326 37.3664 294.448 37.3664 293.365C37.3664 292.282 36.4859 291.404 35.3998 291.404C34.3136 291.404 33.4331 292.282 33.4331 293.365C33.4331 294.448 34.3136 295.326 35.3998 295.326Z" fill="white"/>
<path d="M53.0998 293.365C53.0998 295.326 51.1332 295.326 51.1332 295.326C49.1665 295.326 49.1665 293.365 49.1665 293.365C49.1665 291.404 51.1332 291.404 51.1332 291.404C51.1332 291.404 53.0998 291.404 53.0998 293.365Z" fill="white"/>
<path d="M68.8332 293.365C68.8332 295.326 66.8666 295.326 66.8666 295.326C64.8999 295.326 64.8999 293.365 64.8999 293.365C64.8999 291.404 66.8666 291.404 66.8666 291.404C66.8666 291.404 68.8332 291.404 68.8332 293.365Z" fill="white"/>
<path d="M84.5666 293.365C84.5666 295.326 82.6 295.326 82.6 295.326C80.6333 295.326 80.6333 293.365 80.6333 293.365C80.6333 291.404 82.6 291.404 82.6 291.404C82.6 291.404 84.5666 291.404 84.5666 293.365Z" fill="white"/>
<path d="M100.3 293.365C100.3 295.326 98.3334 295.326 98.3334 295.326C96.3667 295.326 96.3667 293.365 96.3667 293.365C96.3667 291.404 98.3334 291.404 98.3334 291.404C100.3 291.404 100.3 291.404 100.3 293.365Z" fill="white"/>
<path d="M116.033 293.365C116.033 295.326 114.067 295.326 114.067 295.326C112.1 295.326 112.1 293.365 112.1 293.365C112.1 291.404 114.067 291.404 114.067 291.404C116.033 291.404 116.033 291.404 116.033 293.365Z" fill="white"/>
<path d="M131.767 293.365C131.767 295.326 129.8 295.326 129.8 295.326C127.833 295.326 127.833 293.365 127.833 293.365C127.833 291.404 129.8 291.404 129.8 291.404C131.767 291.404 131.767 291.404 131.767 293.365Z" fill="white"/>
<path d="M147.5 293.365C147.5 295.326 145.534 295.326 145.534 295.326C143.567 295.326 143.567 293.365 143.567 293.365C143.567 291.404 145.534 291.404 145.534 291.404C147.5 291.404 147.5 291.404 147.5 293.365Z" fill="white"/>
<path d="M163.233 293.365C163.233 295.326 161.266 295.326 161.266 295.326C159.3 295.326 159.3 293.365 159.3 293.365C159.3 291.404 161.266 291.404 161.266 291.404C163.233 291.404 163.233 291.404 163.233 293.365Z" fill="white"/>
<path d="M178.967 293.365C178.967 295.326 177 295.326 177 295.326C175.033 295.326 175.033 293.365 175.033 293.365C175.033 291.404 177 291.404 177 291.404C178.967 291.404 178.967 291.404 178.967 293.365Z" fill="white"/>
</mask>
<g mask="url(#mask0_120_5065)">
<path d="M172.959 -95.5068L339.544 0.671249V193.027L172.959 289.206L6.37338 193.027V0.671249L172.959 -95.5068Z" fill="#F7FDFC" fill-opacity="0.2"/>
</g>
</svg>
