<svg width="260" height="627" viewBox="0 0 260 627" fill="none" xmlns="http://www.w3.org/2000/svg">
<mask id="mask0_120_5691" style="mask-type:alpha" maskUnits="userSpaceOnUse" x="0" y="0" width="502" height="627">
<g clip-path="url(#clip0_120_5691)">
<path d="M2.78889 6.06933C4.32915 6.06933 5.57778 4.82412 5.57778 3.28808C5.57778 1.75204 4.32915 0.506836 2.78889 0.506836C1.24863 0.506836 0 1.75204 0 3.28808C0 4.82412 1.24863 6.06933 2.78889 6.06933Z" fill="white"/>
<path d="M30.6779 3.28808C30.6779 6.06933 27.889 6.06933 27.889 6.06933C25.1001 6.06933 25.1001 3.28808 25.1001 3.28808V0.506836C27.889 0.506836 30.6779 3.28808 30.6779 3.28808Z" fill="white"/>
<path d="M50.2 6.06933C51.7403 6.06933 52.9889 4.82412 52.9889 3.28808C52.9889 1.75204 51.7403 0.506836 50.2 0.506836C48.6598 0.506836 47.4111 1.75204 47.4111 3.28808C47.4111 4.82412 48.6598 6.06933 50.2 6.06933Z" fill="white"/>
<path d="M75.2999 3.28808C75.2999 6.06933 72.5111 6.06933 72.5111 6.06933C69.7222 6.06933 69.7222 3.28808 69.7222 3.28808C69.7222 3.28808 69.7222 0.506836 72.5111 0.506836L75.2999 3.28808Z" fill="white"/>
<path d="M97.611 3.28808C97.611 6.06933 94.8221 6.06933 94.8221 6.06933C92.0332 6.06933 92.0332 3.28808 92.0332 3.28808C92.0332 3.28808 92.0332 0.506836 94.8221 0.506836L97.611 3.28808Z" fill="white"/>
<path d="M119.922 3.28808C119.922 6.06933 117.133 6.06933 117.133 6.06933C114.345 8.85058 111.556 6.06933 111.556 3.28808C111.556 0.506836 114.345 0.506836 117.133 0.506836L119.922 3.28808Z" fill="white"/>
<path d="M142.234 3.28808C142.234 6.06933 139.445 6.06933 139.445 6.06933C136.656 6.06933 136.656 3.28808 136.656 3.28808C136.656 3.28808 136.656 0.506836 139.445 0.506836C142.234 0.506836 142.234 3.28808 142.234 3.28808Z" fill="white"/>
<path d="M164.545 3.28808C164.545 6.06933 161.756 6.06933 161.756 6.06933C158.967 6.06933 158.967 3.28808 158.967 3.28808C158.967 3.28808 158.967 0.506836 161.756 0.506836C164.545 0.506836 164.545 3.28808 164.545 3.28808Z" fill="white"/>
<path d="M186.856 3.28808C186.856 6.06933 184.067 6.06933 184.067 6.06933C181.278 6.06933 181.278 3.28808 181.278 3.28808C181.278 3.28808 181.278 0.506836 184.067 0.506836C186.856 0.506836 186.856 3.28808 186.856 3.28808Z" fill="white"/>
<path d="M209.167 3.28808C209.167 6.06933 206.378 6.06933 206.378 6.06933C203.589 6.06933 203.589 3.28808 203.589 3.28808C203.589 3.28808 203.589 0.506836 206.378 0.506836C209.167 0.506836 209.167 3.28808 209.167 3.28808Z" fill="white"/>
<path d="M231.478 3.28808C231.478 6.06933 228.689 6.06933 228.689 6.06933C225.9 6.06933 225.9 3.28808 225.9 3.28808C225.9 3.28808 225.9 0.506836 228.689 0.506836C231.478 0.506836 231.478 3.28808 231.478 3.28808Z" fill="white"/>
<path d="M253.789 3.28808C253.789 6.06933 251 6.06933 251 6.06933C248.211 6.06933 248.211 3.28808 248.211 3.28808C248.211 3.28808 248.211 0.506836 251 0.506836C253.789 0.506836 253.789 3.28808 253.789 3.28808Z" fill="white"/>
<path d="M8.36667 28.3193C8.36667 31.1006 5.57778 31.1006 5.57778 31.1006C2.78889 31.1006 0 31.1006 0 28.3193C0 25.5381 2.78889 25.5381 2.78889 25.5381C5.57778 25.5381 8.36667 25.5381 8.36667 28.3193Z" fill="white"/>
<path d="M30.6777 28.3193C30.6777 31.1006 27.8888 31.1006 27.8888 31.1006C25.0999 31.1006 22.311 31.1006 22.311 28.3193C22.311 25.5381 25.0999 25.5381 25.0999 25.5381C27.8888 25.5381 30.6777 25.5381 30.6777 28.3193Z" fill="white"/>
<path d="M52.9887 28.3193C52.9887 31.1006 50.1998 31.1006 50.1998 31.1006C47.411 31.1006 44.6221 31.1006 44.6221 28.3193C44.6221 25.5381 47.411 25.5381 47.411 25.5381C50.1998 25.5381 52.9887 25.5381 52.9887 28.3193Z" fill="white"/>
<path d="M75.2998 28.3193C75.2998 31.1006 72.5109 31.1006 72.5109 31.1006C69.722 31.1006 66.9331 31.1006 66.9331 28.3193C66.9331 25.5381 69.722 25.5381 69.722 25.5381C72.5109 25.5381 75.2998 25.5381 75.2998 28.3193Z" fill="white"/>
<path d="M97.6113 28.3193C97.6113 31.1006 94.8224 31.1006 94.8224 31.1006C92.0335 31.1006 89.2446 31.1006 89.2446 28.3193C89.2446 25.5381 92.0335 25.5381 92.0335 25.5381C94.8224 25.5381 97.6113 25.5381 97.6113 28.3193Z" fill="white"/>
<path d="M119.922 28.3193C119.922 31.1006 117.133 31.1006 117.133 31.1006C114.345 31.1006 111.556 31.1006 111.556 28.3193C111.556 25.5381 114.345 25.5381 114.345 25.5381C117.133 25.5381 119.922 25.5381 119.922 28.3193Z" fill="white"/>
<path d="M142.233 28.3193C142.233 31.1006 139.444 31.1006 139.444 31.1006C136.656 31.1006 133.867 31.1006 133.867 28.3193C133.867 25.5381 136.656 25.5381 136.656 25.5381C142.233 25.5381 142.233 25.5381 142.233 28.3193Z" fill="white"/>
<path d="M164.544 28.3193C164.544 31.1006 161.756 31.1006 161.756 31.1006C158.967 31.1006 156.178 31.1006 156.178 28.3193C156.178 25.5381 158.967 25.5381 158.967 25.5381C164.544 25.5381 164.544 25.5381 164.544 28.3193Z" fill="white"/>
<path d="M186.856 28.3193C186.856 31.1006 184.067 31.1006 184.067 31.1006C181.278 31.1006 178.489 31.1006 178.489 28.3193C178.489 25.5381 181.278 25.5381 181.278 25.5381C186.856 25.5381 186.856 25.5381 186.856 28.3193Z" fill="white"/>
<path d="M209.166 28.3193C209.166 31.1006 206.378 31.1006 206.378 31.1006C203.589 31.1006 200.8 31.1006 200.8 28.3193C200.8 25.5381 203.589 25.5381 203.589 25.5381C209.166 25.5381 209.166 25.5381 209.166 28.3193Z" fill="white"/>
<path d="M231.478 28.3193C231.478 31.1006 228.689 31.1006 228.689 31.1006C225.9 31.1006 225.9 31.1006 225.9 28.3193C225.9 25.5381 228.689 25.5381 228.689 25.5381C231.478 25.5381 231.478 25.5381 231.478 28.3193Z" fill="white"/>
<path d="M253.789 28.3193C253.789 31.1006 251 31.1006 251 31.1006C248.211 31.1006 248.211 31.1006 248.211 28.3193C248.211 25.5381 251 25.5381 251 25.5381C253.789 25.5381 253.789 25.5381 253.789 28.3193Z" fill="white"/>
<path d="M2.78889 53.3506C4.32915 53.3506 5.57778 52.1054 5.57778 50.5693C5.57778 49.0333 4.32915 47.7881 2.78889 47.7881C1.24863 47.7881 0 49.0333 0 50.5693C0 52.1054 1.24863 53.3506 2.78889 53.3506Z" fill="white"/>
<path d="M30.6777 50.5693C30.6777 53.3506 27.8888 56.1318 25.0999 56.1318C25.0999 56.1318 22.311 53.3506 22.311 50.5693C22.311 47.7881 25.0999 47.7881 25.0999 47.7881C27.8888 47.7881 30.6777 50.5693 30.6777 50.5693Z" fill="white"/>
<path d="M50.2 53.3506C51.7403 53.3506 52.9889 52.1054 52.9889 50.5693C52.9889 49.0333 51.7403 47.7881 50.2 47.7881C48.6598 47.7881 47.4111 49.0333 47.4111 50.5693C47.4111 52.1054 48.6598 53.3506 50.2 53.3506Z" fill="white"/>
<path d="M75.2998 50.5693C75.2998 53.3506 72.5109 56.1318 72.5109 56.1318C69.722 56.1318 66.9331 53.3506 66.9331 50.5693C66.9331 47.7881 69.722 47.7881 69.722 47.7881C72.5109 47.7881 75.2998 50.5693 75.2998 50.5693Z" fill="white"/>
<path d="M97.6113 50.5693C97.6113 53.3506 94.8224 56.1318 94.8224 56.1318C92.0335 56.1318 89.2446 53.3506 89.2446 50.5693C89.2446 47.7881 92.0335 47.7881 92.0335 47.7881C94.8224 47.7881 97.6113 50.5693 97.6113 50.5693Z" fill="white"/>
<path d="M119.922 50.5693C119.922 53.3506 117.133 56.1318 117.133 56.1318C114.345 56.1318 111.556 53.3506 111.556 50.5693C111.556 47.7881 114.345 47.7881 114.345 47.7881C117.133 47.7881 119.922 50.5693 119.922 50.5693Z" fill="white"/>
<path d="M142.233 50.5693C142.233 53.3506 142.233 56.1318 139.444 56.1318C136.656 56.1318 133.867 53.3506 133.867 50.5693C133.867 47.7881 136.656 47.7881 136.656 47.7881C142.233 47.7881 142.233 50.5693 142.233 50.5693Z" fill="white"/>
<path d="M164.544 50.5693C164.544 53.3506 164.544 56.1318 161.756 56.1318C158.967 56.1318 156.178 53.3506 156.178 50.5693C156.178 47.7881 158.967 47.7881 158.967 47.7881C164.544 47.7881 164.544 50.5693 164.544 50.5693Z" fill="white"/>
<path d="M186.856 50.5693C186.856 53.3506 186.856 56.1318 184.067 56.1318C181.278 56.1318 178.489 53.3506 178.489 50.5693C178.489 47.7881 181.278 47.7881 181.278 47.7881C186.856 47.7881 186.856 50.5693 186.856 50.5693Z" fill="white"/>
<path d="M209.166 50.5693C209.166 53.3506 209.166 56.1318 206.378 56.1318C203.589 56.1318 200.8 53.3506 200.8 50.5693C200.8 47.7881 203.589 47.7881 203.589 47.7881C209.166 47.7881 209.166 50.5693 209.166 50.5693Z" fill="white"/>
<path d="M231.478 50.5693C231.478 53.3506 231.478 56.1318 228.689 56.1318C225.9 56.1318 225.9 53.3506 225.9 50.5693C225.9 47.7881 228.689 47.7881 228.689 47.7881C231.478 47.7881 231.478 50.5693 231.478 50.5693Z" fill="white"/>
<path d="M253.789 50.5693C253.789 53.3506 253.789 56.1318 251 56.1318C248.211 56.1318 248.211 53.3506 248.211 50.5693C248.211 47.7881 251 47.7881 251 47.7881C253.789 47.7881 253.789 50.5693 253.789 50.5693Z" fill="white"/>
<path d="M2.78889 78.3818C4.32915 78.3818 5.57778 77.1366 5.57778 75.6006C5.57778 74.0645 4.32915 72.8193 2.78889 72.8193C1.24863 72.8193 0 74.0645 0 75.6006C0 77.1366 1.24863 78.3818 2.78889 78.3818Z" fill="white"/>
<path d="M30.6779 75.6006C30.6779 78.3818 27.889 78.3818 27.889 78.3818C25.1001 78.3818 25.1001 75.6006 25.1001 75.6006C25.1001 72.8193 27.889 72.8193 27.889 72.8193C27.889 72.8193 30.6779 72.8193 30.6779 75.6006Z" fill="white"/>
<path d="M50.2 78.3818C51.7403 78.3818 52.9889 77.1366 52.9889 75.6006C52.9889 74.0645 51.7403 72.8193 50.2 72.8193C48.6598 72.8193 47.4111 74.0645 47.4111 75.6006C47.4111 77.1366 48.6598 78.3818 50.2 78.3818Z" fill="white"/>
<path d="M75.2999 75.6006C75.2999 78.3818 72.5111 78.3818 72.5111 78.3818C69.7222 78.3818 69.7222 75.6006 69.7222 75.6006C69.7222 72.8193 72.5111 72.8193 72.5111 72.8193C72.5111 72.8193 75.2999 72.8193 75.2999 75.6006Z" fill="white"/>
<path d="M97.611 75.6006C97.611 78.3818 94.8221 78.3818 94.8221 78.3818C92.0332 78.3818 92.0332 75.6006 92.0332 75.6006C92.0332 72.8193 94.8221 72.8193 94.8221 72.8193C94.8221 72.8193 97.611 72.8193 97.611 75.6006Z" fill="white"/>
<path d="M119.922 75.6006C119.922 78.3818 117.133 78.3818 117.133 78.3818C114.345 78.3818 111.556 78.3818 111.556 75.6006C111.556 72.8193 114.345 72.8193 114.345 72.8193C117.133 72.8193 119.922 72.8193 119.922 75.6006Z" fill="white"/>
<path d="M142.234 75.6006C142.234 78.3818 139.445 78.3818 139.445 78.3818C136.656 78.3818 136.656 75.6006 136.656 75.6006C136.656 72.8193 139.445 72.8193 139.445 72.8193C142.234 72.8193 142.234 72.8193 142.234 75.6006Z" fill="white"/>
<path d="M164.545 75.6006C164.545 78.3818 161.756 78.3818 161.756 78.3818C158.967 78.3818 158.967 75.6006 158.967 75.6006C158.967 72.8193 161.756 72.8193 161.756 72.8193C164.545 72.8193 164.545 72.8193 164.545 75.6006Z" fill="white"/>
<path d="M186.856 75.6006C186.856 78.3818 184.067 78.3818 184.067 78.3818C181.278 78.3818 181.278 75.6006 181.278 75.6006C181.278 72.8193 184.067 72.8193 184.067 72.8193C186.856 72.8193 186.856 72.8193 186.856 75.6006Z" fill="white"/>
<path d="M209.167 75.6006C209.167 78.3818 206.378 78.3818 206.378 78.3818C203.589 78.3818 203.589 75.6006 203.589 75.6006C203.589 72.8193 206.378 72.8193 206.378 72.8193C209.167 72.8193 209.167 72.8193 209.167 75.6006Z" fill="white"/>
<path d="M231.478 75.6006C231.478 78.3818 228.689 78.3818 228.689 78.3818C225.9 78.3818 225.9 75.6006 225.9 75.6006C225.9 72.8193 228.689 72.8193 228.689 72.8193C231.478 72.8193 231.478 72.8193 231.478 75.6006Z" fill="white"/>
<path d="M253.789 75.6006C253.789 78.3818 251 78.3818 251 78.3818C248.211 78.3818 248.211 75.6006 248.211 75.6006C248.211 72.8193 251 72.8193 251 72.8193C253.789 72.8193 253.789 72.8193 253.789 75.6006Z" fill="white"/>
<path d="M2.78889 103.413C4.32915 103.413 5.57778 102.168 5.57778 100.632C5.57778 99.0958 4.32915 97.8506 2.78889 97.8506C1.24863 97.8506 0 99.0958 0 100.632C0 102.168 1.24863 103.413 2.78889 103.413Z" fill="white"/>
<path d="M30.6779 100.632C30.6779 103.413 27.889 103.413 27.889 103.413C25.1001 103.413 25.1001 100.632 25.1001 100.632L27.889 97.8503C27.889 95.069 30.6779 97.8503 30.6779 100.632Z" fill="white"/>
<path d="M50.2 103.413C51.7403 103.413 52.9889 102.168 52.9889 100.632C52.9889 99.0958 51.7403 97.8506 50.2 97.8506C48.6598 97.8506 47.4111 99.0958 47.4111 100.632C47.4111 102.168 48.6598 103.413 50.2 103.413Z" fill="white"/>
<path d="M75.2999 100.632C75.2999 103.413 72.5111 103.413 72.5111 103.413C69.7222 103.413 69.7222 100.632 69.7222 100.632L72.5111 97.8503C72.5111 95.069 75.2999 97.8503 75.2999 100.632Z" fill="white"/>
<path d="M97.611 100.632C97.611 103.413 94.8221 103.413 94.8221 103.413C92.0332 103.413 92.0332 100.632 92.0332 100.632L94.8221 97.8503C94.8221 95.069 97.611 97.8503 97.611 100.632Z" fill="white"/>
<path d="M119.922 100.632C119.922 103.413 117.133 103.413 117.133 103.413C114.345 103.413 111.556 100.632 111.556 100.632L114.345 97.8503C117.133 95.069 119.922 97.8503 119.922 100.632Z" fill="white"/>
<path d="M142.234 100.632C142.234 103.413 139.445 103.413 139.445 103.413C136.656 103.413 136.656 100.632 136.656 100.632C136.656 100.632 136.656 95.0693 139.445 95.0693C142.234 95.0693 142.234 97.8506 142.234 100.632Z" fill="white"/>
<path d="M164.545 100.632C164.545 103.413 161.756 103.413 161.756 103.413C158.967 103.413 158.967 100.632 158.967 100.632L161.756 97.8503C164.545 95.069 164.545 97.8503 164.545 100.632Z" fill="white"/>
<path d="M186.856 100.632C186.856 103.413 184.067 103.413 184.067 103.413C181.278 103.413 181.278 100.632 181.278 100.632L184.067 97.8503C186.856 95.069 186.856 97.8503 186.856 100.632Z" fill="white"/>
<path d="M209.167 100.632C209.167 103.413 206.378 103.413 206.378 103.413C203.589 103.413 203.589 100.632 203.589 100.632L206.378 97.8503C209.167 95.069 209.167 97.8503 209.167 100.632Z" fill="white"/>
<path d="M231.478 100.632C231.478 103.413 228.689 103.413 228.689 103.413C225.9 103.413 225.9 100.632 225.9 100.632L228.689 97.8503C231.478 95.069 231.478 97.8503 231.478 100.632Z" fill="white"/>
<path d="M253.789 100.632C253.789 103.413 251 103.413 251 103.413C248.211 103.413 248.211 100.632 248.211 100.632C248.211 100.632 248.211 95.0693 251 95.0693C253.789 95.0693 253.789 97.8506 253.789 100.632Z" fill="white"/>
<path d="M8.36667 122.882C8.36667 125.663 5.57778 125.663 5.57778 125.663C2.78889 125.663 0 125.663 0 122.882C0 120.101 2.78889 120.101 2.78889 120.101C5.57778 120.101 8.36667 120.101 8.36667 122.882Z" fill="white"/>
<path d="M30.6779 122.882C30.6779 125.663 27.889 125.663 27.889 125.663C25.1001 125.663 25.1001 122.882 25.1001 122.882C25.1001 120.101 27.889 120.101 27.889 120.101C27.889 120.101 30.6779 120.101 30.6779 122.882Z" fill="white"/>
<path d="M52.9889 122.882C52.9889 125.663 50.2 125.663 50.2 125.663C47.4111 125.663 47.4111 122.882 47.4111 122.882C47.4111 120.101 50.2 120.101 50.2 120.101C50.2 120.101 52.9889 120.101 52.9889 122.882Z" fill="white"/>
<path d="M75.2999 122.882C75.2999 125.663 72.5111 125.663 72.5111 125.663C69.7222 125.663 69.7222 122.882 69.7222 122.882C69.7222 120.101 72.5111 120.101 72.5111 120.101C72.5111 120.101 75.2999 120.101 75.2999 122.882Z" fill="white"/>
<path d="M97.611 122.882C97.611 125.663 94.8221 125.663 94.8221 125.663C92.0332 125.663 92.0332 122.882 92.0332 122.882C92.0332 120.101 94.8221 120.101 94.8221 120.101C94.8221 120.101 97.611 120.101 97.611 122.882Z" fill="white"/>
<path d="M119.922 122.882C119.922 125.663 117.133 125.663 117.133 125.663C114.345 125.663 111.556 125.663 111.556 122.882C111.556 120.101 114.345 120.101 114.345 120.101C117.133 120.101 119.922 120.101 119.922 122.882Z" fill="white"/>
<path d="M142.234 122.882C142.234 125.663 139.445 125.663 139.445 125.663C136.656 125.663 136.656 122.882 136.656 122.882C136.656 120.101 139.445 120.101 139.445 120.101C142.234 120.101 142.234 120.101 142.234 122.882Z" fill="white"/>
<path d="M164.545 122.882C164.545 125.663 161.756 125.663 161.756 125.663C158.967 125.663 158.967 122.882 158.967 122.882C158.967 120.101 161.756 120.101 161.756 120.101C164.545 120.101 164.545 120.101 164.545 122.882Z" fill="white"/>
<path d="M186.856 122.882C186.856 125.663 184.067 125.663 184.067 125.663C181.278 125.663 181.278 122.882 181.278 122.882C181.278 120.101 184.067 120.101 184.067 120.101C186.856 120.101 186.856 120.101 186.856 122.882Z" fill="white"/>
<path d="M209.167 122.882C209.167 125.663 206.378 125.663 206.378 125.663C203.589 125.663 203.589 122.882 203.589 122.882C203.589 120.101 206.378 120.101 206.378 120.101C209.167 120.101 209.167 120.101 209.167 122.882Z" fill="white"/>
<path d="M231.478 122.882C231.478 125.663 228.689 125.663 228.689 125.663C225.9 125.663 225.9 122.882 225.9 122.882C225.9 120.101 228.689 120.101 228.689 120.101C231.478 120.101 231.478 120.101 231.478 122.882Z" fill="white"/>
<path d="M253.789 122.882C253.789 125.663 251 125.663 251 125.663C248.211 125.663 248.211 122.882 248.211 122.882C248.211 120.101 251 120.101 251 120.101C253.789 120.101 253.789 120.101 253.789 122.882Z" fill="white"/>
<path d="M8.36667 147.913C8.36667 150.694 5.57778 150.694 5.57778 150.694C2.78889 150.694 0 147.913 0 147.913C0 145.132 2.78889 145.132 2.78889 145.132C5.57778 142.35 8.36667 145.132 8.36667 147.913Z" fill="white"/>
<path d="M30.6779 147.913C30.6779 150.694 27.889 150.694 27.889 150.694C25.1001 150.694 25.1001 147.913 25.1001 147.913C25.1001 145.132 27.889 145.132 27.889 145.132C27.889 142.35 30.6779 145.132 30.6779 147.913Z" fill="white"/>
<path d="M52.9889 147.913C52.9889 150.694 50.2 150.694 50.2 150.694C47.4111 150.694 47.4111 147.913 47.4111 147.913C47.4111 145.132 50.2 145.132 50.2 145.132C50.2 142.35 52.9889 145.132 52.9889 147.913Z" fill="white"/>
<path d="M75.2999 147.913C75.2999 150.694 72.5111 150.694 72.5111 150.694C69.7222 150.694 69.7222 147.913 69.7222 147.913C69.7222 145.132 72.5111 145.132 72.5111 145.132C72.5111 142.35 75.2999 145.132 75.2999 147.913Z" fill="white"/>
<path d="M97.611 147.913C97.611 150.694 94.8221 150.694 94.8221 150.694C92.0332 150.694 92.0332 147.913 92.0332 147.913C92.0332 145.132 94.8221 145.132 94.8221 145.132C94.8221 142.35 97.611 145.132 97.611 147.913Z" fill="white"/>
<path d="M119.922 147.913C119.922 150.694 117.133 150.694 117.133 150.694C114.345 150.694 111.556 147.913 111.556 147.913C111.556 145.132 114.345 145.132 114.345 145.132C117.133 142.35 119.922 145.132 119.922 147.913Z" fill="white"/>
<path d="M142.234 147.913C142.234 150.694 139.445 150.694 139.445 150.694C136.656 150.694 136.656 147.913 136.656 147.913C136.656 145.132 139.445 145.132 139.445 145.132C142.234 142.35 142.234 145.132 142.234 147.913Z" fill="white"/>
<path d="M164.545 147.913C164.545 150.694 161.756 150.694 161.756 150.694C158.967 150.694 158.967 147.913 158.967 147.913C158.967 145.132 161.756 145.132 161.756 145.132C164.545 142.35 164.545 145.132 164.545 147.913Z" fill="white"/>
<path d="M186.856 147.913C186.856 150.694 184.067 150.694 184.067 150.694C181.278 150.694 181.278 147.913 181.278 147.913C181.278 145.132 184.067 145.132 184.067 145.132C186.856 142.35 186.856 145.132 186.856 147.913Z" fill="white"/>
<path d="M209.167 147.913C209.167 150.694 206.378 150.694 206.378 150.694C203.589 150.694 203.589 147.913 203.589 147.913C203.589 145.132 206.378 145.132 206.378 145.132C209.167 142.35 209.167 145.132 209.167 147.913Z" fill="white"/>
<path d="M231.478 147.913C231.478 150.694 228.689 150.694 228.689 150.694C225.9 150.694 225.9 147.913 225.9 147.913C225.9 145.132 228.689 145.132 228.689 145.132C231.478 142.35 231.478 145.132 231.478 147.913Z" fill="white"/>
<path d="M253.789 147.913C253.789 150.694 251 150.694 251 150.694C248.211 150.694 248.211 147.913 248.211 147.913C248.211 145.132 251 145.132 251 145.132C253.789 142.35 253.789 145.132 253.789 147.913Z" fill="white"/>
<path d="M8.36667 170.163C8.36667 172.944 5.57778 172.944 5.57778 172.944C2.78889 175.726 0 172.944 0 170.163C0 167.382 2.78889 167.382 2.78889 167.382C5.57778 167.382 8.36667 167.382 8.36667 170.163Z" fill="white"/>
<path d="M30.6776 170.163C30.6776 172.944 27.8887 172.944 27.8887 172.944C25.0999 172.944 25.0999 170.163 25.0999 170.163C22.311 167.382 25.0999 167.382 25.0999 167.382C27.8887 167.382 30.6776 167.382 30.6776 170.163Z" fill="white"/>
<path d="M52.9888 170.163C52.9888 172.944 50.1999 172.944 50.1999 172.944C47.4111 172.944 47.4111 170.163 47.4111 170.163C44.6222 167.382 47.4111 167.382 50.1999 167.382C50.1999 167.382 52.9888 167.382 52.9888 170.163Z" fill="white"/>
<path d="M75.3004 170.163C75.3004 172.944 72.5115 172.944 72.5115 172.944C69.7226 172.944 69.7226 170.163 69.7226 170.163C66.9337 167.382 69.7226 167.382 72.5115 167.382C72.5115 167.382 75.3004 167.382 75.3004 170.163Z" fill="white"/>
<path d="M97.6109 170.163C97.6109 172.944 94.822 172.944 94.822 172.944C92.0331 172.944 92.0331 170.163 92.0331 170.163C89.2442 167.382 92.0331 167.382 94.822 167.382C94.822 167.382 97.6109 167.382 97.6109 170.163Z" fill="white"/>
<path d="M119.922 170.163C119.922 172.944 117.133 172.944 117.133 172.944C114.345 175.726 111.556 172.944 111.556 170.163C111.556 167.382 114.345 167.382 117.133 167.382C117.133 167.382 119.922 167.382 119.922 170.163Z" fill="white"/>
<path d="M142.233 170.163C142.233 172.944 139.445 172.944 139.445 172.944C136.656 172.944 136.656 170.163 136.656 170.163C133.867 167.382 136.656 167.382 139.445 167.382C142.233 167.382 142.233 167.382 142.233 170.163Z" fill="white"/>
<path d="M164.545 170.163C164.545 172.944 161.756 172.944 161.756 172.944C158.967 172.944 158.967 170.163 158.967 170.163C156.178 167.382 158.967 167.382 161.756 167.382C164.545 167.382 164.545 167.382 164.545 170.163Z" fill="white"/>
<path d="M186.856 170.163C186.856 172.944 184.067 172.944 184.067 172.944C181.278 172.944 181.278 170.163 181.278 170.163C178.489 167.382 181.278 167.382 184.067 167.382C186.856 167.382 186.856 167.382 186.856 170.163Z" fill="white"/>
<path d="M209.167 170.163C209.167 172.944 206.378 172.944 206.378 172.944C203.589 172.944 203.589 170.163 203.589 170.163C200.8 167.382 203.589 167.382 206.378 167.382C209.167 167.382 209.167 167.382 209.167 170.163Z" fill="white"/>
<path d="M231.478 170.163C231.478 172.944 228.689 172.944 228.689 172.944C225.9 172.944 225.9 170.163 225.9 170.163C225.9 167.382 225.9 167.382 228.689 167.382C231.478 167.382 231.478 167.382 231.478 170.163Z" fill="white"/>
<path d="M253.789 170.163C253.789 172.944 251 172.944 251 172.944C248.211 172.944 248.211 170.163 248.211 170.163C248.211 167.382 248.211 167.382 251 167.382C253.789 167.382 253.789 167.382 253.789 170.163Z" fill="white"/>
<path d="M8.36667 195.194C8.36667 197.975 5.57778 197.975 5.57778 197.975C2.78889 197.975 0 195.194 0 195.194C0 192.413 2.78889 192.413 2.78889 192.413C5.57778 189.632 8.36667 192.413 8.36667 195.194Z" fill="white"/>
<path d="M30.6777 195.194C30.6777 195.194 27.8888 197.975 25.0999 197.975L22.311 195.194C22.311 192.413 25.0999 192.413 25.0999 192.413C27.8888 189.632 30.6777 192.413 30.6777 195.194Z" fill="white"/>
<path d="M52.9887 195.194C52.9887 197.975 50.1998 197.975 50.1998 197.975C47.411 197.975 44.6221 195.194 44.6221 195.194C44.6221 192.413 47.411 192.413 47.411 192.413C50.1998 189.632 52.9887 192.413 52.9887 195.194Z" fill="white"/>
<path d="M75.2998 195.194C75.2998 197.975 72.5109 197.975 72.5109 197.975C69.722 197.975 66.9331 195.194 66.9331 195.194C66.9331 192.413 69.722 192.413 69.722 192.413C72.5109 189.632 75.2998 192.413 75.2998 195.194Z" fill="white"/>
<path d="M97.6113 195.194C97.6113 197.975 94.8224 197.975 94.8224 197.975C92.0335 197.975 89.2446 195.194 89.2446 195.194C89.2446 192.413 92.0335 192.413 92.0335 192.413C94.8224 189.632 97.6113 192.413 97.6113 195.194Z" fill="white"/>
<path d="M119.922 195.194C119.922 197.975 117.133 197.975 117.133 197.975C114.345 197.975 111.556 195.194 111.556 195.194C111.556 192.413 114.345 192.413 114.345 192.413C117.133 189.632 119.922 192.413 119.922 195.194Z" fill="white"/>
<path d="M142.233 195.194C142.233 195.194 142.233 197.975 139.444 197.975C136.656 197.975 133.867 195.194 133.867 195.194C133.867 192.413 136.656 192.413 136.656 192.413C142.233 189.632 142.233 192.413 142.233 195.194Z" fill="white"/>
<path d="M164.544 195.194C164.544 197.975 161.756 197.975 161.756 197.975C158.967 197.975 156.178 195.194 156.178 195.194C156.178 192.413 158.967 192.413 158.967 192.413C164.544 189.632 164.544 192.413 164.544 195.194Z" fill="white"/>
<path d="M186.856 195.194C186.856 197.975 184.067 197.975 184.067 197.975C181.278 197.975 178.489 195.194 178.489 195.194C178.489 192.413 181.278 192.413 181.278 192.413C186.856 189.632 186.856 192.413 186.856 195.194Z" fill="white"/>
<path d="M209.166 195.194C209.166 197.975 206.378 197.975 206.378 197.975C203.589 197.975 200.8 195.194 200.8 195.194C200.8 192.413 203.589 192.413 203.589 192.413C209.166 189.632 209.166 192.413 209.166 195.194Z" fill="white"/>
<path d="M231.478 195.194C231.478 197.975 228.689 197.975 228.689 197.975C225.9 197.975 225.9 195.194 225.9 195.194C225.9 192.413 228.689 192.413 228.689 192.413C231.478 189.632 231.478 192.413 231.478 195.194Z" fill="white"/>
<path d="M253.789 195.194C253.789 195.194 253.789 197.975 251 197.975C248.211 197.975 248.211 195.194 248.211 195.194C248.211 192.413 251 192.413 251 192.413C253.789 189.632 253.789 192.413 253.789 195.194Z" fill="white"/>
<path d="M8.36667 217.444C8.36667 220.226 5.57778 223.007 2.78889 223.007C2.78889 223.007 0 220.226 0 217.444C0 214.663 2.78889 214.663 2.78889 214.663C5.57778 214.663 8.36667 214.663 8.36667 217.444Z" fill="white"/>
<path d="M30.6777 217.444C30.6777 220.226 27.8888 223.007 25.0999 223.007C25.0999 223.007 22.311 220.226 22.311 217.444C22.311 214.663 25.0999 214.663 25.0999 214.663C27.8888 214.663 30.6777 214.663 30.6777 217.444Z" fill="white"/>
<path d="M52.9887 217.444C52.9887 220.226 50.1998 223.007 50.1998 223.007C47.411 223.007 44.6221 220.226 44.6221 217.444C44.6221 214.663 47.411 214.663 47.411 214.663C50.1998 214.663 52.9887 214.663 52.9887 217.444Z" fill="white"/>
<path d="M75.2998 217.444C75.2998 220.226 72.5109 223.007 72.5109 223.007C69.722 223.007 66.9331 220.226 66.9331 217.444C66.9331 214.663 69.722 214.663 69.722 214.663C72.5109 214.663 75.2998 214.663 75.2998 217.444Z" fill="white"/>
<path d="M97.6113 217.444C97.6113 220.226 94.8224 223.007 94.8224 223.007C92.0335 223.007 89.2446 220.226 89.2446 217.444C89.2446 214.663 92.0335 214.663 92.0335 214.663C94.8224 214.663 97.6113 214.663 97.6113 217.444Z" fill="white"/>
<path d="M119.922 217.444C119.922 220.226 117.133 223.007 117.133 223.007C114.345 223.007 111.556 220.226 111.556 217.444C111.556 214.663 114.345 214.663 114.345 214.663C117.133 214.663 119.922 214.663 119.922 217.444Z" fill="white"/>
<path d="M142.233 217.444C142.233 220.226 142.233 223.007 139.444 223.007C136.656 223.007 133.867 220.226 133.867 217.444C133.867 214.663 136.656 214.663 136.656 214.663C142.233 214.663 142.233 214.663 142.233 217.444Z" fill="white"/>
<path d="M164.544 217.444C164.544 220.226 164.544 223.007 161.756 223.007C158.967 223.007 156.178 220.226 156.178 217.444C156.178 214.663 158.967 214.663 158.967 214.663C164.544 214.663 164.544 214.663 164.544 217.444Z" fill="white"/>
<path d="M186.856 217.444C186.856 220.226 186.856 223.007 184.067 223.007C181.278 223.007 178.489 220.226 178.489 217.444C178.489 214.663 181.278 214.663 181.278 214.663C186.856 214.663 186.856 214.663 186.856 217.444Z" fill="white"/>
<path d="M209.166 217.444C209.166 220.226 209.166 223.007 206.378 223.007C203.589 223.007 200.8 220.226 200.8 217.444C200.8 214.663 203.589 214.663 203.589 214.663C209.166 214.663 209.166 214.663 209.166 217.444Z" fill="white"/>
<path d="M231.478 217.444C231.478 220.226 231.478 223.007 228.689 223.007C225.9 223.007 225.9 220.226 225.9 217.444C225.9 214.663 228.689 214.663 228.689 214.663C231.478 214.663 231.478 214.663 231.478 217.444Z" fill="white"/>
<path d="M253.789 217.444C253.789 220.226 253.789 223.007 251 223.007C248.211 223.007 248.211 220.226 248.211 217.444C248.211 214.663 251 214.663 251 214.663C253.789 214.663 253.789 214.663 253.789 217.444Z" fill="white"/>
<path d="M8.36667 242.475C8.36667 245.257 5.57778 245.257 5.57778 245.257C2.78889 245.257 0 242.475 0 242.475C0 239.694 2.78889 239.694 2.78889 239.694C5.57778 236.913 8.36667 239.694 8.36667 242.475Z" fill="white"/>
<path d="M30.6779 242.475C30.6779 245.257 27.889 245.257 27.889 245.257C25.1001 245.257 25.1001 242.475 25.1001 242.475C25.1001 239.694 27.889 239.694 27.889 239.694C27.889 236.913 30.6779 239.694 30.6779 242.475Z" fill="white"/>
<path d="M52.9889 242.475C52.9889 245.257 50.2 245.257 50.2 245.257C47.4111 245.257 47.4111 242.475 47.4111 242.475C47.4111 239.694 50.2 239.694 50.2 239.694C50.2 236.913 52.9889 239.694 52.9889 242.475Z" fill="white"/>
<path d="M75.2999 242.475C75.2999 245.257 72.5111 245.257 72.5111 245.257C69.7222 245.257 69.7222 242.475 69.7222 242.475C69.7222 239.694 72.5111 239.694 72.5111 239.694C72.5111 236.913 75.2999 239.694 75.2999 242.475Z" fill="white"/>
<path d="M97.611 242.475C97.611 245.257 94.8221 245.257 94.8221 245.257C92.0332 245.257 92.0332 242.475 92.0332 242.475C92.0332 239.694 94.8221 239.694 94.8221 239.694C94.8221 236.913 97.611 239.694 97.611 242.475Z" fill="white"/>
<path d="M119.922 242.475C119.922 245.257 117.133 245.257 117.133 245.257C114.345 245.257 111.556 242.475 111.556 242.475C111.556 239.694 114.345 239.694 114.345 239.694C117.133 236.913 119.922 239.694 119.922 242.475Z" fill="white"/>
<path d="M142.233 242.475C142.233 245.257 139.444 245.257 139.444 245.257C136.655 245.257 136.655 242.475 136.655 242.475C136.655 239.694 139.444 239.694 139.444 239.694C142.233 236.913 142.233 239.694 142.233 242.475Z" fill="white"/>
<path d="M164.545 242.475C164.545 245.257 161.756 245.257 161.756 245.257C158.967 245.257 158.967 242.475 158.967 242.475C158.967 239.694 161.756 239.694 161.756 239.694C164.545 236.913 164.545 239.694 164.545 242.475Z" fill="white"/>
<path d="M186.856 242.475C186.856 245.257 184.067 245.257 184.067 245.257C181.278 245.257 181.278 242.475 181.278 242.475C181.278 239.694 184.067 239.694 184.067 239.694C186.856 236.913 186.856 239.694 186.856 242.475Z" fill="white"/>
<path d="M209.167 242.475C209.167 245.257 206.378 245.257 206.378 245.257C203.589 245.257 203.589 242.475 203.589 242.475C203.589 239.694 206.378 239.694 206.378 239.694C209.167 236.913 209.167 239.694 209.167 242.475Z" fill="white"/>
<path d="M231.478 242.475C231.478 245.257 228.689 245.257 228.689 245.257C225.9 245.257 225.9 242.475 225.9 242.475C225.9 239.694 228.689 239.694 228.689 239.694C231.478 236.913 231.478 239.694 231.478 242.475Z" fill="white"/>
<path d="M253.789 242.475C253.789 245.257 251 245.257 251 245.257C248.211 245.257 248.211 242.475 248.211 242.475C248.211 239.694 251 239.694 251 239.694C253.789 236.913 253.789 239.694 253.789 242.475Z" fill="white"/>
<path d="M2.78889 267.507C4.32915 267.507 5.57778 266.262 5.57778 264.726C5.57778 263.19 4.32915 261.944 2.78889 261.944C1.24863 261.944 0 263.19 0 264.726C0 266.262 1.24863 267.507 2.78889 267.507Z" fill="white"/>
<path d="M30.6779 264.726C30.6779 267.507 27.889 267.507 27.889 267.507C25.1001 267.507 25.1001 264.726 25.1001 264.726C25.1001 261.944 27.889 261.944 27.889 261.944C27.889 261.944 30.6779 261.944 30.6779 264.726Z" fill="white"/>
<path d="M50.2 267.507C51.7403 267.507 52.9889 266.262 52.9889 264.726C52.9889 263.19 51.7403 261.944 50.2 261.944C48.6598 261.944 47.4111 263.19 47.4111 264.726C47.4111 266.262 48.6598 267.507 50.2 267.507Z" fill="white"/>
<path d="M75.2999 264.726C75.2999 267.507 72.5111 267.507 72.5111 267.507C69.7222 267.507 69.7222 264.726 69.7222 264.726C69.7222 261.944 72.5111 261.944 72.5111 261.944C72.5111 261.944 75.2999 261.944 75.2999 264.726Z" fill="white"/>
<path d="M97.611 264.726C97.611 267.507 94.8221 267.507 94.8221 267.507C92.0332 267.507 92.0332 264.726 92.0332 264.726C92.0332 261.944 94.8221 261.944 94.8221 261.944C94.8221 261.944 97.611 261.944 97.611 264.726Z" fill="white"/>
<path d="M119.922 264.726C119.922 267.507 117.133 267.507 117.133 267.507C114.345 270.288 111.556 267.507 111.556 264.726C111.556 261.944 114.345 261.944 114.345 261.944C117.133 261.944 119.922 261.944 119.922 264.726Z" fill="white"/>
<path d="M142.234 264.726C142.234 267.507 139.445 267.507 139.445 267.507C136.656 267.507 136.656 264.726 136.656 264.726C136.656 261.944 139.445 261.944 139.445 261.944C142.234 261.944 142.234 261.944 142.234 264.726Z" fill="white"/>
<path d="M164.545 264.726C164.545 267.507 161.756 267.507 161.756 267.507C158.967 267.507 158.967 264.726 158.967 264.726C158.967 261.944 161.756 261.944 161.756 261.944C164.545 261.944 164.545 261.944 164.545 264.726Z" fill="white"/>
<path d="M186.856 264.726C186.856 267.507 184.067 267.507 184.067 267.507C181.278 267.507 181.278 264.726 181.278 264.726C181.278 261.944 184.067 261.944 184.067 261.944C186.856 261.944 186.856 261.944 186.856 264.726Z" fill="white"/>
<path d="M209.167 264.726C209.167 267.507 206.378 267.507 206.378 267.507C203.589 267.507 203.589 264.726 203.589 264.726C203.589 261.944 206.378 261.944 206.378 261.944C209.167 261.944 209.167 261.944 209.167 264.726Z" fill="white"/>
<path d="M231.478 264.726C231.478 267.507 228.689 267.507 228.689 267.507C225.9 267.507 225.9 264.726 225.9 264.726C225.9 261.944 228.689 261.944 228.689 261.944C231.478 261.944 231.478 261.944 231.478 264.726Z" fill="white"/>
<path d="M253.789 264.726C253.789 267.507 251 267.507 251 267.507C248.211 267.507 248.211 264.726 248.211 264.726C248.211 261.944 251 261.944 251 261.944C253.789 261.944 253.789 261.944 253.789 264.726Z" fill="white"/>
<path d="M8.36684 289.757C8.36684 292.538 5.57795 292.538 5.57795 292.538C2.78906 292.538 2.78906 289.757 2.78906 289.757C2.78906 286.975 5.57795 286.975 5.57795 286.975C5.57795 284.194 8.36684 286.975 8.36684 289.757Z" fill="white"/>
<path d="M30.6779 289.757C30.6779 292.538 27.889 292.538 27.889 292.538C25.1001 292.538 25.1001 289.757 25.1001 289.757C25.1001 286.975 27.889 286.975 27.889 286.975C27.889 284.194 30.6779 286.975 30.6779 289.757Z" fill="white"/>
<path d="M52.9889 289.757C52.9889 292.538 50.2 292.538 50.2 292.538C47.4111 292.538 47.4111 289.757 47.4111 289.757C47.4111 286.975 50.2 286.975 50.2 286.975C50.2 284.194 52.9889 286.975 52.9889 289.757Z" fill="white"/>
<path d="M75.2999 289.757C75.2999 292.538 72.5111 292.538 72.5111 292.538C69.7222 292.538 69.7222 289.757 69.7222 289.757C69.7222 286.975 72.5111 286.975 72.5111 286.975C72.5111 284.194 75.2999 286.975 75.2999 289.757Z" fill="white"/>
<path d="M97.611 289.757C97.611 292.538 94.8221 292.538 94.8221 292.538C92.0332 292.538 92.0332 289.757 92.0332 289.757C92.0332 286.975 94.8221 286.975 94.8221 286.975C94.8221 284.194 97.611 286.975 97.611 289.757Z" fill="white"/>
<path d="M119.922 289.757C119.922 292.538 117.134 292.538 117.134 292.538C114.345 292.538 114.345 289.757 114.345 289.757C114.345 286.975 117.134 286.975 117.134 286.975C117.134 284.194 119.922 286.975 119.922 289.757Z" fill="white"/>
<path d="M142.233 289.757C142.233 292.538 139.444 292.538 139.444 292.538C136.655 292.538 136.655 289.757 136.655 289.757C136.655 286.975 139.444 286.975 139.444 286.975C142.233 284.194 142.233 286.975 142.233 289.757Z" fill="white"/>
<path d="M164.545 289.757C164.545 292.538 161.756 292.538 161.756 292.538C158.967 292.538 158.967 289.757 158.967 289.757C158.967 286.975 161.756 286.975 161.756 286.975C164.545 284.194 164.545 286.975 164.545 289.757Z" fill="white"/>
<path d="M186.856 289.757C186.856 292.538 184.067 292.538 184.067 292.538C181.278 292.538 181.278 289.757 181.278 289.757C181.278 286.975 184.067 286.975 184.067 286.975C186.856 284.194 186.856 286.975 186.856 289.757Z" fill="white"/>
<path d="M209.167 289.757C209.167 292.538 206.378 292.538 206.378 292.538C203.589 292.538 203.589 289.757 203.589 289.757C203.589 286.975 206.378 286.975 206.378 286.975C209.167 284.194 209.167 286.975 209.167 289.757Z" fill="white"/>
<path d="M231.478 289.757C231.478 292.538 228.689 292.538 228.689 292.538C225.9 292.538 225.9 289.757 225.9 289.757C225.9 286.975 228.689 286.975 228.689 286.975C231.478 284.194 231.478 286.975 231.478 289.757Z" fill="white"/>
<path d="M253.789 289.757C253.789 292.538 251 292.538 251 292.538C248.211 292.538 248.211 289.757 248.211 289.757C248.211 286.975 251 286.975 251 286.975C253.789 284.194 253.789 286.975 253.789 289.757Z" fill="white"/>
<path d="M8.36635 312.007C8.36635 314.788 5.57746 314.788 5.57746 314.788C2.78857 314.788 2.78857 312.007 2.78857 312.007C2.78857 309.226 5.57746 309.226 5.57746 309.226C5.57746 309.226 8.36635 309.226 8.36635 312.007Z" fill="white"/>
<path d="M30.6779 312.007C30.6779 314.788 27.889 314.788 27.889 314.788C25.1001 314.788 25.1001 312.007 25.1001 312.007C25.1001 309.226 27.889 309.226 27.889 309.226C27.889 309.226 30.6779 309.226 30.6779 312.007Z" fill="white"/>
<path d="M52.9889 312.007C52.9889 314.788 50.2 314.788 50.2 314.788C47.4111 314.788 47.4111 312.007 47.4111 312.007C47.4111 309.226 50.2 309.226 50.2 309.226C50.2 309.226 52.9889 309.226 52.9889 312.007Z" fill="white"/>
<path d="M75.2999 312.007C75.2999 314.788 72.5111 314.788 72.5111 314.788C69.7222 314.788 69.7222 312.007 69.7222 312.007C69.7222 309.226 72.5111 309.226 72.5111 309.226C72.5111 309.226 75.2999 309.226 75.2999 312.007Z" fill="white"/>
<path d="M97.611 312.007C97.611 314.788 94.8221 314.788 94.8221 314.788C92.0332 314.788 92.0332 312.007 92.0332 312.007C92.0332 309.226 94.8221 309.226 94.8221 309.226C94.8221 309.226 97.611 309.226 97.611 312.007Z" fill="white"/>
<path d="M119.922 312.007C119.922 314.788 117.133 314.788 117.133 314.788C114.344 314.788 114.344 312.007 114.344 312.007C114.344 309.226 117.133 309.226 117.133 309.226C117.133 309.226 119.922 309.226 119.922 312.007Z" fill="white"/>
<path d="M142.234 312.007C142.234 314.788 139.445 314.788 139.445 314.788C136.656 314.788 136.656 312.007 136.656 312.007C136.656 309.226 139.445 309.226 139.445 309.226C142.234 309.226 142.234 309.226 142.234 312.007Z" fill="white"/>
<path d="M164.545 312.007C164.545 314.788 161.756 314.788 161.756 314.788C158.967 314.788 158.967 312.007 158.967 312.007C158.967 309.226 161.756 309.226 161.756 309.226C164.545 309.226 164.545 309.226 164.545 312.007Z" fill="white"/>
<path d="M186.856 312.007C186.856 314.788 184.067 314.788 184.067 314.788C181.278 314.788 181.278 312.007 181.278 312.007C181.278 309.226 184.067 309.226 184.067 309.226C186.856 309.226 186.856 309.226 186.856 312.007Z" fill="white"/>
<path d="M209.167 312.007C209.167 314.788 206.378 314.788 206.378 314.788C203.589 314.788 203.589 312.007 203.589 312.007C203.589 309.226 206.378 309.226 206.378 309.226C209.167 309.226 209.167 309.226 209.167 312.007Z" fill="white"/>
<path d="M231.478 312.007C231.478 314.788 228.689 314.788 228.689 314.788C225.9 314.788 225.9 312.007 225.9 312.007C225.9 309.226 228.689 309.226 228.689 309.226C231.478 309.226 231.478 309.226 231.478 312.007Z" fill="white"/>
<path d="M253.789 312.007C253.789 314.788 251 314.788 251 314.788C248.211 314.788 248.211 312.007 248.211 312.007C248.211 309.226 251 309.226 251 309.226C253.789 309.226 253.789 309.226 253.789 312.007Z" fill="white"/>
<path d="M8.36684 337.038C8.36684 339.819 5.57795 339.819 5.57795 339.819C2.78906 339.819 2.78906 337.038 2.78906 337.038C2.78906 334.257 5.57795 334.257 5.57795 334.257C5.57795 331.475 8.36684 334.257 8.36684 337.038Z" fill="white"/>
<path d="M30.6779 337.038C30.6779 339.819 27.889 339.819 27.889 339.819C25.1001 339.819 25.1001 337.038 25.1001 337.038C25.1001 334.257 27.889 334.257 27.889 334.257C27.889 331.475 30.6779 334.257 30.6779 337.038Z" fill="white"/>
<path d="M52.9889 337.038C52.9889 339.819 50.2 339.819 50.2 339.819C47.4111 339.819 47.4111 337.038 47.4111 337.038C47.4111 334.257 50.2 334.257 50.2 334.257C50.2 331.475 52.9889 334.257 52.9889 337.038Z" fill="white"/>
<path d="M75.2999 337.038C75.2999 339.819 72.5111 339.819 72.5111 339.819C69.7222 339.819 69.7222 337.038 69.7222 337.038C69.7222 334.257 72.5111 334.257 72.5111 334.257C72.5111 331.475 75.2999 334.257 75.2999 337.038Z" fill="white"/>
<path d="M97.611 337.038C97.611 339.819 94.8221 339.819 94.8221 339.819C92.0332 339.819 92.0332 337.038 92.0332 337.038C92.0332 334.257 94.8221 334.257 94.8221 334.257C94.8221 331.475 97.611 334.257 97.611 337.038Z" fill="white"/>
<path d="M119.922 337.038C119.922 339.819 117.133 339.819 117.133 339.819C114.344 339.819 114.344 337.038 114.344 337.038C114.344 334.257 117.133 334.257 117.133 334.257C117.133 331.475 119.922 334.257 119.922 337.038Z" fill="white"/>
<path d="M142.234 337.038C142.234 339.819 139.445 339.819 139.445 339.819C136.656 339.819 136.656 337.038 136.656 337.038C136.656 334.257 139.445 334.257 139.445 334.257C142.234 331.475 142.234 334.257 142.234 337.038Z" fill="white"/>
<path d="M164.545 337.038C164.545 339.819 161.756 339.819 161.756 339.819C158.967 339.819 158.967 337.038 158.967 337.038C158.967 334.257 161.756 334.257 161.756 334.257C164.545 331.475 164.545 334.257 164.545 337.038Z" fill="white"/>
<path d="M186.856 337.038C186.856 339.819 184.067 339.819 184.067 339.819C181.278 339.819 181.278 337.038 181.278 337.038C181.278 334.257 184.067 334.257 184.067 334.257C186.856 331.475 186.856 334.257 186.856 337.038Z" fill="white"/>
<path d="M209.167 337.038C209.167 339.819 206.378 339.819 206.378 339.819C203.589 339.819 203.589 337.038 203.589 337.038C203.589 334.257 206.378 334.257 206.378 334.257C209.167 331.475 209.167 334.257 209.167 337.038Z" fill="white"/>
<path d="M231.478 337.038C231.478 339.819 228.689 339.819 228.689 339.819C225.9 339.819 225.9 337.038 225.9 337.038C225.9 334.257 228.689 334.257 228.689 334.257C231.478 331.475 231.478 334.257 231.478 337.038Z" fill="white"/>
<path d="M253.789 337.038C253.789 339.819 251 339.819 251 339.819C248.211 339.819 248.211 337.038 248.211 337.038C248.211 334.257 251 334.257 251 334.257C253.789 331.475 253.789 334.257 253.789 337.038Z" fill="white"/>
<path d="M8.36667 359.288C8.36667 362.069 5.57778 362.069 5.57778 362.069C2.78889 364.851 0 362.069 0 359.288C0 356.507 2.78889 356.507 2.78889 356.507C5.57778 356.507 8.36667 359.288 8.36667 359.288Z" fill="white"/>
<path d="M30.6779 359.288C30.6779 362.069 27.889 362.069 27.889 362.069C25.1001 362.069 25.1001 359.288 25.1001 359.288C25.1001 356.507 27.889 356.507 27.889 356.507L30.6779 359.288Z" fill="white"/>
<path d="M52.9889 359.288C52.9889 362.069 50.2 362.069 50.2 362.069C47.4111 362.069 47.4111 359.288 47.4111 359.288C47.4111 356.507 50.2 356.507 50.2 356.507C50.2 356.507 52.9889 359.288 52.9889 359.288Z" fill="white"/>
<path d="M75.2999 359.288C75.2999 362.069 72.5111 362.069 72.5111 362.069C69.7222 362.069 69.7222 359.288 69.7222 359.288C69.7222 356.507 72.5111 356.507 72.5111 356.507L75.2999 359.288Z" fill="white"/>
<path d="M97.611 359.288C97.611 362.069 94.8221 362.069 94.8221 362.069C92.0332 362.069 92.0332 359.288 92.0332 359.288C92.0332 356.507 94.8221 356.507 94.8221 356.507L97.611 359.288Z" fill="white"/>
<path d="M119.922 359.288C119.922 362.069 117.133 362.069 117.133 362.069C114.345 364.851 111.556 362.069 111.556 359.288C111.556 356.507 114.345 356.507 114.345 356.507C117.133 356.507 119.922 359.288 119.922 359.288Z" fill="white"/>
<path d="M142.234 359.288C142.234 362.069 139.445 362.069 139.445 362.069C136.656 362.069 136.656 359.288 136.656 359.288C136.656 356.507 139.445 356.507 139.445 356.507C142.234 356.507 142.234 359.288 142.234 359.288Z" fill="white"/>
<path d="M164.545 359.288C164.545 362.069 161.756 362.069 161.756 362.069C158.967 362.069 158.967 359.288 158.967 359.288C158.967 356.507 161.756 356.507 161.756 356.507C164.545 356.507 164.545 359.288 164.545 359.288Z" fill="white"/>
<path d="M186.856 359.288C186.856 362.069 184.067 362.069 184.067 362.069C181.278 362.069 181.278 359.288 181.278 359.288C181.278 356.507 184.067 356.507 184.067 356.507C186.856 356.507 186.856 359.288 186.856 359.288Z" fill="white"/>
<path d="M209.167 359.288C209.167 362.069 206.378 362.069 206.378 362.069C203.589 362.069 203.589 359.288 203.589 359.288C203.589 356.507 206.378 356.507 206.378 356.507C209.167 356.507 209.167 359.288 209.167 359.288Z" fill="white"/>
<path d="M231.478 359.288C231.478 362.069 228.689 362.069 228.689 362.069C225.9 362.069 225.9 359.288 225.9 359.288C225.9 356.507 228.689 356.507 228.689 356.507C231.478 356.507 231.478 359.288 231.478 359.288Z" fill="white"/>
<path d="M253.789 359.288C253.789 362.069 251 362.069 251 362.069C248.211 362.069 248.211 359.288 248.211 359.288C248.211 356.507 251 356.507 251 356.507C253.789 356.507 253.789 359.288 253.789 359.288Z" fill="white"/>
<path d="M8.36684 384.319C8.36684 387.1 5.57795 387.1 5.57795 387.1C2.78906 387.1 2.78906 384.319 2.78906 384.319L5.57795 381.538C5.57795 378.757 8.36684 381.538 8.36684 384.319Z" fill="white"/>
<path d="M30.6779 384.319C30.6779 387.1 27.889 387.1 27.889 387.1C25.1001 387.1 25.1001 384.319 25.1001 384.319L27.889 381.538C27.889 378.757 30.6779 381.538 30.6779 384.319Z" fill="white"/>
<path d="M52.9889 384.319C52.9889 387.1 50.2 387.1 50.2 387.1C47.4111 387.1 47.4111 384.319 47.4111 384.319L50.2 381.538C50.2 378.757 52.9889 381.538 52.9889 384.319Z" fill="white"/>
<path d="M75.2999 384.319C75.2999 387.1 72.5111 387.1 72.5111 387.1C69.7222 387.1 69.7222 384.319 69.7222 384.319L72.5111 381.538C72.5111 378.757 75.2999 381.538 75.2999 384.319Z" fill="white"/>
<path d="M97.611 384.319C97.611 387.1 94.8221 387.1 94.8221 387.1C92.0332 387.1 92.0332 384.319 92.0332 384.319L94.8221 381.538C94.8221 378.757 97.611 381.538 97.611 384.319Z" fill="white"/>
<path d="M119.922 384.319C119.922 387.1 117.134 387.1 117.134 387.1C114.345 387.1 114.345 384.319 114.345 384.319L117.134 381.538C117.134 378.757 119.922 381.538 119.922 384.319Z" fill="white"/>
<path d="M142.233 384.319C142.233 387.1 139.444 387.1 139.444 387.1C136.655 387.1 136.655 384.319 136.655 384.319L139.444 381.538C142.233 378.757 142.233 381.538 142.233 384.319Z" fill="white"/>
<path d="M164.545 384.319C164.545 387.1 161.756 387.1 161.756 387.1C158.967 387.1 158.967 384.319 158.967 384.319L161.756 381.538C164.545 378.757 164.545 381.538 164.545 384.319Z" fill="white"/>
<path d="M186.856 384.319C186.856 387.1 184.067 387.1 184.067 387.1C181.278 387.1 181.278 384.319 181.278 384.319L184.067 381.538C186.856 378.757 186.856 381.538 186.856 384.319Z" fill="white"/>
<path d="M209.167 384.319C209.167 387.1 206.378 387.1 206.378 387.1C203.589 387.1 203.589 384.319 203.589 384.319L206.378 381.538C209.167 378.757 209.167 381.538 209.167 384.319Z" fill="white"/>
<path d="M231.478 384.319C231.478 387.1 228.689 387.1 228.689 387.1C225.9 387.1 225.9 384.319 225.9 384.319L228.689 381.538C231.478 378.757 231.478 381.538 231.478 384.319Z" fill="white"/>
<path d="M253.789 384.319C253.789 387.1 251 387.1 251 387.1C248.211 387.1 248.211 384.319 248.211 384.319L251 381.538C253.789 378.757 253.789 381.538 253.789 384.319Z" fill="white"/>
<path d="M2.78889 409.351C4.32915 409.351 5.57778 408.105 5.57778 406.569C5.57778 405.033 4.32915 403.788 2.78889 403.788C1.24863 403.788 0 405.033 0 406.569C0 408.105 1.24863 409.351 2.78889 409.351Z" fill="white"/>
<path d="M30.6779 406.569C30.6779 409.351 27.889 409.351 27.889 409.351C25.1001 409.351 25.1001 406.569 25.1001 406.569C25.1001 403.788 27.889 403.788 27.889 403.788L30.6779 406.569Z" fill="white"/>
<path d="M50.2 409.351C51.7403 409.351 52.9889 408.105 52.9889 406.569C52.9889 405.033 51.7403 403.788 50.2 403.788C48.6598 403.788 47.4111 405.033 47.4111 406.569C47.4111 408.105 48.6598 409.351 50.2 409.351Z" fill="white"/>
<path d="M75.2999 406.569C75.2999 409.351 72.5111 409.351 72.5111 409.351C69.7222 409.351 69.7222 406.569 69.7222 406.569C69.7222 403.788 72.5111 403.788 72.5111 403.788L75.2999 406.569Z" fill="white"/>
<path d="M97.611 406.569C97.611 409.351 94.8221 409.351 94.8221 409.351C92.0332 409.351 92.0332 406.569 92.0332 406.569C92.0332 403.788 94.8221 403.788 94.8221 403.788L97.611 406.569Z" fill="white"/>
<path d="M119.922 406.569C119.922 409.351 117.133 409.351 117.133 409.351C114.344 409.351 114.344 406.569 114.344 406.569C114.344 403.788 117.133 403.788 117.133 403.788L119.922 406.569Z" fill="white"/>
<path d="M142.234 406.569C142.234 409.351 139.445 409.351 139.445 409.351C136.656 409.351 136.656 406.569 136.656 406.569C136.656 403.788 139.445 403.788 139.445 403.788C142.234 403.788 142.234 406.569 142.234 406.569Z" fill="white"/>
<path d="M164.545 406.569C164.545 409.351 161.756 409.351 161.756 409.351C158.967 409.351 158.967 406.569 158.967 406.569C158.967 403.788 161.756 403.788 161.756 403.788C164.545 403.788 164.545 406.569 164.545 406.569Z" fill="white"/>
<path d="M186.856 406.569C186.856 409.351 184.067 409.351 184.067 409.351C181.278 409.351 181.278 406.569 181.278 406.569C181.278 403.788 184.067 403.788 184.067 403.788C186.856 403.788 186.856 406.569 186.856 406.569Z" fill="white"/>
<path d="M209.167 406.569C209.167 409.351 206.378 409.351 206.378 409.351C203.589 409.351 203.589 406.569 203.589 406.569C203.589 403.788 206.378 403.788 206.378 403.788C209.167 403.788 209.167 406.569 209.167 406.569Z" fill="white"/>
<path d="M231.478 406.569C231.478 409.351 228.689 409.351 228.689 409.351C225.9 409.351 225.9 406.569 225.9 406.569C225.9 403.788 228.689 403.788 228.689 403.788C231.478 403.788 231.478 406.569 231.478 406.569Z" fill="white"/>
<path d="M253.789 406.569C253.789 409.351 251 409.351 251 409.351C248.211 409.351 248.211 406.569 248.211 406.569C248.211 403.788 251 403.788 251 403.788C253.789 403.788 253.789 406.569 253.789 406.569Z" fill="white"/>
<path d="M8.36635 431.6C8.36635 434.382 5.57746 434.382 5.57746 434.382C2.78857 434.382 2.78857 431.6 2.78857 431.6C2.78857 428.819 5.57746 428.819 5.57746 428.819C5.57746 426.038 8.36635 428.819 8.36635 431.6Z" fill="white"/>
<path d="M30.6779 431.6C30.6779 434.382 27.889 434.382 27.889 434.382C25.1001 434.382 25.1001 431.6 25.1001 431.6C25.1001 428.819 27.889 428.819 27.889 428.819C27.889 426.038 30.6779 428.819 30.6779 431.6Z" fill="white"/>
<path d="M52.9889 431.6C52.9889 434.382 50.2 434.382 50.2 434.382C47.4111 434.382 47.4111 431.6 47.4111 431.6C47.4111 428.819 50.2 428.819 50.2 428.819C50.2 426.038 52.9889 428.819 52.9889 431.6Z" fill="white"/>
<path d="M75.2999 431.6C75.2999 434.382 72.5111 434.382 72.5111 434.382C69.7222 434.382 69.7222 431.6 69.7222 431.6C69.7222 428.819 72.5111 428.819 72.5111 428.819C72.5111 426.038 75.2999 428.819 75.2999 431.6Z" fill="white"/>
<path d="M97.611 431.6C97.611 434.382 94.8221 434.382 94.8221 434.382C92.0332 434.382 92.0332 431.6 92.0332 431.6C92.0332 428.819 94.8221 428.819 94.8221 428.819C94.8221 426.038 97.611 428.819 97.611 431.6Z" fill="white"/>
<path d="M119.922 431.6C119.922 434.382 117.133 434.382 117.133 434.382C114.344 434.382 114.344 431.6 114.344 431.6C114.344 428.819 117.133 428.819 117.133 428.819C117.133 426.038 119.922 428.819 119.922 431.6Z" fill="white"/>
<path d="M142.234 431.6C142.234 434.382 139.445 434.382 139.445 434.382C136.656 434.382 136.656 431.6 136.656 431.6C136.656 428.819 139.445 428.819 139.445 428.819C142.234 426.038 142.234 428.819 142.234 431.6Z" fill="white"/>
<path d="M164.545 431.6C164.545 434.382 161.756 434.382 161.756 434.382C158.967 434.382 158.967 431.6 158.967 431.6C158.967 428.819 161.756 428.819 161.756 428.819C164.545 426.038 164.545 428.819 164.545 431.6Z" fill="white"/>
<path d="M186.856 431.6C186.856 434.382 184.067 434.382 184.067 434.382C181.278 434.382 181.278 431.6 181.278 431.6C181.278 428.819 184.067 428.819 184.067 428.819C186.856 426.038 186.856 428.819 186.856 431.6Z" fill="white"/>
<path d="M209.167 431.6C209.167 434.382 206.378 434.382 206.378 434.382C203.589 434.382 203.589 431.6 203.589 431.6C203.589 428.819 206.378 428.819 206.378 428.819C209.167 426.038 209.167 428.819 209.167 431.6Z" fill="white"/>
<path d="M231.478 431.6C231.478 434.382 228.689 434.382 228.689 434.382C225.9 434.382 225.9 431.6 225.9 431.6C225.9 428.819 228.689 428.819 228.689 428.819C231.478 426.038 231.478 428.819 231.478 431.6Z" fill="white"/>
<path d="M253.789 431.6C253.789 434.382 251 434.382 251 434.382C248.211 434.382 248.211 431.6 248.211 431.6C248.211 428.819 251 428.819 251 428.819C253.789 426.038 253.789 428.819 253.789 431.6Z" fill="white"/>
<path d="M2.78889 456.632C4.32915 456.632 5.57778 455.387 5.57778 453.851C5.57778 452.314 4.32915 451.069 2.78889 451.069C1.24863 451.069 0 452.314 0 453.851C0 455.387 1.24863 456.632 2.78889 456.632Z" fill="white"/>
<path d="M30.6779 453.851C30.6779 456.632 27.889 456.632 27.889 456.632C25.1001 456.632 25.1001 453.851 25.1001 453.851C25.1001 451.069 27.889 451.069 27.889 451.069L30.6779 453.851Z" fill="white"/>
<path d="M50.2 456.632C51.7403 456.632 52.9889 455.387 52.9889 453.851C52.9889 452.314 51.7403 451.069 50.2 451.069C48.6598 451.069 47.4111 452.314 47.4111 453.851C47.4111 455.387 48.6598 456.632 50.2 456.632Z" fill="white"/>
<path d="M75.2999 453.851C75.2999 456.632 72.5111 456.632 72.5111 456.632C69.7222 456.632 69.7222 453.851 69.7222 453.851C69.7222 451.069 72.5111 451.069 72.5111 451.069L75.2999 453.851Z" fill="white"/>
<path d="M97.611 453.851C97.611 456.632 94.8221 456.632 94.8221 456.632C92.0332 456.632 92.0332 453.851 92.0332 453.851C92.0332 451.069 94.8221 451.069 94.8221 451.069L97.611 453.851Z" fill="white"/>
<path d="M119.922 453.851C119.922 456.632 117.133 456.632 117.133 456.632C114.344 456.632 114.344 453.851 114.344 453.851C114.344 451.069 117.133 451.069 117.133 451.069L119.922 453.851Z" fill="white"/>
<path d="M142.234 453.851C142.234 456.632 139.445 456.632 139.445 456.632C136.656 456.632 136.656 453.851 136.656 453.851C136.656 451.069 139.445 451.069 139.445 451.069C142.234 451.069 142.234 453.851 142.234 453.851Z" fill="white"/>
<path d="M164.545 453.851C164.545 456.632 161.756 456.632 161.756 456.632C158.967 456.632 158.967 453.851 158.967 453.851C158.967 451.069 161.756 451.069 161.756 451.069C164.545 451.069 164.545 453.851 164.545 453.851Z" fill="white"/>
<path d="M186.856 453.851C186.856 456.632 184.067 456.632 184.067 456.632C181.278 456.632 181.278 453.851 181.278 453.851C181.278 451.069 184.067 451.069 184.067 451.069C186.856 451.069 186.856 453.851 186.856 453.851Z" fill="white"/>
<path d="M209.167 453.851C209.167 456.632 206.378 456.632 206.378 456.632C203.589 456.632 203.589 453.851 203.589 453.851C203.589 451.069 206.378 451.069 206.378 451.069C209.167 451.069 209.167 453.851 209.167 453.851Z" fill="white"/>
<path d="M231.478 453.851C231.478 456.632 228.689 456.632 228.689 456.632C225.9 456.632 225.9 453.851 225.9 453.851C225.9 451.069 228.689 451.069 228.689 451.069C231.478 451.069 231.478 453.851 231.478 453.851Z" fill="white"/>
<path d="M253.789 453.851C253.789 456.632 251 456.632 251 456.632C248.211 456.632 248.211 453.851 248.211 453.851C248.211 451.069 251 451.069 251 451.069C253.789 451.069 253.789 453.851 253.789 453.851Z" fill="white"/>
<path d="M2.78889 481.663C4.32915 481.663 5.57778 480.418 5.57778 478.882C5.57778 477.346 4.32915 476.101 2.78889 476.101C1.24863 476.101 0 477.346 0 478.882C0 480.418 1.24863 481.663 2.78889 481.663Z" fill="white"/>
<path d="M30.6779 478.882C30.6779 481.663 27.889 481.663 27.889 481.663C25.1001 481.663 25.1001 478.882 25.1001 478.882L27.889 476.101C27.889 476.101 30.6779 476.101 30.6779 478.882Z" fill="white"/>
<path d="M50.2 481.663C51.7403 481.663 52.9889 480.418 52.9889 478.882C52.9889 477.346 51.7403 476.101 50.2 476.101C48.6598 476.101 47.4111 477.346 47.4111 478.882C47.4111 480.418 48.6598 481.663 50.2 481.663Z" fill="white"/>
<path d="M75.2999 478.882C75.2999 481.663 72.5111 481.663 72.5111 481.663C69.7222 481.663 69.7222 478.882 69.7222 478.882L72.5111 476.101C72.5111 476.101 75.2999 476.101 75.2999 478.882Z" fill="white"/>
<path d="M97.611 478.882C97.611 481.663 94.8221 481.663 94.8221 481.663C92.0332 481.663 92.0332 478.882 92.0332 478.882L94.8221 476.101C94.8221 476.101 97.611 476.101 97.611 478.882Z" fill="white"/>
<path d="M119.922 478.882C119.922 481.663 117.133 481.663 117.133 481.663C114.344 481.663 114.344 478.882 114.344 478.882L117.133 476.101C117.133 476.101 119.922 476.101 119.922 478.882Z" fill="white"/>
<path d="M142.234 478.882C142.234 481.663 139.445 481.663 139.445 481.663C136.656 481.663 136.656 478.882 136.656 478.882L139.445 476.101C142.234 476.101 142.234 476.101 142.234 478.882Z" fill="white"/>
<path d="M164.545 478.882C164.545 481.663 161.756 481.663 161.756 481.663C158.967 481.663 158.967 478.882 158.967 478.882L161.756 476.101C164.545 476.101 164.545 476.101 164.545 478.882Z" fill="white"/>
<path d="M186.856 478.882C186.856 481.663 184.067 481.663 184.067 481.663C181.278 481.663 181.278 478.882 181.278 478.882L184.067 476.101C186.856 476.101 186.856 476.101 186.856 478.882Z" fill="white"/>
<path d="M209.167 478.882C209.167 481.663 206.378 481.663 206.378 481.663C203.589 481.663 203.589 478.882 203.589 478.882L206.378 476.101C209.167 476.101 209.167 476.101 209.167 478.882Z" fill="white"/>
<path d="M231.478 478.882C231.478 481.663 228.689 481.663 228.689 481.663C225.9 481.663 225.9 478.882 225.9 478.882L228.689 476.101C231.478 476.101 231.478 476.101 231.478 478.882Z" fill="white"/>
<path d="M253.789 478.882C253.789 481.663 251 481.663 251 481.663C248.211 481.663 248.211 478.882 248.211 478.882L251 476.101C253.789 476.101 253.789 476.101 253.789 478.882Z" fill="white"/>
<path d="M2.78889 503.913C4.32915 503.913 5.57778 502.668 5.57778 501.132C5.57778 499.596 4.32915 498.351 2.78889 498.351C1.24863 498.351 0 499.596 0 501.132C0 502.668 1.24863 503.913 2.78889 503.913Z" fill="white"/>
<path d="M30.6779 501.132C30.6779 503.913 27.889 503.913 27.889 503.913C25.1001 503.913 25.1001 501.132 25.1001 501.132L27.889 498.351L30.6779 501.132Z" fill="white"/>
<path d="M50.2 503.913C51.7403 503.913 52.9889 502.668 52.9889 501.132C52.9889 499.596 51.7403 498.351 50.2 498.351C48.6598 498.351 47.4111 499.596 47.4111 501.132C47.4111 502.668 48.6598 503.913 50.2 503.913Z" fill="white"/>
<path d="M75.2999 501.132C75.2999 503.913 72.5111 503.913 72.5111 503.913C69.7222 503.913 69.7222 501.132 69.7222 501.132L72.5111 498.351L75.2999 501.132Z" fill="white"/>
<path d="M97.611 501.131C97.611 503.912 94.8221 503.912 94.8221 503.912C92.0332 503.912 92.0332 501.131 92.0332 501.131L94.8221 498.35L97.611 501.131Z" fill="white"/>
<path d="M119.922 501.131C119.922 503.912 117.133 503.912 117.133 503.912C114.345 506.693 111.556 503.912 111.556 501.131C111.556 498.35 114.345 498.35 114.345 498.35C117.133 498.35 119.922 501.131 119.922 501.131Z" fill="white"/>
<path d="M142.234 501.132C142.234 503.913 139.445 503.913 139.445 503.913C136.656 503.913 136.656 501.132 136.656 501.132L139.445 498.351C142.234 498.351 142.234 501.132 142.234 501.132Z" fill="white"/>
<path d="M164.545 501.131C164.545 503.912 161.756 503.912 161.756 503.912C158.967 503.912 158.967 501.131 158.967 501.131L161.756 498.35C164.545 498.35 164.545 501.131 164.545 501.131Z" fill="white"/>
<path d="M186.856 501.132C186.856 503.913 184.067 503.913 184.067 503.913C181.278 503.913 181.278 501.132 181.278 501.132L184.067 498.351C186.856 498.351 186.856 501.132 186.856 501.132Z" fill="white"/>
<path d="M209.167 501.132C209.167 503.913 206.378 503.913 206.378 503.913C203.589 503.913 203.589 501.132 203.589 501.132L206.378 498.351C209.167 498.351 209.167 501.132 209.167 501.132Z" fill="white"/>
<path d="M231.478 501.131C231.478 503.912 228.689 503.912 228.689 503.912C225.9 503.912 225.9 501.131 225.9 501.131L228.689 498.35C231.478 498.35 231.478 501.131 231.478 501.131Z" fill="white"/>
<path d="M253.789 501.132C253.789 503.913 251 503.913 251 503.913C248.211 503.913 248.211 501.132 248.211 501.132L251 498.351C253.789 498.351 253.789 501.132 253.789 501.132Z" fill="white"/>
<path d="M8.36667 526.163C8.36667 528.944 5.57778 528.944 2.78889 528.944C2.78889 528.944 0 528.944 0 526.163C0 523.382 2.78889 523.382 2.78889 523.382C5.57778 523.382 8.36667 523.382 8.36667 526.163Z" fill="white"/>
<path d="M30.6777 526.163C30.6777 528.944 27.8888 528.944 25.0999 528.944C22.311 528.944 22.311 526.163 22.311 526.163C22.311 523.382 25.0999 523.382 25.0999 523.382C27.8888 523.382 30.6777 523.382 30.6777 526.163Z" fill="white"/>
<path d="M52.9889 526.163C52.9889 528.944 50.2 528.944 50.2 528.944C47.4111 528.944 47.4111 526.163 47.4111 526.163C47.4111 523.382 50.2 523.382 50.2 523.382C50.2 523.382 52.9889 523.382 52.9889 526.163Z" fill="white"/>
<path d="M75.2999 526.163C75.2999 528.944 72.5111 528.944 72.5111 528.944C69.7222 528.944 69.7222 526.163 69.7222 526.163C69.7222 523.382 72.5111 523.382 72.5111 523.382C72.5111 523.382 75.2999 523.382 75.2999 526.163Z" fill="white"/>
<path d="M97.611 526.162C97.611 528.943 94.8221 528.943 94.8221 528.943C92.0332 528.943 92.0332 526.162 92.0332 526.162C92.0332 523.381 94.8221 523.381 94.8221 523.381C94.8221 523.381 97.611 523.381 97.611 526.162Z" fill="white"/>
<path d="M119.922 526.162C119.922 528.943 117.133 528.943 117.133 528.943C114.345 528.943 111.556 528.943 111.556 526.162C111.556 523.381 114.345 523.381 114.345 523.381C117.133 523.381 119.922 523.381 119.922 526.162Z" fill="white"/>
<path d="M142.234 526.163C142.234 528.944 142.234 528.944 139.445 528.944C136.656 528.944 136.656 526.163 136.656 526.163C136.656 523.382 139.445 523.382 139.445 523.382C142.234 523.382 142.234 523.382 142.234 526.163Z" fill="white"/>
<path d="M164.545 526.162C164.545 528.943 164.545 528.943 161.756 528.943C158.967 528.943 158.967 526.162 158.967 526.162C158.967 523.381 161.756 523.381 161.756 523.381C164.545 523.381 164.545 523.381 164.545 526.162Z" fill="white"/>
<path d="M186.856 526.163C186.856 528.944 186.856 528.944 184.067 528.944C181.278 528.944 181.278 526.163 181.278 526.163C181.278 523.382 184.067 523.382 184.067 523.382C186.856 523.382 186.856 523.382 186.856 526.163Z" fill="white"/>
<path d="M209.167 526.163C209.167 528.944 209.167 528.944 206.378 528.944C203.589 528.944 203.589 526.163 203.589 526.163C203.589 523.382 206.378 523.382 206.378 523.382C209.167 523.382 209.167 523.382 209.167 526.163Z" fill="white"/>
<path d="M231.478 526.162C231.478 528.943 231.478 528.943 228.689 528.943C225.9 528.943 225.9 526.162 225.9 526.162C225.9 523.381 228.689 523.381 228.689 523.381C231.478 523.381 231.478 523.381 231.478 526.162Z" fill="white"/>
<path d="M253.789 526.163C253.789 528.944 253.789 528.944 251 528.944C248.211 528.944 248.211 526.163 248.211 526.163C248.211 523.382 251 523.382 251 523.382C253.789 523.382 253.789 523.382 253.789 526.163Z" fill="white"/>
<path d="M8.36635 551.194C8.36635 553.975 5.57746 553.975 5.57746 553.975C2.78857 553.975 2.78857 551.194 2.78857 551.194L5.57746 548.413C5.57746 545.632 8.36635 548.413 8.36635 551.194Z" fill="white"/>
<path d="M30.6779 551.194C30.6779 553.975 27.889 553.975 27.889 553.975C25.1001 553.975 25.1001 551.194 25.1001 551.194L27.889 548.413C27.889 545.632 30.6779 548.413 30.6779 551.194Z" fill="white"/>
<path d="M52.9889 551.194C52.9889 553.975 50.2 553.975 50.2 553.975C47.4111 553.975 47.4111 551.194 47.4111 551.194L50.2 548.413C50.2 545.632 52.9889 548.413 52.9889 551.194Z" fill="white"/>
<path d="M75.2999 551.194C75.2999 553.975 72.5111 553.975 72.5111 553.975C69.7222 553.975 69.7222 551.194 69.7222 551.194L72.5111 548.413C72.5111 545.632 75.2999 548.413 75.2999 551.194Z" fill="white"/>
<path d="M97.611 551.194C97.611 553.975 94.8221 553.975 94.8221 553.975C92.0332 553.975 92.0332 551.194 92.0332 551.194L94.8221 548.413C94.8221 545.632 97.611 548.413 97.611 551.194Z" fill="white"/>
<path d="M119.922 551.194C119.922 553.975 117.133 553.975 117.133 553.975C114.344 553.975 114.344 551.194 114.344 551.194L117.133 548.413C117.133 545.632 119.922 548.413 119.922 551.194Z" fill="white"/>
<path d="M142.234 551.194C142.234 553.975 139.445 553.975 139.445 553.975C136.656 553.975 136.656 551.194 136.656 551.194L139.445 548.413C142.234 545.632 142.234 548.413 142.234 551.194Z" fill="white"/>
<path d="M164.545 551.194C164.545 553.975 161.756 553.975 161.756 553.975C158.967 553.975 158.967 551.194 158.967 551.194L161.756 548.413C164.545 545.632 164.545 548.413 164.545 551.194Z" fill="white"/>
<path d="M186.856 551.194C186.856 553.975 184.067 553.975 184.067 553.975C181.278 553.975 181.278 551.194 181.278 551.194L184.067 548.413C186.856 545.632 186.856 548.413 186.856 551.194Z" fill="white"/>
<path d="M209.167 551.194C209.167 553.975 206.378 553.975 206.378 553.975C203.589 553.975 203.589 551.194 203.589 551.194L206.378 548.413C209.167 545.632 209.167 548.413 209.167 551.194Z" fill="white"/>
<path d="M231.478 551.194C231.478 553.975 228.689 553.975 228.689 553.975C225.9 553.975 225.9 551.194 225.9 551.194L228.689 548.413C231.478 545.632 231.478 548.413 231.478 551.194Z" fill="white"/>
<path d="M253.789 551.194C253.789 553.975 251 553.975 251 553.975C248.211 553.975 248.211 551.194 248.211 551.194L251 548.413C253.789 545.632 253.789 548.413 253.789 551.194Z" fill="white"/>
<path d="M8.36635 573.444C8.36635 576.226 5.57746 576.226 5.57746 576.226C2.78857 576.226 2.78857 573.444 2.78857 573.444C2.78857 570.663 5.57746 570.663 5.57746 570.663C5.57746 570.663 8.36635 570.663 8.36635 573.444Z" fill="white"/>
<path d="M30.6779 573.444C30.6779 576.226 27.889 576.226 27.889 576.226C25.1001 576.226 25.1001 573.444 25.1001 573.444C25.1001 570.663 27.889 570.663 27.889 570.663C27.889 570.663 30.6779 570.663 30.6779 573.444Z" fill="white"/>
<path d="M52.9889 573.444C52.9889 576.226 50.2 576.226 50.2 576.226C47.4111 576.226 47.4111 573.444 47.4111 573.444C47.4111 570.663 50.2 570.663 50.2 570.663C50.2 570.663 52.9889 570.663 52.9889 573.444Z" fill="white"/>
<path d="M75.2999 573.444C75.2999 576.226 72.5111 576.226 72.5111 576.226C69.7222 576.226 69.7222 573.444 69.7222 573.444C69.7222 570.663 72.5111 570.663 72.5111 570.663C72.5111 570.663 75.2999 570.663 75.2999 573.444Z" fill="white"/>
<path d="M97.611 573.443C97.611 576.225 94.8221 576.225 94.8221 576.225C92.0332 576.225 92.0332 573.443 92.0332 573.443C92.0332 570.662 94.8221 570.662 94.8221 570.662C94.8221 570.662 97.611 570.662 97.611 573.443Z" fill="white"/>
<path d="M119.922 573.444C119.922 576.226 117.133 576.226 117.133 576.226C114.344 576.226 114.344 573.444 114.344 573.444C114.344 570.663 117.133 570.663 117.133 570.663C117.133 570.663 119.922 570.663 119.922 573.444Z" fill="white"/>
<path d="M142.234 573.444C142.234 576.226 139.445 576.226 139.445 576.226C136.656 576.226 136.656 573.444 136.656 573.444C136.656 570.663 139.445 570.663 139.445 570.663C142.234 570.663 142.234 570.663 142.234 573.444Z" fill="white"/>
<path d="M164.545 573.443C164.545 576.225 161.756 576.225 161.756 576.225C158.967 576.225 158.967 573.443 158.967 573.443C158.967 570.662 161.756 570.662 161.756 570.662C164.545 570.662 164.545 570.662 164.545 573.443Z" fill="white"/>
<path d="M186.856 573.444C186.856 576.226 184.067 576.226 184.067 576.226C181.278 576.226 181.278 573.444 181.278 573.444C181.278 570.663 184.067 570.663 184.067 570.663C186.856 570.663 186.856 570.663 186.856 573.444Z" fill="white"/>
<path d="M209.167 573.444C209.167 576.226 206.378 576.226 206.378 576.226C203.589 576.226 203.589 573.444 203.589 573.444C203.589 570.663 206.378 570.663 206.378 570.663C209.167 570.663 209.167 570.663 209.167 573.444Z" fill="white"/>
<path d="M231.478 573.443C231.478 576.225 228.689 576.225 228.689 576.225C225.9 576.225 225.9 573.443 225.9 573.443C225.9 570.662 228.689 570.662 228.689 570.662C231.478 570.662 231.478 570.662 231.478 573.443Z" fill="white"/>
<path d="M253.789 573.444C253.789 576.226 251 576.226 251 576.226C248.211 576.226 248.211 573.444 248.211 573.444C248.211 570.663 251 570.663 251 570.663C253.789 570.663 253.789 570.663 253.789 573.444Z" fill="white"/>
<path d="M8.36635 598.475C8.36635 601.256 5.57746 601.256 5.57746 601.256C2.78857 601.256 2.78857 598.475 2.78857 598.475C2.78857 595.694 5.57746 595.694 5.57746 595.694C5.57746 592.913 8.36635 595.694 8.36635 598.475Z" fill="white"/>
<path d="M30.6779 598.475C30.6779 601.256 27.889 601.256 27.889 601.256C25.1001 601.256 25.1001 598.475 25.1001 598.475C25.1001 595.694 27.889 595.694 27.889 595.694C27.889 592.913 30.6779 595.694 30.6779 598.475Z" fill="white"/>
<path d="M52.9889 598.475C52.9889 601.256 50.2 601.256 50.2 601.256C47.4111 601.256 47.4111 598.475 47.4111 598.475C47.4111 595.694 50.2 595.694 50.2 595.694C50.2 592.913 52.9889 595.694 52.9889 598.475Z" fill="white"/>
<path d="M75.2999 598.475C75.2999 601.256 72.5111 601.256 72.5111 601.256C69.7222 601.256 69.7222 598.475 69.7222 598.475C69.7222 595.694 72.5111 595.694 72.5111 595.694C72.5111 592.913 75.2999 595.694 75.2999 598.475Z" fill="white"/>
<path d="M97.611 598.475C97.611 601.256 94.8221 601.256 94.8221 601.256C92.0332 601.256 92.0332 598.475 92.0332 598.475C92.0332 595.694 94.8221 595.694 94.8221 595.694C94.8221 592.913 97.611 595.694 97.611 598.475Z" fill="white"/>
<path d="M119.922 598.475C119.922 601.256 117.133 601.256 117.133 601.256C114.344 601.256 114.344 598.475 114.344 598.475C114.344 595.694 117.133 595.694 117.133 595.694C117.133 592.913 119.922 595.694 119.922 598.475Z" fill="white"/>
<path d="M142.234 598.475C142.234 601.256 139.445 601.256 139.445 601.256C136.656 601.256 136.656 598.475 136.656 598.475C136.656 595.694 139.445 595.694 139.445 595.694C142.234 592.913 142.234 595.694 142.234 598.475Z" fill="white"/>
<path d="M164.545 598.475C164.545 601.256 161.756 601.256 161.756 601.256C158.967 601.256 158.967 598.475 158.967 598.475C158.967 595.694 161.756 595.694 161.756 595.694C164.545 592.913 164.545 595.694 164.545 598.475Z" fill="white"/>
<path d="M186.856 598.475C186.856 601.256 184.067 601.256 184.067 601.256C181.278 601.256 181.278 598.475 181.278 598.475C181.278 595.694 184.067 595.694 184.067 595.694C186.856 592.913 186.856 595.694 186.856 598.475Z" fill="white"/>
<path d="M209.167 598.475C209.167 601.256 206.378 601.256 206.378 601.256C203.589 601.256 203.589 598.475 203.589 598.475C203.589 595.694 206.378 595.694 206.378 595.694C209.167 592.913 209.167 595.694 209.167 598.475Z" fill="white"/>
<path d="M231.478 598.475C231.478 601.256 228.689 601.256 228.689 601.256C225.9 601.256 225.9 598.475 225.9 598.475C225.9 595.694 228.689 595.694 228.689 595.694C231.478 592.913 231.478 595.694 231.478 598.475Z" fill="white"/>
<path d="M253.789 598.475C253.789 601.256 251 601.256 251 601.256C248.211 601.256 248.211 598.475 248.211 598.475C248.211 595.694 251 595.694 251 595.694C253.789 592.913 253.789 595.694 253.789 598.475Z" fill="white"/>
<path d="M2.78889 623.507C4.32915 623.507 5.57778 622.262 5.57778 620.726C5.57778 619.19 4.32915 617.944 2.78889 617.944C1.24863 617.944 0 619.19 0 620.726C0 622.262 1.24863 623.507 2.78889 623.507Z" fill="white"/>
<path d="M30.6779 620.726C30.6779 623.507 27.889 623.507 27.889 623.507C25.1001 623.507 25.1001 620.726 25.1001 620.726C25.1001 617.944 27.889 617.944 27.889 617.944C27.889 617.944 30.6779 617.944 30.6779 620.726Z" fill="white"/>
<path d="M50.2 623.507C51.7403 623.507 52.9889 622.262 52.9889 620.726C52.9889 619.19 51.7403 617.944 50.2 617.944C48.6598 617.944 47.4111 619.19 47.4111 620.726C47.4111 622.262 48.6598 623.507 50.2 623.507Z" fill="white"/>
<path d="M75.2999 620.726C75.2999 623.507 72.5111 623.507 72.5111 623.507C69.7222 623.507 69.7222 620.726 69.7222 620.726C69.7222 617.944 72.5111 617.944 72.5111 617.944C72.5111 617.944 75.2999 617.944 75.2999 620.726Z" fill="white"/>
<path d="M97.611 620.725C97.611 623.506 94.8221 623.506 94.8221 623.506C92.0332 623.506 92.0332 620.725 92.0332 620.725C92.0332 617.943 94.8221 617.943 94.8221 617.943C94.8221 617.943 97.611 617.943 97.611 620.725Z" fill="white"/>
<path d="M119.922 620.726C119.922 623.507 117.133 623.507 117.133 623.507C114.344 623.507 114.344 620.726 114.344 620.726C114.344 617.944 117.133 617.944 117.133 617.944C117.133 617.944 119.922 617.944 119.922 620.726Z" fill="white"/>
<path d="M142.234 620.726C142.234 623.507 139.445 623.507 139.445 623.507C136.656 623.507 136.656 620.726 136.656 620.726C136.656 617.944 139.445 617.944 139.445 617.944C142.234 617.944 142.234 617.944 142.234 620.726Z" fill="white"/>
<path d="M164.545 620.725C164.545 623.506 161.756 623.506 161.756 623.506C158.967 623.506 158.967 620.725 158.967 620.725C158.967 617.943 161.756 617.943 161.756 617.943C164.545 617.943 164.545 617.943 164.545 620.725Z" fill="white"/>
<path d="M186.856 620.726C186.856 623.507 184.067 623.507 184.067 623.507C181.278 623.507 181.278 620.726 181.278 620.726C181.278 617.944 184.067 617.944 184.067 617.944C186.856 617.944 186.856 617.944 186.856 620.726Z" fill="white"/>
<path d="M209.167 620.726C209.167 623.507 206.378 623.507 206.378 623.507C203.589 623.507 203.589 620.726 203.589 620.726C203.589 617.944 206.378 617.944 206.378 617.944C209.167 617.944 209.167 617.944 209.167 620.726Z" fill="white"/>
<path d="M231.478 620.725C231.478 623.506 228.689 623.506 228.689 623.506C225.9 623.506 225.9 620.725 225.9 620.725C225.9 617.943 228.689 617.943 228.689 617.943C231.478 617.943 231.478 617.943 231.478 620.725Z" fill="white"/>
<path d="M253.789 620.726C253.789 623.507 251 623.507 251 623.507C248.211 623.507 248.211 620.726 248.211 620.726C248.211 617.944 251 617.944 251 617.944C253.789 617.944 253.789 617.944 253.789 620.726Z" fill="white"/>
</g>
</mask>
<g mask="url(#mask0_120_5691)">
<path d="M245.269 69.2744L481.501 205.663V478.439L245.269 614.827L9.03825 478.439V205.663L245.269 69.2744Z" fill="#F7FDFC" fill-opacity="0.2"/>
</g>
<defs>
<clipPath id="clip0_120_5691">
<rect width="502" height="625.781" fill="white" transform="translate(0 0.506836)"/>
</clipPath>
</defs>
</svg>
