<svg width="480" height="186" viewBox="0 0 480 186" fill="none" xmlns="http://www.w3.org/2000/svg">
<mask id="mask0_120_4431" style="mask-type:alpha" maskUnits="userSpaceOnUse" x="0" y="-413" width="480" height="599">
<path d="M7.99984 -0.799144C7.99984 1.86022 5.33317 1.86023 5.33317 1.86023C2.6665 1.86023 2.6665 -0.799144 2.6665 -0.799144C2.6665 -3.45851 5.33317 -3.45852 5.33317 -3.45852C5.33317 -6.11788 7.99984 -3.45851 7.99984 -0.799144Z" fill="white"/>
<path d="M29.3333 -0.799144C29.3333 1.86022 26.6667 1.86023 26.6667 1.86023C24 1.86023 24 -0.799144 24 -0.799144C24 -3.45851 26.6667 -3.45852 26.6667 -3.45852C26.6667 -6.11788 29.3333 -3.45851 29.3333 -0.799144Z" fill="white"/>
<path d="M50.6668 -0.799144C50.6668 1.86022 48.0002 1.86023 48.0002 1.86023C45.3335 1.86023 45.3335 -0.799144 45.3335 -0.799144C45.3335 -3.45851 48.0002 -3.45852 48.0002 -3.45852C48.0002 -6.11788 50.6668 -3.45851 50.6668 -0.799144Z" fill="white"/>
<path d="M71.9998 -0.799144C71.9998 1.86022 69.3332 1.86023 69.3332 1.86023C66.6665 1.86023 66.6665 -0.799144 66.6665 -0.799144C66.6665 -3.45851 69.3332 -3.45852 69.3332 -3.45852C69.3332 -6.11788 71.9998 -3.45851 71.9998 -0.799144Z" fill="white"/>
<path d="M93.3333 -0.799144C93.3333 1.86022 90.6667 1.86023 90.6667 1.86023C88 1.86023 88 -0.799144 88 -0.799144C88 -3.45851 90.6667 -3.45852 90.6667 -3.45852C90.6667 -6.11788 93.3333 -3.45851 93.3333 -0.799144Z" fill="white"/>
<path d="M114.667 -0.799144C114.667 1.86022 112 1.86023 112 1.86023C109.333 1.86023 109.333 -0.799144 109.333 -0.799144C109.333 -3.45851 112 -3.45852 112 -3.45852C112 -6.11788 114.667 -3.45851 114.667 -0.799144Z" fill="white"/>
<path d="M136 -0.799144C136 1.86022 133.333 1.86023 133.333 1.86023C130.667 1.86023 130.667 -0.799144 130.667 -0.799144C130.667 -3.45851 133.333 -3.45852 133.333 -3.45852C136 -6.11788 136 -3.45851 136 -0.799144Z" fill="white"/>
<path d="M157.333 -0.799144C157.333 1.86022 154.667 1.86023 154.667 1.86023C152 1.86023 152 -0.799144 152 -0.799144C152 -3.45851 154.667 -3.45852 154.667 -3.45852C157.333 -6.11788 157.333 -3.45851 157.333 -0.799144Z" fill="white"/>
<path d="M178.667 -0.799144C178.667 1.86022 176 1.86023 176 1.86023C173.333 1.86023 173.333 -0.799144 173.333 -0.799144C173.333 -3.45851 176 -3.45852 176 -3.45852C178.667 -6.11788 178.667 -3.45851 178.667 -0.799144Z" fill="white"/>
<path d="M200 -0.799144C200 1.86022 197.333 1.86023 197.333 1.86023C194.667 1.86023 194.667 -0.799144 194.667 -0.799144C194.667 -3.45851 197.333 -3.45852 197.333 -3.45852C200 -6.11788 200 -3.45851 200 -0.799144Z" fill="white"/>
<path d="M221.333 -0.799144C221.333 1.86022 218.667 1.86023 218.667 1.86023C216 1.86023 216 -0.799144 216 -0.799144C216 -3.45851 218.667 -3.45852 218.667 -3.45852C221.333 -6.11788 221.333 -3.45851 221.333 -0.799144Z" fill="white"/>
<path d="M242.667 -0.799144C242.667 1.86022 240 1.86023 240 1.86023C237.334 1.86023 237.333 -0.799144 237.333 -0.799144C237.333 -3.45851 240 -3.45852 240 -3.45852C242.667 -6.11788 242.667 -3.45851 242.667 -0.799144Z" fill="white"/>
<path d="M264 -0.799144C264 1.86022 261.333 1.86023 261.333 1.86023C258.667 1.86023 258.667 -0.799144 258.667 -0.799144C258.667 -3.45851 261.333 -3.45852 261.333 -3.45852C264 -6.11788 264 -3.45851 264 -0.799144Z" fill="white"/>
<path d="M288 -0.799144C288 1.86022 285.333 1.86023 285.333 1.86023C282.666 1.86023 282.667 -0.799144 282.667 -0.799144C282.667 -3.45851 285.333 -3.45852 285.333 -3.45852C285.333 -6.11788 288 -3.45851 288 -0.799144Z" fill="white"/>
<path d="M309.333 -0.799144C309.333 1.86022 306.667 1.86023 306.667 1.86023C304 1.86023 304 -0.799144 304 -0.799144C304 -3.45851 306.667 -3.45852 306.667 -3.45852C306.667 -6.11788 309.333 -3.45851 309.333 -0.799144Z" fill="white"/>
<path d="M330.667 -0.799144C330.667 1.86022 328 1.86023 328 1.86023C325.334 1.86023 325.333 -0.799144 325.333 -0.799144C325.333 -3.45851 328 -3.45852 328 -3.45852C328 -6.11788 330.667 -3.45851 330.667 -0.799144Z" fill="white"/>
<path d="M352 -0.799144C352 1.86022 349.333 1.86023 349.333 1.86023C346.667 1.86023 346.667 -0.799144 346.667 -0.799144C346.667 -3.45851 349.333 -3.45852 349.333 -3.45852C349.333 -6.11788 352 -3.45851 352 -0.799144Z" fill="white"/>
<path d="M373.333 -0.799144C373.333 1.86022 370.667 1.86023 370.667 1.86023C368 1.86023 368 -0.799144 368 -0.799144C368 -3.45851 370.667 -3.45852 370.667 -3.45852C370.667 -6.11788 373.333 -3.45851 373.333 -0.799144Z" fill="white"/>
<path d="M394.667 -0.799144C394.667 1.86022 392 1.86023 392 1.86023C389.333 1.86023 389.333 -0.799144 389.333 -0.799144C389.333 -3.45851 392 -3.45852 392 -3.45852C392 -6.11788 394.667 -3.45851 394.667 -0.799144Z" fill="white"/>
<path d="M416 -0.799144C416 1.86022 413.333 1.86023 413.333 1.86023C410.667 1.86023 410.667 -0.799144 410.667 -0.799144C410.667 -3.45851 413.333 -3.45852 413.333 -3.45852C413.333 -6.11788 416 -3.45851 416 -0.799144Z" fill="white"/>
<path d="M437.333 -0.799144C437.333 1.86022 434.667 1.86023 434.667 1.86023C432 1.86023 432 -0.799144 432 -0.799144C432 -3.45851 434.667 -3.45852 434.667 -3.45852C434.667 -6.11788 437.333 -3.45851 437.333 -0.799144Z" fill="white"/>
<path d="M458.667 -0.799144C458.667 1.86022 456 1.86023 456 1.86023C453.334 1.86023 453.333 -0.799144 453.333 -0.799144C453.333 -3.45851 456 -3.45852 456 -3.45852C456 -6.11788 458.667 -3.45851 458.667 -0.799144Z" fill="white"/>
<path d="M480 -0.799144C480 1.86022 477.333 1.86023 477.333 1.86023C474.667 1.86023 474.667 -0.799144 474.667 -0.799144C474.667 -3.45851 477.333 -3.45852 477.333 -3.45852C477.333 -6.11788 480 -3.45851 480 -0.799144Z" fill="white"/>
<path d="M2.66667 23.1351C4.13943 23.1351 5.33333 21.9444 5.33333 20.4757C5.33333 19.007 4.13943 17.8164 2.66667 17.8164C1.19391 17.8164 0 19.007 0 20.4757C0 21.9444 1.19391 23.1351 2.66667 23.1351Z" fill="white"/>
<path d="M29.3333 20.4757C29.3333 23.1351 26.6667 23.1351 26.6667 23.1351C24 23.1351 24 20.4757 24 20.4757C24 17.8164 26.6667 17.8164 26.6667 17.8164L29.3333 20.4757Z" fill="white"/>
<path d="M48.0002 23.1351C49.4729 23.1351 50.6668 21.9444 50.6668 20.4757C50.6668 19.007 49.4729 17.8164 48.0002 17.8164C46.5274 17.8164 45.3335 19.007 45.3335 20.4757C45.3335 21.9444 46.5274 23.1351 48.0002 23.1351Z" fill="white"/>
<path d="M71.9998 20.4757C71.9998 23.1351 69.3332 23.1351 69.3332 23.1351C66.6665 23.1351 66.6665 20.4757 66.6665 20.4757C66.6665 17.8164 69.3332 17.8164 69.3332 17.8164L71.9998 20.4757Z" fill="white"/>
<path d="M93.3333 20.4757C93.3333 23.1351 90.6667 23.1351 90.6667 23.1351C88 23.1351 88 20.4757 88 20.4757C88 17.8164 90.6667 17.8164 90.6667 17.8164L93.3333 20.4757Z" fill="white"/>
<path d="M114.667 20.4757C114.667 23.1351 112 23.1351 112 23.1351C109.333 23.1351 109.333 20.4757 109.333 20.4757C109.333 17.8164 112 17.8164 112 17.8164L114.667 20.4757Z" fill="white"/>
<path d="M136 20.4757C136 23.1351 133.333 23.1351 133.333 23.1351C130.667 23.1351 130.667 20.4757 130.667 20.4757C130.667 17.8164 133.333 17.8164 133.333 17.8164C136 17.8164 136 20.4757 136 20.4757Z" fill="white"/>
<path d="M157.333 20.4757C157.333 23.1351 154.667 23.1351 154.667 23.1351C152 23.1351 152 20.4757 152 20.4757C152 17.8164 154.667 17.8164 154.667 17.8164C157.333 17.8164 157.333 20.4757 157.333 20.4757Z" fill="white"/>
<path d="M178.667 20.4757C178.667 23.1351 176 23.1351 176 23.1351C173.333 23.1351 173.333 20.4757 173.333 20.4757C173.333 17.8164 176 17.8164 176 17.8164C178.667 17.8164 178.667 20.4757 178.667 20.4757Z" fill="white"/>
<path d="M200 20.4757C200 23.1351 197.333 23.1351 197.333 23.1351C194.667 23.1351 194.667 20.4757 194.667 20.4757C194.667 17.8164 197.333 17.8164 197.333 17.8164C200 17.8164 200 20.4757 200 20.4757Z" fill="white"/>
<path d="M221.333 20.4757C221.333 23.1351 218.667 23.1351 218.667 23.1351C216 23.1351 216 20.4757 216 20.4757C216 17.8164 218.667 17.8164 218.667 17.8164C221.333 17.8164 221.333 20.4757 221.333 20.4757Z" fill="white"/>
<path d="M242.667 20.4757C242.667 23.1351 240 23.1351 240 23.1351C237.334 23.1351 237.333 20.4757 237.333 20.4757C237.333 17.8164 240 17.8164 240 17.8164C242.667 17.8164 242.667 20.4757 242.667 20.4757Z" fill="white"/>
<path d="M261.333 23.1351C262.806 23.1351 264 21.9444 264 20.4757C264 19.007 262.806 17.8164 261.333 17.8164C259.86 17.8164 258.667 19.007 258.667 20.4757C258.667 21.9444 259.86 23.1351 261.333 23.1351Z" fill="white"/>
<path d="M288 20.4757C288 23.1351 285.333 23.1351 285.333 23.1351C282.666 23.1351 282.667 20.4757 282.667 20.4757C282.667 17.8164 285.333 17.8164 285.333 17.8164C285.333 17.8164 288 20.4757 288 20.4757Z" fill="white"/>
<path d="M309.333 20.4757C309.333 23.1351 306.667 23.1351 306.667 23.1351C304 23.1351 304 20.4757 304 20.4757C304 17.8164 306.667 17.8164 306.667 17.8164L309.333 20.4757Z" fill="white"/>
<path d="M325.333 23.1351C326.806 23.1351 328 21.9444 328 20.4757C328 19.007 326.806 17.8164 325.333 17.8164C323.86 17.8164 322.667 19.007 322.667 20.4757C322.667 21.9444 323.86 23.1351 325.333 23.1351Z" fill="white"/>
<path d="M352 20.4757C352 23.1351 349.333 23.1351 349.333 23.1351C346.667 23.1351 346.667 20.4757 346.667 20.4757C346.667 17.8164 349.333 17.8164 349.333 17.8164L352 20.4757Z" fill="white"/>
<path d="M368 23.1351C369.473 23.1351 370.667 21.9444 370.667 20.4757C370.667 19.007 369.473 17.8164 368 17.8164C366.527 17.8164 365.333 19.007 365.333 20.4757C365.333 21.9444 366.527 23.1351 368 23.1351Z" fill="white"/>
<path d="M389.333 23.1351C390.806 23.1351 392 21.9444 392 20.4757C392 19.007 390.806 17.8164 389.333 17.8164C387.86 17.8164 386.667 19.007 386.667 20.4757C386.667 21.9444 387.86 23.1351 389.333 23.1351Z" fill="white"/>
<path d="M416 20.4757C416 23.1351 413.333 23.1351 413.333 23.1351C410.667 23.1351 410.667 20.4757 410.667 20.4757C410.667 17.8164 413.333 17.8164 413.333 17.8164L416 20.4757Z" fill="white"/>
<path d="M437.333 20.4757C437.333 23.1351 434.667 23.1351 434.667 23.1351C432 23.1351 432 20.4757 432 20.4757C432 17.8164 434.667 17.8164 434.667 17.8164C434.667 17.8164 437.333 20.4757 437.333 20.4757Z" fill="white"/>
<path d="M456 23.1351C457.473 23.1351 458.667 21.9444 458.667 20.4757C458.667 19.007 457.473 17.8164 456 17.8164C454.527 17.8164 453.333 19.007 453.333 20.4757C453.333 21.9444 454.527 23.1351 456 23.1351Z" fill="white"/>
<path d="M480 20.4757C480 23.1351 477.333 23.1351 477.333 23.1351C474.667 23.1351 474.667 20.4757 474.667 20.4757C474.667 17.8164 477.333 17.8164 477.333 17.8164L480 20.4757Z" fill="white"/>
<path d="M2.66667 47.0692C4.13943 47.0692 5.33333 45.8786 5.33333 44.4099C5.33333 42.9411 4.13943 41.7505 2.66667 41.7505C1.19391 41.7505 0 42.9411 0 44.4099C0 45.8786 1.19391 47.0692 2.66667 47.0692Z" fill="white"/>
<path d="M29.3333 44.4099C29.3333 47.0693 26.6667 47.0692 26.6667 47.0692C24 47.0692 24 44.4099 24 44.4099L26.6667 41.7505C26.6667 41.7505 29.3333 41.7505 29.3333 44.4099Z" fill="white"/>
<path d="M48.0002 47.0692C49.4729 47.0692 50.6668 45.8786 50.6668 44.4099C50.6668 42.9411 49.4729 41.7505 48.0002 41.7505C46.5274 41.7505 45.3335 42.9411 45.3335 44.4099C45.3335 45.8786 46.5274 47.0692 48.0002 47.0692Z" fill="white"/>
<path d="M71.9998 44.4099C71.9998 47.0693 69.3332 47.0692 69.3332 47.0692C66.6665 47.0692 66.6665 44.4099 66.6665 44.4099L69.3332 41.7505C69.3332 41.7505 71.9998 41.7505 71.9998 44.4099Z" fill="white"/>
<path d="M93.3333 44.4099C93.3333 47.0693 90.6667 47.0692 90.6667 47.0692C88 47.0692 88 44.4099 88 44.4099L90.6667 41.7505C90.6667 41.7505 93.3333 41.7505 93.3333 44.4099Z" fill="white"/>
<path d="M114.667 44.4099C114.667 47.0693 112 47.0692 112 47.0692C109.333 47.0692 109.333 44.4099 109.333 44.4099L112 41.7505C112 41.7505 114.667 41.7505 114.667 44.4099Z" fill="white"/>
<path d="M136 44.4099C136 47.0693 133.333 47.0692 133.333 47.0692C130.667 47.0692 130.667 44.4099 130.667 44.4099L133.333 41.7505C136 41.7505 136 41.7505 136 44.4099Z" fill="white"/>
<path d="M157.333 44.4099C157.333 47.0693 154.667 47.0692 154.667 47.0692C152 47.0692 152 44.4099 152 44.4099L154.667 41.7505C157.333 41.7505 157.333 41.7505 157.333 44.4099Z" fill="white"/>
<path d="M178.667 44.4099C178.667 47.0693 176 47.0692 176 47.0692C173.333 47.0692 173.333 44.4099 173.333 44.4099L176 41.7505C178.667 41.7505 178.667 41.7505 178.667 44.4099Z" fill="white"/>
<path d="M200 44.4099C200 47.0693 197.333 47.0692 197.333 47.0692C194.667 47.0692 194.667 44.4099 194.667 44.4099L197.333 41.7505C200 41.7505 200 41.7505 200 44.4099Z" fill="white"/>
<path d="M221.333 44.4099C221.333 47.0693 218.667 47.0692 218.667 47.0692C216 47.0692 216 44.4099 216 44.4099L218.667 41.7505C221.333 41.7505 221.333 41.7505 221.333 44.4099Z" fill="white"/>
<path d="M242.667 44.4099C242.667 47.0693 240 47.0692 240 47.0692C237.334 47.0692 237.333 44.4099 237.333 44.4099L240 41.7505C242.667 41.7505 242.667 41.7505 242.667 44.4099Z" fill="white"/>
<path d="M261.333 47.0692C262.806 47.0692 264 45.8786 264 44.4099C264 42.9411 262.806 41.7505 261.333 41.7505C259.86 41.7505 258.667 42.9411 258.667 44.4099C258.667 45.8786 259.86 47.0692 261.333 47.0692Z" fill="white"/>
<path d="M288 44.4099C288 47.0693 285.333 47.0692 285.333 47.0692C282.666 47.0692 282.667 44.4099 282.667 44.4099L285.333 41.7505C285.333 41.7505 288 41.7505 288 44.4099Z" fill="white"/>
<path d="M309.333 44.4099C309.333 47.0693 306.667 47.0692 306.667 47.0692C304 47.0692 304 44.4099 304 44.4099L306.667 41.7505C306.667 41.7505 309.333 41.7505 309.333 44.4099Z" fill="white"/>
<path d="M325.333 47.0692C326.806 47.0692 328 45.8786 328 44.4099C328 42.9411 326.806 41.7505 325.333 41.7505C323.86 41.7505 322.667 42.9411 322.667 44.4099C322.667 45.8786 323.86 47.0692 325.333 47.0692Z" fill="white"/>
<path d="M352 44.4099C352 47.0693 349.333 47.0692 349.333 47.0692C346.667 47.0692 346.667 44.4099 346.667 44.4099L349.333 41.7505C349.333 41.7505 352 41.7505 352 44.4099Z" fill="white"/>
<path d="M368 47.0692C369.473 47.0692 370.667 45.8786 370.667 44.4099C370.667 42.9411 369.473 41.7505 368 41.7505C366.527 41.7505 365.333 42.9411 365.333 44.4099C365.333 45.8786 366.527 47.0692 368 47.0692Z" fill="white"/>
<path d="M389.333 47.0692C390.806 47.0692 392 45.8786 392 44.4099C392 42.9411 390.806 41.7505 389.333 41.7505C387.86 41.7505 386.667 42.9411 386.667 44.4099C386.667 45.8786 387.86 47.0692 389.333 47.0692Z" fill="white"/>
<path d="M416 44.4099C416 47.0693 413.333 47.0692 413.333 47.0692C410.667 47.0692 410.667 44.4099 410.667 44.4099L413.333 41.7505C413.333 41.7505 416 41.7505 416 44.4099Z" fill="white"/>
<path d="M437.333 44.4099C437.333 47.0693 434.667 47.0692 434.667 47.0692C432 47.0692 432 44.4099 432 44.4099L434.667 41.7505C434.667 41.7505 437.333 41.7505 437.333 44.4099Z" fill="white"/>
<path d="M456 47.0692C457.473 47.0692 458.667 45.8786 458.667 44.4099C458.667 42.9411 457.473 41.7505 456 41.7505C454.527 41.7505 453.333 42.9411 453.333 44.4099C453.333 45.8786 454.527 47.0692 456 47.0692Z" fill="white"/>
<path d="M480 44.4099C480 47.0693 477.333 47.0692 477.333 47.0692C474.667 47.0692 474.667 44.4099 474.667 44.4099L477.333 41.7505C477.333 41.7505 480 41.7505 480 44.4099Z" fill="white"/>
<path d="M2.66667 68.3441C4.13943 68.3441 5.33333 67.1535 5.33333 65.6848C5.33333 64.216 4.13943 63.0254 2.66667 63.0254C1.19391 63.0254 0 64.216 0 65.6848C0 67.1535 1.19391 68.3441 2.66667 68.3441Z" fill="white"/>
<path d="M29.3333 65.6848C29.3333 68.3441 26.6667 68.3441 26.6667 68.3441C24 68.3441 24 65.6848 24 65.6848L26.6667 63.0254L29.3333 65.6848Z" fill="white"/>
<path d="M48.0002 68.3441C49.4729 68.3441 50.6668 67.1535 50.6668 65.6848C50.6668 64.216 49.4729 63.0254 48.0002 63.0254C46.5274 63.0254 45.3335 64.216 45.3335 65.6848C45.3335 67.1535 46.5274 68.3441 48.0002 68.3441Z" fill="white"/>
<path d="M71.9998 65.6848C71.9998 68.3441 69.3332 68.3441 69.3332 68.3441C66.6665 68.3441 66.6665 65.6848 66.6665 65.6848L69.3332 63.0254L71.9998 65.6848Z" fill="white"/>
<path d="M93.3333 65.6848C93.3333 68.3441 90.6667 68.3441 90.6667 68.3441C88 68.3441 88 65.6848 88 65.6848L90.6667 63.0254L93.3333 65.6848Z" fill="white"/>
<path d="M114.666 65.6848C114.666 68.3441 112 68.3441 112 68.3441C109.333 71.0035 106.667 68.3441 106.667 65.6848C106.667 63.0254 109.333 63.0254 109.333 63.0254C112 63.0254 114.666 65.6848 114.666 65.6848Z" fill="white"/>
<path d="M136 65.6848C136 68.3441 133.333 68.3441 133.333 68.3441C130.667 68.3441 130.667 65.6848 130.667 65.6848L133.333 63.0254C136 63.0254 136 65.6848 136 65.6848Z" fill="white"/>
<path d="M157.333 65.6848C157.333 68.3441 154.667 68.3441 154.667 68.3441C152 68.3441 152 65.6848 152 65.6848L154.667 63.0254C157.333 63.0254 157.333 65.6848 157.333 65.6848Z" fill="white"/>
<path d="M178.667 65.6848C178.667 68.3441 176 68.3441 176 68.3441C173.333 68.3441 173.333 65.6848 173.333 65.6848L176 63.0254C178.667 63.0254 178.667 65.6848 178.667 65.6848Z" fill="white"/>
<path d="M200 65.6848C200 68.3441 197.333 68.3441 197.333 68.3441C194.667 68.3441 194.667 65.6848 194.667 65.6848L197.333 63.0254C200 63.0254 200 65.6848 200 65.6848Z" fill="white"/>
<path d="M221.333 65.6848C221.333 68.3441 218.667 68.3441 218.667 68.3441C216 68.3441 216 65.6848 216 65.6848L218.667 63.0254C221.333 63.0254 221.333 65.6848 221.333 65.6848Z" fill="white"/>
<path d="M242.667 65.6848C242.667 68.3441 240 68.3441 240 68.3441C237.334 68.3441 237.333 65.6848 237.333 65.6848L240 63.0254C242.667 63.0254 242.667 65.6848 242.667 65.6848Z" fill="white"/>
<path d="M261.333 68.3441C262.806 68.3441 264 67.1535 264 65.6848C264 64.216 262.806 63.0254 261.333 63.0254C259.86 63.0254 258.667 64.216 258.667 65.6848C258.667 67.1535 259.86 68.3441 261.333 68.3441Z" fill="white"/>
<path d="M288 65.6848C288 68.3441 285.333 68.3441 285.333 68.3441C282.666 68.3441 282.667 65.6848 282.667 65.6848L285.333 63.0254C285.333 63.0254 288 65.6848 288 65.6848Z" fill="white"/>
<path d="M309.333 65.6848C309.333 68.3441 306.667 68.3441 306.667 68.3441C304 68.3441 304 65.6848 304 65.6848L306.667 63.0254L309.333 65.6848Z" fill="white"/>
<path d="M325.333 68.3441C326.806 68.3441 328 67.1535 328 65.6848C328 64.216 326.806 63.0254 325.333 63.0254C323.86 63.0254 322.667 64.216 322.667 65.6848C322.667 67.1535 323.86 68.3441 325.333 68.3441Z" fill="white"/>
<path d="M352 65.6848C352 68.3441 349.333 68.3441 349.333 68.3441C346.667 68.3441 346.667 65.6848 346.667 65.6848L349.333 63.0254L352 65.6848Z" fill="white"/>
<path d="M368 68.3441C369.473 68.3441 370.667 67.1535 370.667 65.6848C370.667 64.216 369.473 63.0254 368 63.0254C366.527 63.0254 365.333 64.216 365.333 65.6848C365.333 67.1535 366.527 68.3441 368 68.3441Z" fill="white"/>
<path d="M389.333 68.3441C390.806 68.3441 392 67.1535 392 65.6848C392 64.216 390.806 63.0254 389.333 63.0254C387.86 63.0254 386.667 64.216 386.667 65.6848C386.667 67.1535 387.86 68.3441 389.333 68.3441Z" fill="white"/>
<path d="M416 65.6848C416 68.3441 413.333 68.3441 413.333 68.3441C410.667 68.3441 410.667 65.6848 410.667 65.6848L413.333 63.0254L416 65.6848Z" fill="white"/>
<path d="M437.333 65.6848C437.333 68.3441 434.667 68.3441 434.667 68.3441C432 68.3441 432 65.6848 432 65.6848L434.667 63.0254C434.667 63.0254 437.333 65.6848 437.333 65.6848Z" fill="white"/>
<path d="M456 68.3441C457.473 68.3441 458.667 67.1535 458.667 65.6848C458.667 64.216 457.473 63.0254 456 63.0254C454.527 63.0254 453.333 64.216 453.333 65.6848C453.333 67.1535 454.527 68.3441 456 68.3441Z" fill="white"/>
<path d="M480 65.6848C480 68.3441 477.333 68.3441 477.333 68.3441C474.667 68.3441 474.667 65.6848 474.667 65.6848L477.333 63.0254L480 65.6848Z" fill="white"/>
<path d="M8 89.6194C8 92.2787 5.33333 92.2787 2.66667 92.2787C2.66667 92.2787 0 92.2787 0 89.6194C0 86.96 2.66667 86.96 2.66667 86.96C5.33333 86.96 8 86.96 8 89.6194Z" fill="white"/>
<path d="M29.3335 89.6194C29.3335 92.2787 26.6668 92.2787 24.0002 92.2787C21.3335 92.2787 21.3335 89.6194 21.3335 89.6194C21.3335 86.96 24.0002 86.96 24.0002 86.96C26.6668 86.96 29.3335 86.96 29.3335 89.6194Z" fill="white"/>
<path d="M50.6668 89.6194C50.6668 92.2787 48.0002 92.2787 48.0002 92.2787C45.3335 92.2787 45.3335 89.6194 45.3335 89.6194C45.3335 86.96 48.0002 86.96 48.0002 86.96C48.0002 86.96 50.6668 86.96 50.6668 89.6194Z" fill="white"/>
<path d="M71.9998 89.6194C71.9998 92.2787 69.3332 92.2787 69.3332 92.2787C66.6665 92.2787 66.6665 89.6194 66.6665 89.6194C66.6665 86.96 69.3332 86.96 69.3332 86.96C69.3332 86.96 71.9998 86.96 71.9998 89.6194Z" fill="white"/>
<path d="M93.3333 89.6194C93.3333 92.2787 90.6667 92.2787 90.6667 92.2787C88 92.2787 88 89.6194 88 89.6194C88 86.96 90.6667 86.96 90.6667 86.96C90.6667 86.96 93.3333 86.96 93.3333 89.6194Z" fill="white"/>
<path d="M114.666 89.6194C114.666 92.2787 112 92.2787 112 92.2787C109.333 92.2787 106.667 92.2787 106.667 89.6194C106.667 86.96 109.333 86.96 109.333 86.96C112 86.96 114.666 86.96 114.666 89.6194Z" fill="white"/>
<path d="M136 89.6194C136 92.2787 136 92.2787 133.333 92.2787C130.667 92.2787 130.667 89.6194 130.667 89.6194C130.667 86.96 133.333 86.96 133.333 86.96C136 86.96 136 86.96 136 89.6194Z" fill="white"/>
<path d="M157.333 89.6194C157.333 92.2787 157.333 92.2787 154.667 92.2787C152 92.2787 152 89.6194 152 89.6194C152 86.96 154.667 86.96 154.667 86.96C157.333 86.96 157.333 86.96 157.333 89.6194Z" fill="white"/>
<path d="M178.667 89.6194C178.667 92.2787 178.667 92.2787 176 92.2787C173.333 92.2787 173.333 89.6194 173.333 89.6194C173.333 86.96 176 86.96 176 86.96C178.667 86.96 178.667 86.96 178.667 89.6194Z" fill="white"/>
<path d="M200 89.6194C200 92.2787 200 92.2787 197.333 92.2787C194.667 92.2787 194.667 89.6194 194.667 89.6194C194.667 86.96 197.333 86.96 197.333 86.96C200 86.96 200 86.96 200 89.6194Z" fill="white"/>
<path d="M221.333 89.6194C221.333 92.2787 221.333 92.2787 218.667 92.2787C216 92.2787 216 89.6194 216 89.6194C216 86.96 218.667 86.96 218.667 86.96C221.333 86.96 221.333 86.96 221.333 89.6194Z" fill="white"/>
<path d="M242.667 89.6194C242.667 92.2787 242.667 92.2787 240 92.2787C237.334 92.2787 237.333 89.6194 237.333 89.6194C237.333 86.96 240 86.96 240 86.96C242.667 86.96 242.667 86.96 242.667 89.6194Z" fill="white"/>
<path d="M264 89.6194C264 92.2787 264 92.2787 261.333 92.2787C258.667 92.2787 258.667 89.6194 258.667 89.6194C258.667 86.96 261.333 86.96 261.333 86.96C264 86.96 264 86.96 264 89.6194Z" fill="white"/>
<path d="M288 89.6194C288 92.2787 285.333 92.2787 285.333 92.2787C282.666 92.2787 282.667 89.6194 282.667 89.6194C282.667 86.96 285.333 86.96 285.333 86.96C285.333 86.96 288 86.96 288 89.6194Z" fill="white"/>
<path d="M309.333 89.6194C309.333 92.2787 306.667 92.2787 306.667 92.2787C304 92.2787 304 89.6194 304 89.6194C304 86.96 306.667 86.96 306.667 86.96C306.667 86.96 309.333 86.96 309.333 89.6194Z" fill="white"/>
<path d="M330.667 89.6194C330.667 92.2787 328 92.2787 328 92.2787C325.334 92.2787 325.333 89.6194 325.333 89.6194C325.333 86.96 328 86.96 328 86.96C328 86.96 330.667 86.96 330.667 89.6194Z" fill="white"/>
<path d="M352 89.6194C352 92.2787 349.333 92.2787 349.333 92.2787C346.667 92.2787 346.667 89.6194 346.667 89.6194C346.667 86.96 349.333 86.96 349.333 86.96C349.333 86.96 352 86.96 352 89.6194Z" fill="white"/>
<path d="M373.333 89.6194C373.333 92.2787 370.667 92.2787 370.667 92.2787C368 92.2787 368 89.6194 368 89.6194C368 86.96 370.667 86.96 370.667 86.96C370.667 86.96 373.333 86.96 373.333 89.6194Z" fill="white"/>
<path d="M394.667 89.6194C394.667 92.2787 392 92.2787 392 92.2787C389.333 92.2787 389.333 89.6194 389.333 89.6194C389.333 86.96 392 86.96 392 86.96C392 86.96 394.667 86.96 394.667 89.6194Z" fill="white"/>
<path d="M416 89.6194C416 92.2787 413.333 92.2787 413.333 92.2787C410.667 92.2787 410.667 89.6194 410.667 89.6194C410.667 86.96 413.333 86.96 413.333 86.96C413.333 86.96 416 86.96 416 89.6194Z" fill="white"/>
<path d="M437.333 89.6194C437.333 92.2787 434.667 92.2787 434.667 92.2787C432 92.2787 432 89.6194 432 89.6194C432 86.96 434.667 86.96 434.667 86.96C434.667 86.96 437.333 86.96 437.333 89.6194Z" fill="white"/>
<path d="M458.667 89.6194C458.667 92.2787 456 92.2787 456 92.2787C453.334 92.2787 453.333 89.6194 453.333 89.6194C453.333 86.96 456 86.96 456 86.96C456 86.96 458.667 86.96 458.667 89.6194Z" fill="white"/>
<path d="M480 89.6194C480 92.2787 477.333 92.2787 477.333 92.2787C474.667 92.2787 474.667 89.6194 474.667 89.6194C474.667 86.96 477.333 86.96 477.333 86.96C477.333 86.96 480 86.96 480 89.6194Z" fill="white"/>
<path d="M7.99984 113.553C7.99984 116.213 5.33317 116.213 5.33317 116.213C2.6665 116.213 2.6665 113.553 2.6665 113.553L5.33317 110.894C5.33317 108.235 7.99984 110.894 7.99984 113.553Z" fill="white"/>
<path d="M29.3333 113.553C29.3333 116.213 26.6667 116.213 26.6667 116.213C24 116.213 24 113.553 24 113.553L26.6667 110.894C26.6667 108.235 29.3333 110.894 29.3333 113.553Z" fill="white"/>
<path d="M50.6668 113.553C50.6668 116.213 48.0002 116.213 48.0002 116.213C45.3335 116.213 45.3335 113.553 45.3335 113.553L48.0002 110.894C48.0002 108.235 50.6668 110.894 50.6668 113.553Z" fill="white"/>
<path d="M71.9998 113.553C71.9998 116.213 69.3332 116.213 69.3332 116.213C66.6665 116.213 66.6665 113.553 66.6665 113.553L69.3332 110.894C69.3332 108.235 71.9998 110.894 71.9998 113.553Z" fill="white"/>
<path d="M93.3333 113.553C93.3333 116.213 90.6667 116.213 90.6667 116.213C88 116.213 88 113.553 88 113.553L90.6667 110.894C90.6667 108.235 93.3333 110.894 93.3333 113.553Z" fill="white"/>
<path d="M114.667 113.553C114.667 116.213 112 116.213 112 116.213C109.333 116.213 109.333 113.553 109.333 113.553L112 110.894C112 108.235 114.667 110.894 114.667 113.553Z" fill="white"/>
<path d="M136 113.553C136 116.213 133.333 116.213 133.333 116.213C130.667 116.213 130.667 113.553 130.667 113.553L133.333 110.894C136 108.235 136 110.894 136 113.553Z" fill="white"/>
<path d="M157.333 113.553C157.333 116.213 154.667 116.213 154.667 116.213C152 116.213 152 113.553 152 113.553L154.667 110.894C157.333 108.235 157.333 110.894 157.333 113.553Z" fill="white"/>
<path d="M178.667 113.553C178.667 116.213 176 116.213 176 116.213C173.333 116.213 173.333 113.553 173.333 113.553L176 110.894C178.667 108.235 178.667 110.894 178.667 113.553Z" fill="white"/>
<path d="M200 113.553C200 116.213 197.333 116.213 197.333 116.213C194.667 116.213 194.667 113.553 194.667 113.553L197.333 110.894C200 108.235 200 110.894 200 113.553Z" fill="white"/>
<path d="M221.333 113.553C221.333 116.213 218.667 116.213 218.667 116.213C216 116.213 216 113.553 216 113.553L218.667 110.894C221.333 108.235 221.333 110.894 221.333 113.553Z" fill="white"/>
<path d="M242.667 113.553C242.667 116.213 240 116.213 240 116.213C237.334 116.213 237.333 113.553 237.333 113.553L240 110.894C242.667 108.235 242.667 110.894 242.667 113.553Z" fill="white"/>
<path d="M264 113.553C264 116.213 261.333 116.213 261.333 116.213C258.667 116.213 258.667 113.553 258.667 113.553L261.333 110.894C264 108.235 264 110.894 264 113.553Z" fill="white"/>
<path d="M288 113.553C288 116.213 285.333 116.213 285.333 116.213C282.666 116.213 282.667 113.553 282.667 113.553L285.333 110.894C285.333 108.235 288 110.894 288 113.553Z" fill="white"/>
<path d="M309.333 113.553C309.333 116.213 306.667 116.213 306.667 116.213C304 116.213 304 113.553 304 113.553L306.667 110.894C306.667 108.235 309.333 110.894 309.333 113.553Z" fill="white"/>
<path d="M330.667 113.553C330.667 116.213 328 116.213 328 116.213C325.334 116.213 325.333 113.553 325.333 113.553L328 110.894C328 108.235 330.667 110.894 330.667 113.553Z" fill="white"/>
<path d="M352 113.553C352 116.213 349.333 116.213 349.333 116.213C346.667 116.213 346.667 113.553 346.667 113.553L349.333 110.894C349.333 108.235 352 110.894 352 113.553Z" fill="white"/>
<path d="M373.333 113.553C373.333 116.213 370.667 116.213 370.667 116.213C368 116.213 368 113.553 368 113.553L370.667 110.894C370.667 108.235 373.333 110.894 373.333 113.553Z" fill="white"/>
<path d="M394.667 113.553C394.667 116.213 392 116.213 392 116.213C389.333 116.213 389.333 113.553 389.333 113.553L392 110.894C392 108.235 394.667 110.894 394.667 113.553Z" fill="white"/>
<path d="M416 113.553C416 116.213 413.333 116.213 413.333 116.213C410.667 116.213 410.667 113.553 410.667 113.553L413.333 110.894C413.333 108.235 416 110.894 416 113.553Z" fill="white"/>
<path d="M437.333 113.553C437.333 116.213 434.667 116.213 434.667 116.213C432 116.213 432 113.553 432 113.553L434.667 110.894C434.667 108.235 437.333 110.894 437.333 113.553Z" fill="white"/>
<path d="M458.667 113.553C458.667 116.213 456 116.213 456 116.213C453.334 116.213 453.333 113.553 453.333 113.553L456 110.894C456 108.235 458.667 110.894 458.667 113.553Z" fill="white"/>
<path d="M480 113.553C480 116.213 477.333 116.213 477.333 116.213C474.667 116.213 474.667 113.553 474.667 113.553L477.333 110.894C477.333 108.235 480 110.894 480 113.553Z" fill="white"/>
<path d="M7.99984 134.828C7.99984 137.488 5.33317 137.488 5.33317 137.488C2.6665 137.488 2.6665 134.828 2.6665 134.828C2.6665 132.169 5.33317 132.169 5.33317 132.169C5.33317 132.169 7.99984 132.169 7.99984 134.828Z" fill="white"/>
<path d="M29.3333 134.828C29.3333 137.488 26.6667 137.488 26.6667 137.488C24 137.488 24 134.828 24 134.828C24 132.169 26.6667 132.169 26.6667 132.169C26.6667 132.169 29.3333 132.169 29.3333 134.828Z" fill="white"/>
<path d="M50.6668 134.828C50.6668 137.488 48.0002 137.488 48.0002 137.488C45.3335 137.488 45.3335 134.828 45.3335 134.828C45.3335 132.169 48.0002 132.169 48.0002 132.169C48.0002 132.169 50.6668 132.169 50.6668 134.828Z" fill="white"/>
<path d="M71.9998 134.828C71.9998 137.488 69.3332 137.488 69.3332 137.488C66.6665 137.488 66.6665 134.828 66.6665 134.828C66.6665 132.169 69.3332 132.169 69.3332 132.169C69.3332 132.169 71.9998 132.169 71.9998 134.828Z" fill="white"/>
<path d="M93.3333 134.828C93.3333 137.488 90.6667 137.488 90.6667 137.488C88 137.488 88 134.828 88 134.828C88 132.169 90.6667 132.169 90.6667 132.169C90.6667 132.169 93.3333 132.169 93.3333 134.828Z" fill="white"/>
<path d="M114.667 134.828C114.667 137.488 112 137.488 112 137.488C109.333 137.488 109.333 134.828 109.333 134.828C109.333 132.169 112 132.169 112 132.169C112 132.169 114.667 132.169 114.667 134.828Z" fill="white"/>
<path d="M136 134.828C136 137.488 133.333 137.488 133.333 137.488C130.667 137.488 130.667 134.828 130.667 134.828C130.667 132.169 133.333 132.169 133.333 132.169C136 132.169 136 132.169 136 134.828Z" fill="white"/>
<path d="M157.333 134.828C157.333 137.488 154.667 137.488 154.667 137.488C152 137.488 152 134.828 152 134.828C152 132.169 154.667 132.169 154.667 132.169C157.333 132.169 157.333 132.169 157.333 134.828Z" fill="white"/>
<path d="M178.667 134.828C178.667 137.488 176 137.488 176 137.488C173.333 137.488 173.333 134.828 173.333 134.828C173.333 132.169 176 132.169 176 132.169C178.667 132.169 178.667 132.169 178.667 134.828Z" fill="white"/>
<path d="M200 134.828C200 137.488 197.333 137.488 197.333 137.488C194.667 137.488 194.667 134.828 194.667 134.828C194.667 132.169 197.333 132.169 197.333 132.169C200 132.169 200 132.169 200 134.828Z" fill="white"/>
<path d="M221.333 134.828C221.333 137.488 218.667 137.488 218.667 137.488C216 137.488 216 134.828 216 134.828C216 132.169 218.667 132.169 218.667 132.169C221.333 132.169 221.333 132.169 221.333 134.828Z" fill="white"/>
<path d="M242.667 134.828C242.667 137.488 240 137.488 240 137.488C237.334 137.488 237.333 134.828 237.333 134.828C237.333 132.169 240 132.169 240 132.169C242.667 132.169 242.667 132.169 242.667 134.828Z" fill="white"/>
<path d="M264 134.828C264 137.488 261.333 137.488 261.333 137.488C258.667 137.488 258.667 134.828 258.667 134.828C258.667 132.169 261.333 132.169 261.333 132.169C264 132.169 264 132.169 264 134.828Z" fill="white"/>
<path d="M288 134.828C288 137.488 285.333 137.488 285.333 137.488C282.666 137.488 282.667 134.828 282.667 134.828C282.667 132.169 285.333 132.169 285.333 132.169C285.333 132.169 288 132.169 288 134.828Z" fill="white"/>
<path d="M309.333 134.828C309.333 137.488 306.667 137.488 306.667 137.488C304 137.488 304 134.828 304 134.828C304 132.169 306.667 132.169 306.667 132.169C306.667 132.169 309.333 132.169 309.333 134.828Z" fill="white"/>
<path d="M330.667 134.828C330.667 137.488 328 137.488 328 137.488C325.334 137.488 325.333 134.828 325.333 134.828C325.333 132.169 328 132.169 328 132.169C328 132.169 330.667 132.169 330.667 134.828Z" fill="white"/>
<path d="M352 134.828C352 137.488 349.333 137.488 349.333 137.488C346.667 137.488 346.667 134.828 346.667 134.828C346.667 132.169 349.333 132.169 349.333 132.169C349.333 132.169 352 132.169 352 134.828Z" fill="white"/>
<path d="M373.333 134.828C373.333 137.488 370.667 137.488 370.667 137.488C368 137.488 368 134.828 368 134.828C368 132.169 370.667 132.169 370.667 132.169C370.667 132.169 373.333 132.169 373.333 134.828Z" fill="white"/>
<path d="M394.667 134.828C394.667 137.488 392 137.488 392 137.488C389.333 137.488 389.333 134.828 389.333 134.828C389.333 132.169 392 132.169 392 132.169C392 132.169 394.667 132.169 394.667 134.828Z" fill="white"/>
<path d="M416 134.828C416 137.488 413.333 137.488 413.333 137.488C410.667 137.488 410.667 134.828 410.667 134.828C410.667 132.169 413.333 132.169 413.333 132.169C413.333 132.169 416 132.169 416 134.828Z" fill="white"/>
<path d="M437.333 134.828C437.333 137.488 434.667 137.488 434.667 137.488C432 137.488 432 134.828 432 134.828C432 132.169 434.667 132.169 434.667 132.169C434.667 132.169 437.333 132.169 437.333 134.828Z" fill="white"/>
<path d="M458.667 134.828C458.667 137.488 456 137.488 456 137.488C453.334 137.488 453.333 134.828 453.333 134.828C453.333 132.169 456 132.169 456 132.169C456 132.169 458.667 132.169 458.667 134.828Z" fill="white"/>
<path d="M480 134.828C480 137.488 477.333 137.488 477.333 137.488C474.667 137.488 474.667 134.828 474.667 134.828C474.667 132.169 477.333 132.169 477.333 132.169C477.333 132.169 480 132.169 480 134.828Z" fill="white"/>
<path d="M7.99984 158.763C7.99984 161.422 5.33317 161.422 5.33317 161.422C2.6665 161.422 2.6665 158.763 2.6665 158.763C2.6665 156.103 5.33317 156.103 5.33317 156.103C5.33317 153.444 7.99984 156.103 7.99984 158.763Z" fill="white"/>
<path d="M29.3333 158.763C29.3333 161.422 26.6667 161.422 26.6667 161.422C24 161.422 24 158.763 24 158.763C24 156.103 26.6667 156.103 26.6667 156.103C26.6667 153.444 29.3333 156.103 29.3333 158.763Z" fill="white"/>
<path d="M50.6668 158.763C50.6668 161.422 48.0002 161.422 48.0002 161.422C45.3335 161.422 45.3335 158.763 45.3335 158.763C45.3335 156.103 48.0002 156.103 48.0002 156.103C48.0002 153.444 50.6668 156.103 50.6668 158.763Z" fill="white"/>
<path d="M71.9998 158.763C71.9998 161.422 69.3332 161.422 69.3332 161.422C66.6665 161.422 66.6665 158.763 66.6665 158.763C66.6665 156.103 69.3332 156.103 69.3332 156.103C69.3332 153.444 71.9998 156.103 71.9998 158.763Z" fill="white"/>
<path d="M93.3333 158.763C93.3333 161.422 90.6667 161.422 90.6667 161.422C88 161.422 88 158.763 88 158.763C88 156.103 90.6667 156.103 90.6667 156.103C90.6667 153.444 93.3333 156.103 93.3333 158.763Z" fill="white"/>
<path d="M114.667 158.763C114.667 161.422 112 161.422 112 161.422C109.333 161.422 109.333 158.763 109.333 158.763C109.333 156.103 112 156.103 112 156.103C112 153.444 114.667 156.103 114.667 158.763Z" fill="white"/>
<path d="M136 158.763C136 161.422 133.333 161.422 133.333 161.422C130.667 161.422 130.667 158.763 130.667 158.763C130.667 156.103 133.333 156.103 133.333 156.103C136 153.444 136 156.103 136 158.763Z" fill="white"/>
<path d="M157.333 158.763C157.333 161.422 154.667 161.422 154.667 161.422C152 161.422 152 158.763 152 158.763C152 156.103 154.667 156.103 154.667 156.103C157.333 153.444 157.333 156.103 157.333 158.763Z" fill="white"/>
<path d="M178.667 158.763C178.667 161.422 176 161.422 176 161.422C173.333 161.422 173.333 158.763 173.333 158.763C173.333 156.103 176 156.103 176 156.103C178.667 153.444 178.667 156.103 178.667 158.763Z" fill="white"/>
<path d="M200 158.763C200 161.422 197.333 161.422 197.333 161.422C194.667 161.422 194.667 158.763 194.667 158.763C194.667 156.103 197.333 156.103 197.333 156.103C200 153.444 200 156.103 200 158.763Z" fill="white"/>
<path d="M221.333 158.763C221.333 161.422 218.667 161.422 218.667 161.422C216 161.422 216 158.763 216 158.763C216 156.103 218.667 156.103 218.667 156.103C221.333 153.444 221.333 156.103 221.333 158.763Z" fill="white"/>
<path d="M242.667 158.763C242.667 161.422 240 161.422 240 161.422C237.334 161.422 237.333 158.763 237.333 158.763C237.333 156.103 240 156.103 240 156.103C242.667 153.444 242.667 156.103 242.667 158.763Z" fill="white"/>
<path d="M264 158.763C264 161.422 261.333 161.422 261.333 161.422C258.667 161.422 258.667 158.763 258.667 158.763C258.667 156.103 261.333 156.103 261.333 156.103C264 153.444 264 156.103 264 158.763Z" fill="white"/>
<path d="M288 158.763C288 161.422 285.333 161.422 285.333 161.422C282.666 161.422 282.667 158.763 282.667 158.763C282.667 156.103 285.333 156.103 285.333 156.103C285.333 153.444 288 156.103 288 158.763Z" fill="white"/>
<path d="M309.333 158.763C309.333 161.422 306.667 161.422 306.667 161.422C304 161.422 304 158.763 304 158.763C304 156.103 306.667 156.103 306.667 156.103C306.667 153.444 309.333 156.103 309.333 158.763Z" fill="white"/>
<path d="M330.667 158.763C330.667 161.422 328 161.422 328 161.422C325.334 161.422 325.333 158.763 325.333 158.763C325.333 156.103 328 156.103 328 156.103C328 153.444 330.667 156.103 330.667 158.763Z" fill="white"/>
<path d="M352 158.763C352 161.422 349.333 161.422 349.333 161.422C346.667 161.422 346.667 158.763 346.667 158.763C346.667 156.103 349.333 156.103 349.333 156.103C349.333 153.444 352 156.103 352 158.763Z" fill="white"/>
<path d="M373.333 158.763C373.333 161.422 370.667 161.422 370.667 161.422C368 161.422 368 158.763 368 158.763C368 156.103 370.667 156.103 370.667 156.103C370.667 153.444 373.333 156.103 373.333 158.763Z" fill="white"/>
<path d="M394.667 158.763C394.667 161.422 392 161.422 392 161.422C389.333 161.422 389.333 158.763 389.333 158.763C389.333 156.103 392 156.103 392 156.103C392 153.444 394.667 156.103 394.667 158.763Z" fill="white"/>
<path d="M416 158.763C416 161.422 413.333 161.422 413.333 161.422C410.667 161.422 410.667 158.763 410.667 158.763C410.667 156.103 413.333 156.103 413.333 156.103C413.333 153.444 416 156.103 416 158.763Z" fill="white"/>
<path d="M437.333 158.763C437.333 161.422 434.667 161.422 434.667 161.422C432 161.422 432 158.763 432 158.763C432 156.103 434.667 156.103 434.667 156.103C434.667 153.444 437.333 156.103 437.333 158.763Z" fill="white"/>
<path d="M458.667 158.763C458.667 161.422 456 161.422 456 161.422C453.334 161.422 453.333 158.763 453.333 158.763C453.333 156.103 456 156.103 456 156.103C456 153.444 458.667 156.103 458.667 158.763Z" fill="white"/>
<path d="M480 158.763C480 161.422 477.333 161.422 477.333 161.422C474.667 161.422 474.667 158.763 474.667 158.763C474.667 156.103 477.333 156.103 477.333 156.103C477.333 153.444 480 156.103 480 158.763Z" fill="white"/>
<path d="M2.66667 182.697C4.13943 182.697 5.33333 181.506 5.33333 180.037C5.33333 178.569 4.13943 177.378 2.66667 177.378C1.19391 177.378 0 178.569 0 180.037C0 181.506 1.19391 182.697 2.66667 182.697Z" fill="white"/>
<path d="M29.3333 180.037C29.3333 182.697 26.6667 182.697 26.6667 182.697C24 182.697 24 180.037 24 180.037C24 177.378 26.6667 177.378 26.6667 177.378C26.6667 177.378 29.3333 177.378 29.3333 180.037Z" fill="white"/>
<path d="M48.0002 182.697C49.4729 182.697 50.6668 181.506 50.6668 180.037C50.6668 178.569 49.4729 177.378 48.0002 177.378C46.5274 177.378 45.3335 178.569 45.3335 180.037C45.3335 181.506 46.5274 182.697 48.0002 182.697Z" fill="white"/>
<path d="M71.9998 180.037C71.9998 182.697 69.3332 182.697 69.3332 182.697C66.6665 182.697 66.6665 180.037 66.6665 180.037C66.6665 177.378 69.3332 177.378 69.3332 177.378C69.3332 177.378 71.9998 177.378 71.9998 180.037Z" fill="white"/>
<path d="M93.3333 180.037C93.3333 182.697 90.6667 182.697 90.6667 182.697C88 182.697 88 180.037 88 180.037C88 177.378 90.6667 177.378 90.6667 177.378C90.6667 177.378 93.3333 177.378 93.3333 180.037Z" fill="white"/>
<path d="M114.667 180.037C114.667 182.697 112 182.697 112 182.697C109.333 182.697 109.333 180.037 109.333 180.037C109.333 177.378 112 177.378 112 177.378C112 177.378 114.667 177.378 114.667 180.037Z" fill="white"/>
<path d="M136 180.037C136 182.697 133.333 182.697 133.333 182.697C130.667 182.697 130.667 180.037 130.667 180.037C130.667 177.378 133.333 177.378 133.333 177.378C136 177.378 136 177.378 136 180.037Z" fill="white"/>
<path d="M157.333 180.037C157.333 182.697 154.667 182.697 154.667 182.697C152 182.697 152 180.037 152 180.037C152 177.378 154.667 177.378 154.667 177.378C157.333 177.378 157.333 177.378 157.333 180.037Z" fill="white"/>
<path d="M178.667 180.037C178.667 182.697 176 182.697 176 182.697C173.333 182.697 173.333 180.037 173.333 180.037C173.333 177.378 176 177.378 176 177.378C178.667 177.378 178.667 177.378 178.667 180.037Z" fill="white"/>
<path d="M200 180.037C200 182.697 197.333 182.697 197.333 182.697C194.667 182.697 194.667 180.037 194.667 180.037C194.667 177.378 197.333 177.378 197.333 177.378C200 177.378 200 177.378 200 180.037Z" fill="white"/>
<path d="M221.333 180.037C221.333 182.697 218.667 182.697 218.667 182.697C216 182.697 216 180.037 216 180.037C216 177.378 218.667 177.378 218.667 177.378C221.333 177.378 221.333 177.378 221.333 180.037Z" fill="white"/>
<path d="M242.667 180.037C242.667 182.697 240 182.697 240 182.697C237.334 182.697 237.333 180.037 237.333 180.037C237.333 177.378 240 177.378 240 177.378C242.667 177.378 242.667 177.378 242.667 180.037Z" fill="white"/>
<path d="M261.333 182.697C262.806 182.697 264 181.506 264 180.037C264 178.569 262.806 177.378 261.333 177.378C259.86 177.378 258.667 178.569 258.667 180.037C258.667 181.506 259.86 182.697 261.333 182.697Z" fill="white"/>
<path d="M288 180.037C288 182.697 285.333 182.697 285.333 182.697C282.666 182.697 282.667 180.037 282.667 180.037C282.667 177.378 285.333 177.378 285.333 177.378C285.333 177.378 288 177.378 288 180.037Z" fill="white"/>
<path d="M309.333 180.037C309.333 182.697 306.667 182.697 306.667 182.697C304 182.697 304 180.037 304 180.037C304 177.378 306.667 177.378 306.667 177.378C306.667 177.378 309.333 177.378 309.333 180.037Z" fill="white"/>
<path d="M325.333 182.697C326.806 182.697 328 181.506 328 180.037C328 178.569 326.806 177.378 325.333 177.378C323.86 177.378 322.667 178.569 322.667 180.037C322.667 181.506 323.86 182.697 325.333 182.697Z" fill="white"/>
<path d="M352 180.037C352 182.697 349.333 182.697 349.333 182.697C346.667 182.697 346.667 180.037 346.667 180.037C346.667 177.378 349.333 177.378 349.333 177.378C349.333 177.378 352 177.378 352 180.037Z" fill="white"/>
<path d="M368 182.697C369.473 182.697 370.667 181.506 370.667 180.037C370.667 178.569 369.473 177.378 368 177.378C366.527 177.378 365.333 178.569 365.333 180.037C365.333 181.506 366.527 182.697 368 182.697Z" fill="white"/>
<path d="M389.333 182.697C390.806 182.697 392 181.506 392 180.037C392 178.569 390.806 177.378 389.333 177.378C387.86 177.378 386.667 178.569 386.667 180.037C386.667 181.506 387.86 182.697 389.333 182.697Z" fill="white"/>
<path d="M416 180.037C416 182.697 413.333 182.697 413.333 182.697C410.667 182.697 410.667 180.037 410.667 180.037C410.667 177.378 413.333 177.378 413.333 177.378C413.333 177.378 416 177.378 416 180.037Z" fill="white"/>
<path d="M437.333 180.037C437.333 182.697 434.667 182.697 434.667 182.697C432 182.697 432 180.037 432 180.037C432 177.378 434.667 177.378 434.667 177.378C434.667 177.378 437.333 177.378 437.333 180.037Z" fill="white"/>
<path d="M456 182.697C457.473 182.697 458.667 181.506 458.667 180.037C458.667 178.569 457.473 177.378 456 177.378C454.527 177.378 453.333 178.569 453.333 180.037C453.333 181.506 454.527 182.697 456 182.697Z" fill="white"/>
<path d="M480 180.037C480 182.697 477.333 182.697 477.333 182.697C474.667 182.697 474.667 180.037 474.667 180.037C474.667 177.378 477.333 177.378 477.333 177.378C477.333 177.378 480 177.378 480 180.037Z" fill="white"/>
</mask>
<g mask="url(#mask0_120_4431)">
<path d="M234.521 -347.247L460.399 -216.836V43.9863L234.521 174.397L8.64224 43.9863V-216.836L234.521 -347.247Z" fill="#F7FDFC" fill-opacity="0.16"/>
</g>
</svg>
