<svg width="25" height="24" viewBox="0 0 25 24" fill="none" xmlns="http://www.w3.org/2000/svg">
<path d="M5.48292 7.19704C6.69132 7.19704 7.67092 6.21744 7.67092 5.00904C7.67092 3.80065 6.69132 2.82104 5.48292 2.82104C4.27452 2.82104 3.29492 3.80065 3.29492 5.00904C3.29492 6.21744 4.27452 7.19704 5.48292 7.19704Z" fill="#F7FDFC"/>
<path d="M9.73722 8.85493V20.9939H13.5062V14.9909C13.5062 13.4069 13.8042 11.8729 15.7682 11.8729C17.7052 11.8729 17.7292 13.6839 17.7292 15.0909V20.9949H21.5002V14.3379C21.5002 11.0679 20.7962 8.55493 16.9742 8.55493C15.1392 8.55493 13.9092 9.56193 13.4062 10.5149H13.3552V8.85493H9.73722ZM3.59521 8.85493H7.37021V20.9939H3.59521V8.85493Z" fill="#F7FDFC"/>
</svg>
