<svg width="134" height="40" viewBox="0 0 134 40" fill="none" xmlns="http://www.w3.org/2000/svg">
<g clip-path="url(#clip0_184_891)">
<path d="M19.4446 29.4673C18.5189 28.3681 17.5933 27.2688 16.6677 26.1695C15.9765 25.3481 15.2854 24.5299 14.6004 23.7054C14.5264 23.6159 14.4554 23.5726 14.3628 23.5726C14.3258 23.5726 14.2888 23.5788 14.2456 23.5912C13.9802 23.6684 13.7087 23.7208 13.4372 23.7857C11.5273 24.2334 9.62046 24.6812 7.71055 25.1227C7.49766 25.1721 7.33721 25.2864 7.23231 25.4686C6.55659 26.6296 5.88396 27.7906 5.21132 28.9517C5.18973 28.9918 5.14036 29.0289 5.18664 29.0906C5.28846 29.069 5.37177 29.0103 5.46125 28.964C7.72598 27.7906 9.99071 26.6142 12.2554 25.4408C12.3418 25.3945 12.3943 25.3698 12.4344 25.3698C12.4869 25.3698 12.5208 25.413 12.5948 25.5149C13.7735 27.1267 14.9521 28.7417 16.1339 30.3535C16.2141 30.4616 16.2388 30.5635 16.211 30.6994C16.0999 31.212 16.0012 31.7276 15.8994 32.2433C15.884 32.3267 15.8469 32.41 15.8901 32.4965C15.8932 32.4965 15.8963 32.4965 15.8994 32.4965C15.9796 32.4965 16.029 32.4378 16.0845 32.3977C16.862 31.8573 17.6365 31.3077 18.4202 30.7735C18.8398 30.4863 19.1731 30.1065 19.5433 29.7699C19.6143 29.7051 19.6081 29.6495 19.5464 29.5878C19.5094 29.5476 19.4785 29.5044 19.4446 29.4673ZM19.0404 29.9058C18.7905 30.1497 18.556 30.3813 18.2814 30.5666C17.7753 30.9124 17.2632 31.2706 16.7695 31.6165C16.5813 31.7493 16.39 31.882 16.1956 32.0179C16.2789 31.5979 16.3622 31.1687 16.4517 30.7488C16.4949 30.5481 16.4579 30.3752 16.3313 30.2053C15.4643 29.0258 14.5881 27.8215 13.7365 26.6605C13.4218 26.2282 13.107 25.799 12.7923 25.3667C12.7028 25.2462 12.6134 25.1227 12.4344 25.1227C12.3326 25.1227 12.2493 25.166 12.1444 25.2215L11.0861 25.7712C9.33042 26.6821 7.52234 27.6208 5.73277 28.5472C6.25421 27.6455 6.84354 26.6327 7.4452 25.5952C7.51617 25.4717 7.61799 25.4006 7.76609 25.3636C9.25329 25.0177 10.7652 24.6657 12.2277 24.323C12.6504 24.2242 13.0731 24.1254 13.4927 24.0265C13.5699 24.008 13.6501 23.9895 13.7272 23.9741C13.9185 23.9308 14.1191 23.8876 14.3135 23.8289C14.3412 23.8197 14.3566 23.8197 14.3628 23.8197H14.3659C14.369 23.8227 14.3844 23.832 14.4122 23.8629C14.9398 24.499 15.4828 25.1413 16.0074 25.765C16.1647 25.9534 16.3252 26.1417 16.4825 26.327C17.0533 27.0063 17.6272 27.6856 18.1981 28.365L19.2595 29.6248C19.2687 29.6372 19.278 29.6495 19.2872 29.6588L19.2903 29.6619C19.2039 29.7452 19.1206 29.8255 19.0404 29.9058Z" fill="#F7FDFC"/>
<path d="M30.5709 24.2026C30.5061 23.4028 30.4382 22.6031 30.3703 21.8033C30.3086 21.0468 30.2469 20.2903 30.1821 19.5368C30.1759 19.4843 30.2006 19.4102 30.1142 19.3732C29.9661 20.1575 29.8149 20.9387 29.6668 21.7199C29.3521 23.3719 29.0343 25.027 28.7258 26.6821C28.6918 26.8674 28.5992 26.9755 28.445 27.0681C27.3342 27.7381 26.2265 28.4144 25.1219 29.0968C25.051 29.14 24.9923 29.1616 24.9337 29.1616C24.8751 29.1616 24.8165 29.14 24.7486 29.0937C24.332 28.8127 23.9093 28.541 23.4866 28.2693C23.4218 28.2291 23.3879 28.2044 23.357 28.2044C23.3231 28.2044 23.2953 28.2384 23.2429 28.3125C23.0392 28.5966 22.8325 28.8807 22.6381 29.1709C22.5425 29.316 22.419 29.3901 22.2524 29.421C21.4872 29.5662 20.722 29.7236 19.9568 29.8749C19.926 29.8996 19.926 29.9274 19.9507 29.9552C20.1636 30.0695 20.3734 30.1806 20.5863 30.2949C21.6878 30.8754 22.7924 31.4559 23.8939 32.0395C23.9618 32.0735 24.0235 32.0982 24.0945 32.0982C24.1222 32.0982 24.1531 32.0951 24.1839 32.0858C25.2577 31.811 26.3314 31.5424 27.4083 31.2799C27.5471 31.2459 27.6397 31.178 27.7199 31.0668C28.0099 30.6562 28.3061 30.2486 28.5992 29.841C29.2935 28.8745 29.9846 27.908 30.6819 26.9446C30.7467 26.855 30.7776 26.7778 30.7683 26.6667C30.7035 25.8453 30.6387 25.0239 30.5709 24.2026ZM30.4876 26.7994C29.9569 27.5313 29.4231 28.2754 28.9047 28.998C28.7381 29.2296 28.5715 29.4643 28.4018 29.6958C28.3061 29.8286 28.2136 29.9583 28.1179 30.0911C27.9204 30.3628 27.7168 30.6469 27.5193 30.9248C27.4731 30.9927 27.4268 31.0205 27.3496 31.0421C26.3715 31.283 25.3163 31.5455 24.1253 31.8512C24.1161 31.8543 24.1068 31.8543 24.0975 31.8543C24.0821 31.8543 24.0636 31.8512 24.0111 31.8234C23.2676 31.4312 22.5085 31.0298 21.7773 30.6438C21.4194 30.4555 21.0614 30.2671 20.7035 30.0787C20.6572 30.054 20.614 30.0324 20.5678 30.0077C20.5832 30.0046 20.5955 30.0015 20.611 29.9985C21.1633 29.8873 21.7341 29.773 22.2956 29.665C22.5332 29.6187 22.7122 29.5044 22.8418 29.3099C22.9991 29.0752 23.1688 28.8405 23.3323 28.612C23.357 28.578 23.3786 28.5472 23.4033 28.5132C23.4588 28.5503 23.5144 28.5842 23.5699 28.6213C23.9124 28.8436 24.2672 29.0721 24.6097 29.3006C24.7177 29.3747 24.8257 29.4118 24.9306 29.4118C25.0355 29.4118 25.1373 29.3778 25.2484 29.3099C26.245 28.6923 27.3003 28.05 28.5684 27.2842C28.7936 27.1484 28.9201 26.9724 28.9633 26.7315C29.204 25.447 29.4539 24.1377 29.6946 22.8748C29.7656 22.5042 29.8365 22.1368 29.9044 21.7663C29.9538 21.51 30.0031 21.2568 30.0494 21.0005C30.0556 21.0653 30.0587 21.1302 30.0648 21.195C30.0834 21.405 30.0988 21.6149 30.1173 21.828C30.1451 22.1584 30.1728 22.4888 30.2006 22.8192C30.2407 23.2793 30.2777 23.7579 30.3179 24.2242C30.3425 24.5206 30.3672 24.814 30.3888 25.1104C30.432 25.6291 30.4752 26.1633 30.5184 26.6883C30.5277 26.7222 30.5277 26.7408 30.4876 26.7994Z" fill="#F7FDFC"/>
<path d="M23.8014 20.0463C23.7799 20.1884 23.786 20.3181 23.823 20.4539C24.1192 21.5532 24.4093 22.6525 24.6993 23.7518C24.8011 24.1377 24.906 24.5237 25.0171 24.9406C25.0912 24.8634 25.0819 24.8016 25.0943 24.746C25.4769 22.813 25.8564 20.8831 26.242 18.9502C26.2636 18.839 26.2513 18.734 26.2266 18.6259C25.6095 15.9086 24.9955 13.1913 24.3815 10.474C24.3537 10.3505 24.3044 10.2887 24.181 10.2517C22.8295 9.86571 21.4781 9.47355 20.1267 9.08757C20.0927 9.07831 20.0619 9.06287 20.0279 9.06287C20.0063 9.06287 19.9847 9.06904 19.9631 9.08757C19.9724 9.1802 20.0341 9.24505 20.0804 9.31916C21.4843 11.598 22.8882 13.8768 24.2951 16.1556C24.3723 16.2792 24.3877 16.3934 24.3661 16.5262C24.1748 17.6996 23.9897 18.873 23.8014 20.0463ZM24.5018 16.0229C23.1442 13.8305 21.7712 11.598 20.4414 9.4365C20.7129 9.51369 20.9813 9.59089 21.2529 9.67117C22.1908 9.93981 23.1597 10.2208 24.1131 10.4925C24.1223 10.4956 24.1285 10.4956 24.1316 10.4987C24.1347 10.5049 24.1378 10.5142 24.1408 10.5296C24.7765 13.3519 25.4028 16.1155 25.986 18.6815C26.0076 18.7772 26.0106 18.8421 26.0014 18.9038C25.8193 19.824 25.6373 20.7411 25.4553 21.6613C25.3041 22.4178 25.156 23.1774 25.0048 23.9339C24.9832 23.8536 24.9616 23.7703 24.94 23.69C24.8567 23.3781 24.7734 23.0632 24.6901 22.7513C24.4864 21.9762 24.2735 21.1765 24.0606 20.3922C24.0329 20.2872 24.0267 20.1946 24.0452 20.0865C24.1563 19.3979 24.2674 18.7 24.3753 18.0238C24.4525 17.5452 24.5296 17.0511 24.6068 16.5663C24.6407 16.3625 24.6068 16.1896 24.5018 16.0229Z" fill="#F7FDFC"/>
<path d="M29.9012 18.3017C29.6421 17.9404 29.3983 17.5699 29.1453 17.2024C28.1734 15.782 27.1984 14.3647 26.2264 12.9443C25.8685 12.4224 25.5106 11.8975 25.1496 11.3756C25.0139 11.178 24.8781 10.9835 24.7393 10.7889C24.7763 11.2027 24.875 11.5887 24.9645 11.9809C25.4674 14.1918 25.9611 16.4057 26.464 18.6166C26.4949 18.7494 26.4949 18.8729 26.4702 19.0057C26.2265 20.2223 25.9889 21.4389 25.7482 22.6525C25.6526 23.1403 25.5538 23.6251 25.4582 24.113C25.4181 24.3168 25.4242 24.3384 25.6155 24.36C25.9333 24.3971 26.2542 24.4156 26.572 24.4403C26.5813 24.4403 26.5874 24.4403 26.5967 24.4403C26.7078 24.4403 26.7818 24.3786 26.8343 24.2798C27.1829 23.6498 27.5378 23.0199 27.8895 22.39C28.2073 21.8249 28.522 21.2567 28.8398 20.6917C29.2008 20.0494 29.5557 19.4071 29.9228 18.7679C30.0216 18.595 30.0154 18.4592 29.9012 18.3017ZM29.7099 18.6413C29.4199 19.1447 29.133 19.6603 28.8553 20.1575C28.7781 20.2933 28.701 20.4292 28.6269 20.5682C28.3986 20.9758 28.1734 21.3834 27.9451 21.7879L27.6766 22.2665C27.5933 22.4178 27.5069 22.5691 27.4236 22.7204C27.1613 23.1897 26.8898 23.6776 26.6245 24.1562C26.6121 24.1748 26.606 24.1871 26.6029 24.1902C26.5998 24.1902 26.5998 24.1902 26.5967 24.1902C26.5288 24.184 26.4579 24.1809 26.39 24.1748C26.1678 24.1593 25.9364 24.1408 25.7143 24.1192C25.7729 23.8166 25.8346 23.5109 25.8932 23.2114C25.9272 23.0415 25.9611 22.8686 25.995 22.6988C26.0598 22.3622 26.1277 22.0287 26.1925 21.6921C26.3622 20.8275 26.5412 19.929 26.717 19.0489C26.751 18.8853 26.7479 18.7247 26.7109 18.558C26.4671 17.4896 26.2234 16.4027 25.9858 15.3497C25.7328 14.2257 25.4705 13.0647 25.2113 11.9222C25.2082 11.9067 25.2052 11.8913 25.2021 11.8759C25.3224 12.0519 25.4427 12.2248 25.56 12.4008C25.7143 12.6293 25.8716 12.8547 26.0259 13.0832C26.4609 13.7162 26.896 14.3523 27.331 14.9853C27.871 15.7696 28.4079 16.554 28.9478 17.3414C29.028 17.4587 29.1083 17.576 29.1854 17.6934C29.352 17.9404 29.5279 18.1967 29.7068 18.4468C29.7562 18.524 29.7593 18.5549 29.7099 18.6413Z" fill="#F7FDFC"/>
<path d="M30.1172 18.1597C30.1234 18.1597 30.1296 18.1597 30.1358 18.1566C30.182 18.1195 30.1851 18.067 30.1944 18.0176C30.2499 17.7243 30.2993 17.4278 30.3548 17.1345C30.5554 16.0661 30.7559 14.9977 30.9596 13.9293C30.9935 13.7564 30.9472 13.6452 30.8022 13.5402C29.6698 12.7436 28.5406 11.9377 27.4113 11.1379C25.8716 10.0448 24.3289 8.95479 22.7893 7.8617C22.6998 7.79994 22.6103 7.75053 22.4992 7.75053C22.4961 7.75053 22.4931 7.75053 22.49 7.75053C22.3851 7.75362 22.2802 7.75362 22.1753 7.75362C21.6538 7.75362 21.1324 7.72274 20.6109 7.7073C20.5184 7.70422 20.4258 7.70422 20.3332 7.70422C20.1327 7.70422 19.9321 7.7073 19.7316 7.7073C19.4786 7.7073 19.2255 7.70113 18.9725 7.66716C18.9355 7.66099 18.8985 7.6579 18.8584 7.6579C18.809 7.6579 18.7566 7.66407 18.7041 7.68878C18.7041 7.75671 18.7411 7.78141 18.772 7.81229C18.9571 8.00065 19.1453 8.17974 19.3089 8.38663C19.4816 8.60896 19.71 8.72629 19.9815 8.79731C20.651 8.97332 21.3144 9.17094 21.9809 9.36239C22.7584 9.58472 23.5329 9.81939 24.3166 10.0294C24.5109 10.0819 24.6313 10.1776 24.7362 10.3381C25.1496 10.9557 25.5785 11.564 25.9981 12.1785C26.9886 13.6236 27.9728 15.0687 28.9633 16.5138C29.3119 17.0264 29.6637 17.5359 30.0154 18.0485C30.0401 18.0979 30.0555 18.1597 30.1172 18.1597ZM28.0839 14.8001C27.4668 13.8984 26.8312 12.9659 26.2018 12.0488C26.0444 11.8203 25.884 11.5856 25.7266 11.3602C25.4674 10.9835 25.1959 10.5944 24.9398 10.2085C24.7948 9.99231 24.6189 9.86571 24.3783 9.80086C23.8352 9.65574 23.2829 9.49517 22.7522 9.33769C22.5208 9.26975 22.2832 9.20182 22.0487 9.13389C21.8821 9.08757 21.7186 9.03817 21.552 8.99185C21.0583 8.84981 20.5492 8.70159 20.0432 8.56881C19.7933 8.50397 19.6267 8.40207 19.5032 8.24459C19.4199 8.1396 19.3335 8.04079 19.2441 7.94816C19.423 7.96051 19.5896 7.96051 19.7316 7.96051C19.8334 7.96051 19.9352 7.96051 20.0339 7.95742C20.1327 7.95742 20.2314 7.95433 20.3301 7.95433C20.432 7.95433 20.5184 7.95433 20.6017 7.95742C20.7714 7.9636 20.9441 7.96977 21.1108 7.97595C21.4594 7.99139 21.8173 8.00374 22.1722 8.00374C22.2832 8.00374 22.3912 8.00374 22.4931 8.00065H22.4961C22.5301 8.00065 22.5671 8.013 22.6442 8.06549C23.3601 8.57499 24.079 9.0814 24.7948 9.5878C25.6186 10.1714 26.4424 10.755 27.2663 11.3386C27.6334 11.598 27.9975 11.8574 28.3647 12.1198C29.1145 12.654 29.892 13.2037 30.6572 13.744C30.7251 13.7935 30.7282 13.8089 30.7158 13.883C30.543 14.7785 30.3702 15.6925 30.2067 16.5756L30.1111 17.0882C30.0771 17.2642 30.0463 17.4433 30.0154 17.6162V17.6193C29.7254 17.1993 29.4384 16.7794 29.1669 16.3811C28.8028 15.8561 28.4449 15.3281 28.0839 14.8001Z" fill="#F7FDFC"/>
<path d="M13.4096 30.0571C12.9961 29.8101 12.5858 29.56 12.1908 29.2851C11.9872 29.1431 11.7804 29.0875 11.549 29.0875C11.512 29.0875 11.475 29.0875 11.4349 29.0906C10.4815 29.1555 9.52805 29.1987 8.57464 29.2512V29.2481C7.50398 29.3068 6.43641 29.3654 5.36575 29.4241C5.19605 29.4334 5.19605 29.4365 5.17754 29.597C5.17445 29.6341 5.17137 29.6711 5.17137 29.7051C5.1004 30.7086 5.02635 31.7122 4.95847 32.7158C4.93379 33.1048 4.88133 32.9968 5.22691 33.2253C5.2917 33.2654 5.32564 33.2901 5.3565 33.2901C5.39352 33.2901 5.4182 33.2592 5.47683 33.1913C5.73601 32.8856 5.99827 32.5799 6.24203 32.2649C6.3531 32.1198 6.47961 32.0519 6.65548 32.021C7.69528 31.8388 8.73509 31.6443 9.7718 31.4559C10.3457 31.3509 10.9196 31.2459 11.4935 31.144C11.5305 31.1379 11.5675 31.1348 11.5953 31.1348C11.7342 31.1348 11.7928 31.2089 11.7866 31.3756C11.7588 32.0827 11.7311 32.7899 11.7002 33.497C11.6755 34.0713 11.6509 34.6488 11.6293 35.2231C11.6262 35.3312 11.6416 35.3806 11.6941 35.3806C11.7218 35.3806 11.7558 35.3682 11.802 35.3435C12.1723 35.1552 12.5395 34.9606 12.9097 34.7754C12.9992 34.729 13.0331 34.6673 13.0424 34.5716C13.0671 34.3245 13.101 34.0806 13.1288 33.8336C13.2676 32.6756 13.4003 31.5177 13.5453 30.3597C13.5669 30.2146 13.5392 30.1343 13.4096 30.0571ZM13.3047 30.3288C13.1967 31.1996 13.0918 32.0827 12.9899 32.9412C12.956 33.2283 12.9221 33.5186 12.8881 33.8058C12.8789 33.883 12.8696 33.9633 12.8604 34.0404C12.8388 34.2072 12.8172 34.377 12.8017 34.5499C12.8017 34.553 12.8017 34.5561 12.8017 34.5592C12.6073 34.658 12.4099 34.7599 12.2186 34.8587C12.1106 34.9143 11.9995 34.973 11.8884 35.0286C11.9008 34.692 11.9162 34.3523 11.9285 34.0219C11.9347 33.8521 11.944 33.6792 11.9501 33.5093C11.9563 33.3302 11.9656 33.1511 11.9717 32.972C11.9933 32.4533 12.0149 31.916 12.0365 31.388C12.0427 31.2243 12.0026 31.1039 11.9193 31.0143C11.8422 30.9341 11.7342 30.8908 11.6015 30.8908C11.5583 30.8908 11.5089 30.8939 11.4565 30.9063C10.9906 30.9896 10.5154 31.0761 10.0557 31.1595L9.73478 31.2181C9.44783 31.2706 9.15779 31.3231 8.87085 31.3756C8.13342 31.5115 7.36822 31.6504 6.61845 31.7832C6.37779 31.8265 6.19574 31.9314 6.05381 32.1198C5.8656 32.3637 5.66196 32.6077 5.4614 32.8393C5.41512 32.8918 5.37192 32.9443 5.32564 32.9967C5.28861 32.972 5.25467 32.9535 5.22691 32.935C5.21456 32.9288 5.20531 32.9226 5.19297 32.9134C5.19297 32.9041 5.19605 32.8918 5.19605 32.8825C5.19914 32.8424 5.20531 32.796 5.20839 32.7343C5.25776 32.0179 5.30713 31.2923 5.35958 30.5882C5.38118 30.3011 5.39969 30.0108 5.42129 29.7236C5.42129 29.7113 5.42438 29.6958 5.42438 29.6835C5.42438 29.6804 5.42438 29.6742 5.42438 29.6711C6.21426 29.6279 7.00414 29.5847 7.79093 29.5414L8.34323 29.5106V29.5136L8.59007 29.5013C8.85233 29.4859 9.11768 29.4735 9.37995 29.4581C10.0588 29.4241 10.7622 29.387 11.4534 29.3407C11.4873 29.3376 11.5213 29.3376 11.5521 29.3376C11.7496 29.3376 11.9008 29.384 12.052 29.4889C12.45 29.7669 12.8727 30.0201 13.28 30.2671L13.2862 30.2702C13.2985 30.2763 13.3047 30.2825 13.3078 30.2856C13.3078 30.2918 13.3078 30.3041 13.3047 30.3288Z" fill="#F7FDFC"/>
<path d="M39.4788 10.2146C39.488 10.1745 39.4726 10.1559 39.4417 10.1559C39.4356 10.1559 39.4294 10.1559 39.4232 10.159C39.4016 10.1776 39.3769 10.1961 39.3584 10.2146C37.0135 12.5027 34.6716 14.7908 32.3236 17.0727C32.2187 17.1746 32.2063 17.2673 32.2433 17.4C32.6691 19.0613 33.0918 20.7226 33.5145 22.3807C33.53 22.4394 33.5331 22.5073 33.6102 22.566C33.6657 22.4487 33.7213 22.3406 33.7737 22.2294C35.2548 19.1138 36.7389 15.9982 38.2199 12.8825C38.6395 11.9932 39.0591 11.1039 39.4788 10.2146ZM34.4186 20.2964L33.6503 21.9145C33.5639 21.5717 33.4775 21.2321 33.388 20.8893C33.0918 19.7252 32.7864 18.5209 32.4809 17.3383C32.4717 17.2981 32.4717 17.2827 32.4717 17.2796C32.4717 17.2765 32.4778 17.2673 32.4963 17.2518C34.397 15.4022 36.3254 13.5217 38.189 11.6999L38.7753 11.1286C38.5192 11.6721 38.2538 12.231 37.9946 12.7775C36.8037 15.2849 35.5911 17.8323 34.4186 20.2964Z" fill="#F7FDFC"/>
<path d="M15.8315 30.335C15.2515 29.5476 14.6776 28.7602 14.1006 27.9697C13.5915 27.2749 13.0824 26.5833 12.5794 25.8854C12.4745 25.7403 12.4313 25.6785 12.3604 25.6785C12.3079 25.6785 12.24 25.7125 12.1228 25.7712C12.1043 25.7804 12.0827 25.7897 12.0642 25.802C11.1015 26.3054 10.1419 26.8087 9.17617 27.3089C8.4912 27.664 7.79697 28.0068 7.11508 28.368C6.68311 28.5965 6.24806 28.8189 5.81301 29.0412C5.7729 29.0628 5.70811 29.069 5.71428 29.1369C5.73896 29.1616 5.76982 29.1647 5.79759 29.1647C5.80993 29.1647 5.82227 29.1647 5.83461 29.1647C5.8377 29.1647 5.8377 29.1647 5.84078 29.1647C5.84695 29.1647 5.85312 29.1647 5.85621 29.1647C6.03517 29.1647 6.20795 29.1215 6.38691 29.1215C6.39925 29.1215 6.41468 29.1215 6.42702 29.1215C6.47947 29.1246 6.52884 29.1246 6.58129 29.1246C6.90218 29.1246 7.21999 29.0906 7.53779 29.0659C8.22585 29.0165 8.91699 29.0011 9.60814 28.9547C10.0216 28.9269 10.4381 28.9084 10.8516 28.8899C11.1632 28.8745 11.4779 28.8837 11.7865 28.8312C11.8019 28.8281 11.8173 28.8281 11.8297 28.8281C11.9037 28.8281 11.9654 28.8621 12.0302 28.9022C12.5702 29.2481 13.1101 29.5939 13.6563 29.9305C13.7797 30.0077 13.8136 30.0942 13.7951 30.2362C13.7087 30.9093 13.6378 31.5825 13.5575 32.2556C13.4927 32.8053 13.4156 33.3549 13.3601 33.9046C13.3416 34.096 13.286 34.2875 13.3169 34.5036C13.4773 34.4665 13.5545 34.3616 13.6501 34.2875C14.2147 33.849 14.7732 33.4074 15.3379 32.9689C15.4829 32.8578 15.5693 32.725 15.6032 32.5366C15.705 31.9685 15.8161 31.4034 15.9395 30.8414C15.9827 30.65 15.9488 30.4925 15.8315 30.335ZM15.6988 30.792C15.5693 31.3818 15.4551 31.953 15.3594 32.4965C15.3378 32.6169 15.2885 32.6972 15.1867 32.7744C14.9213 32.9813 14.6529 33.1913 14.3906 33.3951C14.1283 33.5989 13.8599 33.8119 13.5946 34.0188C13.5976 33.991 13.6007 33.9601 13.6038 33.9323C13.6408 33.5834 13.684 33.2314 13.7272 32.8887C13.7519 32.691 13.7766 32.4872 13.8013 32.2865C13.8291 32.0457 13.8568 31.7986 13.8846 31.5609C13.934 31.1378 13.9833 30.6994 14.0389 30.2702C14.0697 30.0262 13.9864 29.8471 13.7859 29.7236C13.3261 29.4364 12.8602 29.14 12.4097 28.8528L12.1629 28.6954C12.0765 28.6398 11.9685 28.5842 11.8297 28.5842C11.8019 28.5842 11.7741 28.5873 11.7464 28.5904C11.5396 28.6243 11.3298 28.6305 11.1077 28.6367C11.0213 28.6398 10.9287 28.6398 10.8392 28.646C10.7621 28.649 10.685 28.6521 10.6078 28.6552C10.2746 28.6707 9.92903 28.6861 9.58962 28.7108C9.25639 28.7324 8.91699 28.7479 8.58993 28.7633C8.23819 28.7787 7.87719 28.7973 7.51928 28.822C7.43288 28.8281 7.3434 28.8343 7.2601 28.8436C7.06571 28.859 6.86824 28.8745 6.67386 28.8806C6.85899 28.7849 7.04411 28.6892 7.22924 28.5904C7.62418 28.3804 8.03146 28.1735 8.4264 27.9728C8.71027 27.8277 9.00339 27.6795 9.29033 27.5312C9.95988 27.1823 10.6418 26.8272 11.299 26.4814C11.5921 26.327 11.8852 26.1757 12.1752 26.0213C12.1876 26.0151 12.203 26.0089 12.2154 25.9997L12.2308 25.9935C12.2586 25.978 12.2925 25.9626 12.3172 25.9503C12.3326 25.9719 12.3511 25.9935 12.3665 26.0182L12.3758 26.0305C12.7337 26.5215 13.0978 27.0187 13.4495 27.5004C13.6007 27.7042 13.7488 27.908 13.9 28.1148C14.0543 28.3248 14.2086 28.5379 14.3628 28.7479C14.7763 29.316 15.2052 29.9027 15.631 30.477C15.7081 30.5851 15.7266 30.6685 15.6988 30.792Z" fill="#F7FDFC"/>
<path d="M20.0988 29.6063C20.3179 29.5538 20.54 29.5167 20.7622 29.4735C21.2343 29.3809 21.7063 29.2852 22.1784 29.1925C22.271 29.174 22.3605 29.1462 22.4222 29.0597C22.632 28.7602 22.8449 28.4638 23.0578 28.1704C23.1226 28.0809 23.1164 28.0191 23.0177 27.9574C22.7647 27.7968 22.5147 27.6332 22.2648 27.4695C20.7036 26.4567 19.1485 25.4408 17.5811 24.4403C17.1923 24.1933 16.8838 23.8999 16.6462 23.4954C16.1217 22.603 15.557 21.7323 15.0109 20.8553C14.8566 20.6083 14.7023 20.3643 14.5357 20.0957C14.4648 20.1976 14.4894 20.2748 14.4864 20.3427C14.4709 20.7009 14.5265 21.056 14.5234 21.4111C14.5172 21.9947 14.5913 22.5752 14.5758 23.1589C14.5727 23.2484 14.5974 23.3287 14.6561 23.4028C15.1096 23.9432 15.5632 24.4866 16.0167 25.027C16.387 25.4686 16.7573 25.907 17.1306 26.3455C17.4638 26.7408 17.7971 27.1391 18.1303 27.5343C18.5098 27.9852 18.8924 28.436 19.275 28.8868C19.4478 29.0937 19.6237 29.3006 19.7934 29.5075C19.8551 29.5816 19.9229 29.6186 20.0093 29.6186C20.034 29.6186 20.0649 29.6156 20.0988 29.6063ZM19.9816 29.35C19.818 29.1493 19.6545 28.9578 19.4601 28.7263C19.2781 28.5132 19.0991 28.297 18.9171 28.084C18.7165 27.8462 18.516 27.6115 18.3154 27.3738C18.121 27.1453 17.9236 26.9106 17.7354 26.6821C17.5965 26.5154 17.4577 26.3517 17.3157 26.185C17.1676 26.0089 17.0195 25.8329 16.8683 25.6569C16.6493 25.3975 16.424 25.1289 16.2019 24.8664C16.0013 24.6256 15.8008 24.3878 15.6002 24.147C15.3503 23.8505 15.0942 23.5417 14.8412 23.2391C14.8258 23.2206 14.8165 23.2021 14.8196 23.1619C14.8288 22.8377 14.8134 22.5135 14.7949 22.1985C14.7795 21.9392 14.7671 21.6674 14.7671 21.408C14.7671 21.2382 14.7579 21.0684 14.7455 20.9047C14.7455 20.9016 14.7455 20.8955 14.7455 20.8924C14.764 20.9202 14.7795 20.948 14.798 20.9757C14.9553 21.2289 15.1189 21.4852 15.2731 21.7354C15.6588 22.3467 16.0569 22.9798 16.4302 23.6128C16.674 24.0265 16.9948 24.3539 17.4453 24.641C18.5962 25.3759 19.7625 26.1355 20.8918 26.8674C21.3052 27.136 21.7156 27.4016 22.1291 27.6702C22.2124 27.7258 22.2988 27.7814 22.3821 27.837C22.5178 27.9265 22.6567 28.016 22.7955 28.1056C22.5888 28.3897 22.4006 28.6552 22.2185 28.9146C22.2124 28.9239 22.1969 28.9331 22.1291 28.9455C21.7218 29.0258 21.3052 29.1091 20.9041 29.1894L20.7159 29.2265C20.648 29.2388 20.5802 29.2512 20.5154 29.2635C20.3611 29.2913 20.2006 29.3222 20.0433 29.3624C20.0248 29.3654 20.0124 29.3685 20.0093 29.3685H20.0063C20.0001 29.3716 19.9908 29.3654 19.9816 29.35Z" fill="#F7FDFC"/>
<path d="M19.923 9.71435C19.9816 10.1405 20.0403 10.5666 20.0989 10.9927C20.1976 11.7153 20.2964 12.4378 20.392 13.1604C20.5 13.9632 20.6049 14.763 20.716 15.5658C20.8116 16.2668 20.9073 16.9677 21.0029 17.6656C21.0585 18.0639 21.1109 18.4591 21.1634 18.8575C21.1788 18.9748 21.2251 19.0582 21.3362 19.1138C22.018 19.4473 22.6876 19.7993 23.3787 20.1111C23.425 20.1328 23.459 20.1451 23.4806 20.1451C23.5207 20.1451 23.5361 20.1111 23.5577 20.0247C23.57 19.9753 23.5762 19.9259 23.5855 19.8734C23.6533 19.4473 23.7181 19.0242 23.786 18.5981C23.894 17.9064 24.002 17.2147 24.1162 16.5261C24.1347 16.4088 24.1131 16.3131 24.0514 16.2174C23.8724 15.9333 23.6965 15.6492 23.5207 15.362C22.3698 13.4939 21.222 11.6226 20.0711 9.75449C20.0403 9.702 20.0187 9.63407 19.9477 9.61554C19.9076 9.64333 19.9168 9.68038 19.923 9.71435ZM22.2896 13.8305C22.629 14.3832 22.9684 14.9359 23.3109 15.4886C23.4713 15.748 23.6564 16.0506 23.8446 16.3471C23.8755 16.3965 23.8848 16.4335 23.8755 16.486C23.7829 17.048 23.6935 17.6192 23.6071 18.172L23.5454 18.561C23.5052 18.8142 23.4651 19.0674 23.425 19.3237C23.4003 19.4905 23.3726 19.6572 23.3479 19.824C22.9406 19.6356 22.5302 19.4318 22.1353 19.2342C21.9101 19.1199 21.6786 19.0057 21.4472 18.8914C21.4225 18.8791 21.4164 18.876 21.4102 18.8266C21.3608 18.4499 21.3084 18.0577 21.2498 17.6347C21.2097 17.3321 21.1665 17.0295 21.1233 16.7238C21.0708 16.3347 21.0153 15.9302 20.9597 15.5319C20.8949 15.0532 20.8301 14.5685 20.7684 14.0991C20.7252 13.7749 20.682 13.4506 20.6388 13.1264C20.5278 12.302 20.4352 11.6134 20.3457 10.9588C20.3272 10.8322 20.3118 10.7056 20.2933 10.582C20.9597 11.669 21.6354 12.7651 22.2896 13.8305Z" fill="#F7FDFC"/>
<path d="M6.87747 35.3281C6.74788 34.6395 6.62755 33.9509 6.50104 33.2623C6.45785 33.0338 6.43933 32.8022 6.35911 32.5706C6.26963 32.5953 6.24186 32.6509 6.20484 32.6941C5.98577 32.9566 5.7667 33.2222 5.54763 33.4846C5.48901 33.5556 5.45198 33.5865 5.4057 33.5865C5.37176 33.5865 5.32856 33.568 5.26994 33.534C5.14961 33.463 5.03236 33.3889 4.9182 33.3117C4.8534 33.2654 4.78861 33.2438 4.71764 33.2438C4.6837 33.2438 4.64668 33.2499 4.60656 33.2623C4.26099 33.3735 3.91233 33.4846 3.56368 33.5865C3.45568 33.6205 3.41249 33.6822 3.41557 33.7934C3.42483 34.1207 3.40015 34.4542 3.43717 34.7784C3.47111 35.0656 3.36929 35.2169 3.13171 35.3559C2.52079 35.714 1.92529 36.0938 1.32363 36.4675C1.15701 36.5725 1.15701 36.5817 1.26809 36.733C1.28351 36.7577 1.30203 36.7794 1.32054 36.8041C1.82039 37.4587 2.32023 38.1133 2.81699 38.771C2.8787 38.8513 2.94967 38.9007 3.04223 38.9285C3.38472 39.0335 3.72412 39.1416 4.06661 39.2435C4.14683 39.2682 4.1962 39.2836 4.23631 39.2836C4.30419 39.2836 4.33813 39.2373 4.42452 39.1138C5.2144 37.9743 6.0012 36.8349 6.79416 35.6986C6.88055 35.5782 6.90215 35.4701 6.87747 35.3281ZM6.59669 35.5535C6.06291 36.3193 5.51986 37.1005 4.99842 37.8539C4.74233 38.2245 4.48315 38.5981 4.22705 38.9686C4.2178 38.9841 4.20545 39.0026 4.19311 39.018C4.17768 39.0119 4.15917 39.0088 4.14374 39.0026C3.96787 38.9501 3.78892 38.8945 3.61304 38.8389C3.4526 38.7895 3.2829 38.737 3.11937 38.6876C3.07309 38.6753 3.0484 38.6537 3.01755 38.6166C2.64112 38.1195 2.25544 37.6131 1.8821 37.1252C1.76176 36.9677 1.64143 36.8071 1.51801 36.6497C1.51493 36.6466 1.51184 36.6435 1.51184 36.6404C1.63834 36.5632 1.76176 36.4829 1.88827 36.4057C2.33566 36.1247 2.79848 35.8376 3.2613 35.5658C3.6007 35.3682 3.73029 35.115 3.68709 34.7445C3.66241 34.5468 3.6655 34.343 3.6655 34.1269C3.6655 34.025 3.66858 33.9169 3.6655 33.8119C3.96479 33.7224 4.29185 33.6205 4.68679 33.4939C4.69913 33.4908 4.71147 33.4877 4.72073 33.4877C4.7269 33.4877 4.74541 33.4877 4.77935 33.5124C4.89351 33.5927 5.01385 33.6668 5.14652 33.744C5.21749 33.7872 5.30388 33.8305 5.4057 33.8305C5.57849 33.8305 5.68031 33.7069 5.73893 33.639C5.86235 33.4939 5.98577 33.3457 6.10302 33.2005C6.14313 33.1542 6.18015 33.1079 6.22026 33.0616C6.22335 33.077 6.22335 33.0894 6.22644 33.1048C6.23569 33.1697 6.24803 33.2376 6.26038 33.3055C6.319 33.6174 6.37762 33.9385 6.43008 34.2473C6.49487 34.6148 6.56584 34.9977 6.6368 35.3713C6.64914 35.4485 6.63989 35.4917 6.59669 35.5535Z" fill="#F7FDFC"/>
<path d="M39.9599 12.7467C39.9445 11.8728 39.9167 10.9958 39.9075 10.122C39.9075 10.088 39.9136 10.0479 39.8766 10.0201C39.8118 10.0386 39.8026 10.1035 39.781 10.1529C39.5588 10.6129 39.3336 11.0699 39.1145 11.5331C38.627 12.5614 38.1426 13.5896 37.6551 14.6179C37.399 15.1583 37.1429 15.6986 36.8868 16.239C36.2944 17.4834 35.7051 18.7278 35.1096 19.9722C34.7332 20.7627 34.3506 21.5501 33.9741 22.3406C33.9587 22.3715 33.9371 22.4024 33.9556 22.4734C33.9988 22.4363 34.0266 22.4147 34.0513 22.39C34.3228 22.1461 34.548 21.8558 34.801 21.5964C35.4027 20.9819 36.0229 20.3829 36.6091 19.7561C37.2941 19.0212 38.0346 18.3357 38.7196 17.5977C39.0559 17.2333 39.4107 16.8844 39.7717 16.5447C39.9414 16.3841 40.0031 16.2174 40 15.9858C39.9877 14.9051 39.9815 13.8274 39.9599 12.7467ZM39.6051 16.3625C39.1886 16.7578 38.8492 17.0943 38.5406 17.4278C38.192 17.8076 37.8186 18.1782 37.4576 18.5364C37.1182 18.876 36.7665 19.225 36.4302 19.5862C36.0445 20 35.6372 20.4076 35.2423 20.8029C35.0818 20.9634 34.9152 21.1302 34.7517 21.2969C34.9461 20.8955 35.1404 20.4879 35.3348 20.0834C35.8285 19.049 36.3283 17.9991 36.8128 16.9801L37.112 16.3471C37.3373 15.8716 37.5841 15.3559 37.8803 14.726C38.0562 14.3554 38.2321 13.9818 38.4079 13.6112C38.7134 12.9659 39.0281 12.2958 39.3397 11.6412C39.4508 11.4096 39.5619 11.1749 39.673 10.9433C39.6792 11.2305 39.6853 11.5177 39.6915 11.7987C39.6977 12.1106 39.7069 12.4348 39.7131 12.7528C39.7254 13.4754 39.7347 14.2103 39.7409 14.9205C39.7439 15.2694 39.747 15.6338 39.7532 15.9889C39.7563 16.1587 39.7162 16.2575 39.6051 16.3625Z" fill="#F7FDFC"/>
<path d="M23.459 27.522C23.4991 27.522 23.5361 27.4819 23.5947 27.4047C23.8416 27.0712 24.0822 26.7315 24.326 26.3949C24.4926 26.1541 24.653 25.9101 24.8258 25.6755C24.903 25.5705 24.9153 25.4748 24.8845 25.3512C24.4648 23.7795 24.0452 22.2078 23.6318 20.6361C23.6009 20.5188 23.5423 20.4539 23.4343 20.4014C21.2621 19.3361 19.09 18.2677 16.9178 17.2024C16.7419 17.1159 16.566 16.9863 16.384 16.9646C16.3717 16.9646 16.3562 16.9615 16.3439 16.9615C16.1649 16.9615 15.986 17.0851 15.8101 17.1499C15.2269 17.3599 14.6469 17.5729 14.0637 17.786C14.0576 17.786 14.0483 17.786 14.0421 17.7891C13.6102 17.9466 13.3726 18.3356 13.0579 18.6321C13.0116 18.6753 13.0363 18.7278 13.0887 18.7587C13.1196 18.7772 13.1535 18.7926 13.1875 18.8081C13.6564 19.0057 14.1285 19.2002 14.5975 19.401C15.6435 19.8425 16.6925 20.2841 17.7385 20.7256C17.8218 20.7596 17.8866 20.8121 17.9422 20.8831C18.2754 21.2876 18.6117 21.6891 18.9449 22.0936C19.7009 23.0168 20.4537 23.9432 21.222 24.8603C21.9286 25.7033 22.6197 26.5586 23.3201 27.4078C23.3788 27.485 23.4189 27.522 23.459 27.522ZM21.4071 24.7028C20.8024 23.9833 20.1976 23.2422 19.6114 22.5259C19.451 22.3313 19.2905 22.1337 19.1331 21.9392C18.9573 21.723 18.7752 21.5069 18.5994 21.2938C18.4451 21.1085 18.2846 20.9171 18.1304 20.7256C18.044 20.6207 17.9452 20.5465 17.8311 20.4971C17.2603 20.2563 16.6895 20.0154 16.1186 19.7746C15.6435 19.5739 15.1652 19.3732 14.6901 19.1725C14.4124 19.0551 14.1285 18.9378 13.8539 18.8235C13.7027 18.7618 13.5515 18.6969 13.4004 18.6352C13.4312 18.6012 13.4651 18.5672 13.496 18.5302C13.6842 18.3233 13.8601 18.1288 14.0977 18.033L14.1162 18.0299L14.147 18.0176C14.3106 17.9589 14.4741 17.8972 14.6345 17.8385C15.0449 17.6872 15.4707 17.5328 15.8903 17.3815C15.9582 17.3568 16.023 17.3259 16.0847 17.2981C16.1834 17.2518 16.276 17.2086 16.3408 17.2086C16.347 17.2086 16.3501 17.2086 16.3562 17.2086C16.4395 17.2178 16.5414 17.2765 16.6493 17.3352C16.7018 17.363 16.7543 17.3938 16.8098 17.4216C17.43 17.7242 18.0471 18.0299 18.6672 18.3326C20.1945 19.0829 21.7743 19.858 23.3263 20.6207C23.3788 20.6454 23.3849 20.6577 23.3942 20.6948C23.8107 22.2757 24.2303 23.8629 24.6469 25.4099C24.6623 25.4686 24.6561 25.484 24.6284 25.5242C24.5019 25.694 24.3846 25.87 24.2674 26.0398C24.2211 26.1078 24.1748 26.1757 24.1254 26.2467C24.0545 26.3424 23.9866 26.4413 23.9156 26.537C23.7644 26.747 23.6102 26.9631 23.4528 27.1731C23.2553 26.9353 23.0579 26.6945 22.8666 26.4598C22.3914 25.8885 21.8977 25.2864 21.4071 24.7028Z" fill="#F7FDFC"/>
<path d="M16.7293 16.8504C17.3218 17.1345 17.9111 17.4216 18.4973 17.7119C19.0866 18.0022 19.6698 18.2986 20.2591 18.5889C20.3177 18.6166 20.3856 18.6815 20.4504 18.6815C20.472 18.6815 20.4936 18.6722 20.5121 18.6537C20.5831 18.5827 20.4936 18.4777 20.4535 18.3974C20.1912 17.8509 19.9259 17.3074 19.6636 16.7639C19.4754 16.378 19.2934 15.9889 19.1082 15.5998C18.6763 14.692 18.2412 13.7842 17.8093 12.8763C17.7537 12.759 17.6735 12.6725 17.5532 12.62C17.3464 12.5274 17.1428 12.4317 16.9392 12.3329C15.8654 11.8048 14.7948 11.2768 13.721 10.7488C13.6716 10.7241 13.6254 10.684 13.5637 10.684C13.5482 10.684 13.5297 10.687 13.5143 10.6932C13.5019 10.7797 13.5544 10.8445 13.5914 10.9125C14.5232 12.7806 15.455 14.6457 16.3838 16.5138C16.4609 16.6682 16.572 16.7763 16.7293 16.8504ZM13.9864 11.1533C14.4368 11.3756 14.8904 11.598 15.3316 11.8172C15.8315 12.0642 16.3313 12.3082 16.8281 12.5552C17.0225 12.6509 17.2168 12.7405 17.4483 12.8455C17.51 12.8732 17.5501 12.9134 17.584 12.9813C17.9419 13.7378 18.3091 14.5036 18.6639 15.2478L18.883 15.7079L18.9879 15.9271C19.136 16.2359 19.2872 16.5571 19.4415 16.872C19.5495 17.0974 19.6605 17.3228 19.7685 17.5513C19.8765 17.7768 19.9907 18.0083 20.1018 18.2399C19.8858 18.1319 19.6667 18.0238 19.4569 17.9188C19.1792 17.7798 18.8923 17.6347 18.6053 17.4958C18.0777 17.2333 17.4513 16.9276 16.8342 16.6312C16.7232 16.5787 16.6553 16.5107 16.5998 16.4027C15.9888 15.1737 15.3656 13.9231 14.7639 12.7158C14.5078 12.1939 14.2486 11.6721 13.9864 11.1533Z" fill="#F7FDFC"/>
<path d="M31.2404 14.4326C31.225 14.3708 31.2003 14.3091 31.1664 14.2041C31.1386 14.2998 31.1232 14.3492 31.1139 14.3986C30.8671 15.7017 30.6203 17.0079 30.3765 18.3109C30.358 18.419 30.3302 18.524 30.3395 18.6352C30.3981 19.3052 30.4506 19.9722 30.5061 20.6423C30.6233 22.038 30.7375 23.4337 30.8548 24.8294C30.901 25.3667 30.9442 25.904 30.9936 26.4598C31.0892 26.4289 31.1108 26.361 31.1448 26.3085C31.8637 25.2617 32.5764 24.2118 33.2984 23.1681C33.391 23.0323 33.4003 22.9118 33.3632 22.7636C32.6567 19.9876 31.9501 17.2086 31.2404 14.4326ZM33.101 23.0292C32.6011 23.7486 32.0982 24.4866 31.6138 25.1968C31.4718 25.4037 31.333 25.6075 31.1911 25.8144C31.1633 25.4778 31.1355 25.1443 31.1078 24.8109C30.9905 23.4151 30.8733 22.0194 30.7591 20.6237C30.7406 20.4138 30.7252 20.2007 30.7067 19.9907C30.6696 19.5399 30.6295 19.0736 30.5925 18.6166C30.5863 18.558 30.6017 18.49 30.6172 18.4128C30.6203 18.3943 30.6233 18.3758 30.6264 18.3603C30.8208 17.3197 31.0152 16.2884 31.2065 15.2756C31.3392 15.7913 31.4688 16.3069 31.6014 16.8257C32.1044 18.7926 32.6227 20.8275 33.1349 22.8254C33.1534 22.918 33.1472 22.9612 33.101 23.0292Z" fill="#F7FDFC"/>
<path d="M23.6225 28.0747C23.9927 28.3186 24.3723 28.5533 24.7394 28.8065C24.8135 28.8559 24.8752 28.8837 24.94 28.8837C24.9986 28.8837 25.0572 28.8621 25.1282 28.8189C26.1495 28.1859 27.177 27.5559 28.2106 26.9384C28.3957 26.8272 28.4883 26.6975 28.5253 26.4845C28.7783 25.1073 29.0437 23.7332 29.3059 22.356C29.4725 21.476 29.6392 20.5928 29.8027 19.7097C29.8181 19.6449 29.8737 19.5708 29.7626 19.5368C29.7286 19.5924 29.6947 19.6511 29.6638 19.7066C28.7721 21.2969 27.8804 22.8871 26.9949 24.4835C26.9178 24.6194 26.8376 24.6812 26.6987 24.6812C26.6771 24.6812 26.6555 24.6812 26.6308 24.6781C26.2698 24.6379 25.9027 24.6225 25.5386 24.6009C25.5077 24.5978 25.4799 24.5978 25.4583 24.5978C25.3689 24.5978 25.3596 24.6225 25.3349 24.7522C25.2886 24.9745 25.2424 25.1937 25.2053 25.4192C25.1868 25.5365 25.1405 25.6384 25.0727 25.7372C24.5728 26.4381 24.0761 27.1422 23.5793 27.8431C23.4836 27.979 23.4836 27.9821 23.6225 28.0747ZM25.2732 25.8792C25.3658 25.7496 25.4244 25.6137 25.4491 25.4593C25.483 25.2586 25.5262 25.0517 25.5663 24.851C25.6373 24.8541 25.7052 24.8603 25.7762 24.8633C26.0477 24.8788 26.3284 24.8942 26.6 24.9251C26.6339 24.9282 26.6648 24.9313 26.6956 24.9313C26.9918 24.9313 27.1307 24.746 27.2078 24.6071C27.9113 23.3379 28.6333 22.0534 29.3306 20.809C29.3368 20.7966 29.346 20.7812 29.3522 20.7689C29.2566 21.2783 29.1578 21.8002 29.0622 22.3128C28.985 22.7142 28.911 23.1156 28.8339 23.517C28.6518 24.4743 28.4636 25.4686 28.2816 26.4443C28.2569 26.5864 28.2075 26.6543 28.081 26.7315C27.0998 27.3182 26.0909 27.9327 24.9955 28.612C24.9554 28.6367 24.9369 28.6398 24.9369 28.6398C24.9369 28.6398 24.9184 28.6367 24.8752 28.6058C24.6284 28.436 24.3753 28.2723 24.1316 28.1148C24.0329 28.05 23.928 27.9852 23.8292 27.9172C24.3013 27.2472 24.7888 26.5555 25.2732 25.8792Z" fill="#F7FDFC"/>
<path d="M3.63168 27.9605C3.81063 28.1211 3.99885 28.2724 4.18397 28.4237C4.23643 28.4669 4.27345 28.4885 4.30431 28.4885C4.34442 28.4885 4.37527 28.4515 4.41847 28.3743C4.82267 27.6394 5.22686 26.9045 5.63106 26.1695C5.93343 25.6199 6.22655 25.0672 6.52893 24.5145C7.00409 23.6437 7.48234 22.776 7.96059 21.9052C8.24754 21.3803 8.54066 20.8584 8.8276 20.3335C9.05593 19.9166 9.27808 19.4998 9.50332 19.0829C9.56194 18.9779 9.57737 18.8699 9.56194 18.7463C9.51875 18.4376 9.49406 18.1226 9.45704 17.8138C9.43235 17.6131 9.49715 17.4711 9.67919 17.3599C10.0093 17.1592 10.3241 16.9338 10.6449 16.7176C10.6851 16.6898 10.7344 16.6682 10.756 16.6157C10.7529 16.5478 10.6974 16.5385 10.6542 16.52C10.3796 16.4027 10.105 16.2853 9.82729 16.1711C9.5712 16.063 9.31511 15.958 9.05901 15.8561C8.97571 15.8222 8.92325 15.8005 8.88623 15.8005C8.8276 15.8005 8.81526 15.853 8.78441 15.992C8.76281 16.0908 8.73504 16.1896 8.71653 16.2915C8.553 17.1005 8.38947 17.9065 8.22594 18.7155C8.19817 18.8606 8.15497 18.9965 8.08401 19.1262C7.88654 19.4905 7.68907 19.858 7.4916 20.2223C7.13985 20.877 6.79119 21.5347 6.43945 22.1893C5.96737 23.0693 5.49221 23.9494 5.01705 24.8263C4.76713 25.2895 4.51412 25.7496 4.2642 26.2097C4.0297 26.6451 3.79212 27.0836 3.56071 27.522C3.43112 27.766 3.43112 27.7783 3.63168 27.9605ZM3.77052 27.6486C3.99885 27.2132 4.23951 26.7717 4.46784 26.3456L4.47092 26.3394C4.60051 26.0985 4.73319 25.8577 4.85969 25.6199C4.97694 25.4007 5.10036 25.1753 5.22069 24.9529C5.72671 24.0204 6.18027 23.1774 6.64618 22.3159C6.8529 21.9299 7.06272 21.5378 7.26636 21.1549C7.41137 20.8862 7.55331 20.6145 7.69832 20.3459C7.85877 20.0463 8.07166 19.6511 8.29073 19.2497C8.36478 19.1107 8.42032 18.9532 8.45735 18.768C8.63013 17.9095 8.79058 17.116 8.94794 16.344C8.96028 16.2792 8.97571 16.2174 8.99113 16.1495C8.99422 16.134 8.9973 16.1217 9.00039 16.1062C9.22254 16.1958 9.45087 16.2915 9.66994 16.3811L9.72239 16.4027C9.9106 16.4799 10.1019 16.5601 10.3055 16.6466C10.2839 16.662 10.2593 16.6775 10.2377 16.6929C10.0124 16.8473 9.77793 17.0079 9.54343 17.1499C9.28425 17.3074 9.167 17.5421 9.20403 17.8447C9.21637 17.9589 9.22871 18.0763 9.24106 18.1905C9.25957 18.3851 9.28117 18.5858 9.30894 18.7834C9.31819 18.8575 9.31202 18.9069 9.27808 18.9656C9.17935 19.1447 9.08061 19.33 8.98805 19.506C8.86154 19.7406 8.73195 19.9815 8.60236 20.2162C8.43883 20.5157 8.26913 20.8183 8.10869 21.1147C7.98527 21.3401 7.86185 21.5625 7.73843 21.7879C7.25093 22.6741 6.77577 23.5387 6.30678 24.3971C6.15867 24.6719 6.00749 24.9498 5.85938 25.2185C5.71128 25.4902 5.56009 25.7743 5.40891 26.0491C5.05099 26.7037 4.67148 27.3954 4.24877 28.1581C4.23643 28.1489 4.22717 28.1396 4.21483 28.1303C4.0729 28.013 3.9248 27.8957 3.79212 27.7721C3.77669 27.7567 3.75201 27.7351 3.73041 27.7135C3.74584 27.695 3.76127 27.6672 3.77052 27.6486Z" fill="#F7FDFC"/>
<path d="M11.3854 7.43247C11.4748 7.96358 11.5612 8.49778 11.6538 9.02889C11.6785 9.17402 11.7278 9.24504 11.805 9.24504C11.8513 9.24504 11.9099 9.22034 11.9778 9.17093C13.3662 8.20135 14.7516 7.23176 16.137 6.26218C16.1833 6.2313 16.245 6.21277 16.2573 6.11396C14.4091 5.08879 12.5517 4.05745 10.6726 3.01685C10.6572 3.14962 10.6819 3.23917 10.6973 3.33181C10.9256 4.69664 11.1539 6.06455 11.3854 7.43247ZM14.693 5.52727L15.8439 6.16645C14.5202 7.09281 13.1903 8.02225 11.8883 8.93317C11.8235 8.5688 11.7618 8.19826 11.7032 7.84007C11.6785 7.68876 11.6538 7.54055 11.6291 7.38924L11.5273 6.7902C11.3422 5.68166 11.1539 4.57312 10.9688 3.4615L14.693 5.52727Z" fill="#F7FDFC"/>
<path d="M9.21316 35.5319C9.19773 35.4177 9.15145 35.3281 9.07431 35.2447C8.32455 34.4296 7.57786 33.6113 6.82809 32.793C6.7849 32.7467 6.75404 32.6849 6.64913 32.6664C6.65531 32.7405 6.65839 32.7992 6.66765 32.8547C6.81575 33.6792 6.96385 34.5067 7.11813 35.3312C7.15207 35.5103 7.12121 35.6523 7.01631 35.8006C6.70159 36.239 6.39921 36.6868 6.09066 37.1283C5.6155 37.8108 5.14342 38.4932 4.66826 39.1787C4.51707 39.3979 4.51707 39.401 4.77625 39.4906C5.24524 39.6511 5.71424 39.8086 6.18014 39.9754C6.2326 39.9939 6.27888 40.0031 6.32207 40.0031C6.38378 40.0031 6.44241 39.9846 6.5072 39.9476C7.00088 39.6511 7.50072 39.3609 7.99749 39.0737C8.09005 39.0212 8.16102 38.9564 8.21038 38.8606C8.57447 38.1473 8.94164 37.431 9.30573 36.7177C9.34275 36.6435 9.35818 36.5694 9.34584 36.4861C9.30264 36.1649 9.25636 35.8469 9.21316 35.5319ZM9.09283 36.6003C8.72874 37.3074 8.36774 38.0176 7.99749 38.7433C7.97589 38.7865 7.93886 38.8205 7.88024 38.8545C7.37731 39.1447 6.88363 39.4319 6.38687 39.7314C6.35293 39.753 6.3375 39.753 6.32825 39.753C6.31282 39.753 6.29431 39.7499 6.26654 39.7407C5.93948 39.6233 5.60624 39.5091 5.28227 39.3979C5.15577 39.3547 5.02926 39.3115 4.90584 39.2682C5.2113 38.8267 5.51677 38.3851 5.82531 37.9435L6.2943 37.2642C6.3807 37.1376 6.47018 37.011 6.55657 36.8844C6.77255 36.5725 6.99162 36.2514 7.21686 35.9395C7.36188 35.7388 7.40816 35.5288 7.36188 35.2787C7.24154 34.6395 7.1243 33.9849 7.01013 33.3519C7.16441 33.5186 7.3156 33.6854 7.46987 33.8521C7.93578 34.3616 8.41711 34.8896 8.89536 35.4053C8.94164 35.4578 8.96324 35.501 8.97249 35.5597C9.01569 35.8716 9.06197 36.1958 9.11134 36.5169C9.11134 36.5447 9.11134 36.5664 9.09283 36.6003Z" fill="#F7FDFC"/>
<path d="M16.5843 3.43058C17.5778 4.44957 18.5867 5.44695 19.5926 6.45359C19.6852 6.54622 19.7715 6.64503 19.8579 6.74384C19.9844 6.89206 20.1171 7.03719 20.3238 7.13909C20.3146 7.04645 20.3115 6.95382 20.2961 6.86118C20.0893 5.55811 19.8826 4.25504 19.6728 2.95505C19.534 2.08428 19.3951 1.21351 19.2563 0.342733C19.2378 0.225395 19.2223 0.179077 19.173 0.179077C19.1421 0.179077 19.0989 0.197604 19.0341 0.225395C18.7163 0.373612 18.4016 0.524916 18.0869 0.673133C17.189 1.09308 16.2911 1.51303 15.3964 1.93298C15.2298 2.01017 15.2267 2.03179 15.3532 2.16148C15.7635 2.58142 16.1708 3.00755 16.5843 3.43058ZM17.1211 1.39569C17.476 1.22895 17.8339 1.0622 18.1887 0.895458C18.3337 0.827525 18.4787 0.759593 18.6207 0.69166C18.7564 0.626815 18.8953 0.56197 19.031 0.497126C19.1082 0.972654 19.1822 1.44818 19.2594 1.92371C19.3149 2.27881 19.3735 2.63392 19.4291 2.99211C19.6111 4.12844 19.8024 5.32652 19.9906 6.52152C19.9104 6.42888 19.8363 6.35169 19.7654 6.27758C19.4784 5.99041 19.1853 5.69706 18.9014 5.41298C18.198 4.70895 17.4667 3.98331 16.7601 3.25766C16.5966 3.09092 16.4362 2.92418 16.2726 2.75743C16.0628 2.54128 15.8468 2.31587 15.6309 2.09663C16.1276 1.86196 16.6305 1.62419 17.1211 1.39569Z" fill="#F7FDFC"/>
<path d="M28.6176 11.706C29.3674 12.2372 30.1141 12.7714 30.8639 13.2994C30.9225 13.3395 30.9719 13.3982 31.086 13.4013C31.1662 9.69277 31.2372 5.98426 31.3174 2.27884C31.302 2.27884 31.2897 2.27576 31.2742 2.27576C31.2496 2.34369 31.2249 2.41162 31.2033 2.47956C30.3023 5.44389 29.3983 8.40823 28.4973 11.3726C28.4387 11.5794 28.4387 11.5794 28.6176 11.706ZM28.738 11.4436L29.1329 10.1498C29.7685 8.06239 30.4041 5.97191 31.0397 3.88144C31.0089 5.32346 30.978 6.76549 30.9503 8.17355C30.9194 9.75144 30.8855 11.3787 30.8515 12.9875C30.2283 12.5459 29.5988 12.0982 28.9879 11.6659L28.7627 11.5053C28.7534 11.4992 28.7411 11.4899 28.7287 11.4806C28.7318 11.4683 28.7349 11.4559 28.738 11.4436Z" fill="#F7FDFC"/>
<path d="M17.5256 20.8986C16.6092 20.5157 15.699 20.1297 14.7857 19.7437C14.7332 19.7221 14.6838 19.6912 14.6036 19.6912C14.5944 19.6912 14.582 19.6912 14.5728 19.6943C14.6375 19.8024 14.69 19.8919 14.7425 19.9753C15.3966 21.0283 16.0538 22.0812 16.711 23.1342C16.8653 23.3812 16.9918 23.656 17.1861 23.866C17.3867 24.0852 17.6737 24.2087 17.9236 24.3693C19.636 25.4809 21.3515 26.5895 23.0671 27.698C23.1319 27.7412 23.1936 27.8092 23.2923 27.8092C23.2954 27.8092 23.2985 27.8092 23.3016 27.8092C23.2861 27.7289 23.2337 27.6857 23.1936 27.6363C21.4071 25.4655 19.6206 23.3009 17.8341 21.1302C17.7477 21.0283 17.6521 20.9511 17.5256 20.8986ZM22.2463 26.8736C20.8393 25.9657 19.4355 25.0548 18.0563 24.1593C17.976 24.1068 17.8958 24.0605 17.8187 24.0173C17.6459 23.9185 17.4824 23.8228 17.3682 23.6962C17.2509 23.5665 17.1553 23.4028 17.0566 23.2299C17.0134 23.1558 16.9671 23.0755 16.9208 22.9983C16.3222 22.0349 15.7206 21.0746 15.1559 20.1637C15.2238 20.1915 15.2917 20.2223 15.3595 20.2501C16.0384 20.5373 16.7418 20.8337 17.4361 21.124C17.5194 21.158 17.5842 21.2074 17.649 21.2876C18.8492 22.7451 20.068 24.2242 21.2466 25.6539C21.5768 26.0615 21.9131 26.4691 22.2463 26.8736Z" fill="#F7FDFC"/>
<path d="M19.099 8.50085C19.0342 8.42674 18.9694 8.3866 18.8799 8.3866C18.8521 8.3866 18.8244 8.38968 18.7935 8.39586C18.5251 8.45762 18.2505 8.49467 17.9759 8.54408C16.1832 8.86521 14.3875 9.18944 12.5948 9.51057C12.5022 9.52601 12.4128 9.55072 12.3233 9.56924C12.3171 9.58777 12.3109 9.6063 12.3079 9.62482C12.567 9.8101 12.8046 10.0324 13.0916 10.1745C14.6158 10.9279 16.1431 11.669 17.6673 12.4162C17.7383 12.4502 17.7815 12.4718 17.8123 12.4718C17.8586 12.4718 17.8771 12.4286 17.9265 12.3267C18.1178 11.916 18.306 11.5053 18.4942 11.0946C18.7997 10.4338 19.1051 9.76995 19.4106 9.10915C19.497 8.92079 19.497 8.91771 19.3551 8.76949C19.2687 8.67685 19.1792 8.59348 19.099 8.50085ZM19.1884 9.00417C19.0064 9.4025 18.8213 9.79774 18.6361 10.1961C18.5127 10.4616 18.3924 10.7241 18.269 10.9897C18.2042 11.1317 18.1363 11.2737 18.0715 11.4158C17.9573 11.6628 17.8401 11.916 17.7259 12.1661C17.4236 12.0179 17.1212 11.8697 16.8188 11.7246C15.6309 11.144 14.4029 10.545 13.1996 9.95214C13.0761 9.89038 12.9589 9.81009 12.8386 9.72055C14.5448 9.41485 16.2634 9.10607 18.0191 8.79111C18.1024 8.77567 18.1857 8.76331 18.269 8.74787C18.4572 8.717 18.6547 8.68303 18.846 8.6398C18.8645 8.63671 18.8737 8.63671 18.8768 8.63671H18.8799C18.883 8.6398 18.8922 8.64598 18.9077 8.6645C18.9663 8.73244 19.028 8.79419 19.0897 8.85595C19.1206 8.88683 19.1483 8.91462 19.1761 8.94241C19.1854 8.95167 19.1946 8.96094 19.2039 8.9702C19.2008 8.97946 19.1946 8.99182 19.1884 9.00417Z" fill="#F7FDFC"/>
<path d="M22.1631 2.566C22.305 3.761 22.4438 4.956 22.5858 6.15099C22.6259 6.47522 22.666 6.79944 22.7092 7.14219C22.8017 7.10823 22.8141 7.04647 22.8388 6.99707C23.9033 5.00232 24.9677 3.00757 26.0322 1.01282C26.0538 0.975762 26.0723 0.93562 26.0909 0.895477C26.1125 0.842984 26.0909 0.809018 26.0384 0.799754C25.9458 0.781227 25.8533 0.765788 25.7576 0.750349C25.2393 0.666977 24.7209 0.586693 24.2026 0.503321C23.4836 0.38907 22.7647 0.27482 22.0427 0.16057C22.0057 0.154394 21.9779 0.151306 21.9563 0.151306C21.8854 0.151306 21.8792 0.18836 21.8915 0.305699C21.9841 1.05913 22.0736 1.81257 22.1631 2.566ZM23.6749 0.670065L24.1655 0.747261C24.6839 0.830633 25.2022 0.910917 25.7206 0.994289C25.7329 0.997377 25.7484 0.997377 25.7607 1.00046C24.7795 2.83773 23.82 4.63795 22.8696 6.41964C22.8573 6.32083 22.8449 6.22202 22.8326 6.12012C22.737 5.32654 22.6444 4.53605 22.5518 3.74247C22.5055 3.34105 22.4562 2.93654 22.4099 2.53512C22.3821 2.29736 22.3544 2.05651 22.3235 1.81874C22.268 1.36174 22.2124 0.89239 22.16 0.426125C22.666 0.509496 23.1782 0.589781 23.6749 0.670065Z" fill="#F7FDFC"/>
<path d="M25.4089 9.18946C25.3256 9.37473 25.3256 9.37473 25.483 9.4859C26.316 10.0757 27.1491 10.6685 27.9822 11.2552C28.0285 11.2892 28.0686 11.3417 28.1426 11.3417C28.155 11.3417 28.1704 11.3386 28.1858 11.3355C28.4049 8.10563 28.627 4.87574 28.8461 1.64894C28.8307 1.64585 28.8122 1.64585 28.7967 1.64276C28.7659 1.70761 28.735 1.77245 28.7042 1.84038C28.4635 2.37149 28.2259 2.90569 27.9884 3.4368C27.1275 5.35435 26.2667 7.27191 25.4089 9.18946ZM28.516 2.85937L28.3031 5.99045L27.9637 10.9403C27.2046 10.403 26.4549 9.87188 25.6341 9.28827C26.4919 7.37072 27.3527 5.45317 28.2105 3.5387C28.3123 3.3102 28.4172 3.0817 28.516 2.85937Z" fill="#F7FDFC"/>
<path d="M34.514 13.2654C33.9957 14.1454 33.4742 15.0224 32.9528 15.8993C32.8818 16.0166 32.8201 16.1402 32.7368 16.2853C32.8325 16.2729 32.8602 16.2235 32.8942 16.1896C33.3107 15.7912 33.7087 15.3775 34.1314 14.9853C34.7362 14.4264 35.307 13.8304 35.8994 13.2592C36.9762 12.2248 38.0315 11.1656 39.096 10.1158C39.1484 10.0633 39.207 10.0231 39.2595 9.97373C39.3706 9.86874 39.4816 9.76375 39.5927 9.65568C39.676 9.57539 39.6884 9.48893 39.6328 9.38086C39.2256 8.59037 38.8214 7.79679 38.4141 7.0063C38.4017 6.9816 38.3863 6.95381 38.3709 6.92911C38.3493 6.89514 38.3277 6.8797 38.303 6.8797C38.2814 6.8797 38.2567 6.89514 38.2351 6.92911C38.2166 6.95998 38.1981 6.99086 38.1796 7.02483C37.7291 7.78444 37.2786 8.54096 36.8312 9.30057C36.0629 10.6222 35.2916 11.9469 34.514 13.2654ZM37.9729 7.8709C38.0808 7.68872 38.1919 7.50345 38.2999 7.32126C38.3709 7.45713 38.4388 7.59299 38.5097 7.72886C38.8059 8.30629 39.1114 8.90533 39.4169 9.49202C39.3922 9.51672 39.3675 9.54143 39.3428 9.56304C39.2626 9.64024 39.1824 9.71743 39.099 9.79463C39.0805 9.81316 39.0589 9.83168 39.0343 9.85021C39.0003 9.878 38.9664 9.90888 38.9293 9.94285C38.5992 10.2671 38.266 10.5975 37.9451 10.9155C37.2231 11.6288 36.4795 12.3699 35.7328 13.0832C35.486 13.321 35.2422 13.5649 35.0046 13.7996C34.6683 14.1331 34.3197 14.4789 33.9679 14.8062C33.9093 14.8618 33.8507 14.9174 33.792 14.973C34.1006 14.4542 34.4184 13.92 34.7269 13.392C35.1311 12.7065 35.5384 12.0086 35.9364 11.3324C36.3005 10.7086 36.68 10.0633 37.0534 9.43026C37.3588 8.90842 37.6705 8.38039 37.9729 7.8709Z" fill="#F7FDFC"/>
<path d="M31.8885 16.0105C31.9533 16.2699 32.0212 16.5293 32.0983 16.8257C32.2896 16.6065 37.865 7.1206 37.9082 6.95386C37.8404 6.98165 37.8002 7.03414 37.754 7.08046C35.6898 9.13388 33.6287 11.1842 31.5614 13.2376C31.3547 13.4414 31.2992 13.6854 31.364 13.9571C31.5368 14.6426 31.7157 15.325 31.8885 16.0105ZM31.7404 13.4105C33.135 12.0241 34.5543 10.613 35.9243 9.24813C36.2297 8.94552 36.5352 8.63982 36.8407 8.33721C35.5232 10.6037 33.0486 14.8063 32.194 16.2112C32.1724 16.1248 32.1508 16.0383 32.1261 15.9518C32.0798 15.7697 32.0335 15.5875 31.9872 15.4053C31.8607 14.9112 31.7281 14.3987 31.6046 13.8953C31.5614 13.7008 31.6016 13.5464 31.7404 13.4105Z" fill="#F7FDFC"/>
<path d="M12.4345 3.72083C13.9957 4.58852 15.557 5.45621 17.1213 6.31772C17.3805 6.45976 17.615 6.61724 17.8093 6.84265C17.9482 7.00322 18.1056 7.14217 18.2506 7.29965C18.34 7.39846 18.4357 7.44478 18.5745 7.44478C19.0713 7.44478 19.565 7.46022 20.0617 7.4664C20.0803 7.4664 20.1019 7.46948 20.1204 7.46948C20.142 7.46948 20.1666 7.46331 20.1821 7.43861C20.1821 7.37994 20.1327 7.35523 20.0988 7.32127C18.4511 5.65074 16.8004 3.97712 15.1528 2.3066C15.0756 2.2294 15.0417 2.19543 14.9954 2.19543C14.9584 2.19543 14.9152 2.21705 14.8411 2.2541C14.0204 2.66479 13.1997 3.07547 12.3789 3.48924C12.3296 3.51395 12.2678 3.5263 12.2432 3.58497C12.2864 3.66525 12.3666 3.68378 12.4345 3.72083ZM14.9491 2.47643C14.9522 2.47334 14.9584 2.47025 14.9645 2.47025C14.9676 2.47334 14.9738 2.47952 14.9769 2.4826C16.7449 4.27356 18.2382 5.78661 19.6452 7.21319C19.6267 7.21319 19.6082 7.21319 19.5897 7.21319C19.2564 7.20702 18.9139 7.20084 18.5745 7.20084C18.5097 7.20084 18.4789 7.1854 18.4326 7.13908C18.3647 7.06498 18.2938 6.99396 18.2259 6.92602C18.1426 6.84574 18.0654 6.76545 17.9945 6.68517C17.7538 6.40726 17.4638 6.23126 17.2385 6.10465C15.8377 5.33269 14.4153 4.5422 13.0392 3.77641L12.7152 3.59732C13.4002 3.25148 14.1315 2.88403 14.9491 2.47643Z" fill="#F7FDFC"/>
<path d="M31.833 11.4374C31.7713 11.7277 31.7065 12.0179 31.6448 12.3082C31.6571 12.3113 31.6695 12.3174 31.6818 12.3205C31.6972 12.2958 31.7157 12.2742 31.7281 12.2495C32.302 11.1595 32.8759 10.0695 33.4498 8.97948C33.8293 8.25692 34.1965 7.52819 34.5852 6.80872C34.7642 6.47523 34.9339 6.13557 35.1098 5.79899C35.3875 5.27714 35.6621 4.7553 35.9305 4.23036C36.0107 4.07597 36.0015 4.06362 35.8688 3.95554C35.841 3.93393 35.8102 3.91231 35.7793 3.8907C35.1931 3.48002 34.6161 3.06007 34.0113 2.68026C33.8879 2.60307 33.8231 2.54749 33.7799 2.54749C33.7275 2.54749 33.7059 2.62468 33.6627 2.83157C33.4899 3.64367 33.3202 4.45886 33.1474 5.27097C32.7124 7.33056 32.2742 9.38398 31.833 11.4374ZM33.638 4.17169C33.7244 3.75792 33.8139 3.32562 33.9064 2.90568C34.3785 3.2052 34.8444 3.53251 35.2949 3.85056C35.4121 3.93393 35.5263 4.01421 35.6435 4.09759L35.6466 4.10067C35.6682 4.11611 35.6867 4.12846 35.7053 4.14082C35.4121 4.70589 35.1468 5.2123 34.8938 5.68783C34.8105 5.84222 34.7302 5.9997 34.6531 6.15409C34.5605 6.33319 34.468 6.51846 34.3692 6.69447C34.1224 7.15147 33.8787 7.62391 33.6442 8.07782C33.5084 8.3372 33.3696 8.60585 33.2338 8.86831C32.9006 9.50441 32.5612 10.1498 32.2279 10.7828L32.3853 10.0479C32.7154 8.50086 33.0579 6.90135 33.3942 5.32655C33.4745 4.94366 33.5578 4.5515 33.638 4.17169Z" fill="#F7FDFC"/>
<path d="M32.0427 12.4286C32.3173 12.1569 32.5919 11.8821 32.8634 11.6103C34.5542 9.92745 36.2451 8.24457 37.9359 6.56479C38.1056 6.39495 38.118 6.41966 37.9452 6.21895C37.4238 5.61064 36.9023 4.99925 36.3778 4.39094C36.3315 4.33845 36.3006 4.26743 36.2204 4.2489C36.0692 4.4527 31.9131 12.3885 31.8699 12.5583C31.9532 12.5429 31.9933 12.478 32.0427 12.4286ZM36.279 4.65341C36.5321 4.94675 36.7851 5.24319 37.0319 5.53345C37.2757 5.81753 37.5163 6.09852 37.7601 6.3826L37.7662 6.38878C37.7662 6.38878 37.7662 6.38878 37.7632 6.39187C36.9332 7.21632 36.1063 8.04078 35.2763 8.86523C34.4339 9.70513 33.5885 10.5419 32.7462 11.3818C33.7705 9.39325 35.7206 5.67857 36.279 4.65341Z" fill="#F7FDFC"/>
<path d="M8.26304 24.7491C10.2007 24.2952 12.1384 23.8444 14.073 23.3905C14.3692 23.3195 14.3476 23.3689 14.3383 23.0539C14.3044 21.9886 14.2643 20.9264 14.2242 19.8611C14.2211 19.8147 14.2458 19.7561 14.1655 19.7221C12.1291 21.3957 10.0835 23.0724 8.01929 24.7677C8.05323 24.7769 8.081 24.78 8.10877 24.78C8.16739 24.78 8.21676 24.7615 8.26304 24.7491ZM13.9897 20.1822C14.0236 21.1302 14.0606 22.1028 14.0915 23.0601C14.0915 23.0848 14.0946 23.1064 14.0946 23.128V23.1311C14.073 23.1373 14.0452 23.1404 14.0174 23.1496C12.2032 23.5757 10.4044 23.9957 8.92641 24.3415L13.9897 20.1822Z" fill="#F7FDFC"/>
<path d="M7.02882 1.65199C7.36822 3.10019 7.71071 4.5453 8.04702 5.9935C8.08405 6.15407 8.18896 6.25906 8.3062 6.35787C9.15779 7.06498 10.0063 7.7721 10.8579 8.47922C10.9597 8.56568 11.0677 8.64596 11.1757 8.73242C11.2096 8.66758 11.1788 8.63052 11.1633 8.59038C11.0399 8.26307 10.9165 7.93576 10.79 7.60845C10.0803 5.7403 9.37069 3.87524 8.66412 2.00709C8.62092 1.88975 8.55304 1.80947 8.44505 1.7508C8.16427 1.59949 7.88349 1.43893 7.6058 1.28144C7.55026 1.25057 7.49781 1.20734 7.4361 1.20734C7.42067 1.20734 7.40216 1.21042 7.38365 1.21969C7.26331 1.27218 7.13064 1.29688 7.03808 1.39878C7.00722 1.43275 6.99796 1.47598 7.00105 1.5223C7.01031 1.56553 7.01956 1.60876 7.02882 1.65199ZM7.38365 1.48833C7.40216 1.48215 7.42067 1.47598 7.43919 1.46672C7.44227 1.4698 7.44536 1.4698 7.44536 1.4698C7.4577 1.47907 7.47313 1.48833 7.49164 1.49759L7.61197 1.56553C7.84955 1.6983 8.09331 1.83726 8.33706 1.97003C8.38951 1.99783 8.41728 2.03179 8.44196 2.09664C9.02512 3.63439 9.61753 5.19684 10.1914 6.70679L10.5679 7.69799C10.6018 7.78445 10.6357 7.874 10.6666 7.96046C10.6728 7.97899 10.6789 7.99443 10.6851 8.01295C9.98161 7.42935 9.27504 6.83957 8.58698 6.26832L8.46665 6.16642C8.35248 6.0707 8.3062 6.01203 8.28769 5.93483C8.05319 4.92819 7.81253 3.90303 7.57803 2.91492C7.47313 2.47335 7.37131 2.03488 7.2664 1.59332C7.26331 1.57479 7.25714 1.55626 7.25714 1.54082C7.29108 1.5223 7.33428 1.50377 7.38365 1.48833Z" fill="#F7FDFC"/>
<path d="M1.8328 32.9504C1.87291 32.7899 1.9192 32.7188 2.0025 32.7188C2.05187 32.7188 2.11666 32.7435 2.20614 32.7899C2.26477 32.8207 2.32031 32.8547 2.37893 32.8856C2.62885 33.0338 2.88186 33.1789 3.13178 33.3302C3.19658 33.3704 3.25829 33.392 3.32617 33.392C3.36319 33.392 3.40022 33.3858 3.44033 33.3735C3.77356 33.2654 4.10988 33.1666 4.44311 33.0616C4.70846 32.9782 4.71154 32.9659 4.72697 32.6756C4.75474 32.1877 4.78868 31.6998 4.82262 31.2151C4.86273 30.6716 4.90284 30.125 4.94912 29.5229C5.00158 29.3346 4.89976 29.1709 4.68377 29.0659C4.63749 29.0443 4.60047 29.0072 4.55727 28.9795C4.47088 28.9177 4.41842 28.8837 4.37523 28.8837C4.32277 28.8837 4.28575 28.93 4.21478 29.035C3.6378 29.8688 3.0639 30.7025 2.48692 31.5362C1.8976 32.3884 1.30827 33.2376 0.718948 34.0898C0.506051 34.3955 0.299324 34.7043 0.086427 35.01C0.033974 35.0872 0.00311933 35.1613 0.0709996 35.2478C0.320923 35.572 0.564675 35.8962 0.814597 36.2205C0.839281 36.2544 0.870136 36.3007 0.913332 36.3007C0.919503 36.3007 0.925674 36.3007 0.934931 36.2977C0.990469 36.2822 0.993555 36.2174 1.0059 36.171C1.1108 35.7696 1.21262 35.3651 1.31753 34.9637C1.49031 34.2936 1.66002 33.6236 1.8328 32.9504ZM2.69365 31.6782C3.01145 31.2181 3.33234 30.7519 3.64397 30.301C3.90007 29.9274 4.15925 29.5538 4.41534 29.1802C4.4246 29.1863 4.43694 29.1956 4.44619 29.2018C4.48013 29.2265 4.52333 29.2604 4.57578 29.2851C4.73931 29.3654 4.7208 29.4303 4.71154 29.455L4.70537 29.4797L4.70229 29.5044C4.68686 29.6897 4.67452 29.8718 4.66218 30.0478C4.63132 30.4462 4.60355 30.8198 4.57578 31.1965C4.54184 31.6906 4.5079 32.1723 4.47705 32.6602C4.47396 32.7034 4.47088 32.7559 4.46779 32.7899C4.43694 32.8022 4.38757 32.8176 4.36597 32.8238C4.23947 32.864 4.10679 32.9041 3.98029 32.9412C3.77665 33.0029 3.56684 33.0678 3.36011 33.1326C3.34468 33.1388 3.33234 33.1388 3.32 33.1388C3.31383 33.1388 3.29531 33.1388 3.2552 33.1141C3.07007 32.9998 2.87878 32.8887 2.69365 32.7806C2.62885 32.7435 2.56406 32.7034 2.49926 32.6663L2.49309 32.6633C2.43755 32.6293 2.37893 32.5953 2.31413 32.5644C2.25243 32.5336 2.19072 32.5027 2.12284 32.4842C2.31722 32.2217 2.50543 31.9469 2.69365 31.6782ZM1.07686 34.905C0.99664 35.22 0.916418 35.535 0.836196 35.8437C0.759059 35.7418 0.678837 35.6399 0.604786 35.538C0.502965 35.4053 0.401145 35.2725 0.299324 35.1397C0.401145 34.9946 0.502965 34.8464 0.6017 34.7012C0.706606 34.5468 0.817683 34.3863 0.925674 34.2319C1.09846 33.9818 1.27125 33.7347 1.44403 33.4846C1.37924 33.7409 1.31136 33.9972 1.24965 34.2473C1.19102 34.4666 1.1324 34.6858 1.07686 34.905Z" fill="#F7FDFC"/>
<path d="M31.3948 12.3267C31.4164 12.231 31.4411 12.1353 31.4627 12.0365C31.9656 9.67734 32.4685 7.31823 32.9715 4.95911C33.1442 4.15318 33.317 3.34725 33.4867 2.54441C33.5207 2.38076 33.5207 2.37458 33.3602 2.33753C32.8141 2.20475 32.2711 2.07506 31.7249 1.94537C31.6848 1.93611 31.654 1.92993 31.6324 1.92993C31.5799 1.92993 31.5707 1.9639 31.5614 2.06271C31.5583 2.09976 31.5583 2.13682 31.5583 2.17078C31.5336 3.39666 31.5059 4.61945 31.4812 5.84532C31.4472 7.50041 31.4102 9.1555 31.3794 10.8106C31.3701 11.3139 31.3794 11.8141 31.3794 12.3175C31.3824 12.3205 31.3886 12.3236 31.3948 12.3267ZM31.7002 7.14531C31.7095 6.71301 31.7188 6.2838 31.728 5.8515C31.7527 4.72443 31.7743 3.59428 31.799 2.46722L31.8052 2.2171C32.2618 2.32518 32.7308 2.43634 33.2337 2.55985C33.1226 3.08479 33.0085 3.6159 32.9005 4.12848C32.845 4.38786 32.7894 4.65033 32.7339 4.90971L32.2587 7.13913C32.0551 8.09945 31.8483 9.05977 31.6447 10.017C31.6601 9.0536 31.6786 8.0871 31.7002 7.14531Z" fill="#F7FDFC"/>
<path d="M19.6174 9.32529C19.6144 9.3222 19.6113 9.3222 19.6082 9.3222C19.602 9.3222 19.602 9.33147 19.602 9.33147C19.602 9.33147 19.5989 9.32838 19.5958 9.3222C19.5341 9.37161 19.5187 9.44572 19.4879 9.51056C19.025 10.5079 18.5684 11.5115 18.1025 12.5058C18.0315 12.6602 18.0284 12.7775 18.1025 12.9319C18.9479 14.692 19.7841 16.4551 20.6264 18.2183C20.7004 18.3758 20.7776 18.5302 20.8547 18.6846C20.8702 18.6784 20.8856 18.6753 20.901 18.6691C20.4783 15.5566 20.0556 12.4471 19.6329 9.33456C19.6298 9.33147 19.6236 9.32838 19.6174 9.32529ZM20.2531 16.8627C19.6236 15.538 18.9695 14.1701 18.3246 12.8238C18.2845 12.7374 18.2845 12.6972 18.3246 12.6077C18.6394 11.9407 18.951 11.2583 19.2564 10.5975C19.3336 10.4307 19.4107 10.264 19.4848 10.0973C19.8118 12.4996 20.1389 14.9019 20.4629 17.3043C20.395 17.1623 20.324 17.0109 20.2531 16.8627Z" fill="#F7FDFC"/>
<path d="M24.9708 9.11841C25.0016 9.14003 25.0294 9.17091 25.0726 9.17091C25.0849 9.17091 25.1004 9.16782 25.1189 9.16164C25.4367 6.62652 25.7545 4.08522 26.0754 1.50995C25.9797 1.58097 25.955 1.66125 25.918 1.72919C25.5632 2.38999 25.2114 3.05387 24.8566 3.71467C24.1994 4.94981 23.5391 6.18495 22.8819 7.41701C22.7955 7.57757 22.7955 7.58066 22.9344 7.67947C23.6132 8.16118 24.292 8.6398 24.9708 9.11841ZM24.7486 4.44958L25.0788 3.83201L25.2515 3.50779C25.3935 3.24223 25.5354 2.97359 25.6804 2.70495L25.2824 5.8947L24.9214 8.78184C24.2272 8.29087 23.6502 7.88327 23.1226 7.50655C23.6625 6.48756 24.2056 5.46857 24.7486 4.44958Z" fill="#F7FDFC"/>
<path d="M9.54639 7.69491C9.4816 7.64241 9.44766 7.61462 9.41989 7.61462C9.38595 7.61462 9.36435 7.65785 9.31807 7.75049C9.3119 7.76284 9.30573 7.77519 9.29956 7.79063C8.73183 8.96401 8.16411 10.1405 7.59947 11.3139C7.55935 11.3942 7.47296 11.4837 7.53776 11.5732C7.5717 11.6227 7.61181 11.6381 7.655 11.6381C7.71671 11.6381 7.78151 11.6072 7.84013 11.5918C9.44766 11.2058 11.0521 10.8167 12.6596 10.4277C12.7213 10.4122 12.7892 10.4122 12.8355 10.3566C12.8201 10.2825 12.7553 10.2547 12.7028 10.2208C11.8636 9.6526 11.0984 8.98563 10.3208 8.33718C10.0617 8.12412 9.80557 7.90797 9.54639 7.69491ZM12.3171 10.2547L11.9376 10.3474C10.6016 10.6716 9.22242 11.0051 7.86481 11.3324C8.30912 10.4091 8.76269 9.47042 9.20082 8.56259L9.48777 7.96664C9.65747 8.10868 9.83026 8.25072 9.99687 8.38967L10.1604 8.52863C10.2807 8.63053 10.4011 8.72934 10.5214 8.83124C11.0984 9.31294 11.6877 9.81009 12.3171 10.2547Z" fill="#F7FDFC"/>
<path d="M28.7135 7.10825C28.6765 7.6301 28.6395 8.15503 28.6055 8.67688C28.587 8.97331 28.5747 9.27283 28.5438 9.56927C28.5161 9.85026 28.4975 10.1343 28.5068 10.4215C28.6148 10.2362 28.658 10.0324 28.7197 9.83173C28.9604 9.05051 29.201 8.27237 29.4386 7.49114C29.7132 6.58331 29.9878 5.67549 30.2624 4.77075C30.5463 3.84439 30.8302 2.91804 31.114 1.98859C31.1726 1.80023 31.148 1.757 30.9505 1.71686C30.4074 1.6057 29.8644 1.49762 29.3214 1.39264C29.272 1.38337 29.2319 1.3772 29.2041 1.3772C29.127 1.3772 29.1116 1.42043 29.0992 1.5532C29.0529 2.10284 29.0097 2.65557 28.9727 3.20829C28.9357 3.73014 28.9203 4.25507 28.874 4.77692C28.8524 5.02395 28.8585 5.27098 28.8277 5.51801C28.766 6.04603 28.7506 6.57714 28.7135 7.10825ZM28.9203 7.7042C28.9326 7.50967 28.948 7.31822 28.9604 7.12369C28.9727 6.96003 28.982 6.79638 28.9912 6.6389C29.0128 6.2807 29.0313 5.90707 29.0745 5.5458C29.09 5.40067 29.0961 5.25863 29.1023 5.12276C29.1054 5.0116 29.1116 4.90352 29.1208 4.79854C29.1517 4.47122 29.1671 4.14082 29.1856 3.82278C29.1949 3.62515 29.2072 3.42444 29.2195 3.22682C29.2566 2.66483 29.2967 2.14916 29.3399 1.65202C29.8891 1.76009 30.392 1.8589 30.8672 1.95463C30.7407 2.3684 30.6142 2.78217 30.4877 3.19285C30.3365 3.68691 30.1791 4.19641 30.0279 4.69973C29.886 5.16599 29.741 5.64152 29.6021 6.10161C29.4726 6.53391 29.3368 6.98165 29.2041 7.42012C29.093 7.78449 28.9789 8.15503 28.8647 8.53484C28.8801 8.25384 28.8987 7.97593 28.9203 7.7042Z" fill="#F7FDFC"/>
<path d="M25.8161 5.50253C25.7173 6.27449 25.6124 7.04954 25.5229 7.82151C25.5044 7.98825 25.4458 8.15808 25.4859 8.34953C25.5569 8.29395 25.5754 8.23219 25.6032 8.17352C26.0536 7.16997 26.5041 6.16642 26.9546 5.15978C27.5069 3.92773 28.0561 2.69876 28.6053 1.46671C28.6886 1.27835 28.6825 1.25983 28.485 1.22277C27.9142 1.10852 27.3434 0.988097 26.7695 0.889285C26.6306 0.864583 26.5442 0.836792 26.4887 0.836792C26.3961 0.836792 26.3869 0.9109 26.3468 1.20425C26.2449 1.97621 26.1616 2.75126 26.066 3.52631C25.9888 4.1902 25.8994 4.84482 25.8161 5.50253ZM26.3128 3.56027C26.3498 3.25149 26.3869 2.93962 26.4239 2.63392C26.4763 2.17692 26.5319 1.70448 26.5936 1.23821C26.5998 1.19498 26.6059 1.15175 26.6121 1.11161C26.646 1.11779 26.6862 1.12705 26.7294 1.13323C27.1582 1.20733 27.5933 1.29379 28.016 1.38025C28.1271 1.40187 28.2351 1.42348 28.3461 1.4451C28.161 1.85578 27.979 2.26955 27.7938 2.68024C27.439 3.47382 27.0842 4.2643 26.7294 5.05788C26.4393 5.70633 26.1493 6.35169 25.8778 6.95691C25.9117 6.679 25.9487 6.4011 25.9827 6.12936C26.0074 5.92865 26.0351 5.72794 26.0598 5.53032C26.0876 5.32035 26.1153 5.11037 26.14 4.9004C26.1987 4.46501 26.2573 4.00801 26.3128 3.56027Z" fill="#F7FDFC"/>
<path d="M11.4071 31.4127C11.3639 31.4127 11.3115 31.422 11.2405 31.4343C10.8949 31.4992 10.5525 31.5609 10.2069 31.6227C9.18868 31.808 8.17048 31.9901 7.15228 32.1754C7.0844 32.1878 6.98258 32.1692 6.96715 32.2557C6.95172 32.3391 7.05354 32.3607 7.11216 32.3977C7.80948 32.8517 8.50371 33.3056 9.20102 33.7626C9.82429 34.1702 10.4445 34.5809 11.0708 34.9823C11.1418 35.0255 11.2127 35.1243 11.293 35.1243C11.3115 35.1243 11.33 35.1181 11.3485 35.1089C11.4534 35.0471 11.4256 34.8958 11.4195 34.7816C11.401 34.2474 11.4874 33.7193 11.4688 33.1851C11.4688 33.1635 11.4688 33.1419 11.4719 33.1203C11.5552 32.6509 11.4565 32.1723 11.5491 31.7586C11.5552 31.493 11.5398 31.4127 11.4071 31.4127ZM11.3022 31.7339C11.2529 31.9654 11.2559 32.2063 11.259 32.4379C11.2621 32.6509 11.2652 32.8702 11.2282 33.0771C11.222 33.1141 11.2189 33.1543 11.2189 33.1944C11.2282 33.4507 11.2127 33.7039 11.1942 33.9725C11.1788 34.2288 11.1603 34.4913 11.1695 34.7569C10.7407 34.482 10.3118 34.198 9.89217 33.9231C9.70704 33.7996 9.51883 33.6792 9.3337 33.5557C8.94493 33.3025 8.55616 33.0493 8.16739 32.793C7.94524 32.6479 7.72617 32.5058 7.50402 32.3607C8.18899 32.2372 8.88014 32.1106 9.55277 31.9901L10.2501 31.8635L10.3457 31.845C10.6543 31.7894 10.9721 31.7308 11.2837 31.6752C11.2868 31.6752 11.293 31.6721 11.3022 31.6721C11.3022 31.6906 11.3022 31.7092 11.3022 31.7339Z" fill="#F7FDFC"/>
<path d="M13.7058 15.9796C13.7428 16.4521 13.7891 16.9214 13.8292 17.3939C13.8415 17.5266 13.8508 17.5791 13.9125 17.5791C13.9434 17.5791 13.9865 17.5668 14.0513 17.5421C14.687 17.3105 15.3226 17.0758 15.9582 16.8411C16.2359 16.7392 16.2359 16.7331 16.1063 16.4768C15.2269 14.7167 14.3475 12.9535 13.4682 11.1935C13.4373 11.1286 13.4188 11.0576 13.3293 11.0175C13.3571 11.178 13.3386 11.3386 13.3509 11.4961C13.4065 12.1476 13.4651 12.8022 13.5176 13.4538C13.5669 14.0775 13.604 14.7013 13.6595 15.325C13.6811 15.5442 13.6873 15.7635 13.7058 15.9796ZM13.6533 12.1167C14.4154 13.6421 15.1714 15.1552 15.8872 16.5879C15.8903 16.591 15.8903 16.5972 15.8934 16.6034C15.8872 16.6065 15.8779 16.6096 15.8718 16.6126C15.2886 16.8288 14.7271 17.0357 14.0637 17.2765C14.0483 17.0943 14.0328 16.9122 14.0174 16.7331C13.9958 16.4799 13.9711 16.2174 13.9526 15.9611C13.9464 15.8685 13.9403 15.7727 13.9341 15.6801C13.9279 15.5566 13.9187 15.43 13.9063 15.3034C13.8724 14.9298 13.8446 14.5469 13.8199 14.1794C13.8014 13.9355 13.786 13.6823 13.7644 13.4352C13.7305 13.006 13.6934 12.5706 13.6564 12.1476C13.6533 12.1383 13.6533 12.126 13.6533 12.1167Z" fill="#F7FDFC"/>
<path d="M0.138892 34.5191C0.465951 34.0466 0.789925 33.5711 1.11698 33.0956C1.53044 32.4965 1.94698 31.8975 2.36043 31.2984C2.92815 30.4771 3.49588 29.6557 4.06669 28.8374C4.12531 28.751 4.13457 28.6861 4.04509 28.612C3.83528 28.4453 3.62855 28.2693 3.41874 28.0994C3.36012 28.05 3.32618 28.0253 3.29224 28.0253C3.2583 28.0253 3.22744 28.0562 3.16882 28.118C3.03923 28.2569 2.91581 28.402 2.79239 28.5441C2.42522 28.9671 2.05805 29.3902 1.6878 29.8132C1.33605 30.2115 0.98431 30.6099 0.632567 31.0082C0.567772 31.0823 0.533832 31.1657 0.52149 31.2645C0.48755 31.4961 0.450524 31.7246 0.413498 31.9562C0.277738 32.7899 0.145063 33.6236 0.00930241 34.4604C4.60101e-05 34.5129 -0.0246377 34.5747 0.0278152 34.621C0.0956955 34.6148 0.111123 34.5592 0.138892 34.5191ZM0.499892 32.9937C0.552344 32.6602 0.607883 32.3298 0.660336 31.9963C0.697361 31.7647 0.734387 31.5362 0.768327 31.3015C0.777583 31.2305 0.799182 31.1966 0.82078 31.1749L0.941113 31.0422C1.24966 30.6963 1.56746 30.3381 1.87909 29.983C2.11668 29.7144 2.35426 29.4365 2.58567 29.1709C2.71834 29.0196 2.85102 28.8652 2.98369 28.7139C3.01146 28.683 3.03614 28.6522 3.06391 28.6213C3.14722 28.5256 3.23053 28.4298 3.31692 28.3372C3.39714 28.402 3.47737 28.47 3.55759 28.5348C3.64707 28.6089 3.73655 28.683 3.82911 28.7572C3.39406 29.3809 2.95592 30.017 2.53013 30.6315L2.15987 31.1595C2.03954 31.3324 1.91921 31.5053 1.79887 31.6783C1.50884 32.0982 1.20955 32.5305 0.913344 32.9566C0.759071 33.179 0.607883 33.4013 0.45361 33.6236C0.428926 33.6607 0.404242 33.6946 0.379558 33.7317C0.419669 33.4846 0.45978 33.2376 0.499892 32.9937Z" fill="#F7FDFC"/>
<path d="M18.5374 7.93578C18.3276 7.72272 18.09 7.53127 17.9111 7.29351C17.5717 6.84886 17.1243 6.56477 16.6337 6.32701C16.5997 6.31157 16.5689 6.30231 16.5411 6.30231C16.5041 6.30231 16.4701 6.31466 16.4362 6.34245C16.3097 6.43817 16.177 6.53081 16.0443 6.62344C14.8534 7.45407 13.6624 8.28162 12.4745 9.11225C12.4004 9.16474 12.3171 9.21106 12.2646 9.28826C12.2862 9.30987 12.3078 9.31913 12.3294 9.31913C12.3541 9.31913 12.3757 9.30987 12.3973 9.30678C13.0576 9.18945 13.7179 9.07211 14.3782 8.95477C15.4766 8.75715 16.572 8.56261 17.6704 8.36499C17.9789 8.30941 18.2875 8.25383 18.596 8.19207C18.7071 8.17045 18.7164 8.1334 18.6485 8.04694C18.6115 8.0068 18.5744 7.97283 18.5374 7.93578ZM17.6241 8.11796C16.6306 8.29706 15.6186 8.47615 14.6435 8.65216L14.3319 8.70774C13.9431 8.77876 13.5605 8.84669 13.1872 8.91154C13.7302 8.53173 14.2733 8.15502 14.8163 7.77521C15.273 7.45716 15.7296 7.13911 16.1832 6.82107C16.3035 6.73769 16.43 6.65123 16.5504 6.5586C17.0996 6.83033 17.4482 7.0928 17.7105 7.43863C17.8463 7.61773 18.0067 7.76903 18.161 7.91416C18.1918 7.94195 18.2196 7.96975 18.2505 7.99754C18.0314 8.04694 17.8154 8.084 17.6241 8.11796Z" fill="#F7FDFC"/>
<path d="M13.6008 17.5699C13.4249 15.3435 13.249 13.1141 13.0701 10.8661C12.996 10.9125 12.996 10.9588 12.9837 11.002C12.8448 11.4405 12.7091 11.879 12.5702 12.3174C12.1537 13.6545 11.7341 14.9884 11.3175 16.3255C11.2527 16.5324 11.2527 16.5324 11.4379 16.6188C12.092 16.9214 12.7461 17.224 13.4033 17.5266C13.4465 17.5483 13.4897 17.5822 13.5483 17.5822C13.5638 17.5791 13.5823 17.576 13.6008 17.5699ZM11.552 16.3965C11.9686 15.0594 12.3882 13.7255 12.8047 12.3885C12.8418 12.2649 12.8788 12.1507 12.9158 12.0364L13.0978 14.3215L13.3262 17.2148C12.7183 16.9369 12.1167 16.659 11.552 16.3965Z" fill="#F7FDFC"/>
<path d="M9.12374 15.6369C9.69455 15.8778 10.2654 16.1155 10.8393 16.3502C10.901 16.3749 10.9442 16.3903 10.975 16.3903C11.0367 16.3903 11.0614 16.3409 11.0984 16.2143C11.6507 14.4388 12.2061 12.6633 12.7584 10.8878C12.7769 10.8291 12.8201 10.7704 12.7862 10.7025C12.7831 10.7025 12.78 10.7025 12.7769 10.7025C12.7152 10.7025 12.6936 10.7519 12.6659 10.789C12.2925 11.2645 11.9223 11.7431 11.5489 12.2186C11.009 12.9134 10.469 13.6113 9.92596 14.3091C9.63902 14.6766 9.35207 15.044 9.0682 15.4146C8.96947 15.5504 8.97564 15.5721 9.12374 15.6369ZM9.85808 14.8032C9.94756 14.6889 10.037 14.5747 10.1265 14.4604C10.3363 14.1918 10.5461 13.9201 10.7529 13.6514C11.083 13.2253 11.4162 12.7961 11.7464 12.37C11.9099 12.16 12.0735 11.95 12.2339 11.7431C11.9253 12.7312 11.6168 13.7224 11.3144 14.6889L10.8763 16.097C10.3209 15.8685 9.78095 15.6431 9.3459 15.4609C9.51868 15.2417 9.69147 15.0193 9.85808 14.8032Z" fill="#F7FDFC"/>
<path d="M20.1727 1.31542C20.8793 3.03535 21.5858 4.75528 22.2955 6.47522C22.3171 6.52771 22.3232 6.58947 22.3973 6.6327C22.3603 6.30847 22.3294 5.99969 22.2924 5.6909C22.2307 5.16288 22.1628 4.63486 22.1011 4.10684C22.0363 3.54176 21.9746 2.97668 21.9098 2.41161C21.8265 1.7014 21.7432 0.994287 21.6599 0.284082C21.6383 0.0926354 21.6105 0.0679326 21.4223 0.0432299C21.1755 0.00926354 20.9286 0 20.6849 0C20.4565 0 20.2282 0.00617569 19.9999 0.00617569C19.9505 0.00617569 19.8981 0.00617569 19.8487 0.00617569C19.8425 0.00617569 19.8364 0.00617569 19.8271 0.00617569C19.6698 0.00617569 19.6574 0.0432299 19.7191 0.20071C19.8672 0.57434 20.0215 0.944881 20.1727 1.31542ZM20.3455 0.250116C20.4565 0.247028 20.5707 0.247028 20.6849 0.247028C20.8793 0.247028 21.1323 0.250116 21.3853 0.28717C21.3945 0.28717 21.4038 0.290258 21.41 0.290258C21.41 0.296433 21.413 0.305697 21.413 0.311873C21.4531 0.666975 21.4963 1.03134 21.5395 1.38027C21.5797 1.72611 21.6228 2.0843 21.663 2.4394C21.6938 2.70495 21.7247 2.9736 21.7524 3.23298C21.7864 3.52632 21.8203 3.83202 21.8543 4.13154C21.8882 4.4218 21.9252 4.71514 21.9592 5.00231C21.9592 5.00849 21.9592 5.01158 21.9622 5.01775C21.5025 3.90304 20.9996 2.68025 20.401 1.22279C20.2714 0.907827 20.1357 0.580515 20.0061 0.256291C20.1202 0.253203 20.2344 0.253203 20.3455 0.250116Z" fill="#F7FDFC"/>
<path d="M19.5836 0.880074C19.778 2.11213 19.9755 3.34418 20.1699 4.57314C20.3087 5.45318 20.4445 6.33013 20.5864 7.21017C20.6296 7.47881 20.6327 7.47881 20.8949 7.48498C21.3238 7.49425 21.7558 7.50351 22.1847 7.51586C22.2217 7.51586 22.2556 7.51895 22.2834 7.51895C22.4654 7.51895 22.4562 7.48807 22.3636 7.26575C21.8267 5.9565 21.2868 4.64725 20.7499 3.34109C20.3704 2.41782 19.9878 1.49456 19.6052 0.571289C19.6021 0.571289 19.599 0.571289 19.596 0.571289C19.525 0.571289 19.5373 0.617607 19.5559 0.663925C19.5651 0.738033 19.5713 0.809053 19.5836 0.880074ZM20.5216 3.43373C21.0338 4.67813 21.5552 5.94415 22.0582 7.16694L22.0983 7.26575C21.7064 7.25648 21.3084 7.24722 20.9227 7.23796H20.9011H20.898C20.8795 7.23796 20.8579 7.23796 20.8394 7.23796C20.8363 7.21634 20.8332 7.19164 20.8301 7.17311C20.7499 6.66979 20.6697 6.15721 20.5926 5.66007C20.5339 5.28644 20.4753 4.91281 20.4167 4.53609C20.3056 3.83823 20.1945 3.14347 20.0865 2.44561C20.0804 2.40238 20.0742 2.36224 20.068 2.31901C20.2161 2.69264 20.3704 3.06627 20.5216 3.43373Z" fill="#F7FDFC"/>
<path d="M7.90519 24.5545C8.67656 23.9184 9.44484 23.2823 10.2162 22.6493C11.3023 21.7569 12.3945 20.8676 13.4806 19.9783C13.5423 19.9289 13.6195 19.8826 13.6411 19.79C13.6257 19.7869 13.6133 19.7838 13.601 19.7838C13.5609 19.7838 13.53 19.7993 13.4991 19.8085C12.4223 20.1235 11.3455 20.4415 10.2656 20.7472C10.0218 20.8152 9.85829 20.9325 9.73179 21.1517C9.17949 22.1213 8.61176 23.0816 8.05329 24.0481C7.94221 24.2396 7.81262 24.4248 7.72314 24.641C7.72623 24.641 7.72932 24.641 7.7324 24.641C7.81571 24.6441 7.85891 24.5947 7.90519 24.5545ZM9.02521 22.8717C9.32759 22.3498 9.64231 21.8094 9.94777 21.2783C10.0372 21.1239 10.1452 21.0406 10.3335 20.9881C11.1079 20.7688 11.8947 20.5403 12.6537 20.318C12.6692 20.3149 12.6815 20.3087 12.6969 20.3057C12.4007 20.5465 12.1076 20.7874 11.8176 21.0251C11.2406 21.4945 10.6482 21.9824 10.0619 22.461C9.58677 22.85 9.10852 23.2453 8.64262 23.6313C8.60559 23.6621 8.56856 23.693 8.53154 23.7239C8.69507 23.4367 8.86168 23.1496 9.02521 22.8717Z" fill="#F7FDFC"/>
<path d="M9.63295 19.3793C9.57742 19.4257 9.55582 19.4874 9.52496 19.5461C7.9236 22.4672 6.32533 25.3883 4.72706 28.3125C4.51416 28.7016 4.51416 28.7016 4.90602 28.9208C4.91219 28.9239 4.91836 28.9239 4.92762 28.9239C4.99241 28.8837 5.01709 28.8127 5.05103 28.751C5.73909 27.5652 6.42715 26.3826 7.11521 25.1968C7.95755 23.7456 8.79679 22.2974 9.64221 20.8492C9.70083 20.7503 9.72552 20.6515 9.71935 20.5373C9.70083 20.1945 9.68849 19.8518 9.66998 19.509C9.66998 19.4658 9.69466 19.4071 9.63295 19.3793ZM9.42931 20.7195C8.69806 21.9731 7.95754 23.2484 7.24172 24.4836L6.90231 25.0672L6.30373 26.0985C5.83166 26.9137 5.34107 27.7567 4.85973 28.5842C4.88133 28.5379 4.91219 28.4823 4.94304 28.4298V28.4267L6.59685 25.4037C7.55026 23.6622 8.50367 21.9206 9.45708 20.1791C9.46325 20.2995 9.46942 20.423 9.47559 20.5435C9.47868 20.6114 9.46634 20.6608 9.42931 20.7195Z" fill="#F7FDFC"/>
<path d="M13.3819 17.7798C12.8389 17.5297 12.2989 17.2765 11.7559 17.0295C11.6941 17.0017 11.6571 16.9832 11.6263 16.9832C11.5831 16.9832 11.5522 17.0171 11.4843 17.1005C11.2282 17.4093 10.9691 17.715 10.7161 18.0268C10.6081 18.1596 10.6081 18.1627 10.7099 18.3017C11.0123 18.7123 11.3146 19.1261 11.617 19.5368C11.6664 19.6047 11.6911 19.6356 11.7188 19.6356C11.7435 19.6356 11.7713 19.6078 11.8237 19.5553C12.1755 19.194 12.5241 18.8328 12.8728 18.4715C13.0703 18.2677 13.2677 18.0639 13.4621 17.8632C13.4374 17.8014 13.4097 17.7922 13.3819 17.7798Z" fill="#F7FDFC"/>
<path d="M11.3145 35.4362C11.2682 35.4022 11.2188 35.3713 11.1694 35.3374C10.8208 35.112 10.4752 34.8835 10.1266 34.6581C9.17314 34.0374 8.22282 33.4167 7.26941 32.7961C7.21387 32.7312 7.1429 32.688 7.03491 32.6448C7.08428 32.7529 7.13982 32.8084 7.21387 32.8517C7.89267 33.5958 8.5653 34.34 9.25028 35.078C9.37061 35.2077 9.43541 35.3466 9.45392 35.5196C9.48477 35.8006 9.53414 36.0785 9.57425 36.3471C9.59585 36.3533 9.61128 36.3564 9.62671 36.3564C9.65756 36.3564 9.67916 36.3471 9.69767 36.3348C10.216 36.0877 10.7375 35.8407 11.2558 35.5937C11.2682 35.5875 11.2805 35.5813 11.2959 35.5751C11.3762 35.5381 11.3947 35.4918 11.3145 35.4362ZM9.77481 36.0291C9.74704 35.8531 9.71927 35.6709 9.69767 35.4949C9.67299 35.2694 9.5866 35.0842 9.42924 34.9113C9.11452 34.5716 8.79672 34.2227 8.482 33.8799L9.99079 34.8619C10.3055 35.0656 10.6202 35.2725 10.9349 35.4763C10.5493 35.6616 10.1605 35.8469 9.77481 36.0291Z" fill="#F7FDFC"/>
<path d="M11.1724 7.89253C11.2002 7.89253 11.2156 7.87709 11.2064 7.83694C11.2033 7.80915 11.1632 7.5436 11.1601 7.52816C10.9102 6.03364 10.6603 4.53603 10.4103 3.04151C10.3918 2.93035 10.3425 2.85933 10.2468 2.80066C9.86112 2.56599 9.47852 2.32513 9.09284 2.08737C9.06507 2.06884 9.0373 2.03796 8.9941 2.03796C8.97868 2.03796 8.96016 2.04105 8.94165 2.0534C9.67908 3.99875 10.4165 5.94409 11.1539 7.89253C11.1601 7.89253 11.1663 7.89253 11.1724 7.89253ZM10.5708 5.65692L9.40139 2.56907C9.41064 2.57525 9.4199 2.57834 9.42607 2.58451C9.65131 2.72655 9.8858 2.87168 10.1172 3.01064C10.1542 3.03225 10.1604 3.0446 10.1666 3.07857C10.3147 3.97713 10.469 4.88496 10.6171 5.77735L10.5708 5.65692Z" fill="#F7FDFC"/>
<path d="M3.04248 33.5526C2.76479 33.3951 2.49018 33.2284 2.21249 33.0678C2.17855 33.0493 2.14769 33.0215 2.10141 33.0215C2.08907 33.0215 2.07364 33.0246 2.05513 33.0307C1.78978 34.0714 1.52134 35.1181 1.24365 36.2051C1.30845 36.1865 1.33005 36.1834 1.34856 36.1711C1.93171 35.8129 2.51178 35.4485 3.09802 35.0934C3.17824 35.044 3.19984 34.9854 3.19984 34.8958C3.19058 34.5314 3.18441 34.1671 3.1875 33.8027C3.18441 33.6823 3.1443 33.6113 3.04248 33.5526ZM1.79904 35.6029C1.74041 35.64 1.68487 35.6739 1.62625 35.711L1.94405 34.4666L2.22483 33.3642C2.2742 33.3951 2.32665 33.4229 2.37602 33.4538C2.55189 33.5588 2.73702 33.6668 2.91906 33.7718C2.92523 33.7749 2.9314 33.778 2.93449 33.7811C2.93449 33.7842 2.93449 33.7904 2.93449 33.8027C2.93449 34.1794 2.94066 34.5654 2.94683 34.8958C2.56732 35.1274 2.17546 35.3682 1.79904 35.6029Z" fill="#F7FDFC"/>
<path d="M12.6568 19.0366C12.413 19.2867 12.1693 19.5399 11.9255 19.79C11.8206 19.8981 11.7682 19.9444 11.6972 19.9444C11.6478 19.9444 11.5861 19.9228 11.4905 19.8796C11.0277 19.6819 10.5648 19.4843 10.102 19.2898C10.0619 19.2713 10.0218 19.2404 9.96934 19.2404C9.95082 19.2404 9.92922 19.2435 9.90454 19.2558C9.92305 19.685 9.94157 20.1204 9.96316 20.5929C11.3115 20.1976 12.6198 19.8178 13.9311 19.4349C13.9095 19.3546 13.857 19.3485 13.82 19.333C13.5331 19.2095 13.243 19.086 12.9561 18.9656C12.8882 18.9378 12.8481 18.9193 12.8141 18.9193C12.7648 18.9223 12.7339 18.9563 12.6568 19.0366ZM10.1946 20.2656L10.173 19.7993L10.1637 19.5831C10.4229 19.6912 10.6821 19.8055 10.9351 19.9135C10.9999 19.9413 11.0616 19.9691 11.1264 19.9938L10.1946 20.2656ZM12.8481 19.191C12.8512 19.191 12.8543 19.1941 12.8573 19.1941C13.0085 19.2589 13.1443 19.3145 13.2708 19.367L12.4408 19.6109C12.5704 19.4782 12.7031 19.3423 12.8327 19.2064C12.8388 19.2033 12.8419 19.1972 12.8481 19.191Z" fill="#F7FDFC"/>
<path d="M9.68523 17.7551C9.72534 18.101 9.76545 18.4499 9.80248 18.7957C9.80865 18.8667 9.83642 18.9161 9.90738 18.9439C10.3548 19.1323 10.8022 19.3268 11.2496 19.5183C11.2619 19.509 11.2712 19.4967 11.2835 19.4874C11.2465 19.4349 11.2125 19.3793 11.1755 19.3299C10.9348 19.0026 10.6911 18.6753 10.4504 18.3449C10.3147 18.1596 10.3147 18.1411 10.4597 17.9682C10.6633 17.7211 10.8701 17.4772 11.0768 17.2302C11.157 17.1345 11.2341 17.0387 11.3144 16.943C11.339 16.9152 11.3606 16.8843 11.3452 16.8442C11.3205 16.7917 11.1879 16.7485 11.0922 16.7485C11.0614 16.7485 11.0305 16.7546 11.0151 16.767C10.5985 17.0449 10.182 17.329 9.76545 17.6069C9.70066 17.6439 9.67597 17.6872 9.68523 17.7551ZM10.3795 17.4865C10.4967 17.4062 10.614 17.3259 10.7343 17.2456C10.7096 17.2734 10.688 17.3012 10.6633 17.3321C10.5306 17.4896 10.3949 17.6501 10.2622 17.8107C10.182 17.9064 10.0987 18.0052 10.0956 18.1473C10.0925 18.2862 10.1696 18.3912 10.2437 18.49C10.3609 18.6506 10.4813 18.8142 10.5985 18.9717C10.4134 18.8914 10.2252 18.8112 10.0401 18.734C10.0092 18.4406 9.97218 18.1287 9.93207 17.7829C10.0833 17.6841 10.2314 17.5853 10.3795 17.4865Z" fill="#F7FDFC"/>
</g>
<path d="M55.416 5.418H52.056V4.2H60.162V5.418H56.802V14H55.416V5.418ZM65.4528 6.51C66.3955 6.51 67.1421 6.78533 67.6928 7.336C68.2528 7.87733 68.5328 8.67533 68.5328 9.73V14H67.1888V9.884C67.1888 9.16533 67.0161 8.624 66.6708 8.26C66.3255 7.896 65.8308 7.714 65.1868 7.714C64.4588 7.714 63.8848 7.92867 63.4648 8.358C63.0448 8.778 62.8348 9.38467 62.8348 10.178V14H61.4908V3.612H62.8348V7.63C63.1148 7.27533 63.4788 7 63.9268 6.804C64.3841 6.608 64.8928 6.51 65.4528 6.51ZM77.7671 10.332C77.7671 10.4347 77.7578 10.57 77.7391 10.738H71.7191C71.8031 11.3913 72.0878 11.9187 72.5731 12.32C73.0678 12.712 73.6791 12.908 74.4071 12.908C75.2938 12.908 76.0078 12.6093 76.5491 12.012L77.2911 12.88C76.9551 13.272 76.5351 13.5707 76.0311 13.776C75.5364 13.9813 74.9811 14.084 74.3651 14.084C73.5811 14.084 72.8858 13.9253 72.2791 13.608C71.6724 13.2813 71.2011 12.8287 70.8651 12.25C70.5384 11.6713 70.3751 11.018 70.3751 10.29C70.3751 9.57133 70.5338 8.92267 70.8511 8.344C71.1778 7.76533 71.6211 7.31733 72.1811 7C72.7504 6.67333 73.3898 6.51 74.0991 6.51C74.8084 6.51 75.4384 6.67333 75.9891 7C76.5491 7.31733 76.9831 7.76533 77.2911 8.344C77.6084 8.92267 77.7671 9.58533 77.7671 10.332ZM74.0991 7.644C73.4551 7.644 72.9138 7.84 72.4751 8.232C72.0458 8.624 71.7938 9.13733 71.7191 9.772H76.4791C76.4044 9.14667 76.1478 8.638 75.7091 8.246C75.2798 7.84467 74.7431 7.644 74.0991 7.644ZM83.5891 4.2H87.7191C88.7551 4.2 89.6745 4.40533 90.4771 4.816C91.2798 5.22667 91.9005 5.80533 92.3391 6.552C92.7871 7.28933 93.0111 8.13867 93.0111 9.1C93.0111 10.0613 92.7871 10.9153 92.3391 11.662C91.9005 12.3993 91.2798 12.9733 90.4771 13.384C89.6745 13.7947 88.7551 14 87.7191 14H83.5891V4.2ZM87.6351 12.782C88.4285 12.782 89.1238 12.628 89.7211 12.32C90.3278 12.012 90.7945 11.5827 91.1211 11.032C91.4478 10.472 91.6111 9.828 91.6111 9.1C91.6111 8.372 91.4478 7.73267 91.1211 7.182C90.7945 6.622 90.3278 6.188 89.7211 5.88C89.1238 5.572 88.4285 5.418 87.6351 5.418H84.9891V12.782H87.6351ZM101.666 10.332C101.666 10.4347 101.656 10.57 101.638 10.738H95.6175C95.7015 11.3913 95.9862 11.9187 96.4715 12.32C96.9662 12.712 97.5775 12.908 98.3055 12.908C99.1922 12.908 99.9062 12.6093 100.448 12.012L101.19 12.88C100.854 13.272 100.434 13.5707 99.9295 13.776C99.4349 13.9813 98.8795 14.084 98.2635 14.084C97.4795 14.084 96.7842 13.9253 96.1775 13.608C95.5709 13.2813 95.0995 12.8287 94.7635 12.25C94.4369 11.6713 94.2735 11.018 94.2735 10.29C94.2735 9.57133 94.4322 8.92267 94.7495 8.344C95.0762 7.76533 95.5195 7.31733 96.0795 7C96.6489 6.67333 97.2882 6.51 97.9975 6.51C98.7069 6.51 99.3369 6.67333 99.8875 7C100.448 7.31733 100.882 7.76533 101.19 8.344C101.507 8.92267 101.666 9.58533 101.666 10.332ZM97.9975 7.644C97.3535 7.644 96.8122 7.84 96.3735 8.232C95.9442 8.624 95.6922 9.13733 95.6175 9.772H100.378C100.303 9.14667 100.046 8.638 99.6075 8.246C99.1782 7.84467 98.6415 7.644 97.9975 7.644ZM105.66 14.084C105.053 14.084 104.47 14.0047 103.91 13.846C103.35 13.678 102.911 13.468 102.594 13.216L103.154 12.152C103.48 12.3853 103.877 12.572 104.344 12.712C104.81 12.852 105.282 12.922 105.758 12.922C106.934 12.922 107.522 12.586 107.522 11.914C107.522 11.69 107.442 11.5127 107.284 11.382C107.125 11.2513 106.924 11.158 106.682 11.102C106.448 11.0367 106.112 10.9667 105.674 10.892C105.076 10.7987 104.586 10.6913 104.204 10.57C103.83 10.4487 103.508 10.2433 103.238 9.954C102.967 9.66467 102.832 9.25867 102.832 8.736C102.832 8.064 103.112 7.52733 103.672 7.126C104.232 6.71533 104.983 6.51 105.926 6.51C106.42 6.51 106.915 6.57067 107.41 6.692C107.904 6.81333 108.31 6.97667 108.628 7.182L108.054 8.246C107.447 7.854 106.733 7.658 105.912 7.658C105.342 7.658 104.908 7.75133 104.61 7.938C104.311 8.12467 104.162 8.372 104.162 8.68C104.162 8.92267 104.246 9.114 104.414 9.254C104.582 9.394 104.787 9.49667 105.03 9.562C105.282 9.62733 105.632 9.702 106.08 9.786C106.677 9.88867 107.158 10.0007 107.522 10.122C107.895 10.234 108.212 10.43 108.474 10.71C108.735 10.99 108.866 11.382 108.866 11.886C108.866 12.558 108.576 13.0947 107.998 13.496C107.428 13.888 106.649 14.084 105.66 14.084ZM117.251 10.332C117.251 10.4347 117.242 10.57 117.223 10.738H111.203C111.287 11.3913 111.572 11.9187 112.057 12.32C112.552 12.712 113.163 12.908 113.891 12.908C114.778 12.908 115.492 12.6093 116.033 12.012L116.775 12.88C116.439 13.272 116.019 13.5707 115.515 13.776C115.021 13.9813 114.465 14.084 113.849 14.084C113.065 14.084 112.37 13.9253 111.763 13.608C111.157 13.2813 110.685 12.8287 110.349 12.25C110.023 11.6713 109.859 11.018 109.859 10.29C109.859 9.57133 110.018 8.92267 110.335 8.344C110.662 7.76533 111.105 7.31733 111.665 7C112.235 6.67333 112.874 6.51 113.583 6.51C114.293 6.51 114.923 6.67333 115.473 7C116.033 7.31733 116.467 7.76533 116.775 8.344C117.093 8.92267 117.251 9.58533 117.251 10.332ZM113.583 7.644C112.939 7.644 112.398 7.84 111.959 8.232C111.53 8.624 111.278 9.13733 111.203 9.772H115.963C115.889 9.14667 115.632 8.638 115.193 8.246C114.764 7.84467 114.227 7.644 113.583 7.644ZM120.406 7.826C120.639 7.39667 120.984 7.07 121.442 6.846C121.899 6.622 122.454 6.51 123.108 6.51V7.812C123.033 7.80267 122.93 7.798 122.8 7.798C122.072 7.798 121.498 8.01733 121.078 8.456C120.667 8.88533 120.462 9.50133 120.462 10.304V14H119.118V6.58H120.406V7.826ZM129.237 13.566C129.041 13.734 128.798 13.8647 128.509 13.958C128.22 14.042 127.921 14.084 127.613 14.084C126.866 14.084 126.288 13.8833 125.877 13.482C125.466 13.0807 125.261 12.5067 125.261 11.76V7.686H124.001V6.58H125.261V4.956H126.605V6.58H128.733V7.686H126.605V11.704C126.605 12.1053 126.703 12.4133 126.899 12.628C127.104 12.8427 127.394 12.95 127.767 12.95C128.178 12.95 128.528 12.8333 128.817 12.6L129.237 13.566ZM53.47 21.2H54.87V31H53.47V21.2ZM59.736 31.084C59.1293 31.084 58.546 31.0047 57.986 30.846C57.426 30.678 56.9873 30.468 56.67 30.216L57.23 29.152C57.5567 29.3853 57.9533 29.572 58.42 29.712C58.8867 29.852 59.358 29.922 59.834 29.922C61.01 29.922 61.598 29.586 61.598 28.914C61.598 28.69 61.5187 28.5127 61.36 28.382C61.2013 28.2513 61.0007 28.158 60.758 28.102C60.5247 28.0367 60.1887 27.9667 59.75 27.892C59.1527 27.7987 58.6627 27.6913 58.28 27.57C57.9067 27.4487 57.5847 27.2433 57.314 26.954C57.0433 26.6647 56.908 26.2587 56.908 25.736C56.908 25.064 57.188 24.5273 57.748 24.126C58.308 23.7153 59.0593 23.51 60.002 23.51C60.4967 23.51 60.9913 23.5707 61.486 23.692C61.9807 23.8133 62.3867 23.9767 62.704 24.182L62.13 25.246C61.5233 24.854 60.8093 24.658 59.988 24.658C59.4187 24.658 58.9847 24.7513 58.686 24.938C58.3873 25.1247 58.238 25.372 58.238 25.68C58.238 25.9227 58.322 26.114 58.49 26.254C58.658 26.394 58.8633 26.4967 59.106 26.562C59.358 26.6273 59.708 26.702 60.156 26.786C60.7533 26.8887 61.234 27.0007 61.598 27.122C61.9713 27.234 62.2887 27.43 62.55 27.71C62.8113 27.99 62.942 28.382 62.942 28.886C62.942 29.558 62.6527 30.0947 62.074 30.496C61.5047 30.888 60.7253 31.084 59.736 31.084ZM64.6217 20.612H65.9657V31H64.6217V20.612ZM71.2338 23.51C72.2605 23.51 73.0445 23.762 73.5858 24.266C74.1365 24.77 74.4118 25.5213 74.4118 26.52V31H73.1378V30.02C72.9138 30.3653 72.5918 30.6313 72.1718 30.818C71.7611 30.9953 71.2711 31.084 70.7018 31.084C69.8711 31.084 69.2038 30.8833 68.6998 30.482C68.2051 30.0807 67.9578 29.5533 67.9578 28.9C67.9578 28.2467 68.1958 27.724 68.6718 27.332C69.1478 26.9307 69.9038 26.73 70.9398 26.73H73.0678V26.464C73.0678 25.8853 72.8998 25.442 72.5638 25.134C72.2278 24.826 71.7331 24.672 71.0798 24.672C70.6411 24.672 70.2118 24.7467 69.7918 24.896C69.3718 25.036 69.0171 25.2273 68.7278 25.47L68.1678 24.462C68.5505 24.154 69.0078 23.9207 69.5398 23.762C70.0718 23.594 70.6365 23.51 71.2338 23.51ZM70.9258 30.048C71.4391 30.048 71.8825 29.936 72.2558 29.712C72.6291 29.4787 72.8998 29.152 73.0678 28.732V27.696H70.9958C69.8571 27.696 69.2878 28.0787 69.2878 28.844C69.2878 29.2173 69.4325 29.5113 69.7218 29.726C70.0111 29.9407 70.4125 30.048 70.9258 30.048ZM80.861 23.51C81.8037 23.51 82.5503 23.7853 83.101 24.336C83.661 24.8773 83.941 25.6753 83.941 26.73V31H82.597V26.884C82.597 26.1653 82.4243 25.624 82.079 25.26C81.7337 24.896 81.239 24.714 80.595 24.714C79.867 24.714 79.293 24.9287 78.873 25.358C78.453 25.778 78.243 26.3847 78.243 27.178V31H76.899V23.58H78.187V24.7C78.4577 24.3173 78.8217 24.0233 79.279 23.818C79.7457 23.6127 80.273 23.51 80.861 23.51ZM93.4693 20.612V31H92.1813V29.824C91.8826 30.2347 91.5046 30.5473 91.0473 30.762C90.59 30.9767 90.086 31.084 89.5353 31.084C88.8166 31.084 88.1726 30.9253 87.6033 30.608C87.034 30.2907 86.586 29.8473 86.2593 29.278C85.942 28.6993 85.7833 28.0367 85.7833 27.29C85.7833 26.5433 85.942 25.8853 86.2593 25.316C86.586 24.7467 87.034 24.3033 87.6033 23.986C88.1726 23.6687 88.8166 23.51 89.5353 23.51C90.0673 23.51 90.5573 23.6127 91.0053 23.818C91.4533 24.014 91.8266 24.308 92.1253 24.7V20.612H93.4693ZM89.6473 29.908C90.114 29.908 90.5386 29.8007 90.9213 29.586C91.304 29.362 91.6026 29.054 91.8173 28.662C92.032 28.2607 92.1393 27.8033 92.1393 27.29C92.1393 26.7767 92.032 26.324 91.8173 25.932C91.6026 25.5307 91.304 25.2227 90.9213 25.008C90.5386 24.7933 90.114 24.686 89.6473 24.686C89.1713 24.686 88.742 24.7933 88.3593 25.008C87.986 25.2227 87.6873 25.5307 87.4633 25.932C87.2486 26.324 87.1413 26.7767 87.1413 27.29C87.1413 27.8033 87.2486 28.2607 87.4633 28.662C87.6873 29.054 87.986 29.362 88.3593 29.586C88.742 29.8007 89.1713 29.908 89.6473 29.908Z" fill="#F7FDFC"/>
<defs>
<clipPath id="clip0_184_891">
<rect width="40" height="40" fill="white"/>
</clipPath>
</defs>
</svg>
