<svg width="257" height="99" viewBox="0 0 257 99" fill="none" xmlns="http://www.w3.org/2000/svg">
<g clip-path="url(#clip0_59_188)">
<path d="M48.1254 72.9317C45.8344 70.211 43.5435 67.4903 41.2525 64.7696C39.5419 62.7367 37.8313 60.7114 36.136 58.6709C35.9528 58.4493 35.7771 58.3423 35.548 58.3423C35.4564 58.3423 35.3647 58.3576 35.2578 58.3881C34.6011 58.5792 33.9291 58.7091 33.2571 58.8696C28.53 59.9778 23.8107 61.0859 19.0837 62.1788C18.5567 62.3011 18.1596 62.5838 17.9 63.0347C16.2276 65.9083 14.5628 68.7818 12.8981 71.6554C12.8446 71.7547 12.7224 71.8464 12.837 71.9993C13.089 71.9458 13.2952 71.8006 13.5166 71.686C19.1218 68.7818 24.7271 65.8701 30.3323 62.966C30.5461 62.8513 30.6759 62.7902 30.7752 62.7902C30.905 62.7902 30.989 62.8972 31.1723 63.1494C34.0894 67.1387 37.0066 71.1357 39.9314 75.125C40.1299 75.3925 40.191 75.6447 40.1223 75.981C39.8474 77.2496 39.603 78.5259 39.351 79.8022C39.3128 80.0085 39.2212 80.2149 39.3281 80.4289C39.3357 80.4289 39.3434 80.4289 39.351 80.4289C39.5496 80.4289 39.6717 80.2837 39.8092 80.1843C41.7336 78.8469 43.6504 77.4865 45.5901 76.1644C46.6286 75.4537 47.4534 74.5136 48.3698 73.6806C48.5454 73.5201 48.5301 73.3826 48.3774 73.2297C48.2857 73.1304 48.2094 73.0234 48.1254 72.9317ZM47.125 74.0169C46.5064 74.6206 45.9261 75.1938 45.2464 75.6524C43.994 76.5083 42.7264 77.3948 41.5045 78.2508C41.0387 78.5794 40.5652 78.908 40.0841 79.2443C40.2903 78.2049 40.4965 77.1426 40.7179 76.1033C40.8249 75.6065 40.7332 75.1785 40.4201 74.7582C38.2743 71.8388 36.1055 68.8583 33.9978 65.9847C33.2189 64.9148 32.4399 63.8525 31.661 62.7825C31.4396 62.4845 31.2181 62.1788 30.7752 62.1788C30.5232 62.1788 30.317 62.2858 30.0574 62.4233L27.438 63.7837C23.0928 66.0382 18.6178 68.3615 14.1886 70.6542C15.4792 68.4226 16.9378 65.9159 18.4269 63.3481C18.6026 63.0424 18.8546 62.8666 19.2211 62.7749C22.9019 61.9189 26.6438 61.0477 30.2635 60.1994C31.3097 59.9548 32.3559 59.7103 33.3945 59.4657C33.5854 59.4199 33.784 59.374 33.9749 59.3358C34.4484 59.2288 34.9447 59.1218 35.4258 58.9766C35.4946 58.9537 35.5327 58.9537 35.548 58.9537H35.5557C35.5633 58.9613 35.6015 58.9842 35.6702 59.0607C36.976 60.635 38.3201 62.2246 39.6183 63.7684C40.0077 64.2346 40.4049 64.7008 40.7943 65.1593C42.2071 66.8407 43.6275 68.522 45.0402 70.2033L47.6672 73.3214C47.6901 73.352 47.713 73.3826 47.7359 73.4055L47.7436 73.4131C47.5297 73.6195 47.3235 73.8182 47.125 74.0169Z" fill="white"/>
<path d="M75.6625 59.9013C75.5022 57.9219 75.3342 55.9426 75.1662 53.9632C75.0134 52.0908 74.8607 50.2184 74.7003 48.3536C74.6851 48.2237 74.7462 48.0403 74.5323 47.9486C74.1658 49.8898 73.7916 51.8233 73.425 53.7568C72.6461 57.8455 71.8596 61.9419 71.0959 66.0382C71.0119 66.4967 70.7828 66.7642 70.401 66.9935C67.6518 68.6519 64.9103 70.3256 62.1764 72.0146C62.0008 72.1216 61.8557 72.1751 61.7106 72.1751C61.5655 72.1751 61.4204 72.1216 61.2524 72.0069C60.2215 71.3115 59.1753 70.6389 58.129 69.9664C57.9687 69.8671 57.8847 69.8059 57.8083 69.8059C57.7243 69.8059 57.6556 69.89 57.5258 70.0734C57.0217 70.7765 56.5101 71.4796 56.029 72.198C55.7923 72.5572 55.4868 72.7406 55.0744 72.817C53.1806 73.1762 51.2867 73.566 49.3928 73.9405C49.3165 74.0016 49.3165 74.0704 49.3776 74.1392C49.9045 74.4219 50.4238 74.6971 50.9507 74.9798C53.6769 76.4166 56.4108 77.8534 59.1371 79.2978C59.3051 79.3819 59.4578 79.443 59.6334 79.443C59.7022 79.443 59.7785 79.4354 59.8549 79.4124C62.5124 78.7323 65.1699 78.0674 67.8351 77.4178C68.1787 77.3337 68.4078 77.1656 68.6064 76.8904C69.3242 75.874 70.0573 74.8652 70.7828 73.8564C72.501 71.4643 74.2116 69.0722 75.9375 66.6878C76.0978 66.4662 76.1742 66.2751 76.1513 66C75.9909 63.9671 75.8306 61.9342 75.6625 59.9013ZM75.4564 66.3286C74.1429 68.1399 72.8218 69.9817 71.5388 71.77C71.1264 72.3432 70.7141 72.924 70.2941 73.4972C70.0573 73.8258 69.8282 74.1468 69.5915 74.4754C69.1028 75.148 68.5987 75.8511 68.11 76.5389C67.9955 76.707 67.8809 76.7758 67.69 76.8293C65.2692 77.4254 62.6575 78.075 59.7098 78.8316C59.6869 78.8393 59.664 78.8393 59.6411 78.8393C59.6029 78.8393 59.5571 78.8316 59.4273 78.7628C57.5869 77.7922 55.7083 76.7987 53.8984 75.8434C53.0126 75.3772 52.1267 74.9111 51.2409 74.4449C51.1263 74.3837 51.0194 74.3302 50.9049 74.2691C50.9431 74.2614 50.9736 74.2538 51.0118 74.2462C52.3787 73.971 53.7915 73.6883 55.1813 73.4208C55.7694 73.3061 56.2123 73.0234 56.533 72.5419C56.9225 71.9611 57.3425 71.3803 57.7472 70.8147C57.8083 70.7306 57.8618 70.6542 57.9229 70.5702C58.0603 70.6619 58.1978 70.7459 58.3352 70.8376C59.1829 71.3879 60.0611 71.9534 60.9087 72.519C61.176 72.7024 61.4433 72.7941 61.7029 72.7941C61.9626 72.7941 62.2146 72.71 62.4895 72.5419C64.9561 71.0134 67.5678 69.4238 70.7064 67.5285C71.2639 67.1922 71.577 66.7566 71.6839 66.1605C72.2796 62.9812 72.8981 59.7408 73.4938 56.6151C73.6694 55.698 73.8451 54.7885 74.0131 53.8715C74.1352 53.2371 74.2574 52.6105 74.372 51.9761C74.3872 52.1366 74.3949 52.2971 74.4102 52.4576C74.456 52.9773 74.4942 53.497 74.54 54.0243C74.6087 54.842 74.6774 55.6598 74.7462 56.4775C74.8454 57.6162 74.9371 58.8008 75.0364 59.9548C75.0974 60.6885 75.1585 61.4145 75.212 62.1482C75.3189 63.4321 75.4258 64.7543 75.5327 66.0535C75.5556 66.1375 75.5556 66.1834 75.4564 66.3286Z" fill="white"/>
<path d="M58.908 49.6146C58.8546 49.9662 58.8698 50.2871 58.9615 50.6234C59.6946 53.3441 60.4124 56.0648 61.1303 58.7855C61.3823 59.7408 61.6419 60.6961 61.9168 61.7278C62.1001 61.5368 62.0772 61.3839 62.1077 61.2464C63.0547 56.4622 63.994 51.6857 64.9485 46.9015C65.002 46.6264 64.9714 46.3666 64.9103 46.0991C63.383 39.3738 61.8634 32.6484 60.3437 25.9231C60.275 25.6174 60.1528 25.4646 59.8473 25.3728C56.5025 24.4175 53.1577 23.447 49.8129 22.4916C49.7289 22.4687 49.6526 22.4305 49.5686 22.4305C49.5151 22.4305 49.4617 22.4458 49.4082 22.4916C49.4311 22.7209 49.5838 22.8814 49.6984 23.0648C53.173 28.7049 56.6476 34.345 60.1299 39.9851C60.3208 40.2908 60.359 40.5736 60.3055 40.9022C59.8321 43.8064 59.3739 46.7105 58.908 49.6146ZM60.6415 39.6565C57.2815 34.2304 53.8832 28.7049 50.5919 23.3552C51.2639 23.5463 51.9283 23.7374 52.6003 23.9361C54.9218 24.601 57.3196 25.2964 59.6793 25.969C59.7022 25.9766 59.7175 25.9766 59.7251 25.9842C59.7328 25.9995 59.7404 26.0224 59.748 26.0607C61.3212 33.0458 62.8714 39.8858 64.3147 46.2366C64.3681 46.4736 64.3758 46.6341 64.3529 46.7869C63.9023 49.0643 63.4518 51.3341 63.0012 53.6116C62.627 55.484 62.2605 57.364 61.8863 59.2364C61.8328 59.0377 61.7794 58.8314 61.7259 58.6327C61.5197 57.8608 61.3135 57.0812 61.1073 56.3094C60.6033 54.3911 60.0764 52.4117 59.5495 50.4706C59.4808 50.2107 59.4655 49.9814 59.5113 49.7139C59.7862 48.0097 60.0611 46.2825 60.3284 44.6088C60.5193 43.4242 60.7102 42.2015 60.9012 41.0016C60.9852 40.4972 60.9012 40.0692 60.6415 39.6565Z" fill="white"/>
<path d="M74.0054 45.2967C73.3639 44.4025 72.7606 43.4854 72.1344 42.576C69.7289 39.0604 67.3158 35.5526 64.9103 32.0371C64.0245 30.7455 63.1386 29.4463 62.2451 28.1547C61.9091 27.6656 61.5731 27.1841 61.2295 26.7026C61.3211 27.7267 61.5655 28.682 61.787 29.6526C63.0317 35.1246 64.2536 40.6042 65.4983 46.0762C65.5747 46.4048 65.5747 46.7105 65.5136 47.0391C64.9103 50.0503 64.3223 53.0614 63.7266 56.0648C63.4899 57.2723 63.2455 58.4722 63.0088 59.6797C62.9095 60.1841 62.9248 60.2376 63.3983 60.2911C64.1848 60.3828 64.979 60.4287 65.7656 60.4898C65.7885 60.4898 65.8038 60.4898 65.8267 60.4898C66.1016 60.4898 66.2849 60.337 66.4147 60.0924C67.2776 58.5333 68.1558 56.9743 69.0264 55.4152C69.8129 54.0167 70.5919 52.6105 71.3784 51.2119C72.2719 49.6223 73.1501 48.0326 74.0588 46.4507C74.3032 46.0227 74.2879 45.6864 74.0054 45.2967ZM73.5319 46.1373C72.8141 47.383 72.1039 48.6593 71.4166 49.8898C71.2257 50.226 71.0348 50.5623 70.8515 50.9062C70.2864 51.915 69.7289 52.9238 69.1638 53.925L68.4995 55.1095C68.2933 55.484 68.0794 55.8585 67.8733 56.233C67.2242 57.3946 66.5521 58.6021 65.8954 59.7867C65.8649 59.8326 65.8496 59.8631 65.842 59.8708C65.8343 59.8708 65.8343 59.8708 65.8267 59.8708C65.6587 59.8555 65.483 59.8478 65.315 59.8326C64.7652 59.7943 64.1925 59.7485 63.6426 59.695C63.7877 58.946 63.9405 58.1894 64.0856 57.4481C64.1696 57.0278 64.2536 56.5998 64.3376 56.1795C64.4979 55.3465 64.6659 54.5211 64.8263 53.688C65.2463 51.5482 65.6892 49.3242 66.1245 47.1461C66.2085 46.7411 66.2009 46.3437 66.1092 45.931C65.5059 43.2867 64.9027 40.5966 64.3146 37.9905C63.6885 35.2087 63.0393 32.3351 62.3979 29.5074C62.3902 29.4692 62.3826 29.431 62.375 29.3928C62.6728 29.8284 62.9706 30.2564 63.2608 30.692C63.6426 31.2575 64.0321 31.8154 64.4139 32.381C65.4907 33.9477 66.5674 35.522 67.6442 37.0887C68.9806 39.0299 70.3093 40.971 71.6457 42.9199C71.8443 43.2103 72.0428 43.5007 72.2337 43.7911C72.6461 44.4025 73.0814 45.0368 73.5243 45.6559C73.6465 45.8469 73.6541 45.9233 73.5319 46.1373Z" fill="white"/>
<path d="M74.54 44.9451C74.5553 44.9451 74.5705 44.9451 74.5858 44.9375C74.7003 44.8457 74.708 44.7158 74.7309 44.5935C74.8683 43.8675 74.9905 43.1338 75.128 42.4078C75.6244 39.7635 76.1207 37.1193 76.6248 34.475C76.7088 34.047 76.5942 33.7719 76.2353 33.512C73.4327 31.5403 70.6377 29.5456 67.8428 27.5662C64.0321 24.8608 60.2139 22.163 56.4032 19.4576C56.1818 19.3048 55.9603 19.1825 55.6854 19.1825C55.6778 19.1825 55.6701 19.1825 55.6625 19.1825C55.4029 19.1901 55.1432 19.1901 54.8836 19.1901C53.593 19.1901 52.3024 19.1137 51.0119 19.0755C50.7828 19.0679 50.5537 19.0679 50.3246 19.0679C49.8282 19.0679 49.3318 19.0755 48.8354 19.0755C48.2092 19.0755 47.5831 19.0602 46.9569 18.9761C46.8652 18.9609 46.7736 18.9532 46.6743 18.9532C46.5521 18.9532 46.4223 18.9685 46.2925 19.0296C46.2925 19.1978 46.3841 19.2589 46.4605 19.3353C46.9187 19.8015 47.3845 20.2448 47.7892 20.7568C48.2169 21.3071 48.782 21.5975 49.454 21.7733C51.1111 22.2089 52.753 22.698 54.4025 23.1718C56.3269 23.7221 58.2436 24.3029 60.1833 24.8226C60.6644 24.9525 60.9622 25.1894 61.2219 25.5868C62.2452 27.1153 63.3067 28.6209 64.3452 30.1417C66.7965 33.7184 69.2326 37.295 71.6839 40.8717C72.5468 42.1403 73.4174 43.4013 74.288 44.67C74.3491 44.7923 74.3872 44.9451 74.54 44.9451ZM69.5075 36.6301C67.9802 34.3986 66.4071 32.0905 64.8492 29.8207C64.4598 29.2552 64.0627 28.6744 63.6732 28.1165C63.0317 27.1841 62.3597 26.2212 61.7259 25.2659C61.367 24.7309 60.9317 24.4175 60.336 24.2571C58.992 23.8979 57.6251 23.5005 56.3116 23.1107C55.7389 22.9426 55.1508 22.7744 54.5705 22.6063C54.1581 22.4917 53.7534 22.3694 53.341 22.2547C52.1191 21.9032 50.8591 21.5364 49.6067 21.2077C48.9882 21.0472 48.5758 20.795 48.2703 20.4053C48.0642 20.1454 47.8503 19.9009 47.6289 19.6716C48.0718 19.7022 48.4842 19.7022 48.8354 19.7022C49.0874 19.7022 49.3395 19.7022 49.5838 19.6945C49.8282 19.6945 50.0726 19.6869 50.3169 19.6869C50.5689 19.6869 50.7828 19.6869 50.9889 19.6945C51.409 19.7098 51.8366 19.7251 52.249 19.7404C53.1119 19.7786 53.9977 19.8092 54.8759 19.8092C55.1508 19.8092 55.4181 19.8092 55.6701 19.8015H55.6778C55.7618 19.8015 55.8534 19.8321 56.0443 19.962C57.816 21.223 59.5953 22.4764 61.367 23.7297C63.4059 25.1741 65.4449 26.6186 67.4838 28.063C68.3926 28.705 69.2937 29.3469 70.2024 29.9965C72.0581 31.3187 73.9825 32.679 75.8764 34.0164C76.0444 34.1387 76.052 34.1769 76.0215 34.3603C75.5938 36.5766 75.1662 38.8388 74.7614 41.0245L74.5247 42.2932C74.4407 42.7288 74.3643 43.1721 74.288 43.6V43.6077C73.5701 42.5683 72.8599 41.5289 72.1879 40.5431C71.2868 39.2439 70.401 37.937 69.5075 36.6301Z" fill="white"/>
<path d="M33.1883 74.3914C32.165 73.78 31.1493 73.1609 30.1719 72.4808C29.6679 72.1292 29.1562 71.9916 28.5835 71.9916C28.4918 71.9916 28.4002 71.9916 28.3009 71.9993C25.9412 72.1598 23.5815 72.2668 21.2218 72.3967V72.389C18.572 72.5343 15.9297 72.6795 13.2798 72.8247C12.8598 72.8476 12.8598 72.8552 12.814 73.2526C12.8064 73.3444 12.7987 73.4361 12.7987 73.5201C12.6231 76.0039 12.4398 78.4877 12.2718 80.9715C12.2107 81.9345 12.0809 81.667 12.9362 82.2325C13.0966 82.3319 13.1806 82.393 13.2569 82.393C13.3486 82.393 13.4097 82.3166 13.5548 82.1485C14.1962 81.3918 14.8453 80.6352 15.4486 79.8557C15.7235 79.4965 16.0366 79.3284 16.4719 79.252C19.0454 78.8011 21.6189 78.3196 24.1848 77.8534C25.6052 77.5936 27.0256 77.3337 28.446 77.0815C28.5376 77.0662 28.6293 77.0586 28.698 77.0586C29.0417 77.0586 29.1867 77.242 29.1715 77.6547C29.1027 79.4048 29.034 81.1549 28.9577 82.9051C28.8966 84.3266 28.8355 85.7557 28.782 87.1772C28.7744 87.4447 28.8126 87.5669 28.9424 87.5669C29.0111 87.5669 29.0951 87.5364 29.2097 87.4752C30.126 87.009 31.0348 86.5276 31.9512 86.069C32.1726 85.9544 32.2566 85.8015 32.2795 85.5646C32.3406 84.9532 32.4246 84.3495 32.4934 83.7381C32.837 80.8722 33.1654 78.0062 33.5243 75.1403C33.5778 74.7811 33.509 74.5824 33.1883 74.3914ZM32.9287 75.0639C32.6614 77.2191 32.4017 79.4048 32.1497 81.5294C32.0657 82.2402 31.9817 82.9586 31.8977 83.6693C31.8748 83.8604 31.8519 84.0591 31.829 84.2501C31.7755 84.6628 31.7221 85.0832 31.6839 85.5111C31.6839 85.5188 31.6839 85.5264 31.6839 85.534C31.2028 85.7786 30.7141 86.0308 30.2406 86.2754C29.9733 86.4129 29.6984 86.5581 29.4235 86.6957C29.454 85.8627 29.4922 85.022 29.5228 84.2043C29.538 83.7839 29.5609 83.356 29.5762 82.9356C29.5915 82.4924 29.6144 82.0491 29.6297 81.6058C29.6831 80.3219 29.7366 78.9921 29.79 77.6853C29.8053 77.2802 29.706 76.9822 29.4998 76.7605C29.3089 76.5618 29.0417 76.4548 28.7133 76.4548C28.6064 76.4548 28.4842 76.4625 28.3544 76.493C27.2012 76.6994 26.0252 76.9134 24.8874 77.1197L24.0932 77.2649C23.383 77.3948 22.6651 77.5248 21.9549 77.6547C20.1298 77.991 18.236 78.3349 16.3803 78.6635C15.7846 78.7705 15.3341 79.0303 14.9828 79.4965C14.517 80.1003 14.0129 80.704 13.5166 81.2772C13.402 81.4071 13.2951 81.5371 13.1806 81.667C13.0889 81.6058 13.0049 81.56 12.9362 81.5141C12.9056 81.4988 12.8827 81.4836 12.8522 81.4606C12.8522 81.4377 12.8598 81.4071 12.8598 81.3842C12.8675 81.2849 12.8827 81.1702 12.8904 81.0174C13.0126 79.2443 13.1347 77.4483 13.2646 75.7059C13.318 74.9951 13.3638 74.2767 13.4173 73.566C13.4173 73.5354 13.4249 73.4972 13.4249 73.4666C13.4249 73.459 13.4249 73.4437 13.4249 73.4361C15.3799 73.3291 17.3348 73.2221 19.2822 73.1151L20.6491 73.0387V73.0463L21.26 73.0157C21.9091 72.9775 22.5659 72.9469 23.215 72.9087C24.895 72.8247 26.6361 72.733 28.3467 72.6183C28.4307 72.6107 28.5147 72.6107 28.5911 72.6107C29.0798 72.6107 29.454 72.7253 29.8282 72.9852C30.8133 73.673 31.8595 74.2997 32.8676 74.9111L32.8828 74.9187C32.9134 74.934 32.9287 74.9493 32.9363 74.9569C32.9363 74.9722 32.9363 75.0028 32.9287 75.0639Z" fill="white"/>
<path d="M97.7095 25.2812C97.7324 25.1818 97.6942 25.136 97.6178 25.136C97.6026 25.136 97.5873 25.136 97.572 25.1436C97.5186 25.1895 97.4575 25.2353 97.4116 25.2812C91.6079 30.9442 85.8118 36.6072 80.0004 42.255C79.7408 42.5072 79.7102 42.7365 79.8018 43.0651C80.8557 47.1767 81.9019 51.2883 82.9481 55.3923C82.9863 55.5375 82.9939 55.7057 83.1848 55.8509C83.3223 55.5605 83.4597 55.293 83.5896 55.0178C87.2551 47.3066 90.9282 39.5954 94.5938 31.8842C95.6323 29.6832 96.6709 27.4822 97.7095 25.2812ZM85.1856 50.2337L83.2841 54.2383C83.0703 53.39 82.8565 52.5493 82.635 51.701C81.9019 48.8198 81.1459 45.8393 80.3899 42.9122C80.3669 42.8129 80.367 42.7747 80.367 42.767C80.367 42.7594 80.3822 42.7365 80.428 42.6983C85.1321 38.1204 89.905 33.4662 94.5174 28.9572L95.9683 27.5433C95.3345 28.8884 94.6778 30.2717 94.0363 31.6244C91.0886 37.83 88.0875 44.135 85.1856 50.2337Z" fill="white"/>
<path d="M39.1828 75.0792C37.7471 73.1304 36.3267 71.1816 34.8987 69.2251C33.6387 67.5055 32.3787 65.7936 31.1339 64.0665C30.8743 63.7073 30.7673 63.5544 30.5917 63.5544C30.4619 63.5544 30.2939 63.6385 30.0037 63.7837C29.9579 63.8066 29.9044 63.8295 29.8586 63.8601C27.476 65.1058 25.101 66.3515 22.7108 67.5896C21.0155 68.4685 19.2973 69.3168 17.6096 70.211C16.5405 70.7765 15.4637 71.3268 14.387 71.877C14.2877 71.9305 14.1273 71.9458 14.1426 72.1139C14.2037 72.1751 14.2801 72.1827 14.3488 72.1827C14.3794 72.1827 14.4099 72.1827 14.4404 72.1827C14.4481 72.1827 14.4481 72.1827 14.4557 72.1827C14.471 72.1827 14.4863 72.1827 14.4939 72.1827C14.9368 72.1827 15.3645 72.0757 15.8074 72.0757C15.8379 72.0757 15.8761 72.0757 15.9067 72.0757C16.0365 72.0834 16.1587 72.0834 16.2885 72.0834C17.0827 72.0834 17.8692 71.9993 18.6558 71.9382C20.3588 71.8159 22.0693 71.7777 23.7799 71.663C24.8032 71.5943 25.8341 71.5484 26.8574 71.5025C27.6287 71.4643 28.4077 71.4873 29.1713 71.3573C29.2095 71.3497 29.2477 71.3497 29.2782 71.3497C29.4615 71.3497 29.6142 71.4338 29.7746 71.5331C31.111 72.3891 32.4474 73.245 33.7991 74.078C34.1045 74.2691 34.1885 74.4831 34.1427 74.8346C33.9289 76.5007 33.7532 78.1667 33.5547 79.8328C33.3943 81.1931 33.2034 82.5535 33.0659 83.9138C33.0201 84.3877 32.8827 84.8615 32.959 85.3965C33.3561 85.3048 33.547 85.0449 33.7838 84.8615C35.1813 83.7763 36.5635 82.6834 37.961 81.5982C38.3199 81.3231 38.5337 80.9944 38.6177 80.5282C38.8697 79.122 39.1446 77.7235 39.4501 76.3326C39.557 75.8587 39.473 75.469 39.1828 75.0792ZM38.8544 76.2103C38.5337 77.67 38.2511 79.0838 38.0144 80.4289C37.961 80.727 37.8388 80.9257 37.5868 81.1167C36.93 81.6288 36.2656 82.1484 35.6165 82.6528C34.9674 83.1572 34.3031 83.6846 33.6463 84.1966C33.654 84.1278 33.6616 84.0514 33.6692 83.9826C33.7609 83.119 33.8678 82.2478 33.9747 81.3995C34.0358 80.9104 34.0969 80.406 34.158 79.9092C34.2267 79.3131 34.2954 78.7017 34.3642 78.1132C34.4863 77.0662 34.6085 75.981 34.746 74.9187C34.8223 74.315 34.6162 73.8717 34.1198 73.566C32.9819 72.8552 31.8288 72.1216 30.7139 71.4108L30.103 71.0211C29.8891 70.8835 29.6219 70.7459 29.2782 70.7459C29.2095 70.7459 29.1408 70.7536 29.072 70.7612C28.5604 70.8453 28.0411 70.8606 27.4913 70.8759C27.2775 70.8835 27.0484 70.8835 26.8269 70.8988C26.636 70.9064 26.4451 70.9141 26.2542 70.9217C25.4294 70.9599 24.5741 70.9981 23.7341 71.0593C22.9094 71.1128 22.0693 71.151 21.2599 71.1892C20.3893 71.2274 19.4958 71.2733 18.61 71.3344C18.3962 71.3497 18.1747 71.365 17.9685 71.3879C17.4874 71.4261 16.9987 71.4643 16.5176 71.4796C16.9758 71.2427 17.434 71.0058 17.8922 70.7612C18.8696 70.2415 19.8777 69.7295 20.8551 69.2327C21.5577 68.8735 22.2832 68.5067 22.9934 68.1399C24.6505 67.2763 26.3382 66.3974 27.9647 65.5414C28.6902 65.1593 29.4157 64.7848 30.1335 64.4027C30.1641 64.3874 30.2022 64.3722 30.2328 64.3492L30.271 64.3339C30.3397 64.2957 30.4237 64.2575 30.4848 64.227C30.523 64.2804 30.5688 64.3339 30.607 64.3951L30.6299 64.4257C31.5157 65.6408 32.4168 66.8712 33.2874 68.0634C33.6616 68.5678 34.0281 69.0722 34.4023 69.5843C34.7842 70.104 35.166 70.6313 35.5478 71.151C36.5711 72.5572 37.6326 74.0093 38.6864 75.4307C38.8773 75.6982 38.9232 75.9046 38.8544 76.2103Z" fill="white"/>
<path d="M49.7442 73.2756C50.2864 73.1457 50.8363 73.054 51.3861 72.947C52.5545 72.7177 53.7229 72.4808 54.8913 72.2515C55.1204 72.2057 55.3418 72.1369 55.4945 71.9229C56.0138 71.1816 56.5407 70.4479 57.0677 69.7219C57.228 69.5003 57.2128 69.3474 56.9684 69.1946C56.3422 68.7971 55.7236 68.3921 55.1051 67.987C51.241 65.4803 47.3922 62.966 43.5128 60.4898C42.5506 59.8784 41.787 59.1524 41.199 58.1512C39.9008 55.9426 38.5033 53.7874 37.1516 51.617C36.7698 51.0056 36.388 50.4018 35.9756 49.7369C35.7999 49.9891 35.861 50.1802 35.8534 50.3483C35.8152 51.2348 35.9527 52.1137 35.945 52.9926C35.9298 54.437 36.113 55.8738 36.0749 57.3182C36.0672 57.5398 36.1283 57.7385 36.2734 57.922C37.396 59.2594 38.5185 60.6045 39.6411 61.9419C40.5575 63.0347 41.4739 64.12 42.3979 65.2052C43.2226 66.1834 44.0474 67.1693 44.8721 68.1475C45.8114 69.2633 46.7584 70.3791 47.7053 71.4949C48.1329 72.007 48.5682 72.519 48.9882 73.0311C49.141 73.2145 49.309 73.3062 49.5228 73.3062C49.5839 73.3062 49.6602 73.2985 49.7442 73.2756ZM49.454 72.6413C49.0493 72.1445 48.6446 71.6707 48.1635 71.0975C47.7129 70.5702 47.27 70.0352 46.8194 69.5079C46.3231 68.9194 45.8267 68.3386 45.3303 67.7501C44.8492 67.1846 44.3605 66.6038 43.8947 66.0382C43.551 65.6255 43.2074 65.2205 42.8561 64.8078C42.4895 64.3722 42.123 63.9366 41.7488 63.5009C41.2066 62.859 40.6491 62.1941 40.0993 61.5445C39.6029 60.9484 39.1066 60.3599 38.6102 59.7638C37.9916 59.0301 37.3578 58.2659 36.7316 57.5169C36.6934 57.4711 36.6705 57.4252 36.6781 57.3258C36.701 56.5234 36.6629 55.7209 36.617 54.9414C36.5789 54.2994 36.5483 53.6269 36.5483 52.9849C36.5483 52.5646 36.5254 52.1443 36.4949 51.7392C36.4949 51.7316 36.4949 51.7163 36.4949 51.7087C36.5407 51.7774 36.5789 51.8462 36.6247 51.915C37.0141 52.5417 37.4189 53.176 37.8007 53.795C38.7553 55.3082 39.7404 56.8749 40.6644 58.4416C41.2677 59.4657 42.0619 60.2758 43.1768 60.9866C46.0253 62.8055 48.9119 64.6855 51.7068 66.4968C52.7301 67.1617 53.7458 67.8189 54.7691 68.4838C54.9753 68.6214 55.1891 68.7589 55.3953 68.8965C55.7313 69.1181 56.0749 69.3398 56.4186 69.5614C55.9069 70.2645 55.4411 70.9217 54.9905 71.5637C54.9753 71.5866 54.9371 71.6096 54.7691 71.6401C53.7611 71.8388 52.7301 72.0452 51.7374 72.2439L51.2715 72.3356C51.1035 72.3662 50.9355 72.3967 50.7752 72.4273C50.3933 72.4961 49.9962 72.5725 49.6068 72.6719C49.561 72.6795 49.5304 72.6871 49.5228 72.6871H49.5151C49.4999 72.6948 49.477 72.6795 49.454 72.6413Z" fill="white"/>
<path d="M49.3091 24.0431C49.4542 25.0977 49.5993 26.1524 49.7444 27.207C49.9888 28.9954 50.2331 30.7837 50.4699 32.572C50.7371 34.5591 50.9968 36.5384 51.2717 38.5255C51.5084 40.2603 51.7452 41.9951 51.9819 43.7223C52.1193 44.7082 52.2492 45.6864 52.379 46.6723C52.4172 46.9627 52.5317 47.1691 52.8066 47.3066C54.4943 48.132 56.1514 49.0032 57.862 49.7751C57.9766 49.8286 58.0606 49.8592 58.114 49.8592C58.2133 49.8592 58.2515 49.7751 58.3049 49.5611C58.3355 49.4389 58.3508 49.3166 58.3737 49.1867C58.5417 48.132 58.702 47.085 58.87 46.0303C59.1373 44.3184 59.4046 42.6065 59.6872 40.9023C59.733 40.6119 59.6795 40.3749 59.5268 40.138C59.0839 39.4349 58.6486 38.7318 58.2133 38.0211C55.3649 33.3974 52.5241 28.7661 49.6757 24.1424C49.5993 24.0125 49.5458 23.8444 49.3702 23.7985C49.2709 23.8673 49.2938 23.959 49.3091 24.0431ZM55.1663 34.2304C56.0063 35.5984 56.8464 36.9664 57.694 38.3344C58.0911 38.9764 58.5493 39.7253 59.0151 40.459C59.0915 40.5813 59.1144 40.673 59.0915 40.8029C58.8624 42.1938 58.6409 43.6077 58.4271 44.9757L58.2744 45.9386C58.1751 46.5653 58.0758 47.192 57.9766 47.8263C57.9155 48.239 57.8467 48.6517 57.7857 49.0644C56.7776 48.5982 55.762 48.0938 54.7845 47.6047C54.227 47.3219 53.6543 47.0391 53.0815 46.7564C53.0205 46.7258 53.0052 46.7182 52.9899 46.5959C52.8677 45.6635 52.7379 44.6929 52.5928 43.6459C52.4935 42.8969 52.3866 42.148 52.2797 41.3914C52.1499 40.4284 52.0124 39.4273 51.875 38.4414C51.7146 37.2568 51.5542 36.057 51.4015 34.8953C51.2946 34.0929 51.1877 33.2904 51.0808 32.488C50.8059 30.4474 50.5768 28.7432 50.3553 27.123C50.3095 26.8096 50.2713 26.4963 50.2255 26.1906C51.875 28.8807 53.5474 31.5938 55.1663 34.2304Z" fill="white"/>
<path d="M17.0216 87.437C16.7009 85.7328 16.403 84.0285 16.0899 82.3242C15.983 81.7587 15.9372 81.1855 15.7387 80.6123C15.5172 80.6735 15.4485 80.811 15.3568 80.918C14.8146 81.5676 14.2724 82.2249 13.7302 82.8745C13.5852 83.0503 13.4935 83.1267 13.379 83.1267C13.295 83.1267 13.1881 83.0808 13.043 82.9968C12.7451 82.821 12.4549 82.6376 12.1724 82.4465C12.012 82.3319 11.8517 82.2784 11.676 82.2784C11.592 82.2784 11.5004 82.2937 11.4011 82.3242C10.5458 82.5994 9.68288 82.8745 8.81996 83.1267C8.55268 83.2108 8.44577 83.3636 8.4534 83.6387C8.47631 84.4488 8.41522 85.2742 8.50686 86.0767C8.59086 86.7874 8.33885 87.1619 7.75084 87.5058C6.23881 88.3923 4.76496 89.3323 3.27583 90.2571C2.86346 90.5169 2.86346 90.5398 3.13838 90.9143C3.17656 90.9755 3.22238 91.029 3.2682 91.0901C4.50532 92.7103 5.74243 94.3305 6.97192 95.9583C7.12465 96.157 7.30029 96.2793 7.52938 96.3481C8.37704 96.6079 9.21706 96.8754 10.0647 97.1276C10.2633 97.1887 10.3854 97.227 10.4847 97.227C10.6527 97.227 10.7367 97.1123 10.9505 96.8066C12.9055 93.9866 14.8528 91.1665 16.8154 88.3541C17.0292 88.056 17.0827 87.7886 17.0216 87.437ZM16.3267 87.9949C15.0055 89.8902 13.6615 91.8238 12.3709 93.6885C11.7371 94.6056 11.0956 95.5303 10.4618 96.4474C10.4389 96.4856 10.4084 96.5315 10.3778 96.5697C10.3396 96.5544 10.2938 96.5468 10.2556 96.5315C9.82034 96.4016 9.37742 96.264 8.94214 96.1265C8.54504 96.0042 8.12503 95.8742 7.7203 95.752C7.60575 95.7214 7.54466 95.6679 7.46829 95.5762C6.53663 94.3458 5.58207 93.0924 4.65805 91.8849C4.36022 91.4951 4.0624 91.0977 3.75694 90.708C3.7493 90.7003 3.74166 90.6927 3.74166 90.685C4.05476 90.494 4.36022 90.2953 4.67332 90.1042C5.78062 89.4088 6.9261 88.698 8.07158 88.0255C8.91159 87.5364 9.23233 86.9097 9.12542 85.9926C9.06433 85.5035 9.07196 84.9991 9.07196 84.4641C9.07196 84.2119 9.0796 83.9444 9.07196 83.6846C9.81271 83.463 10.6222 83.2108 11.5997 82.8974C11.6302 82.8898 11.6607 82.8821 11.6837 82.8821C11.6989 82.8821 11.7447 82.8821 11.8287 82.9433C12.1113 83.142 12.4091 83.3254 12.7375 83.5165C12.9131 83.6234 13.127 83.7304 13.379 83.7304C13.8066 83.7304 14.0586 83.4247 14.2037 83.2566C14.5092 82.8974 14.8146 82.5306 15.1048 82.1714C15.2041 82.0567 15.2957 81.9421 15.395 81.8275C15.4026 81.8657 15.4026 81.8963 15.4103 81.9345C15.4332 82.095 15.4637 82.2631 15.4943 82.4312C15.6394 83.2031 15.7845 83.9979 15.9143 84.7622C16.0747 85.6716 16.2503 86.6193 16.4259 87.544C16.4565 87.7351 16.4336 87.8421 16.3267 87.9949Z" fill="white"/>
<path d="M98.9008 31.5479C98.8626 29.3851 98.7939 27.2147 98.771 25.0519C98.771 24.9678 98.7862 24.8685 98.6946 24.7997C98.5342 24.8455 98.5113 25.006 98.4579 25.1283C97.908 26.267 97.3506 27.3981 96.8084 28.5445C95.6018 31.0894 94.4029 33.6343 93.1963 36.1793C92.5625 37.5167 91.9286 38.8541 91.2948 40.1915C89.8286 43.2714 88.37 46.3513 86.8962 49.4312C85.9645 51.3877 85.0176 53.3365 84.0859 55.293C84.0478 55.3694 83.9943 55.4458 84.0401 55.6216C84.147 55.5299 84.2158 55.4764 84.2769 55.4152C84.9489 54.8115 85.5063 54.0931 86.1325 53.4511C87.6216 51.9303 89.1566 50.4477 90.6075 48.8963C92.3028 47.0774 94.1356 45.3807 95.8309 43.5542C96.6633 42.6524 97.5415 41.7888 98.435 40.9481C98.855 40.5507 99.0077 40.138 99.0001 39.5649C98.9695 36.89 98.9542 34.2228 98.9008 31.5479ZM98.0226 40.4972C96.9916 41.4755 96.1516 42.3085 95.388 43.1339C94.5251 44.0739 93.601 44.991 92.7076 45.8775C91.8675 46.7182 90.997 47.5818 90.1646 48.4759C89.21 49.5 88.202 50.5088 87.2245 51.487C86.8274 51.8844 86.4151 52.2971 86.0103 52.7098C86.4914 51.7163 86.9725 50.7075 87.4536 49.7064C88.6755 47.1461 89.9126 44.5477 91.1115 42.0257L91.8523 40.459C92.4097 39.2821 93.0207 38.0058 93.7538 36.4467C94.189 35.5296 94.6243 34.6049 95.0596 33.6878C95.8156 32.0906 96.5946 30.4322 97.3658 28.812C97.6408 28.2388 97.9157 27.6579 98.1906 27.0848C98.2059 27.7955 98.2211 28.5063 98.2364 29.2017C98.2517 29.9736 98.2746 30.7761 98.2899 31.5632C98.3204 33.3516 98.3433 35.1705 98.3586 36.9282C98.3662 37.7918 98.3739 38.6936 98.3891 39.5725C98.3968 39.9928 98.2975 40.2374 98.0226 40.4972Z" fill="white"/>
<path d="M58.0605 68.117C58.1598 68.117 58.2514 68.0176 58.3965 67.8266C59.0074 67.0012 59.6031 66.1605 60.2064 65.3275C60.6187 64.7314 61.0158 64.1276 61.4435 63.5468C61.6344 63.287 61.6649 63.0501 61.5886 62.7444C60.55 58.8544 59.5114 54.9644 58.4881 51.0744C58.4118 50.7839 58.2667 50.6235 57.9994 50.4935C52.6233 47.8569 47.2472 45.2126 41.8711 42.576C41.4358 42.362 41.0005 42.041 40.5499 41.9875C40.5194 41.9875 40.4812 41.9799 40.4507 41.9799C40.0077 41.9799 39.5648 42.2856 39.1295 42.446C37.6862 42.9657 36.2506 43.4931 34.8073 44.0204C34.792 44.0204 34.7691 44.0204 34.7538 44.028C33.6847 44.4178 33.0967 45.3807 32.3178 46.1144C32.2032 46.2214 32.2643 46.3513 32.3941 46.4278C32.4705 46.4736 32.5545 46.5118 32.6385 46.55C33.7992 47.0392 34.9676 47.5206 36.1284 48.0174C38.7172 49.1103 41.3136 50.2031 43.9024 51.296C44.1086 51.3801 44.2689 51.51 44.4064 51.6858C45.2311 52.6869 46.0635 53.6804 46.8883 54.6816C48.7592 56.9667 50.6225 59.2594 52.524 61.5292C54.2728 63.6156 55.9834 65.7326 57.7169 67.8342C57.8619 68.0253 57.9612 68.117 58.0605 68.117ZM52.9822 61.1395C51.4854 59.3588 49.9887 57.5246 48.5377 55.7515C48.1406 55.2701 47.7435 54.7809 47.3541 54.2995C46.9188 53.7645 46.4682 53.2295 46.033 52.7022C45.6511 52.2437 45.254 51.7698 44.8722 51.296C44.6584 51.0361 44.414 50.8527 44.1315 50.7305C42.7187 50.1343 41.306 49.5382 39.8932 48.9421C38.7172 48.4454 37.5335 47.9486 36.3575 47.4518C35.6702 47.1614 34.9676 46.871 34.288 46.5882C33.9138 46.4354 33.5396 46.2749 33.1654 46.1221C33.2418 46.038 33.3258 45.9539 33.4021 45.8622C33.868 45.3502 34.3033 44.8687 34.8913 44.6318L34.9371 44.6241L35.0134 44.5936C35.4182 44.4484 35.8229 44.2955 36.22 44.1503C37.2357 43.7758 38.2895 43.3937 39.3281 43.0192C39.4961 42.9581 39.6565 42.8817 39.8092 42.8129C40.0536 42.6982 40.2827 42.5913 40.443 42.5913C40.4583 42.5913 40.4659 42.5913 40.4812 42.5913C40.6874 42.6142 40.9394 42.7594 41.2067 42.9046C41.3365 42.9734 41.4663 43.0498 41.6038 43.1186C43.1387 43.8675 44.666 44.6241 46.201 45.3731C49.981 47.2302 53.891 49.1485 57.7321 51.0361C57.8619 51.0973 57.8772 51.1279 57.9001 51.2196C58.9311 55.1325 59.9696 59.0607 61.0006 62.8896C61.0387 63.0348 61.0235 63.073 60.9547 63.1723C60.6416 63.5927 60.3515 64.0283 60.0613 64.4486C59.9467 64.6168 59.8322 64.7849 59.71 64.9607C59.5343 65.1976 59.3663 65.4421 59.1907 65.6791C58.8165 66.1987 58.4347 66.7337 58.0452 67.2534C57.5565 66.6649 57.0677 66.0688 56.5943 65.488C55.4183 64.0742 54.1964 62.5839 52.9822 61.1395Z" fill="white"/>
<path d="M41.4052 41.7047C42.8714 42.4078 44.3299 43.1186 45.7809 43.837C47.2395 44.5554 48.6828 45.289 50.1413 46.0074C50.2864 46.0762 50.4544 46.2367 50.6148 46.2367C50.6683 46.2367 50.7217 46.2138 50.7675 46.1679C50.9432 45.9921 50.7217 45.7323 50.6224 45.5336C49.9733 44.1809 49.3166 42.8358 48.6675 41.4908C48.2017 40.5354 47.7511 39.5725 47.2929 38.6096C46.2238 36.3627 45.1471 34.1158 44.0779 31.8689C43.9405 31.5785 43.7419 31.3645 43.4441 31.2346C42.9325 31.0053 42.4285 30.7684 41.9244 30.5239C39.2669 29.217 36.6171 27.9102 33.9596 26.6033C33.8374 26.5422 33.7228 26.4428 33.5701 26.4428C33.5319 26.4428 33.4861 26.4505 33.4479 26.4657C33.4174 26.6797 33.5472 26.8402 33.6388 27.0083C35.9451 31.632 38.2513 36.248 40.5499 40.8717C40.7408 41.2538 41.0157 41.5213 41.4052 41.7047ZM34.6163 27.6045C35.7312 28.1547 36.8538 28.705 37.9458 29.2476C39.1829 29.859 40.4201 30.4627 41.6495 31.0741C42.1306 31.311 42.6117 31.5327 43.1845 31.7925C43.3372 31.8613 43.4365 31.9606 43.5205 32.1288C44.4063 34.0012 45.3151 35.8965 46.1933 37.7383L46.7355 38.877L46.9951 39.4197C47.3616 40.1839 47.7358 40.9787 48.1177 41.7582C48.3849 42.3161 48.6599 42.874 48.9271 43.4396C49.1944 43.9975 49.477 44.5707 49.7519 45.1438C49.2173 44.8763 48.6751 44.6089 48.1558 44.349C47.4686 44.0051 46.7584 43.6459 46.0482 43.302C44.7423 42.6524 43.1921 41.8958 41.6648 41.1621C41.3899 41.0322 41.2219 40.8641 41.0844 40.5966C39.5724 37.5549 38.0298 34.4597 36.5407 31.4715C35.9069 30.18 35.2654 28.8884 34.6163 27.6045Z" fill="white"/>
<path d="M77.3199 35.7207C77.2817 35.5678 77.2206 35.415 77.1366 35.1552C77.0679 35.3921 77.0297 35.5143 77.0068 35.6366C76.3958 38.8617 75.7849 42.0945 75.1816 45.3196C75.1358 45.5871 75.0671 45.8469 75.09 46.122C75.2351 47.7804 75.3649 49.4312 75.5024 51.0896C75.7926 54.544 76.0751 57.9983 76.3653 61.4527C76.4798 62.7825 76.5868 64.1123 76.7089 65.4879C76.9457 65.4115 76.9991 65.2434 77.0831 65.1134C78.8624 62.5226 80.6265 59.9242 82.4134 57.3411C82.6425 57.0048 82.6654 56.7068 82.5738 56.3399C80.825 49.4694 79.0763 42.5912 77.3199 35.7207ZM81.9247 56.9972C80.6876 58.7779 79.4428 60.6044 78.2439 62.3622C77.8926 62.8742 77.549 63.3786 77.1977 63.8906C77.1289 63.0576 77.0602 62.2322 76.9915 61.4069C76.7013 57.9525 76.4111 54.4981 76.1286 51.0437C76.0827 50.5241 76.0446 49.9967 75.9987 49.477C75.9071 48.3613 75.8078 47.2072 75.7162 46.0762C75.7009 45.931 75.7391 45.7628 75.7773 45.5718C75.7849 45.5259 75.7926 45.4801 75.8002 45.4418C76.2813 42.8663 76.7624 40.3138 77.2359 37.8071C77.5642 39.0834 77.885 40.3596 78.2133 41.6436C79.4581 46.5118 80.741 51.5481 82.0087 56.4928C82.0545 56.7221 82.0392 56.829 81.9247 56.9972Z" fill="white"/>
<path d="M58.4653 69.4849C59.3817 70.0887 60.321 70.6695 61.2298 71.2962C61.413 71.4185 61.5658 71.4873 61.7261 71.4873C61.8712 71.4873 62.0163 71.4338 62.192 71.3268C64.7197 69.7601 67.2626 68.201 69.8209 66.6725C70.2791 66.3974 70.5082 66.0764 70.5998 65.5491C71.226 62.1406 71.8827 58.7397 72.5319 55.3312C72.9442 53.1531 73.3566 50.9673 73.7613 48.7816C73.7995 48.6211 73.937 48.4377 73.6621 48.3536C73.5781 48.4912 73.4941 48.6364 73.4177 48.774C71.2107 52.7098 69.0038 56.6457 66.8121 60.5968C66.6212 60.9331 66.4226 61.0859 66.079 61.0859C66.0255 61.0859 65.9721 61.0859 65.911 61.0783C65.0175 60.9789 64.1087 60.9407 63.2076 60.8872C63.1313 60.8796 63.0625 60.8796 63.0091 60.8796C62.7876 60.8796 62.7647 60.9407 62.7036 61.2617C62.5891 61.8119 62.4745 62.3546 62.3829 62.9125C62.3371 63.2029 62.2225 63.4551 62.0545 63.6996C60.8174 65.4345 59.5879 67.1769 58.3584 68.9118C58.1217 69.248 58.1217 69.2557 58.4653 69.4849ZM62.5509 64.0512C62.78 63.7302 62.9251 63.3939 62.9862 63.0118C63.0702 62.5151 63.1771 62.003 63.2764 61.5063C63.452 61.5139 63.62 61.5292 63.7956 61.5368C64.4677 61.575 65.1626 61.6132 65.8346 61.6897C65.9186 61.6973 65.995 61.705 66.0713 61.705C66.8044 61.705 67.1481 61.2464 67.339 60.9025C69.0801 57.7615 70.8671 54.5822 72.5929 51.5023C72.6082 51.4717 72.6311 51.4335 72.6464 51.403C72.4097 52.664 72.1653 53.9555 71.9286 55.2242C71.7377 56.2177 71.5544 57.2112 71.3635 58.2047C70.9129 60.5739 70.4471 63.0347 69.9965 65.4497C69.9354 65.8013 69.8132 65.9694 69.5001 66.1605C67.0717 67.6126 64.5746 69.1334 61.8636 70.8147C61.7643 70.8759 61.7185 70.8835 61.7185 70.8835C61.7185 70.8835 61.6727 70.8759 61.5658 70.7994C60.9549 70.3791 60.3287 69.9741 59.7254 69.5843C59.481 69.4238 59.2214 69.2633 58.977 69.0952C60.1454 67.4368 61.3519 65.7249 62.5509 64.0512Z" fill="white"/>
<path d="M8.98814 69.2022C9.43105 69.5996 9.89688 69.9741 10.3551 70.3486C10.4849 70.4556 10.5765 70.5091 10.6529 70.5091C10.7522 70.5091 10.8285 70.4174 10.9355 70.2263C11.9358 68.4074 12.9362 66.5885 13.9366 64.7696C14.685 63.4092 15.4105 62.0412 16.1588 60.6733C17.3349 58.5181 18.5185 56.3706 19.7022 54.2154C20.4124 52.9162 21.1379 51.6246 21.8481 50.3254C22.4132 49.2937 22.963 48.2619 23.5205 47.2302C23.6656 46.9704 23.7037 46.7029 23.6656 46.3972C23.5586 45.6329 23.4976 44.8534 23.4059 44.0892C23.3448 43.5924 23.5052 43.2409 23.9557 42.9657C24.7729 42.469 25.5518 41.9111 26.346 41.3761C26.4453 41.3073 26.5674 41.2538 26.6209 41.1239C26.6133 40.9558 26.4758 40.9328 26.3689 40.887C25.6892 40.5966 25.0096 40.3062 24.3223 40.0234C23.6885 39.7559 23.0546 39.4961 22.4208 39.2439C22.2146 39.1598 22.0848 39.1063 21.9932 39.1063C21.8481 39.1063 21.8175 39.2362 21.7411 39.5801C21.6877 39.8247 21.619 40.0692 21.5731 40.3214C21.1684 42.3238 20.7637 44.3184 20.3589 46.3208C20.2902 46.6799 20.1833 47.0162 20.0077 47.3372C19.5189 48.239 19.0302 49.1485 18.5414 50.0503C17.6709 51.6705 16.8079 53.2983 15.9374 54.9185C14.769 57.0966 13.593 59.2747 12.4169 61.4451C11.7984 62.5915 11.1722 63.7302 10.5536 64.8689C9.97325 65.9465 9.38524 67.0318 8.8125 68.117C8.49176 68.7207 8.49176 68.7513 8.98814 69.2022ZM9.33178 68.4303C9.89688 67.3527 10.4925 66.2599 11.0576 65.2052L11.0653 65.1899C11.386 64.5938 11.7144 63.9977 12.0275 63.4092C12.3177 62.8666 12.6231 62.3087 12.9209 61.7585C14.1733 59.4505 15.2959 57.3641 16.449 55.2318C16.9607 54.2765 17.48 53.3059 17.984 52.3583C18.3429 51.6934 18.6942 51.0209 19.0531 50.356C19.4502 49.6146 19.9771 48.6364 20.5193 47.6429C20.7026 47.299 20.84 46.9092 20.9317 46.4507C21.3593 44.3261 21.7564 42.362 22.1459 40.4514C22.1764 40.2909 22.2146 40.138 22.2528 39.9699C22.2604 39.9317 22.2681 39.9011 22.2757 39.8629C22.8255 40.0845 23.3906 40.3214 23.9328 40.5431L24.0627 40.5966C24.5285 40.7876 25.0019 40.9863 25.506 41.2003C25.4525 41.2385 25.3914 41.2767 25.338 41.315C24.7805 41.6971 24.2001 42.0945 23.6197 42.446C22.9783 42.8358 22.6881 43.4166 22.7797 44.1656C22.8103 44.4484 22.8408 44.7388 22.8714 45.0215C22.9172 45.503 22.9706 45.9998 23.0394 46.4889C23.0623 46.6723 23.047 46.7946 22.963 46.9398C22.7186 47.3831 22.4743 47.8416 22.2452 48.2772C21.9321 48.858 21.6113 49.4542 21.2906 50.035C20.8859 50.7763 20.4658 51.5253 20.0687 52.2589C19.7633 52.8168 19.4578 53.3671 19.1524 53.925C17.9458 56.1184 16.7698 58.2582 15.609 60.3828C15.2425 61.063 14.8683 61.7508 14.5017 62.4157C14.1352 63.0883 13.761 63.7914 13.3868 64.4715C12.5009 66.0917 11.5616 67.8036 10.5154 69.6913C10.4849 69.6684 10.462 69.6455 10.4314 69.6225C10.0802 69.3321 9.71361 69.0417 9.38524 68.736C9.34705 68.6978 9.28596 68.6443 9.2325 68.5908C9.27069 68.545 9.30887 68.4762 9.33178 68.4303Z" fill="white"/>
<path d="M28.1785 18.3953C28.3999 19.7098 28.6138 21.032 28.8429 22.3465C28.9039 22.7056 29.0261 22.8814 29.217 22.8814C29.3316 22.8814 29.4767 22.8203 29.6447 22.698C33.0811 20.2983 36.5099 17.8986 39.9387 15.4988C40.0533 15.4224 40.206 15.3766 40.2366 15.132C35.6623 12.5947 31.0651 10.0421 26.4144 7.46664C26.3762 7.79527 26.4373 8.0169 26.4755 8.24617C27.0406 11.6241 27.6057 15.0097 28.1785 18.3953ZM36.3648 13.6799L39.2133 15.2619C35.9372 17.5546 32.6458 19.855 29.4232 22.1095C29.2629 21.2077 29.1101 20.2906 28.965 19.4041C28.9039 19.0296 28.8428 18.6628 28.7818 18.2883L28.5298 16.8057C28.0716 14.0621 27.6057 11.3184 27.1475 8.56715L36.3648 13.6799Z" fill="white"/>
<path d="M22.8023 87.9414C22.7642 87.6587 22.6496 87.437 22.4587 87.2307C20.603 85.2131 18.755 83.1878 16.8993 81.1626C16.7924 81.0479 16.716 80.8951 16.4564 80.8492C16.4716 81.0327 16.4793 81.1779 16.5022 81.3154C16.8687 83.356 17.2353 85.4041 17.6171 87.4447C17.7011 87.8879 17.6248 88.2395 17.3651 88.6063C16.5862 89.6916 15.8378 90.7997 15.0742 91.8926C13.8981 93.5816 12.7297 95.2706 11.5537 96.9672C11.1795 97.5098 11.1795 97.5174 11.821 97.7391C12.9817 98.1365 14.1425 98.5262 15.2956 98.9389C15.4254 98.9848 15.54 99.0077 15.6469 99.0077C15.7996 99.0077 15.9447 98.9619 16.1051 98.8702C17.3269 98.1365 18.5641 97.4181 19.7935 96.7073C20.0226 96.5774 20.1983 96.4169 20.3205 96.18C21.2216 94.4146 22.1303 92.6416 23.0314 90.8761C23.1231 90.6927 23.1613 90.5093 23.1307 90.303C23.0238 89.5081 22.9092 88.721 22.8023 87.9414ZM22.5045 90.5857C21.6034 92.3359 20.7099 94.0936 19.7935 95.8896C19.7401 95.9966 19.6484 96.0807 19.5033 96.1647C18.2586 96.8831 17.0367 97.5939 15.8073 98.3352C15.7233 98.3887 15.6851 98.3887 15.6622 98.3887C15.624 98.3887 15.5782 98.381 15.5094 98.3581C14.7 98.0677 13.8752 97.7849 13.0734 97.5098C12.7603 97.4028 12.4472 97.2958 12.1417 97.1888C12.8977 96.0959 13.6538 95.0031 14.4174 93.9102L15.5782 92.2289C15.792 91.9155 16.0135 91.6022 16.2273 91.2888C16.7618 90.517 17.304 89.7221 17.8615 88.9502C18.2204 88.4535 18.335 87.9338 18.2204 87.3148C17.9226 85.7328 17.6324 84.1126 17.3498 82.5459C17.7317 82.9586 18.1059 83.3713 18.4877 83.7839C19.6408 85.045 20.8321 86.3518 22.0158 87.6281C22.1303 87.758 22.1838 87.865 22.2067 88.0102C22.3136 88.7821 22.4281 89.5846 22.5503 90.3794C22.5503 90.4482 22.5503 90.5017 22.5045 90.5857Z" fill="white"/>
<path d="M41.0461 8.49071C43.505 11.0127 46.0022 13.4812 48.4917 15.9726C48.7208 16.2019 48.9346 16.4465 49.1484 16.691C49.4615 17.0579 49.7899 17.4171 50.3015 17.6693C50.2786 17.44 50.271 17.2107 50.2328 16.9814C49.7212 13.7563 49.2095 10.5312 48.6902 7.31378C48.3466 5.15861 48.0029 3.00345 47.6593 0.848286C47.6135 0.557874 47.5753 0.443237 47.4531 0.443237C47.3767 0.443237 47.2698 0.489092 47.1095 0.557874C46.3229 0.92471 45.544 1.29919 44.7651 1.66603C42.5428 2.7054 40.3206 3.74477 38.106 4.78414C37.6936 4.9752 37.686 5.02869 37.9991 5.34967C39.0148 6.38904 40.0228 7.4437 41.0461 8.49071ZM42.3748 3.45435C43.253 3.04166 44.1389 2.62897 45.0171 2.21628C45.376 2.04815 45.7349 1.88001 46.0862 1.71188C46.4222 1.55139 46.7658 1.3909 47.1018 1.23041C47.2927 2.40734 47.476 3.58427 47.6669 4.76121C47.8044 5.64009 47.9495 6.51897 48.0869 7.40549C48.5375 10.2179 49.011 13.1832 49.4768 16.1408C49.2782 15.9115 49.095 15.7204 48.9193 15.537C48.2091 14.8263 47.4837 14.1003 46.7811 13.3972C45.04 11.6547 43.2301 9.85871 41.4814 8.06274C41.0766 7.65004 40.6795 7.23735 40.2748 6.82466C39.7555 6.28969 39.2209 5.7318 38.6864 5.18918C39.9159 4.60836 41.1606 4.01989 42.3748 3.45435Z" fill="white"/>
<path d="M70.8286 28.9725C72.6842 30.287 74.5323 31.6091 76.388 32.9159C76.5331 33.0153 76.6552 33.1605 76.9378 33.1681C77.1363 23.9896 77.312 14.811 77.5105 5.64012C77.4724 5.64012 77.4418 5.63248 77.4036 5.63248C77.3425 5.80061 77.2814 5.96874 77.228 6.13688C74.9981 13.4736 72.7606 20.8103 70.5307 28.1471C70.3856 28.6591 70.3856 28.6591 70.8286 28.9725ZM71.1264 28.3228L72.1039 25.1207C73.677 19.9544 75.2501 14.7805 76.8232 9.60654C76.7469 13.1756 76.6705 16.7446 76.6018 20.2295C76.5254 24.1348 76.4414 28.1624 76.3574 32.1441C74.8148 31.0512 73.257 29.943 71.745 28.8731L71.1875 28.4757C71.1646 28.4604 71.134 28.4375 71.1035 28.4146C71.1111 28.384 71.1188 28.3534 71.1264 28.3228Z" fill="white"/>
<path d="M43.3756 51.7239C41.1075 50.7763 38.8547 49.821 36.5943 48.8657C36.4645 48.8122 36.3423 48.7357 36.1437 48.7357C36.1208 48.7357 36.0903 48.7357 36.0674 48.7434C36.2278 49.0109 36.3576 49.2325 36.4874 49.4389C38.1063 52.0449 39.7329 54.651 41.3595 57.2571C41.7413 57.8684 42.0544 58.5486 42.5355 59.0683C43.0319 59.6109 43.7421 59.9166 44.3607 60.314C48.599 63.0653 52.8449 65.8089 57.0908 68.5526C57.2512 68.6596 57.4039 68.8277 57.6483 68.8277C57.6559 68.8277 57.6635 68.8277 57.6712 68.8277C57.633 68.629 57.5032 68.522 57.4039 68.3997C52.9823 63.0271 48.5608 57.6697 44.1392 52.2971C43.9254 52.0449 43.6887 51.8539 43.3756 51.7239ZM55.0595 66.512C51.5772 64.2652 48.1026 62.0106 44.689 59.7943C44.4905 59.6644 44.2919 59.5498 44.101 59.4428C43.6734 59.1982 43.2686 58.9613 42.9861 58.648C42.6959 58.327 42.4592 57.9219 42.2148 57.494C42.1079 57.3105 41.9933 57.1118 41.8788 56.9208C40.3973 54.5363 38.9082 52.1596 37.5107 49.905C37.6787 49.9738 37.8467 50.0502 38.0147 50.119C39.6947 50.8298 41.4359 51.5634 43.1541 52.2818C43.3603 52.3659 43.5207 52.4882 43.681 52.6869C46.6516 56.2941 49.6681 59.9548 52.5852 63.4933C53.4023 64.5021 54.2347 65.5109 55.0595 66.512Z" fill="white"/>
<path d="M47.2699 21.0396C47.1095 20.8562 46.9492 20.7568 46.7277 20.7568C46.659 20.7568 46.5902 20.7645 46.5139 20.7798C45.8495 20.9326 45.1699 21.0243 44.4902 21.1466C40.0534 21.9414 35.6089 22.7439 31.1721 23.5387C30.943 23.5769 30.7216 23.638 30.5001 23.6839C30.4848 23.7297 30.4696 23.7756 30.4619 23.8214C31.1034 24.28 31.6914 24.8302 32.4016 25.1818C36.174 27.0466 39.9541 28.8807 43.7266 30.7302C43.9022 30.8143 44.0091 30.8678 44.0855 30.8678C44.2 30.8678 44.2458 30.7608 44.368 30.5086C44.8415 29.4921 45.3073 28.4757 45.7731 27.4592C46.5292 25.8238 47.2852 24.1806 48.0412 22.5452C48.255 22.079 48.255 22.0713 47.9037 21.7045C47.6899 21.4752 47.4685 21.2689 47.2699 21.0396ZM47.4914 22.2853C47.0408 23.2712 46.5826 24.2494 46.1244 25.2353C45.819 25.8925 45.5211 26.5422 45.2157 27.1994C45.0553 27.551 44.8873 27.9025 44.7269 28.2541C44.4444 28.8655 44.1542 29.4921 43.8716 30.1112C43.1233 29.7443 42.3749 29.3775 41.6265 29.0183C38.6864 27.5815 35.6471 26.0989 32.6689 24.6315C32.3634 24.4787 32.0732 24.28 31.7754 24.0584C35.9984 23.3018 40.2519 22.5375 44.5971 21.758C44.8033 21.7198 45.0095 21.6892 45.2157 21.651C45.6815 21.5746 46.1702 21.4905 46.6437 21.3835C46.6895 21.3759 46.7124 21.3759 46.7201 21.3759H46.7277C46.7353 21.3835 46.7583 21.3988 46.7964 21.4447C46.9415 21.6128 47.0943 21.7656 47.247 21.9185C47.3234 21.9949 47.3921 22.0637 47.4608 22.1325C47.4837 22.1554 47.5066 22.1783 47.5295 22.2013C47.5219 22.2242 47.5066 22.2548 47.4914 22.2853Z" fill="white"/>
<path d="M54.853 6.35083C55.2043 9.30844 55.5479 12.2661 55.8992 15.2237C55.9985 16.0261 56.0978 16.8286 56.2047 17.6769C56.4338 17.5928 56.4643 17.44 56.5254 17.3177C59.16 12.3807 61.7946 7.44369 64.4292 2.50669C64.4827 2.41498 64.5285 2.31563 64.5743 2.21627C64.6278 2.08635 64.5743 2.00229 64.4445 1.97936C64.2154 1.93351 63.9863 1.89529 63.7496 1.85708C62.4666 1.65074 61.1837 1.45203 59.9007 1.24569C58.1214 0.962917 56.3421 0.680148 54.5552 0.397378C54.4635 0.382093 54.3948 0.374451 54.3414 0.374451C54.1657 0.374451 54.1504 0.46616 54.181 0.756572C54.4101 2.62132 54.6315 4.48607 54.853 6.35083ZM58.5949 1.65838L59.8091 1.84944C61.092 2.05578 62.375 2.25449 63.6579 2.46083C63.6885 2.46847 63.7267 2.46848 63.7572 2.47612C61.3288 7.02336 58.9538 11.4789 56.6018 15.8886C56.5712 15.644 56.5407 15.3995 56.5101 15.1473C56.2734 13.1832 56.0443 11.2267 55.8152 9.26259C55.7007 8.26907 55.5785 7.26792 55.4639 6.2744C55.3952 5.68594 55.3265 5.08983 55.2501 4.50136C55.1126 3.37028 54.9752 2.20863 54.8454 1.05463C56.0978 1.26097 57.3654 1.45967 58.5949 1.65838Z" fill="white"/>
<path d="M62.8866 22.7439C62.6804 23.2024 62.6804 23.2024 63.0699 23.4775C65.1317 24.9372 67.1936 26.4046 69.2555 27.8566C69.37 27.9407 69.4693 28.0706 69.6526 28.0706C69.6831 28.0706 69.7213 28.063 69.7595 28.0553C70.3017 20.0614 70.8515 12.0674 71.3937 4.08105C71.3555 4.07341 71.3097 4.07341 71.2715 4.06577C71.1951 4.22626 71.1188 4.38675 71.0424 4.55488C70.4468 5.86938 69.8587 7.19152 69.2707 8.50601C67.1401 13.252 65.0096 17.9979 62.8866 22.7439ZM70.5766 7.07688L70.0497 14.8263L69.2096 27.0771C67.3311 25.7473 65.4754 24.4328 63.4441 22.9884C65.567 18.2425 67.6976 13.4965 69.8206 8.75821C70.0726 8.19267 70.3322 7.62713 70.5766 7.07688Z" fill="white"/>
<path d="M85.4221 32.8319C84.1391 35.01 82.8486 37.1804 81.558 39.3509C81.3824 39.6413 81.2296 39.947 81.0234 40.3062C81.2602 40.2756 81.3289 40.1533 81.4129 40.0693C82.4438 39.0834 83.4289 38.0593 84.4751 37.0887C85.9719 35.7054 87.3847 34.2305 88.8509 32.8166C91.516 30.2564 94.1277 27.635 96.7623 25.0366C96.8922 24.9067 97.0373 24.8073 97.1671 24.6851C97.442 24.4252 97.7169 24.1654 97.9918 23.8979C98.198 23.6992 98.2286 23.4852 98.0911 23.2177C97.0831 21.2612 96.0827 19.2971 95.0747 17.3407C95.0441 17.2795 95.0059 17.2108 94.9678 17.1496C94.9143 17.0656 94.8608 17.0273 94.7998 17.0273C94.7463 17.0273 94.6852 17.0656 94.6317 17.1496C94.5859 17.226 94.5401 17.3025 94.4943 17.3865C93.3794 19.2666 92.2644 21.139 91.1571 23.019C89.2556 26.29 87.3465 29.5686 85.4221 32.8319ZM93.9826 19.4806C94.2499 19.0297 94.5248 18.5711 94.7921 18.1202C94.9678 18.4565 95.1358 18.7927 95.3114 19.129C96.0445 20.5581 96.8005 22.0408 97.5565 23.4928C97.4954 23.554 97.4344 23.6151 97.3733 23.6686C97.1747 23.8597 96.9762 24.0507 96.77 24.2418C96.7242 24.2877 96.6707 24.3335 96.6096 24.3794C96.5256 24.4481 96.4416 24.5246 96.35 24.6086C95.5329 25.4111 94.7081 26.2288 93.9139 27.016C92.127 28.7814 90.2866 30.6156 88.4385 32.381C87.8276 32.9695 87.2243 33.5732 86.6363 34.154C85.8039 34.9794 84.941 35.8354 84.0704 36.6455C83.9253 36.783 83.7802 36.9206 83.6351 37.0581C84.3988 35.7742 85.1853 34.4521 85.949 33.1452C86.9494 31.4486 87.9574 29.7214 88.9425 28.0477C89.8436 26.504 90.7829 24.9067 91.707 23.34C92.463 22.0484 93.2343 20.7416 93.9826 19.4806Z" fill="white"/>
<path d="M78.9236 39.626C79.0839 40.2679 79.2519 40.9099 79.4429 41.6436C79.9163 41.101 93.7155 17.6234 93.8224 17.2107C93.6544 17.2795 93.5551 17.4094 93.4406 17.5241C88.3318 22.6063 83.2306 27.6809 78.1141 32.7631C77.6024 33.2675 77.465 33.8712 77.6254 34.5438C78.053 36.2404 78.4959 37.9293 78.9236 39.626ZM78.557 33.191C82.0087 29.7596 85.5215 26.267 88.9121 22.889C89.6681 22.1401 90.4242 21.3835 91.1802 20.6345C87.9194 26.2441 81.7949 36.6454 79.6796 40.1227C79.6261 39.9087 79.5727 39.6947 79.5116 39.4808C79.397 39.0299 79.2825 38.579 79.1679 38.1281C78.8548 36.9053 78.5265 35.6366 78.221 34.3909C78.1141 33.9094 78.2134 33.5273 78.557 33.191Z" fill="white"/>
<path d="M30.7752 9.20914C34.6393 11.3567 38.5034 13.5042 42.3751 15.6364C43.0166 15.988 43.597 16.3777 44.0781 16.9356C44.4217 17.333 44.8112 17.677 45.1701 18.0667C45.3915 18.3113 45.6283 18.4259 45.9719 18.4259C47.2014 18.4259 48.4233 18.4641 49.6527 18.4794C49.6986 18.4794 49.752 18.487 49.7978 18.487C49.8513 18.487 49.9124 18.4718 49.9506 18.4106C49.9506 18.2654 49.8284 18.2043 49.7444 18.1202C45.6665 13.9857 41.5809 9.84346 37.503 5.7089C37.3121 5.51784 37.2281 5.43378 37.1135 5.43378C37.0219 5.43378 36.915 5.48727 36.7317 5.57898C34.7004 6.59543 32.6691 7.61187 30.6378 8.63596C30.5156 8.69709 30.3629 8.72766 30.3018 8.87287C30.4087 9.07157 30.6072 9.11743 30.7752 9.20914ZM36.999 6.12924C37.0066 6.1216 37.0219 6.11395 37.0372 6.11395C37.0448 6.1216 37.0601 6.13688 37.0677 6.14452C41.4435 10.5771 45.1395 14.3219 48.6218 17.8527C48.576 17.8527 48.5302 17.8527 48.4843 17.8527C47.6596 17.8374 46.8119 17.8222 45.9719 17.8222C45.8116 17.8222 45.7352 17.7839 45.6206 17.6693C45.4526 17.4859 45.277 17.3101 45.109 17.142C44.9028 16.9433 44.7119 16.7446 44.5363 16.5459C43.9406 15.8581 43.2228 15.4224 42.6653 15.1091C39.1983 13.1985 35.6779 11.242 32.272 9.3467L31.4701 8.90344C33.1655 8.04749 34.9753 7.13804 36.999 6.12924Z" fill="white"/>
<path d="M78.7861 28.3075C78.6334 29.0259 78.473 29.7443 78.3203 30.4627C78.3509 30.4703 78.3814 30.4856 78.412 30.4933C78.4501 30.4321 78.496 30.3786 78.5265 30.3175C79.9469 27.6197 81.3673 24.9219 82.7877 22.2242C83.727 20.4358 84.6357 18.6322 85.5979 16.8515C86.0408 16.0262 86.4609 15.1855 86.8961 14.3525C87.5834 13.0609 88.2631 11.7693 88.9275 10.4701C89.126 10.088 89.1031 10.0574 88.7747 9.78994C88.706 9.73644 88.6296 9.68295 88.5533 9.62945C87.1023 8.61301 85.6743 7.57364 84.1775 6.63362C83.8721 6.44256 83.7117 6.30499 83.6048 6.30499C83.475 6.30499 83.4215 6.49605 83.3146 7.0081C82.887 9.01805 82.467 11.0357 82.0393 13.0456C80.9626 18.1431 79.8782 23.2253 78.7861 28.3075ZM83.2535 10.3249C83.4673 9.30082 83.6888 8.23088 83.9179 7.19151C85.0863 7.93283 86.2394 8.74293 87.3543 9.5301C87.6445 9.73644 87.9271 9.93514 88.2173 10.1415L88.2249 10.1491C88.2784 10.1873 88.3242 10.2179 88.37 10.2485C87.6445 11.647 86.9878 12.9004 86.3616 14.0773C86.1554 14.4595 85.9568 14.8492 85.7659 15.2313C85.5368 15.6746 85.3077 16.1332 85.0634 16.5688C84.4524 17.6999 83.8492 18.8691 83.2688 19.9926C82.9328 20.6345 82.5891 21.2994 82.2531 21.949C81.4284 23.5234 80.5884 25.1206 79.7636 26.6873L80.1531 24.8684C80.9702 21.0396 81.8178 17.0808 82.6502 13.1832C82.8488 12.2355 83.055 11.2649 83.2535 10.3249Z" fill="white"/>
<path d="M79.3051 30.7608C79.9847 30.0882 80.6644 29.4081 81.3364 28.7355C85.5213 24.5704 89.7061 20.4053 93.891 16.2478C94.311 15.8275 94.3415 15.8886 93.9139 15.3919C92.6233 13.8863 91.3327 12.3731 90.0345 10.8675C89.9199 10.7376 89.8436 10.5618 89.645 10.516C89.2708 11.0204 78.9844 30.6614 78.8774 31.0817C79.0836 31.0435 79.1829 30.883 79.3051 30.7608ZM89.7901 11.5171C90.4163 12.2432 91.0425 12.9768 91.6534 13.6952C92.2567 14.3983 92.8524 15.0938 93.4557 15.7969L93.4709 15.8122C93.4709 15.8122 93.4709 15.8122 93.4633 15.8198C91.4091 17.8604 89.3625 19.9009 87.3082 21.9414C85.2234 24.0201 83.131 26.0912 81.0462 28.17C83.5816 23.2483 88.4079 14.0544 89.7901 11.5171Z" fill="white"/>
<path d="M20.4505 61.2541C25.2462 60.1306 30.0419 59.0148 34.83 57.8914C35.5632 57.7156 35.5097 57.8379 35.4868 57.0584C35.4028 54.4217 35.3035 51.7927 35.2042 49.1561C35.1966 49.0415 35.2577 48.8963 35.0591 48.8122C30.019 52.9544 24.956 57.1042 19.8472 61.2999C19.9312 61.3228 19.9999 61.3305 20.0686 61.3305C20.2137 61.3305 20.3359 61.2846 20.4505 61.2541ZM34.6239 49.9509C34.7079 52.2971 34.7995 54.7045 34.8759 57.0737C34.8759 57.1348 34.8835 57.1883 34.8835 57.2418V57.2494C34.83 57.2647 34.7613 57.2724 34.6926 57.2953C30.2023 58.3499 25.7502 59.3893 22.0923 60.2453L34.6239 49.9509Z" fill="white"/>
<path d="M17.3958 4.08867C18.2358 7.67297 19.0835 11.2496 19.9159 14.8339C20.0075 15.2313 20.2671 15.4912 20.5573 15.7357C22.665 17.4858 24.7651 19.236 26.8727 20.9861C27.1247 21.2001 27.392 21.3988 27.6593 21.6127C27.7433 21.4523 27.6669 21.3605 27.6288 21.2612C27.3233 20.4511 27.0178 19.641 26.7047 18.8309C24.9483 14.2072 23.1919 9.59121 21.4432 4.96755C21.3363 4.67714 21.1683 4.47843 20.901 4.33323C20.206 3.95875 19.5111 3.56134 18.8238 3.17158C18.6864 3.09515 18.5566 2.98816 18.4038 2.98816C18.3656 2.98816 18.3198 2.9958 18.274 3.01873C17.9762 3.14865 17.6478 3.20979 17.4187 3.46199C17.3423 3.54606 17.3194 3.65305 17.3271 3.76769C17.35 3.87468 17.3729 3.98167 17.3958 4.08867ZM18.274 3.68362C18.3198 3.66834 18.3656 3.65305 18.4115 3.63012C18.4191 3.63777 18.4267 3.63777 18.4267 3.63777C18.4573 3.66069 18.4955 3.68362 18.5413 3.70655L18.8391 3.87468C19.4271 4.2033 20.0304 4.54721 20.6337 4.87584C20.7635 4.94462 20.8322 5.02869 20.8933 5.18918C22.3366 8.99511 23.8029 12.8622 25.2232 16.5993L26.1549 19.0525C26.2389 19.2665 26.3229 19.4882 26.3993 19.7021C26.4145 19.748 26.4298 19.7862 26.4451 19.8321C24.704 18.3876 22.9552 16.9279 21.2523 15.5141L20.9544 15.2619C20.6719 15.025 20.5573 14.8798 20.5115 14.6887C19.9311 12.1973 19.3355 9.66 18.7551 7.21442C18.4955 6.12155 18.2435 5.03633 17.9838 3.94346C17.9762 3.89761 17.9609 3.85175 17.9609 3.81354C18.0449 3.76769 18.1518 3.72183 18.274 3.68362Z" fill="white"/>
<path d="M4.53613 81.5523C4.6354 81.1549 4.74995 80.9792 4.95614 80.9792C5.07832 80.9792 5.23869 81.0403 5.46015 81.1549C5.60524 81.2314 5.7427 81.3154 5.8878 81.3919C6.50635 81.7587 7.13255 82.1179 7.75111 82.4924C7.91148 82.5917 8.06421 82.6452 8.23221 82.6452C8.32385 82.6452 8.41549 82.6299 8.51476 82.5994C9.33951 82.3319 10.1719 82.0873 10.9966 81.8275C11.6534 81.6211 11.661 81.5906 11.6992 80.8722C11.7679 79.6647 11.8519 78.4572 11.9359 77.2573C12.0352 75.9122 12.1345 74.5595 12.249 73.0693C12.3788 72.6031 12.1268 72.198 11.5923 71.9382C11.4777 71.8847 11.3861 71.793 11.2792 71.7242C11.0654 71.5713 10.9355 71.4873 10.8286 71.4873C10.6988 71.4873 10.6072 71.6019 10.4315 71.8618C9.0035 73.9252 7.58311 75.9887 6.15507 78.0521C4.6965 80.1614 3.23792 82.2631 1.77934 84.3724C1.25242 85.129 0.740773 85.8932 0.213852 86.6498C0.0840307 86.8409 0.00766541 87.0243 0.175669 87.2383C0.794228 88.0408 1.39751 88.8432 2.01607 89.6457C2.07717 89.7297 2.15353 89.8444 2.26044 89.8444C2.27572 89.8444 2.29099 89.8444 2.3139 89.8367C2.45136 89.7985 2.45899 89.638 2.48954 89.5234C2.74918 88.5299 3.00119 87.5287 3.26083 86.5352C3.68847 84.8768 4.10848 83.2184 4.53613 81.5523ZM6.66672 78.4037C7.45329 77.2649 8.24748 76.1109 9.01877 74.9951C9.65261 74.0704 10.2941 73.1457 10.9279 72.2209C10.9508 72.2362 10.9814 72.2592 11.0043 72.2744C11.0883 72.3356 11.1952 72.4197 11.325 72.4808C11.7297 72.6795 11.6839 72.84 11.661 72.9011L11.6457 72.9623L11.6381 73.0234C11.5999 73.4819 11.5694 73.9328 11.5388 74.3685C11.4625 75.3543 11.3937 76.2791 11.325 77.2114C11.241 78.4342 11.157 79.6265 11.0806 80.834C11.073 80.9409 11.0654 81.0709 11.0577 81.1549C10.9814 81.1855 10.8592 81.2237 10.8057 81.239C10.4926 81.3384 10.1643 81.4377 9.85116 81.5294C9.34715 81.6823 8.82786 81.8428 8.31621 82.0032C8.27803 82.0185 8.24748 82.0185 8.21694 82.0185C8.20166 82.0185 8.15585 82.0185 8.05657 81.9574C7.59838 81.6746 7.12491 81.3995 6.66672 81.132C6.50636 81.0403 6.34599 80.941 6.18562 80.8492L6.17035 80.8416C6.03289 80.7575 5.8878 80.6735 5.72743 80.597C5.5747 80.5206 5.42197 80.4442 5.25396 80.3983C5.73507 79.7487 6.20089 79.0686 6.66672 78.4037ZM2.66518 86.39C2.46663 87.1695 2.26808 87.9491 2.06953 88.7133C1.87862 88.4611 1.68007 88.2089 1.49679 87.9567C1.24478 87.6281 0.992778 87.2994 0.740773 86.9708C0.992778 86.6116 1.24478 86.2448 1.48915 85.8856C1.7488 85.5035 2.02371 85.1061 2.29099 84.724C2.71863 84.1049 3.14628 83.4935 3.57393 82.8745C3.41356 83.5088 3.24556 84.1431 3.09282 84.7622C2.94773 85.3048 2.80264 85.8474 2.66518 86.39Z" fill="white"/>
<path d="M77.7017 30.5086C77.7551 30.2717 77.8162 30.0347 77.8697 29.7902C79.1144 23.9514 80.3592 18.1126 81.6039 12.2737C82.0316 10.2791 82.4592 8.28439 82.8793 6.29736C82.9633 5.89231 82.9632 5.87703 82.5661 5.78532C81.2145 5.4567 79.8705 5.13571 78.5188 4.81473C78.4195 4.7918 78.3431 4.77652 78.2897 4.77652C78.1599 4.77652 78.137 4.86059 78.1141 5.10514C78.1064 5.19685 78.1064 5.28856 78.1064 5.37263C78.0453 8.40667 77.9766 11.4331 77.9155 14.4671C77.8315 18.5635 77.7399 22.6598 77.6635 26.7561C77.6406 28.0019 77.6635 29.2399 77.6635 30.4856C77.6711 30.4933 77.6864 30.5009 77.7017 30.5086ZM78.4577 17.6846C78.4806 16.6146 78.5035 15.5523 78.5264 14.4824C78.5875 11.6929 78.641 8.89579 78.7021 6.1063L78.7173 5.48727C79.8476 5.75475 81.0083 6.02988 82.2531 6.33557C81.9781 7.63479 81.6956 8.94928 81.4283 10.2179C81.2909 10.8599 81.1534 11.5095 81.0159 12.1515L79.8399 17.6693C79.3359 20.0461 78.8243 22.4229 78.3202 24.792C78.3584 22.4076 78.4042 20.0155 78.4577 17.6846Z" fill="white"/>
<path d="M48.5531 23.0801C48.5455 23.0725 48.5378 23.0725 48.5302 23.0725C48.5149 23.0725 48.5149 23.0954 48.5149 23.0954C48.5149 23.0954 48.5073 23.0878 48.4996 23.0725C48.3469 23.1948 48.3087 23.3782 48.2324 23.5387C47.0869 26.0072 45.9567 28.491 44.8036 30.9518C44.6279 31.3339 44.6203 31.6244 44.8036 32.0065C46.896 36.3627 48.9655 40.7265 51.0502 45.0903C51.2335 45.4801 51.4244 45.8622 51.6153 46.2443C51.6535 46.229 51.6917 46.2214 51.7299 46.2061C50.6837 38.5025 49.6375 30.8066 48.5913 23.103C48.5836 23.0954 48.5684 23.0878 48.5531 23.0801ZM50.1262 41.7353C48.5684 38.4567 46.9494 35.0711 45.3534 31.739C45.2541 31.525 45.2541 31.4257 45.3534 31.204C46.1323 29.5533 46.9036 27.8643 47.6596 26.2288C47.8505 25.8161 48.0414 25.4034 48.2247 24.9907C49.0342 30.9365 49.8437 36.8823 50.6455 42.8282C50.4775 42.4766 50.3019 42.1021 50.1262 41.7353Z" fill="white"/>
<path d="M61.8023 22.5681C61.8787 22.6216 61.9474 22.698 62.0543 22.698C62.0848 22.698 62.123 22.6903 62.1688 22.6751C62.9554 16.4006 63.742 10.1109 64.5362 3.73712C64.2994 3.9129 64.2384 4.1116 64.1467 4.27973C63.2685 5.91521 62.3979 7.55834 61.5197 9.19382C59.8932 12.2508 58.2589 15.3078 56.6324 18.3571C56.4185 18.7545 56.4185 18.7621 56.7622 19.0067C58.4422 20.1989 60.1223 21.3835 61.8023 22.5681ZM61.2525 11.0127L62.0696 9.48423L62.4972 8.68177C62.8485 8.02452 63.1998 7.35963 63.5587 6.69474L62.5736 14.5894L61.6801 21.735C59.9619 20.5199 58.5339 19.5111 57.228 18.5787C58.5644 16.0567 59.9084 13.5347 61.2525 11.0127Z" fill="white"/>
<path d="M23.6273 19.0449C23.467 18.915 23.3829 18.8462 23.3142 18.8462C23.2302 18.8462 23.1768 18.9532 23.0622 19.1825C23.0469 19.2131 23.0317 19.2436 23.0164 19.2818C21.6113 22.186 20.2062 25.0977 18.8087 28.0018C18.7094 28.2006 18.4956 28.4222 18.6559 28.6438C18.7399 28.7661 18.8392 28.8043 18.9461 28.8043C19.0989 28.8043 19.2592 28.7279 19.4043 28.6897C23.383 27.7344 27.3539 26.7714 31.3326 25.8085C31.4853 25.7703 31.6533 25.7703 31.7679 25.6327C31.7297 25.4493 31.5693 25.3805 31.4395 25.2964C29.3624 23.8902 27.4685 22.2395 25.5441 20.6345C24.9026 20.1072 24.2688 19.5723 23.6273 19.0449ZM30.4849 25.3805L29.5456 25.6098C26.239 26.4122 22.8255 27.2376 19.4654 28.0477C20.5651 25.7626 21.6876 23.4393 22.772 21.1924L23.4822 19.7175C23.9022 20.069 24.3299 20.4206 24.7423 20.7645L25.147 21.1084C25.4448 21.3606 25.7426 21.6051 26.0405 21.8573C27.4685 23.0496 28.9271 24.28 30.4849 25.3805Z" fill="white"/>
<path d="M71.0655 17.5929C70.9738 18.8844 70.8822 20.1836 70.7982 21.4752C70.7524 22.2089 70.7218 22.9502 70.6454 23.6839C70.5767 24.3793 70.5309 25.0824 70.5538 25.7932C70.8211 25.3346 70.928 24.8302 71.0807 24.3335C71.6764 22.4 72.272 20.4741 72.86 18.5405C73.5397 16.2937 74.2193 14.0468 74.899 11.8075C75.6015 9.51481 76.3041 7.22208 77.0067 4.92171C77.1517 4.45552 77.0907 4.34853 76.6019 4.24918C75.2579 3.97405 73.9139 3.70656 72.5698 3.44672C72.4477 3.42379 72.3484 3.40851 72.2797 3.40851C72.0887 3.40851 72.0506 3.5155 72.02 3.84413C71.9055 5.20448 71.7986 6.57248 71.7069 7.94047C71.6153 9.23204 71.5771 10.5313 71.4626 11.8228C71.4091 12.4342 71.4244 13.0456 71.348 13.657C71.1953 14.9639 71.1571 16.2784 71.0655 17.5929ZM71.5771 19.0679C71.6076 18.5864 71.6458 18.1125 71.6764 17.6311C71.7069 17.226 71.7298 16.821 71.7527 16.4312C71.8062 15.5447 71.852 14.62 71.9589 13.7258C71.9971 13.3666 72.0124 13.015 72.0277 12.6788C72.0353 12.4037 72.0506 12.1362 72.0735 11.8763C72.1498 11.0662 72.188 10.2485 72.2338 9.46132C72.2568 8.9722 72.2873 8.47544 72.3178 7.98633C72.4095 6.5954 72.5088 5.31912 72.6157 4.08868C73.975 4.35617 75.2197 4.60073 76.3957 4.83764C76.0826 5.86173 75.7695 6.88582 75.4564 7.90226C75.0823 9.12505 74.6928 10.386 74.3186 11.6318C73.9673 12.7858 73.6084 13.9627 73.2648 15.1014C72.944 16.1714 72.608 17.2795 72.2797 18.3648C72.0047 19.2666 71.7222 20.1836 71.4396 21.1237C71.4778 20.4282 71.5236 19.7404 71.5771 19.0679Z" fill="white"/>
<path d="M63.8946 13.6188C63.6502 15.5294 63.3906 17.4477 63.1691 19.3583C63.1233 19.771 62.9782 20.1913 63.0775 20.6651C63.2531 20.5276 63.2989 20.3747 63.3677 20.2295C64.4826 17.7457 65.5975 15.2619 66.7125 12.7705C68.0794 9.72117 69.4387 6.67949 70.798 3.63016C71.0042 3.16397 70.9889 3.11812 70.5002 3.02641C69.0874 2.74364 67.6747 2.44558 66.2543 2.20103C65.9106 2.13989 65.6968 2.07111 65.5593 2.07111C65.3302 2.07111 65.3073 2.25452 65.2081 2.98055C64.9561 4.89116 64.7499 6.80941 64.5131 8.72766C64.3222 10.3708 64.1008 11.991 63.8946 13.6188ZM65.1241 8.81173C65.2157 8.04748 65.3073 7.2756 65.399 6.519C65.5288 5.38792 65.6663 4.21863 65.819 3.06462C65.8343 2.95763 65.8495 2.85063 65.8648 2.75128C65.9488 2.76657 66.0481 2.78949 66.155 2.80478C67.2165 2.9882 68.2932 3.20219 69.3394 3.41617C69.6143 3.46967 69.8816 3.52317 70.1565 3.57666C69.6983 4.59311 69.2478 5.61719 68.7896 6.63364C67.9114 8.59774 67.0332 10.5542 66.155 12.5183C65.4372 14.1232 64.7193 15.7205 64.0473 17.2184C64.1313 16.5306 64.2229 15.8428 64.307 15.1702C64.368 14.6735 64.4368 14.1767 64.4979 13.6876C64.5666 13.1679 64.6353 12.6482 64.6964 12.1285C64.8415 11.051 64.9866 9.91988 65.1241 8.81173Z" fill="white"/>
<path d="M28.2321 77.7464C28.1252 77.7464 27.9954 77.7693 27.8197 77.7999C26.9644 77.9604 26.1168 78.1132 25.2615 78.2661C22.7414 78.7246 20.2214 79.1755 17.7013 79.6341C17.5333 79.6647 17.2813 79.6188 17.2431 79.8328C17.205 80.0391 17.457 80.0926 17.6021 80.1843C19.3279 81.3078 21.0461 82.4312 22.772 83.5623C24.3146 84.5711 25.8495 85.5875 27.3997 86.5811C27.5754 86.6881 27.751 86.9326 27.9496 86.9326C27.9954 86.9326 28.0412 86.9173 28.087 86.8944C28.3467 86.7415 28.2779 86.3671 28.2627 86.0843C28.2168 84.7622 28.4307 83.4553 28.3848 82.1332C28.3848 82.0797 28.3848 82.0262 28.3925 81.9727C28.5987 80.811 28.3543 79.6264 28.5834 78.6024C28.5987 77.9451 28.5605 77.7464 28.2321 77.7464ZM27.9725 78.5412C27.8503 79.1144 27.8579 79.7105 27.8656 80.2837C27.8732 80.811 27.8808 81.3536 27.7892 81.8657C27.7739 81.9574 27.7663 82.0567 27.7663 82.1561C27.7892 82.7904 27.751 83.4171 27.7052 84.082C27.667 84.7163 27.6212 85.3659 27.6441 86.0232C26.5826 85.343 25.5211 84.6399 24.4826 83.9597C24.0244 83.654 23.5586 83.3559 23.1004 83.0502C22.1382 82.4236 21.176 81.7969 20.2138 81.1626C19.6639 80.8034 19.1217 80.4518 18.5719 80.0926C20.2672 79.7869 21.9778 79.4736 23.6426 79.1755L25.3684 78.8622L25.6051 78.8163C26.3688 78.6788 27.1554 78.5336 27.9266 78.396C27.9343 78.396 27.9496 78.3884 27.9725 78.3884C27.9725 78.4342 27.9725 78.4801 27.9725 78.5412Z" fill="white"/>
<path d="M33.9214 39.5496C34.013 40.7189 34.1276 41.8805 34.2269 43.0498C34.2574 43.3784 34.2803 43.5083 34.433 43.5083C34.5094 43.5083 34.6163 43.4778 34.7767 43.4166C36.3498 42.8435 37.9229 42.2626 39.4961 41.6818C40.1834 41.4296 40.1834 41.4143 39.8626 40.78C37.6862 36.4238 35.5098 32.06 33.3334 27.7038C33.257 27.5433 33.2112 27.3675 32.9897 27.2682C33.0585 27.6656 33.0127 28.063 33.0432 28.4528C33.1807 30.0653 33.3258 31.6855 33.4556 33.2981C33.5778 34.8418 33.6694 36.3856 33.8069 37.9294C33.8603 38.472 33.8756 39.0146 33.9214 39.5496ZM33.7916 29.9889C35.6778 33.7643 37.5488 37.509 39.3204 41.0551C39.3281 41.0628 39.3281 41.0781 39.3357 41.0933C39.3204 41.101 39.2975 41.1086 39.2822 41.1163C37.8389 41.6512 36.4491 42.1633 34.8072 42.7594C34.7691 42.3085 34.7309 41.8576 34.6927 41.4143C34.6392 40.7876 34.5781 40.138 34.5323 39.5037C34.5171 39.2744 34.5018 39.0375 34.4865 38.8083C34.4712 38.5026 34.4483 38.1892 34.4178 37.8759C34.3338 36.9511 34.265 36.0035 34.204 35.094C34.1581 34.4903 34.12 33.8636 34.0665 33.2522C33.9825 32.1899 33.8909 31.1123 33.7992 30.0653C33.7916 30.0424 33.7916 30.0118 33.7916 29.9889Z" fill="white"/>
<path d="M0.34352 85.4347C1.15299 84.2654 1.95483 83.0885 2.7643 81.9115C3.78759 80.4289 4.81853 78.9463 5.84182 77.4636C7.24694 75.4308 8.65206 73.3979 10.0648 71.3726C10.2099 71.1586 10.2328 70.9982 10.0114 70.8147C9.49208 70.402 8.98043 69.9664 8.46115 69.5461C8.31606 69.4238 8.23205 69.3627 8.14805 69.3627C8.06405 69.3627 7.98769 69.4391 7.84259 69.5919C7.52186 69.9359 7.2164 70.2951 6.91093 70.6466C6.00219 71.6936 5.09344 72.7406 4.17706 73.7876C3.30649 74.7735 2.43593 75.7594 1.56536 76.7453C1.405 76.9287 1.321 77.135 1.29045 77.3796C1.20645 77.9528 1.11481 78.5183 1.02317 79.0915C0.687163 81.1549 0.358793 83.2184 0.0227854 85.2895C-0.000124161 85.4194 -0.0612164 85.5723 0.0686046 85.6869C0.236608 85.6716 0.274791 85.5341 0.34352 85.4347ZM1.23699 81.6593C1.36681 80.834 1.50427 80.0162 1.63409 79.1908C1.72573 78.6177 1.81737 78.0521 1.90137 77.4713C1.92428 77.2955 1.97774 77.2114 2.03119 77.1579L2.32902 76.8293C3.09267 75.9734 3.87923 75.0869 4.65052 74.208C5.23853 73.5431 5.82655 72.8553 6.39929 72.198C6.72766 71.8235 7.05603 71.4414 7.3844 71.0669C7.45313 70.9905 7.51422 70.9141 7.58295 70.8377C7.78914 70.6007 7.99532 70.3638 8.20914 70.1346C8.40769 70.2951 8.60625 70.4632 8.80479 70.6237C9.02625 70.8071 9.24771 70.9905 9.47681 71.1739C8.40006 72.7177 7.31567 74.292 6.26183 75.8129L5.34545 77.1197C5.04762 77.5477 4.7498 77.9757 4.45197 78.4037C3.73414 79.443 2.9934 80.513 2.26029 81.5676C1.87846 82.1179 1.50427 82.6681 1.12245 83.2184C1.06135 83.3101 1.00026 83.3942 0.939169 83.4859C1.03844 82.8745 1.13772 82.2631 1.23699 81.6593Z" fill="white"/>
<path d="M45.88 19.641C45.3608 19.1137 44.7728 18.6399 44.3298 18.0514C43.4898 16.9509 42.3825 16.2478 41.1683 15.6593C41.0843 15.6211 41.0079 15.5982 40.9392 15.5982C40.8476 15.5982 40.7636 15.6288 40.6796 15.6976C40.3665 15.9345 40.0381 16.1637 39.7097 16.393C36.762 18.4488 33.8143 20.497 30.8743 22.5528C30.691 22.6827 30.4848 22.7974 30.355 22.9884C30.4084 23.0419 30.4619 23.0649 30.5153 23.0649C30.5764 23.0649 30.6299 23.0419 30.6834 23.0343C32.3176 22.7439 33.9518 22.4535 35.586 22.163C38.3046 21.6739 41.0156 21.1925 43.7342 20.7033C44.4978 20.5658 45.2615 20.4282 46.0251 20.2754C46.3001 20.2219 46.323 20.1302 46.155 19.9162C46.0633 19.8168 45.9717 19.7328 45.88 19.641ZM43.6196 20.092C41.1607 20.5352 38.6559 20.9785 36.2427 21.4141L35.4715 21.5517C34.5093 21.7274 33.5623 21.8956 32.6383 22.0561C33.9823 21.116 35.3264 20.1837 36.6704 19.2436C37.8006 18.4565 38.9308 17.6693 40.0534 16.8821C40.3512 16.6758 40.6643 16.4618 40.9621 16.2325C42.3214 16.9051 43.1844 17.5547 43.8335 18.4106C44.1695 18.8539 44.5666 19.2284 44.9484 19.5876C45.0248 19.6563 45.0935 19.7251 45.1699 19.7939C44.6277 19.9162 44.0931 20.0079 43.6196 20.092Z" fill="white"/>
<path d="M33.6617 43.4854C33.2264 37.9752 32.7911 32.4574 32.3482 26.8937C32.1649 27.0083 32.1649 27.123 32.1344 27.23C31.7907 28.3152 31.4547 29.4004 31.1111 30.4856C30.0801 33.7948 29.0416 37.0963 28.0106 40.4055C27.8503 40.9176 27.8503 40.9176 28.3085 41.1315C29.9274 41.8805 31.5463 42.6295 33.1729 43.3784C33.2798 43.4319 33.3867 43.516 33.5318 43.516C33.57 43.5083 33.6158 43.5007 33.6617 43.4854ZM28.591 40.5813C29.6219 37.2721 30.6605 33.9706 31.6914 30.6614C31.7831 30.3557 31.8747 30.073 31.9664 29.7902L32.4169 35.4456L32.982 42.6065C31.4776 41.9187 29.9885 41.2309 28.591 40.5813Z" fill="white"/>
<path d="M22.5812 38.7012C23.994 39.2974 25.4067 39.8858 26.8271 40.4666C26.9799 40.5278 27.0868 40.566 27.1631 40.566C27.3159 40.566 27.377 40.4437 27.4686 40.1304C28.8355 35.736 30.2101 31.3416 31.5771 26.9472C31.6229 26.802 31.7298 26.6568 31.6458 26.4886C31.6381 26.4886 31.6305 26.4886 31.6229 26.4886C31.4701 26.4886 31.4167 26.6109 31.348 26.7026C30.4239 27.8796 29.5076 29.0641 28.5835 30.2411C27.2471 31.9606 25.9107 33.6878 24.5667 35.415C23.8565 36.3245 23.1463 37.2339 22.4438 38.151C22.1994 38.4873 22.2147 38.5408 22.5812 38.7012ZM24.3987 36.6378C24.6202 36.355 24.8416 36.0722 25.0631 35.7895C25.5824 35.1246 26.1017 34.4521 26.6133 33.7872C27.4304 32.7325 28.2552 31.6702 29.0723 30.6156C29.477 30.0959 29.8817 29.5762 30.2788 29.0641C29.5152 31.5097 28.7515 33.9629 28.0032 36.355L26.9188 39.84C25.5442 39.2744 24.2078 38.7165 23.131 38.2656C23.5587 37.723 23.9863 37.1728 24.3987 36.6378Z" fill="white"/>
<path d="M49.9273 3.25567C51.6761 7.5125 53.4248 11.7693 55.1812 16.0262C55.2347 16.1561 55.25 16.3089 55.4333 16.4159C55.3416 15.6135 55.2652 14.8492 55.1736 14.085C55.0209 12.7781 54.8529 11.4713 54.7001 10.1644C54.5398 8.76586 54.387 7.3673 54.2267 5.96873C54.0205 4.21097 53.8143 2.46086 53.6081 0.703103C53.5547 0.229273 53.4859 0.168133 53.0201 0.106994C52.4092 0.0229273 51.7983 0 51.195 0C50.6299 0 50.0648 0.0152848 49.4997 0.0152848C49.3775 0.0152848 49.2477 0.0152848 49.1255 0.0152848C49.1102 0.0152848 49.0949 0.0152848 49.072 0.0152848C48.6826 0.0152848 48.652 0.106994 48.8047 0.496757C49.1713 1.42149 49.5531 2.33858 49.9273 3.25567ZM50.355 0.619036C50.6299 0.611394 50.9124 0.611394 51.195 0.611394C51.6761 0.611394 52.3023 0.619036 52.9285 0.710745C52.9514 0.710745 52.9743 0.718388 52.9896 0.718388C52.9896 0.733673 52.9972 0.7566 52.9972 0.771885C53.0965 1.65076 53.2034 2.55257 53.3103 3.41616C53.4096 4.27211 53.5165 5.15864 53.6158 6.03751C53.6921 6.69476 53.7685 7.35965 53.8372 8.00162C53.9212 8.72765 54.0052 9.48425 54.0892 10.2256C54.1732 10.9439 54.2649 11.67 54.3489 12.3807C54.3489 12.396 54.3489 12.4037 54.3565 12.4189C53.2187 9.66002 51.9739 6.63362 50.4924 3.0264C50.1717 2.24687 49.8357 1.43678 49.5149 0.634321C49.7975 0.626679 50.08 0.626679 50.355 0.619036Z" fill="white"/>
<path d="M48.469 2.17812C48.9501 5.22745 49.4388 8.27678 49.9199 11.3185C50.2636 13.4966 50.5996 15.667 50.9508 17.8451C51.0578 18.51 51.0654 18.51 51.7145 18.5253C52.776 18.5482 53.8451 18.5711 54.9066 18.6017C54.9982 18.6017 55.0822 18.6093 55.1509 18.6093C55.6015 18.6093 55.5786 18.5329 55.3495 17.9827C54.0207 14.7423 52.6843 11.5019 51.3556 8.26914C50.4163 5.98405 49.4694 3.69897 48.5224 1.41388C48.5148 1.41388 48.5072 1.41388 48.4995 1.41388C48.3239 1.41388 48.3544 1.52852 48.4003 1.64315C48.4232 1.82657 48.4384 2.00235 48.469 2.17812ZM50.7905 8.49841C52.0581 11.5783 53.3487 14.7117 54.5935 17.7381L54.6927 17.9827C53.7229 17.9597 52.7378 17.9368 51.7832 17.9139H51.7298H51.7221C51.6763 17.9139 51.6229 17.9139 51.577 17.9139C51.5694 17.8604 51.5618 17.7992 51.5541 17.7534C51.3556 16.5077 51.157 15.239 50.9661 14.0086C50.821 13.0839 50.6759 12.1591 50.5308 11.2268C50.2559 9.49957 49.981 7.78002 49.7137 6.05283C49.6985 5.94584 49.6832 5.84649 49.6679 5.73949C50.0345 6.66423 50.4163 7.58896 50.7905 8.49841Z" fill="white"/>
<path d="M19.5648 60.7726C21.4739 59.1982 23.3754 57.6239 25.2846 56.0572C27.9726 53.8485 30.676 51.6475 33.364 49.4465C33.5168 49.3242 33.7077 49.2096 33.7611 48.9803C33.723 48.9727 33.6924 48.965 33.6619 48.965C33.5626 48.965 33.4862 49.0032 33.4099 49.0262C30.7447 49.8057 28.0796 50.5929 25.4068 51.3495C24.8035 51.5176 24.3987 51.808 24.0856 52.3506C22.7187 54.7503 21.3136 57.1271 19.9314 59.5192C19.6565 59.9931 19.3357 60.4516 19.1143 60.9866C19.1219 60.9866 19.1295 60.9866 19.1372 60.9866C19.3434 60.9942 19.4503 60.8719 19.5648 60.7726ZM22.3369 56.6075C23.0853 55.3159 23.8642 53.9785 24.6202 52.664C24.8417 52.2818 25.1089 52.0755 25.5748 51.9456C27.4915 51.403 29.4389 50.8374 31.3175 50.2872C31.3556 50.2795 31.3862 50.2642 31.4244 50.2566C30.6913 50.8527 29.9658 51.4488 29.2479 52.0373C27.8199 53.1989 26.3537 54.4064 24.9028 55.591C23.7267 56.554 22.5431 57.5322 21.3899 58.4875C21.2983 58.5639 21.2067 58.6403 21.115 58.7168C21.5198 58.006 21.9321 57.2953 22.3369 56.6075Z" fill="white"/>
<path d="M23.8411 47.9639C23.7036 48.0785 23.6502 48.2314 23.5738 48.3766C19.6104 55.6063 15.6547 62.836 11.699 70.0734C11.1721 71.0364 11.1721 71.0363 12.1419 71.579C12.1572 71.5866 12.1724 71.5866 12.1954 71.5866C12.3557 71.4873 12.4168 71.3115 12.5008 71.1586C14.2038 68.2239 15.9067 65.2969 17.6097 62.3622C19.6944 58.7703 21.7716 55.186 23.864 51.6017C24.0091 51.3571 24.0702 51.1125 24.0549 50.8298C24.0091 49.9815 23.9785 49.1332 23.9327 48.2848C23.9327 48.1779 23.9938 48.0326 23.8411 47.9639ZM23.3371 51.2807C21.5272 54.3835 19.6944 57.5398 17.9228 60.5968L17.0827 62.0412L15.6012 64.5938C14.4329 66.6114 13.2186 68.6978 12.0273 70.7459C12.0808 70.6313 12.1572 70.4937 12.2335 70.3638V70.3562L16.3267 62.8742C18.6864 58.5639 21.0461 54.2536 23.4058 49.9433C23.4211 50.2413 23.4363 50.547 23.4516 50.8451C23.4592 51.0132 23.4287 51.1355 23.3371 51.2807Z" fill="white"/>
<path d="M33.1197 44.0051C31.7757 43.3861 30.4393 42.7594 29.0953 42.148C28.9425 42.0792 28.8509 42.0334 28.7745 42.0334C28.6676 42.0334 28.5912 42.1174 28.4232 42.3238C27.7894 43.088 27.1479 43.8446 26.5217 44.6165C26.2545 44.9451 26.2545 44.9528 26.5065 45.2967C27.2549 46.3131 28.0032 47.3372 28.7516 48.3536C28.8738 48.5218 28.9349 48.5982 29.0036 48.5982C29.0647 48.5982 29.1334 48.5294 29.2633 48.3995C30.1338 47.5053 30.9967 46.6112 31.8597 45.717C32.3484 45.2126 32.8371 44.7082 33.3182 44.2114C33.2571 44.0586 33.1884 44.0357 33.1197 44.0051Z" fill="white"/>
<path d="M28.003 87.7045C27.8885 87.6204 27.7663 87.544 27.6441 87.4599C26.7812 86.902 25.9259 86.3365 25.0629 85.7786C22.7033 84.2425 20.3512 82.7064 17.9915 81.1702C17.8541 81.0097 17.6784 80.9027 17.4111 80.7957C17.5333 81.0632 17.6708 81.2008 17.8541 81.3078C19.5341 83.1496 21.1989 84.9914 22.8942 86.818C23.192 87.139 23.3524 87.4829 23.3982 87.9108C23.4745 88.6063 23.5967 89.2941 23.696 89.959C23.7495 89.9743 23.7876 89.9819 23.8258 89.9819C23.9022 89.9819 23.9556 89.959 24.0015 89.9284C25.2844 89.317 26.575 88.7056 27.8579 88.0943C27.8885 88.079 27.919 88.0637 27.9572 88.0484C28.1557 87.9567 28.2016 87.8421 28.003 87.7045ZM24.1924 89.1718C24.1236 88.7362 24.0549 88.2853 24.0015 87.8497C23.9404 87.2918 23.7266 86.8333 23.3371 86.4053C22.5582 85.5646 21.7716 84.701 20.9927 83.8527L24.7269 86.283C25.5059 86.7874 26.2848 87.2994 27.0637 87.8038C26.1091 88.2624 25.1469 88.7209 24.1924 89.1718Z" fill="white"/>
<path d="M27.6516 19.534C27.7203 19.534 27.7585 19.4958 27.7356 19.3965C27.728 19.3277 27.6287 18.6705 27.621 18.6322C27.0025 14.9333 26.3839 11.2267 25.7654 7.5278C25.7195 7.25267 25.5974 7.07689 25.3606 6.93169C24.4061 6.35086 23.4591 5.75475 22.5046 5.16629C22.4358 5.12043 22.3671 5.04401 22.2602 5.04401C22.222 5.04401 22.1762 5.05165 22.1304 5.08222C23.9555 9.89695 25.7806 14.7117 27.6058 19.534C27.621 19.534 27.6363 19.534 27.6516 19.534ZM26.1625 14.0009L23.2682 6.3585C23.2911 6.37379 23.314 6.38143 23.3293 6.39672C23.8868 6.74827 24.4672 7.10746 25.0399 7.45137C25.1315 7.50487 25.1468 7.53544 25.1621 7.6195C25.5286 9.84345 25.9105 12.0903 26.277 14.299L26.1625 14.0009Z" fill="white"/>
<path d="M7.52973 83.0426C6.84245 82.6528 6.16279 82.2402 5.47551 81.8428C5.39151 81.7969 5.31514 81.7281 5.20059 81.7281C5.17005 81.7281 5.13186 81.7358 5.08604 81.751C4.4293 84.3265 3.76492 86.9173 3.07764 89.6075C3.238 89.5616 3.29146 89.554 3.33728 89.5234C4.78058 88.6369 6.21625 87.7351 7.66719 86.8562C7.86574 86.7339 7.9192 86.5887 7.9192 86.3671C7.89629 85.4653 7.88101 84.5635 7.88865 83.6616C7.88101 83.3636 7.78174 83.1878 7.52973 83.0426ZM4.45221 88.1172C4.30712 88.2089 4.16966 88.293 4.02457 88.3847L4.81113 85.3048L5.50605 82.5764C5.62824 82.6529 5.75806 82.7216 5.88024 82.7981C6.31553 83.0579 6.77372 83.3254 7.22427 83.5852C7.23954 83.5929 7.25482 83.6005 7.26245 83.6082C7.26245 83.6158 7.26245 83.6311 7.26245 83.6616C7.26245 84.594 7.27773 85.5493 7.293 86.3671C6.35371 86.9403 5.38387 87.5364 4.45221 88.1172Z" fill="white"/>
<path d="M31.325 47.1156C30.7217 47.7346 30.1184 48.3613 29.5151 48.9803C29.2555 49.2478 29.1257 49.3625 28.95 49.3625C28.8278 49.3625 28.6751 49.309 28.4384 49.202C27.2929 48.7128 26.1474 48.2237 25.0019 47.7423C24.9026 47.6964 24.8034 47.62 24.6736 47.62C24.6277 47.62 24.5743 47.6276 24.5132 47.6582C24.559 48.7205 24.6048 49.7981 24.6583 50.9674C27.9954 49.9891 31.2333 49.0491 34.4789 48.1015C34.4254 47.9027 34.2956 47.8875 34.204 47.8492C33.4938 47.5436 32.7759 47.2379 32.0657 46.9398C31.8977 46.871 31.7984 46.8252 31.7144 46.8252C31.5923 46.8328 31.5159 46.9169 31.325 47.1156ZM25.231 50.1573L25.1776 49.0033L25.1547 48.4683C25.7961 48.7358 26.4376 49.0185 27.0638 49.286C27.2242 49.3548 27.3769 49.4236 27.5373 49.4847L25.231 50.1573ZM31.7984 47.4977C31.8061 47.4977 31.8137 47.5053 31.8214 47.5053C32.1956 47.6658 32.5316 47.8034 32.8447 47.9333L30.7904 48.5371C31.1112 48.2084 31.4395 47.8722 31.7603 47.5359C31.7755 47.5283 31.7832 47.513 31.7984 47.4977Z" fill="white"/>
<path d="M23.971 43.9439C24.0702 44.7999 24.1695 45.6635 24.2611 46.5194C24.2764 46.6952 24.3451 46.8175 24.5208 46.8863C25.6281 47.3525 26.7354 47.8339 27.8427 48.3078C27.8732 48.2848 27.8961 48.2543 27.9267 48.2313C27.8351 48.1014 27.7511 47.9639 27.6594 47.8416C27.0638 47.0315 26.4605 46.2214 25.8648 45.4036C25.5288 44.9451 25.5288 44.8992 25.8877 44.4713C26.3917 43.8599 26.9034 43.2561 27.415 42.6447C27.6136 42.4078 27.8045 42.1709 28.0031 41.934C28.0642 41.8652 28.1176 41.7888 28.0794 41.6894C28.0183 41.5595 27.69 41.4525 27.4532 41.4525C27.3769 41.4525 27.3005 41.4678 27.2623 41.4984C26.2314 42.1862 25.2004 42.8893 24.1695 43.5771C24.0091 43.6688 23.948 43.7758 23.971 43.9439ZM25.6892 43.2791C25.9794 43.0803 26.2696 42.8816 26.5674 42.6829C26.5063 42.7517 26.4528 42.8205 26.3917 42.8969C26.0634 43.2867 25.7274 43.6841 25.399 44.0815C25.2004 44.3184 24.9943 44.563 24.9866 44.9145C24.979 45.2584 25.1699 45.5183 25.3532 45.7628C25.6434 46.1602 25.9412 46.5653 26.2314 46.9551C25.7732 46.7564 25.3074 46.5577 24.8492 46.3666C24.7728 45.6406 24.6812 44.8687 24.5819 44.0127C24.9561 43.7682 25.3226 43.5236 25.6892 43.2791Z" fill="white"/>
</g>
<path d="M125 7.736H119.096V6.2H132.68V7.736H126.776V23H125V7.736ZM141.589 10.28C143.173 10.28 144.429 10.744 145.357 11.672C146.301 12.584 146.773 13.92 146.773 15.68V23H145.069V15.848C145.069 14.536 144.741 13.536 144.085 12.848C143.429 12.16 142.493 11.816 141.277 11.816C139.917 11.816 138.837 12.224 138.037 13.04C137.253 13.84 136.861 14.952 136.861 16.376V23H135.157V5.192H136.861V12.584C137.325 11.848 137.965 11.28 138.781 10.88C139.597 10.48 140.533 10.28 141.589 10.28ZM162.438 17.216H151.878C151.974 18.528 152.478 19.592 153.39 20.408C154.302 21.208 155.454 21.608 156.846 21.608C157.63 21.608 158.35 21.472 159.006 21.2C159.662 20.912 160.23 20.496 160.71 19.952L161.67 21.056C161.11 21.728 160.406 22.24 159.558 22.592C158.726 22.944 157.806 23.12 156.798 23.12C155.502 23.12 154.35 22.848 153.342 22.304C152.35 21.744 151.574 20.976 151.014 20C150.454 19.024 150.174 17.92 150.174 16.688C150.174 15.456 150.438 14.352 150.966 13.376C151.51 12.4 152.246 11.64 153.174 11.096C154.118 10.552 155.174 10.28 156.342 10.28C157.51 10.28 158.558 10.552 159.486 11.096C160.414 11.64 161.142 12.4 161.67 13.376C162.198 14.336 162.462 15.44 162.462 16.688L162.438 17.216ZM156.342 11.744C155.126 11.744 154.102 12.136 153.27 12.92C152.454 13.688 151.99 14.696 151.878 15.944H160.83C160.718 14.696 160.246 13.688 159.414 12.92C158.598 12.136 157.574 11.744 156.342 11.744ZM172.572 6.2H179.412C181.188 6.2 182.756 6.56 184.116 7.28C185.476 7.984 186.532 8.976 187.284 10.256C188.036 11.52 188.412 12.968 188.412 14.6C188.412 16.232 188.036 17.688 187.284 18.968C186.532 20.232 185.476 21.224 184.116 21.944C182.756 22.648 181.188 23 179.412 23H172.572V6.2ZM179.316 21.464C180.788 21.464 182.076 21.176 183.18 20.6C184.284 20.008 185.14 19.2 185.748 18.176C186.356 17.136 186.66 15.944 186.66 14.6C186.66 13.256 186.356 12.072 185.748 11.048C185.14 10.008 184.284 9.2 183.18 8.624C182.076 8.032 180.788 7.736 179.316 7.736H174.348V21.464H179.316ZM203.032 17.216H192.472C192.568 18.528 193.072 19.592 193.984 20.408C194.896 21.208 196.048 21.608 197.44 21.608C198.224 21.608 198.944 21.472 199.6 21.2C200.256 20.912 200.824 20.496 201.304 19.952L202.264 21.056C201.704 21.728 201 22.24 200.152 22.592C199.32 22.944 198.4 23.12 197.392 23.12C196.096 23.12 194.944 22.848 193.936 22.304C192.944 21.744 192.168 20.976 191.608 20C191.048 19.024 190.768 17.92 190.768 16.688C190.768 15.456 191.032 14.352 191.56 13.376C192.104 12.4 192.84 11.64 193.768 11.096C194.712 10.552 195.768 10.28 196.936 10.28C198.104 10.28 199.152 10.552 200.08 11.096C201.008 11.64 201.736 12.4 202.264 13.376C202.792 14.336 203.056 15.44 203.056 16.688L203.032 17.216ZM196.936 11.744C195.72 11.744 194.696 12.136 193.864 12.92C193.048 13.688 192.584 14.696 192.472 15.944H201.424C201.312 14.696 200.84 13.688 200.008 12.92C199.192 12.136 198.168 11.744 196.936 11.744ZM209.908 23.12C208.884 23.12 207.9 22.976 206.956 22.688C206.028 22.384 205.3 22.008 204.772 21.56L205.54 20.216C206.068 20.632 206.732 20.976 207.532 21.248C208.332 21.504 209.164 21.632 210.028 21.632C211.18 21.632 212.028 21.456 212.572 21.104C213.132 20.736 213.412 20.224 213.412 19.568C213.412 19.104 213.26 18.744 212.956 18.488C212.652 18.216 212.268 18.016 211.804 17.888C211.34 17.744 210.724 17.608 209.956 17.48C208.932 17.288 208.108 17.096 207.484 16.904C206.86 16.696 206.324 16.352 205.876 15.872C205.444 15.392 205.228 14.728 205.228 13.88C205.228 12.824 205.668 11.96 206.548 11.288C207.428 10.616 208.652 10.28 210.22 10.28C211.036 10.28 211.852 10.392 212.668 10.616C213.484 10.824 214.156 11.104 214.684 11.456L213.94 12.824C212.9 12.104 211.66 11.744 210.22 11.744C209.132 11.744 208.308 11.936 207.748 12.32C207.204 12.704 206.932 13.208 206.932 13.832C206.932 14.312 207.084 14.696 207.388 14.984C207.708 15.272 208.1 15.488 208.564 15.632C209.028 15.76 209.668 15.896 210.484 16.04C211.492 16.232 212.3 16.424 212.908 16.616C213.516 16.808 214.036 17.136 214.468 17.6C214.9 18.064 215.116 18.704 215.116 19.52C215.116 20.624 214.652 21.504 213.724 22.16C212.812 22.8 211.54 23.12 209.908 23.12ZM229.259 17.216H218.699C218.795 18.528 219.299 19.592 220.211 20.408C221.123 21.208 222.275 21.608 223.667 21.608C224.451 21.608 225.171 21.472 225.827 21.2C226.483 20.912 227.051 20.496 227.531 19.952L228.491 21.056C227.931 21.728 227.227 22.24 226.379 22.592C225.547 22.944 224.627 23.12 223.619 23.12C222.323 23.12 221.171 22.848 220.163 22.304C219.171 21.744 218.395 20.976 217.835 20C217.275 19.024 216.995 17.92 216.995 16.688C216.995 15.456 217.259 14.352 217.787 13.376C218.331 12.4 219.067 11.64 219.995 11.096C220.939 10.552 221.995 10.28 223.163 10.28C224.331 10.28 225.379 10.552 226.307 11.096C227.235 11.64 227.963 12.4 228.491 13.376C229.019 14.336 229.283 15.44 229.283 16.688L229.259 17.216ZM223.163 11.744C221.947 11.744 220.923 12.136 220.091 12.92C219.275 13.688 218.811 14.696 218.699 15.944H227.651C227.539 14.696 227.067 13.688 226.235 12.92C225.419 12.136 224.395 11.744 223.163 11.744ZM234.383 12.848C234.783 12 235.375 11.36 236.159 10.928C236.959 10.496 237.943 10.28 239.111 10.28V11.936L238.703 11.912C237.375 11.912 236.335 12.32 235.583 13.136C234.831 13.952 234.455 15.096 234.455 16.568V23H232.751V10.376H234.383V12.848ZM249.383 22.232C249.063 22.52 248.663 22.744 248.183 22.904C247.719 23.048 247.231 23.12 246.719 23.12C245.535 23.12 244.623 22.8 243.983 22.16C243.343 21.52 243.023 20.616 243.023 19.448V11.816H240.767V10.376H243.023V7.616H244.727V10.376H248.567V11.816H244.727V19.352C244.727 20.104 244.911 20.68 245.279 21.08C245.663 21.464 246.207 21.656 246.911 21.656C247.263 21.656 247.599 21.6 247.919 21.488C248.255 21.376 248.543 21.216 248.783 21.008L249.383 22.232ZM121.736 35.2H123.512V52H121.736V35.2ZM132.002 52.12C130.978 52.12 129.994 51.976 129.05 51.688C128.122 51.384 127.394 51.008 126.866 50.56L127.634 49.216C128.162 49.632 128.826 49.976 129.626 50.248C130.426 50.504 131.258 50.632 132.122 50.632C133.274 50.632 134.122 50.456 134.666 50.104C135.226 49.736 135.506 49.224 135.506 48.568C135.506 48.104 135.354 47.744 135.05 47.488C134.746 47.216 134.362 47.016 133.898 46.888C133.434 46.744 132.818 46.608 132.05 46.48C131.026 46.288 130.202 46.096 129.578 45.904C128.954 45.696 128.418 45.352 127.97 44.872C127.538 44.392 127.322 43.728 127.322 42.88C127.322 41.824 127.762 40.96 128.642 40.288C129.522 39.616 130.746 39.28 132.314 39.28C133.13 39.28 133.946 39.392 134.762 39.616C135.578 39.824 136.25 40.104 136.778 40.456L136.034 41.824C134.994 41.104 133.754 40.744 132.314 40.744C131.226 40.744 130.402 40.936 129.842 41.32C129.298 41.704 129.026 42.208 129.026 42.832C129.026 43.312 129.178 43.696 129.482 43.984C129.802 44.272 130.194 44.488 130.658 44.632C131.122 44.76 131.762 44.896 132.578 45.04C133.586 45.232 134.394 45.424 135.002 45.616C135.61 45.808 136.13 46.136 136.562 46.6C136.994 47.064 137.21 47.704 137.21 48.52C137.21 49.624 136.746 50.504 135.818 51.16C134.906 51.8 133.634 52.12 132.002 52.12ZM140.36 34.192H142.064V52H140.36V34.192ZM151.222 39.28C152.87 39.28 154.134 39.696 155.014 40.528C155.894 41.344 156.334 42.56 156.334 44.176V52H154.702V50.032C154.318 50.688 153.75 51.2 152.998 51.568C152.262 51.936 151.382 52.12 150.358 52.12C148.95 52.12 147.83 51.784 146.998 51.112C146.166 50.44 145.75 49.552 145.75 48.448C145.75 47.376 146.134 46.512 146.902 45.856C147.686 45.2 148.926 44.872 150.622 44.872H154.63V44.104C154.63 43.016 154.326 42.192 153.718 41.632C153.11 41.056 152.222 40.768 151.054 40.768C150.254 40.768 149.486 40.904 148.75 41.176C148.014 41.432 147.382 41.792 146.854 42.256L146.086 40.984C146.726 40.44 147.494 40.024 148.39 39.736C149.286 39.432 150.23 39.28 151.222 39.28ZM150.622 50.776C151.582 50.776 152.406 50.56 153.094 50.128C153.782 49.68 154.294 49.04 154.63 48.208V46.144H150.67C148.51 46.144 147.43 46.896 147.43 48.4C147.43 49.136 147.71 49.72 148.27 50.152C148.83 50.568 149.614 50.776 150.622 50.776ZM167.394 39.28C168.978 39.28 170.234 39.744 171.162 40.672C172.106 41.584 172.578 42.92 172.578 44.68V52H170.874V44.848C170.874 43.536 170.546 42.536 169.89 41.848C169.234 41.16 168.298 40.816 167.082 40.816C165.722 40.816 164.642 41.224 163.842 42.04C163.058 42.84 162.666 43.952 162.666 45.376V52H160.962V39.376H162.594V41.704C163.058 40.936 163.698 40.344 164.514 39.928C165.346 39.496 166.306 39.28 167.394 39.28ZM188.771 34.192V52H187.139V49.504C186.627 50.352 185.947 51 185.099 51.448C184.267 51.896 183.323 52.12 182.267 52.12C181.083 52.12 180.011 51.848 179.051 51.304C178.091 50.76 177.339 50 176.795 49.024C176.251 48.048 175.979 46.936 175.979 45.688C175.979 44.44 176.251 43.328 176.795 42.352C177.339 41.376 178.091 40.624 179.051 40.096C180.011 39.552 181.083 39.28 182.267 39.28C183.291 39.28 184.211 39.496 185.027 39.928C185.859 40.344 186.539 40.96 187.067 41.776V34.192H188.771ZM182.411 50.608C183.291 50.608 184.083 50.408 184.787 50.008C185.507 49.592 186.067 49.008 186.467 48.256C186.883 47.504 187.091 46.648 187.091 45.688C187.091 44.728 186.883 43.872 186.467 43.12C186.067 42.368 185.507 41.792 184.787 41.392C184.083 40.976 183.291 40.768 182.411 40.768C181.515 40.768 180.707 40.976 179.987 41.392C179.283 41.792 178.723 42.368 178.307 43.12C177.907 43.872 177.707 44.728 177.707 45.688C177.707 46.648 177.907 47.504 178.307 48.256C178.723 49.008 179.283 49.592 179.987 50.008C180.707 50.408 181.515 50.608 182.411 50.608Z" fill="#F7FDFC"/>
<defs>
<clipPath id="clip0_59_188">
<rect width="99" height="99" fill="white"/>
</clipPath>
</defs>
</svg>
